<?xml version="1.0" standalone="no"?>
<!DOCTYPE svg PUBLIC "-//W3C//DTD SVG 1.1//EN" "http://www.w3.org/Graphics/SVG/1.1/DTD/svg11.dtd" >
<svg xmlns="http://www.w3.org/2000/svg" xmlns:xlink="http://www.w3.org/1999/xlink" version="1.1">
<metadata>
Created by FontForge 20170731 at Wed Jun 27 13:51:35 2018
 By Aleksey,,,
Copyright (c) 2018 Mazda Motor Corp.
</metadata>
<defs>
<font id="MazdaType-MediumItalic" horiz-adv-x="600" >
  <font-face 
    font-family="Mazda Type Medium"
    font-weight="500"
    font-style="italic"
    font-stretch="normal"
    units-per-em="1000"
    panose-1="1 0 0 0 0 0 0 0 0 0"
    ascent="800"
    descent="-200"
    x-height="477"
    cap-height="680"
    bbox="-262 -239 1077 939"
    underline-thickness="50"
    underline-position="-200"
    slope="-10"
    unicode-range="U+000D-FEFF"
  />
<missing-glyph horiz-adv-x="572" 
d="M50 0h472v680h-472v-680zM148 618h276l-138 -228zM116 109v462l140 -231zM316 340l140 231v-462zM148 62l138 228l138 -228h-276z" />
    <glyph glyph-name="f_f" unicode="ff" horiz-adv-x="579" 
d="M649 730q39 0 64 -12l-5 -61h-10q-21 15 -54 15q-55 0 -81 -42.5t-41 -139.5l-2 -13h96l-15 -52h-90l-77 -425h-96l77 425h-192l-76 -425h-96l76 425h-71l9 52h72l5 32q19 100 73.5 160.5t146.5 60.5q39 0 63 -12l-5 -61h-9q-21 15 -55 15q-54 0 -80 -42.5t-41 -139.5
l-2 -13h191l6 32q17 99 72.5 160t146.5 61z" />
    <glyph glyph-name="fi" unicode="fi" horiz-adv-x="539" 
d="M51 0l76 425h-71l9 52h72l5 31q19 101 70.5 161.5t134.5 60.5q36 0 59 -11l-7 -62h-10q-18 15 -44 15q-43 0 -68.5 -39t-41.5 -139l-2 -17h95l-14 -52h-91l-76 -425h-96zM434 603l18 98h102l-18 -98h-102zM332 0l85 477h94l-83 -477h-96z" />
    <glyph glyph-name="fl" unicode="fl" horiz-adv-x="539" 
d="M51 0l76 425h-71l9 52h72l5 31q19 101 71 161.5t134 60.5q36 0 59 -11l-7 -62h-10q-18 15 -44 15q-43 0 -68.5 -39t-41.5 -139l-2 -17h95l-14 -52h-91l-76 -425h-96zM332 0l125 708l98 12l-128 -720h-95z" />
    <glyph glyph-name="f_f_i" unicode="ffi" horiz-adv-x="826" 
d="M523 494l-3 -17h96l-15 -52h-90l-77 -425h-96l77 425h-192l-76 -425h-96l76 425h-71l9 52h72l5 32q19 100 73.5 160.5t146.5 60.5q39 0 63 -12l-5 -61h-9q-21 15 -55 15q-54 0 -80 -42.5t-41 -139.5l-2 -13h191l6 31q18 101 69.5 161.5t134.5 60.5q35 0 60 -11l-8 -62
h-10q-17 15 -43 15q-43 0 -68.5 -39t-41.5 -139zM739 701h102l-17 -98h-102zM620 0l84 477h95l-84 -477h-95z" />
    <glyph glyph-name="f_f_l" unicode="ffl" horiz-adv-x="826" 
d="M523 494l-3 -17h96l-15 -52h-90l-77 -425h-96l77 425h-192l-76 -425h-96l76 425h-71l9 52h72l5 32q19 100 73.5 160.5t146.5 60.5q39 0 63 -12l-5 -61h-9q-21 15 -55 15q-54 0 -80 -42.5t-41 -139.5l-2 -13h191l6 31q18 101 69.5 161.5t134.5 60.5q35 0 60 -11l-8 -62
h-10q-17 15 -43 15q-43 0 -68.5 -39t-41.5 -139zM744 708l99 12l-129 -720h-94z" />
    <glyph glyph-name=".notdef" horiz-adv-x="572" 
d="M50 0h472v680h-472v-680zM148 618h276l-138 -228zM116 109v462l140 -231zM316 340l140 231v-462zM148 62l138 228l138 -228h-276z" />
    <glyph glyph-name=".null" horiz-adv-x="0" 
 />
    <glyph glyph-name=".null" horiz-adv-x="0" 
 />
    <glyph glyph-name="nonmarkingreturn" horiz-adv-x="333" 
 />
    <glyph glyph-name="CR" unicode="&#xd;" horiz-adv-x="250" 
 />
    <glyph glyph-name="space" unicode=" " horiz-adv-x="250" 
 />
    <glyph glyph-name="exclam" unicode="!" horiz-adv-x="359" 
d="M324 680l-109 -456h-59l51 456h117zM223 119l-21 -119h-113l21 119h113z" />
    <glyph glyph-name="quotedbl" unicode="&#x22;" horiz-adv-x="461" 
d="M273 691l-75 -256h-52l17 256h110zM462 691l-74 -256h-52l16 256h110z" />
    <glyph glyph-name="numbersign" unicode="#" horiz-adv-x="500" 
d="M45 0l66 184h-82l34 69h71l73 197h-83l34 68h71l59 162h49l-59 -162h110l58 162h50l-58 -162h81l-34 -68h-71l-72 -197h82l-34 -69h-72l-64 -184h-50l66 184h-110l-66 -184h-49zM184 253h109l71 197h-109z" />
    <glyph glyph-name="dollar" unicode="$" horiz-adv-x="531" 
d="M375 675q73 -5 112 -29l-6 -72l-14 1q-35 41 -101 46l-40 -228q62 -46 94.5 -91t31.5 -101q0 -85 -54 -134.5t-140 -58.5l-19 -108h-52l19 107q-93 6 -161 59l-11 94h12q33 -42 78.5 -66.5t91.5 -27.5l46 258l-17 12q-57 40 -82 74.5t-25 84.5q1 77 54.5 124.5
t130.5 55.5l17 94h52zM231 520q-1 -48 49 -91l33 189q-35 -8 -58 -32t-24 -66zM357 184q0 55 -50 103l-38 -216q40 9 63.5 37.5t24.5 75.5z" />
    <glyph glyph-name="percent" unicode="%" horiz-adv-x="779" 
d="M646 704l41 -28l-512 -698l-40 28zM280 691q55 0 86 -35t31 -98q0 -86 -48.5 -152t-122.5 -66q-57 0 -89.5 35t-32.5 97q0 87 50 153t126 66zM277 652q-46 0 -73.5 -61t-27.5 -128q0 -83 53 -83q45 0 70.5 60t25.5 128q0 84 -48 84zM605 346q55 0 86 -35t31 -98
q0 -86 -48.5 -152t-123.5 -66q-56 0 -88.5 35t-32.5 97q0 87 50 153t126 66zM602 307q-46 0 -73.5 -61t-27.5 -128q0 -83 53 -83q45 0 70.5 60t25.5 128q0 84 -48 84z" />
    <glyph glyph-name="ampersand" unicode="&#x26;" horiz-adv-x="723" 
d="M549 0q-39 39 -78 85q-95 -97 -222 -97q-87 0 -146 42.5t-59 121.5q0 83 53.5 136t149.5 90q-47 62 -47 127q0 81 55 132t140 51q65 0 102 -33.5t37 -88.5q0 -62 -45 -104.5t-136 -81.5q66 -94 138 -177q13 20 30.5 71t25.5 94h72q-11 -44 -36.5 -103t-52.5 -99
q76 -88 162 -161l-1 -5h-142zM459 561q0 38 -18 60.5t-53 22.5q-44 0 -72 -36t-28 -84q0 -54 41 -109q128 54 130 146zM267 342q-120 -59 -120 -178q0 -53 33.5 -85t88.5 -32q100 0 169 74q-96 113 -171 221z" />
    <glyph glyph-name="quotesingle" unicode="'" horiz-adv-x="271" 
d="M273 691l-75 -256h-52l17 256h110z" />
    <glyph glyph-name="parenleft" unicode="(" horiz-adv-x="345" 
d="M137 127q0 -193 68 -289h-58q-42 49 -69.5 132t-27.5 182q0 158 69.5 319t184.5 249h58q-87 -76 -156 -242t-69 -351z" />
    <glyph glyph-name="parenright" unicode=")" horiz-adv-x="345" 
d="M223 431q0 193 -68 289h58q42 -49 69.5 -132t27.5 -182q0 -158 -69.5 -319t-184.5 -249h-59q87 77 156.5 242.5t69.5 350.5z" />
    <glyph glyph-name="asterisk" unicode="*" horiz-adv-x="364" 
d="M357 721l26 -47l-87 -41l87 -43l-26 -47l-81 56l9 -100h-58l10 101l-83 -57l-25 47l87 43l-87 41l26 46l81 -56l-9 101h58l-10 -101z" />
    <glyph glyph-name="plus" unicode="+" 
d="M338 503v-218h210v-66h-210v-219h-67v219h-210v66h210v218h67z" />
    <glyph glyph-name="comma" unicode="," horiz-adv-x="298" 
d="M202 124q-13 -40 -59 -127.5t-81 -138.5h-58q28 58 55 138.5t38 127.5h105z" />
    <glyph glyph-name="hyphen" unicode="-" horiz-adv-x="385" 
d="M68 299h280l-11 -59h-281z" />
    <glyph glyph-name="period" unicode="." horiz-adv-x="298" 
d="M74 121h115l-22 -121h-114z" />
    <glyph glyph-name="slash" unicode="/" horiz-adv-x="603" 
d="M34 -192l-3 5l489 908l6 3h51l3 -5l-490 -908l-5 -3h-51z" />
    <glyph glyph-name="zero" unicode="0" horiz-adv-x="580" 
d="M379 692q94 0 142.5 -65.5t48.5 -184.5q0 -83 -21 -163t-59 -145.5t-98.5 -106t-133.5 -40.5q-95 0 -145.5 64.5t-50.5 180.5q0 111 37 214.5t111.5 174.5t168.5 71zM371 632q-62 0 -111 -71.5t-71 -164.5t-22 -182q0 -166 98 -166q48 0 87.5 40.5t63 103.5t36 133
t12.5 135q0 172 -93 172z" />
    <glyph glyph-name="one" unicode="1" horiz-adv-x="580" 
d="M325 0h-98l103 590l-160 -67l10 64l211 93h55z" />
    <glyph glyph-name="two" unicode="2" horiz-adv-x="580" 
d="M14 0l7 37l132 111q68 58 112 99t90 91.5t68.5 97t23.5 88.5q0 45 -26 73.5t-72 28.5q-85 0 -164 -66h-10l22 77q85 55 172 55q89 0 138 -44.5t49 -115.5q0 -48 -21.5 -94t-69 -97t-91 -89t-121.5 -100l-77 -62l-1 -4h169q131 0 172 5h10l-55 -91h-457z" />
    <glyph glyph-name="three" unicode="3" horiz-adv-x="580" 
d="M389 221q0 119 -151 119h-31l17 59h19q83 0 129 37t47 104q1 42 -26 66.5t-76 24.5q-71 0 -134 -40h-10l21 66q71 35 149 35q80 0 128.5 -37t47.5 -106q-1 -122 -128 -171l-1 -5q46 -15 75.5 -52.5t28.5 -91.5q-2 -113 -81 -177t-200 -64q-112 0 -179 54l-1 83h10
q67 -68 168 -68q75 0 126 44.5t52 119.5z" />
    <glyph glyph-name="four" unicode="4" horiz-adv-x="580" 
d="M463 265h111l-25 -74h-99l-34 -191h-96l33 191h-327l6 40l423 449h82zM366 265l52 294h-7l-263 -289l-1 -5h219z" />
    <glyph glyph-name="five" unicode="5" horiz-adv-x="580" 
d="M416 235q1 55 -32 91.5t-93 36.5q-64 0 -118 -35l-45 9l110 343h323l-29 -87h-247l-62 -184q48 16 91 16q92 0 149 -46t56 -136q-1 -120 -81.5 -187.5t-205.5 -67.5q-50 0 -99.5 15t-80.5 41l2 82h10q65 -68 167 -68q80 0 132 48.5t53 128.5z" />
    <glyph glyph-name="six" unicode="6" horiz-adv-x="580" 
d="M212 364q58 55 142 55q83 0 133.5 -50t49.5 -133q-1 -109 -75.5 -178.5t-185.5 -69.5q-97 0 -155.5 55.5t-57.5 150.5q1 114 65 221.5t165.5 181t215.5 96.5l36 -39q-105 -24 -203 -109.5t-134 -180.5h4zM168 182q-1 -58 28.5 -98t84.5 -40q68 0 108.5 56t40.5 132
q1 55 -26.5 93.5t-78.5 38.5q-69 0 -112.5 -52t-44.5 -130z" />
    <glyph glyph-name="seven" unicode="7" horiz-adv-x="580" 
d="M79 0q89 137 399 593h-345l29 87h438l-6 -28q-278 -426 -415 -652h-100z" />
    <glyph glyph-name="eight" unicode="8" horiz-adv-x="580" 
d="M399 379v-3q62 -38 96.5 -80t33.5 -97q-1 -99 -78.5 -155t-187.5 -56q-90 0 -151 44t-60 122q1 135 188 209l1 3q-49 32 -71 65.5t-22 80.5q1 85 70.5 132.5t157.5 47.5q76 0 124 -38t47 -102q-1 -60 -38 -100.5t-110 -72.5zM468 543q2 43 -23.5 70.5t-72.5 27.5
q-50 0 -88 -29.5t-38 -85.5q-1 -37 23.5 -64.5t77.5 -56.5q61 26 90.5 58t30.5 80zM423 182q1 49 -33.5 83.5t-100.5 67.5q-74 -32 -111.5 -72.5t-38.5 -100.5q-1 -51 37 -84t93 -33q68 0 111 37.5t43 101.5z" />
    <glyph glyph-name="nine" unicode="9" horiz-adv-x="580" 
d="M427 335q-51 -55 -136 -55q-84 0 -137.5 44.5t-52.5 124.5q1 108 76.5 175.5t185.5 67.5q95 0 150.5 -56.5t55.5 -149.5q0 -115 -62.5 -222t-167 -180.5t-226.5 -97.5l-37 46q129 34 227 122t128 181h-4zM468 510q0 53 -29.5 89.5t-80.5 36.5q-67 0 -108 -53.5
t-42 -129.5q-1 -51 26.5 -83.5t75.5 -32.5q64 0 111 45.5t47 127.5z" />
    <glyph glyph-name="colon" unicode=":" horiz-adv-x="346" 
d="M275 477l-22 -119h-122l21 119h123zM212 118l-21 -118h-123l21 118h123z" />
    <glyph glyph-name="semicolon" unicode=";" horiz-adv-x="346" 
d="M275 477l-22 -120h-122l21 120h123zM207 124q-13 -41 -58 -128.5t-80 -137.5h-62q52 109 96 266h104z" />
    <glyph glyph-name="less" unicode="&#x3c;" 
d="M550 444l-411 -191l411 -191v-70l-492 227v69l492 226v-70z" />
    <glyph glyph-name="equal" unicode="=" 
d="M548 387v-66h-487v66h487zM548 186v-67h-487v67h487z" />
    <glyph glyph-name="greater" unicode="&#x3e;" 
d="M58 514l492 -226v-69l-492 -227v70l410 191l-410 191v70z" />
    <glyph glyph-name="question" unicode="?" horiz-adv-x="487" 
d="M178 224l4 22q12 70 102 135q50 37 76 71.5t26 85.5q0 40 -25.5 64t-69.5 24q-77 0 -146 -55h-11l22 75q73 45 154 45q87 0 135 -40.5t48 -106.5q0 -39 -11.5 -69.5t-37.5 -55t-48 -39t-64 -38.5q-37 -21 -57.5 -44.5t-27.5 -62.5l-2 -11h-67zM255 118l-21 -119h-113
l21 119h113z" />
    <glyph glyph-name="at" unicode="@" horiz-adv-x="891" 
d="M651 -30l-9 -51q-91 -39 -205 -39q-167 0 -265.5 87.5t-98.5 228.5q0 143 65 254t177 170.5t251 59.5q132 0 220 -75.5t88 -211.5q0 -140 -83 -236t-206 -96q-38 0 -58 16t-20 44q0 12 1 19q-24 -31 -59.5 -55t-73.5 -24q-50 0 -74 31t-24 78q0 80 34.5 156.5t98.5 128
t139 51.5q53 0 86 -28h65l-108 -292q-14 -34 -14 -54q0 -23 26 -23q90 0 150.5 85.5t60.5 196.5q0 113 -67.5 178t-182.5 65q-177 0 -295 -120.5t-118 -316.5q0 -123 76.5 -195t213.5 -72q125 0 209 40zM603 443q-14 19 -54 19q-48 0 -90.5 -48t-64.5 -112.5t-22 -121.5
q0 -64 40 -64q32 0 63.5 32.5t38.5 54.5z" />
    <glyph glyph-name="A" unicode="A" horiz-adv-x="639" 
d="M486 0l-49 253h-247l-148 -253h-80l412 676l76 6l145 -682h-109zM376 564h-5l-148 -253h203z" />
    <glyph glyph-name="B" unicode="B" horiz-adv-x="563" 
d="M177 680h167q86 0 138 -38t51 -109q0 -64 -42.5 -107t-114.5 -58l-1 -5q64 -10 102.5 -48.5t38.5 -101.5q-1 -106 -81.5 -159.5t-202.5 -53.5h-175zM224 389h50q81 0 120.5 37.5t40.5 95.5q1 53 -30 77.5t-91 24.5h-47zM226 57q189 0 189 151q0 63 -42.5 96.5
t-108.5 33.5h-48l-50 -281h60z" />
    <glyph glyph-name="C" unicode="C" horiz-adv-x="681" 
d="M665 558q-27 35 -77 54t-106 19q-126 -1 -211 -99t-85 -244q0 -107 62 -170t169 -63q126 0 208 67h13l-32 -80q-86 -54 -203 -54q-154 0 -241.5 78t-87.5 217q0 179 120 294t288 115q121 0 186 -50l12 -84h-15z" />
    <glyph glyph-name="D" unicode="D" horiz-adv-x="757" 
d="M177 680h207q157 0 249.5 -74t91.5 -213q-2 -178 -124.5 -285.5t-322.5 -107.5h-221zM170 59h100q157 0 249 89.5t94 239.5q1 116 -68.5 174.5t-198.5 58.5h-77z" />
    <glyph glyph-name="E" unicode="E" horiz-adv-x="488" 
d="M442 68l-43 -68h-342l120 680h321l-11 -60h-220l-43 -244h197l-9 -58h-197l-47 -258h121q109 0 147 8h6z" />
    <glyph glyph-name="F" unicode="F" horiz-adv-x="463" 
d="M177 680h341l-11 -62h-240l-44 -249h215l-10 -60h-215l-55 -309h-101z" />
    <glyph glyph-name="G" unicode="G" horiz-adv-x="723" 
d="M398 -12q-150 0 -239 78t-88 213q2 184 119.5 298.5t291.5 114.5q120 0 185 -43l13 -83h-17q-27 30 -76.5 47t-104.5 17q-135 0 -216 -96.5t-83 -249.5q-1 -110 61.5 -172t169.5 -62q71 0 114 23l46 262h101l-52 -296q-92 -51 -225 -51z" />
    <glyph glyph-name="H" unicode="H" horiz-adv-x="732" 
d="M177 680h101l-51 -290h342l50 290h101l-120 -680h-100l57 325h-342l-57 -325h-101z" />
    <glyph glyph-name="I" unicode="I" horiz-adv-x="291" 
d="M177 680h102l-120 -680h-102z" />
    <glyph glyph-name="J" unicode="J" horiz-adv-x="289" 
d="M181 680h102l-99 -559q-19 -122 -76.5 -182.5t-162.5 -90.5l-57 22v9q90 26 133 81t64 170z" />
    <glyph glyph-name="K" unicode="K" horiz-adv-x="612" 
d="M278 680l-120 -680h-101l120 680h101zM566 680h100l-338 -311q131 -220 253 -364l-1 -5h-128q-98 132 -222 350l1 7z" />
    <glyph glyph-name="L" unicode="L" horiz-adv-x="438" 
d="M363 0h-306l120 680h102l-111 -620h88q99 0 141 8h6z" />
    <glyph glyph-name="M" unicode="M" horiz-adv-x="921" 
d="M307 680l145 -499h3l316 499h102l-54 -680h-105l50 546h-4l-324 -502h-47l-145 494h-4l-138 -538h-75l184 680h96z" />
    <glyph glyph-name="N" unicode="N" horiz-adv-x="736" 
d="M557 168h4l87 512h74l-120 -681h-61l-314 539h-5l-91 -538h-74l120 680h84z" />
    <glyph glyph-name="O" unicode="O" horiz-adv-x="796" 
d="M480 692q125 0 205.5 -73t79.5 -209q-2 -181 -114 -301.5t-284 -120.5q-128 0 -209 73.5t-79 209.5q2 177 116 299t285 122zM376 48q85 0 149.5 53t96 132.5t32.5 170.5q1 107 -44.5 168t-138.5 61q-85 0 -150 -52.5t-97 -132t-33 -171.5q-2 -106 44.5 -167.5
t140.5 -61.5z" />
    <glyph glyph-name="P" unicode="P" horiz-adv-x="551" 
d="M177 680h171q100 0 156 -41t55 -126q-1 -106 -78.5 -164t-198.5 -58h-74l-51 -291h-100zM218 344h61q82 0 128.5 42t47.5 121q0 61 -33 90t-102 29h-53z" />
    <glyph glyph-name="Q" unicode="Q" horiz-adv-x="796" 
d="M528 21q48 -39 119 -82t131 -69l-2 -9l-134 -31q-43 23 -104.5 71.5t-104.5 91.5q-35 -5 -66 -5q-128 0 -209 73.5t-79 209.5q2 177 116 299t285 122q125 0 205.5 -73t79.5 -209q-1 -133 -65 -237t-172 -152zM191 277q-2 -106 44.5 -167.5t140.5 -61.5q85 0 149.5 53
t96 132.5t32.5 170.5q1 107 -44.5 168t-138.5 61q-85 0 -150 -52.5t-97 -132t-33 -171.5z" />
    <glyph glyph-name="R" unicode="R" horiz-adv-x="593" 
d="M177 680h169q94 0 149.5 -40.5t54.5 -120.5q-1 -81 -52 -133t-139 -70l-2 -4q44 -74 106 -161.5t113 -144.5l-1 -6h-129q-81 105 -188 302h-46l-54 -302h-101zM220 351h74q152 17 154 163q1 54 -33 82t-92 28h-55z" />
    <glyph glyph-name="S" unicode="S" horiz-adv-x="494" 
d="M461 588q-42 44 -117 44q-48 0 -84 -26t-37 -81q0 -35 19.5 -61.5t68.5 -62.5q68 -49 103.5 -98t34.5 -109q-1 -98 -68 -152t-169 -54q-50 0 -101 18.5t-84 44.5l-11 98h12q35 -46 86 -72t100 -26q60 0 96 31.5t37 93.5q1 44 -27 79t-86 78q-60 44 -85.5 79.5t-24.5 87.5
q1 88 66.5 140t153.5 52q84 0 138 -31l-5 -74z" />
    <glyph glyph-name="T" unicode="T" horiz-adv-x="481" 
d="M259 619h-174l11 61h458l-11 -61h-180l-109 -619h-104z" />
    <glyph glyph-name="U" unicode="U" horiz-adv-x="696" 
d="M328 -12q-118 0 -181 51.5t-62 144.5q2 37 6 55l78 441h101l-75 -425q-5 -27 -7 -61q0 -142 147 -142q90 0 139.5 49t67.5 153l75 426h72l-79 -441q-21 -120 -92 -185.5t-190 -65.5z" />
    <glyph glyph-name="V" unicode="V" horiz-adv-x="618" 
d="M700 680l-395 -680h-82l-125 680h106l97 -559h5l312 559h82z" />
    <glyph glyph-name="W" unicode="W" horiz-adv-x="946" 
d="M618 0l-85 531h-6l-287 -531h-78l-50 679l104 1l32 -536h3l285 536h72l82 -539h3l234 539h85l-316 -680h-78z" />
    <glyph glyph-name="X" unicode="X" horiz-adv-x="590" 
d="M-19 0l286 346l-152 334h113l114 -268h4l210 268h87l-268 -324l161 -356h-113l-124 286h-4l-226 -286h-88z" />
    <glyph glyph-name="Y" unicode="Y" horiz-adv-x="530" 
d="M236 311l-155 369h110l122 -297h5l216 297h82l-278 -360l-56 -320h-100z" />
    <glyph glyph-name="Z" unicode="Z" horiz-adv-x="674" 
d="M585 -1l-581 1l6 29l525 584l1 6h-387l29 61h523l-4 -24l-531 -590l-1 -6q248 0 325.5 2.5t136.5 12.5h6z" />
    <glyph glyph-name="bracketleft" unicode="[" horiz-adv-x="360" 
d="M371 720l-8 -45h-114l-140 -792h115l-8 -45h-201l156 882h200z" />
    <glyph glyph-name="backslash" unicode="\" 
d="M117 723h49l5 -3l321 -909l-3 -5h-48l-6 3l-321 909z" />
    <glyph glyph-name="bracketright" unicode="]" horiz-adv-x="360" 
d="M5 -162l8 45h114l140 792h-115l8 45h201l-156 -882h-200z" />
    <glyph glyph-name="asciicircum" unicode="^" 
d="M283 693h71l209 -437h-71l-174 363l-171 -363h-72z" />
    <glyph glyph-name="underscore" unicode="_" horiz-adv-x="500" 
d="M-63 -145l9 54h500l-9 -54h-500z" />
    <glyph glyph-name="grave" unicode="`" horiz-adv-x="217" 
d="M180 716l78 -141h-52l-124 141h98z" />
    <glyph glyph-name="a" unicode="a" horiz-adv-x="519" 
d="M337 0l-4 71q-59 -81 -158 -81q-62 0 -97.5 32t-35.5 79q0 68 41.5 102t120.5 53q106 23 135 31.5t33 19.5q6 17 6 41q0 85 -93 85q-78 0 -146 -56h-10l16 67q69 43 150 43q85 0 130 -35.5t45 -97.5q0 -16 -5 -44l-40 -220q-9 -42 -7 -90h-81zM213 44q43 0 79.5 29
t51.5 73l19 106q-51 -10 -80 -16.5t-60.5 -18t-47 -24t-25.5 -32.5t-10 -46q0 -32 20 -51.5t53 -19.5z" />
    <glyph glyph-name="b" unicode="b" horiz-adv-x="571" 
d="M129 0h-84l125 708l97 12l-62 -335h2q60 102 166 102q82 0 122.5 -52t40.5 -135q0 -125 -70 -217.5t-188 -92.5q-92 0 -126 79h-2zM342 430q-73 0 -125 -80.5t-54 -167.5q-1 -65 28 -100.5t79 -35.5q77 0 121.5 77t44.5 172q0 67 -24.5 101t-69.5 34z" />
    <glyph glyph-name="c" unicode="c" horiz-adv-x="467" 
d="M344 487q84 0 119 -29l-1 -62h-12q-32 39 -98 39q-89 0 -142 -70t-55 -168q-1 -67 35.5 -109t94.5 -42q77 0 132 50h11l-27 -65q-56 -41 -141 -41q-96 0 -152.5 54.5t-55.5 148.5q2 126 84 210t208 84z" />
    <glyph glyph-name="d" unicode="d" horiz-adv-x="571" 
d="M487 708l97 12l-126 -720h-89l13 87h-2q-59 -97 -166 -97q-82 0 -121.5 51t-39.5 135q0 125 70 218t188 93q90 0 125 -76h2zM245 47q72 0 123.5 78.5t53.5 165.5q2 66 -24 103t-79 37t-92 -40.5t-56.5 -96t-17.5 -114.5q0 -133 92 -133z" />
    <glyph glyph-name="e" unicode="e" horiz-adv-x="516" 
d="M152 250q-4 -19 -4 -43q0 -74 37 -116t107 -42q90 0 151 57h11l-28 -69q-64 -47 -155 -47q-104 0 -161.5 55.5t-57.5 151.5q0 124 74 207t187 83q88 0 131.5 -45.5t43.5 -131.5q0 -22 -8 -60h-328zM398 301q2 9 2 27q0 113 -90 113q-48 0 -90.5 -38t-58.5 -102h237z" />
    <glyph glyph-name="f" unicode="f" horiz-adv-x="292" 
d="M362 730q39 0 63 -12l-5 -61h-9q-21 15 -55 15q-54 0 -80 -42.5t-41 -139.5l-2 -13h95l-14 -52h-91l-76 -425h-96l76 425h-71l9 52h72l5 32q19 100 73.5 160.5t146.5 60.5z" />
    <glyph glyph-name="g" unicode="g" horiz-adv-x="503" 
d="M296 70q91 0 134.5 -24.5t43.5 -77.5q0 -92 -86.5 -148.5t-199.5 -56.5q-88 0 -142 28.5t-54 83.5q0 33 23.5 63t68.5 65q-27 7 -43.5 25.5t-16.5 43.5q1 31 96 132q-43 34 -43 94q0 83 57.5 136t143.5 53q56 0 97 -15h158l-14 -49h-96v-4q23 -25 23 -72
q0 -79 -57.5 -129.5t-146.5 -50.5q-63 0 -93 19q-36 -52 -37 -79q-1 -20 16.5 -28.5t60.5 -8.5h107zM168 296q0 -38 20.5 -61t55.5 -23q56 0 82.5 40.5t26.5 102.5q0 40 -21 64t-56 24q-49 0 -78.5 -45t-29.5 -102zM190 -187q78 0 133 34t55 90q0 23 -15 34t-45 16
q-52 6 -202 8q-44 -44 -44 -102q0 -39 31.5 -59.5t86.5 -20.5z" />
    <glyph glyph-name="h" unicode="h" horiz-adv-x="554" 
d="M351 0l50 292q8 43 8 60q0 71 -67 71q-59 0 -102.5 -52.5t-56.5 -128.5l-42 -242h-96l126 708l98 12l-62 -343h3q27 47 71 78.5t98 31.5q127 0 127 -121q0 -26 -6 -62l-54 -304h-95z" />
    <glyph glyph-name="i" unicode="i" horiz-adv-x="252" 
d="M165 701h102l-17 -98h-102zM130 477h95l-84 -477h-96z" />
    <glyph glyph-name="j" unicode="j" horiz-adv-x="253" 
d="M266 701l-17 -98h-102l17 98h102zM227 477l-80 -451q-21 -121 -82.5 -180.5t-168.5 -84.5l-43 22v9q91 29 136 79t65 161l79 445h94z" />
    <glyph glyph-name="k" unicode="k" horiz-adv-x="490" 
d="M170 708l98 12l-128 -720h-95zM195 255l223 222h94l-225 -208q88 -161 172 -264v-5h-115q-62 91 -151 247z" />
    <glyph glyph-name="l" unicode="l" horiz-adv-x="252" 
d="M170 708l98 12l-128 -720h-95z" />
    <glyph glyph-name="m" unicode="m" horiz-adv-x="848" 
d="M669 487q58 0 94.5 -28.5t36.5 -91.5q0 -21 -7 -63l-54 -304h-95l50 292q8 43 8 58q0 71 -66 71q-51 0 -93 -42.5t-54 -100.5l-50 -278h-95l50 292q8 43 8 58q0 71 -62 71q-60 0 -102 -51.5t-55 -127.5l-42 -242h-96l85 477h87l-11 -100h3q63 110 163 110q121 0 122 -117
h2q29 52 74 84.5t99 32.5z" />
    <glyph glyph-name="n" unicode="n" horiz-adv-x="555" 
d="M351 0l50 292q8 43 8 58q0 71 -67 71q-59 0 -103 -51.5t-56 -127.5l-42 -242h-96l85 477h87l-11 -100h3q27 46 71.5 78t98.5 32q127 0 127 -123q0 -24 -6 -60l-54 -304h-95z" />
    <glyph glyph-name="o" unicode="o" horiz-adv-x="568" 
d="M328 487q91 0 147.5 -50t56.5 -142q0 -127 -77 -216t-198 -89q-89 0 -145 52t-56 144q0 125 78 213t194 88zM260 44q54 0 94.5 38.5t59.5 94.5t19 118q0 64 -27 102t-82 38q-52 0 -91.5 -38t-58 -93t-18.5 -116q0 -65 25.5 -104.5t78.5 -39.5z" />
    <glyph glyph-name="p" unicode="p" horiz-adv-x="571" 
d="M101 -223h-95l123 700h91l-13 -91h2q60 101 165 101q83 0 123.5 -52t40.5 -137q0 -124 -70 -216t-188 -92q-88 0 -127 77h-2zM345 430q-49 0 -91 -40t-64 -96.5t-24 -111.5q-1 -65 28 -100.5t79 -35.5q53 0 92 40t56 95.5t17 114.5q0 66 -24.5 100t-68.5 34z" />
    <glyph glyph-name="q" unicode="q" horiz-adv-x="571" 
d="M462 477h88l-128 -700h-96l61 313h-2q-27 -44 -71 -72t-100 -28q-82 0 -121.5 50t-39.5 133q0 80 29.5 150.5t90.5 117t141 46.5q44 0 77.5 -21t48.5 -56h2zM248 47q72 0 123.5 79.5t53.5 167.5q2 65 -24 101t-79 36q-78 0 -123.5 -78.5t-45.5 -173.5q0 -132 95 -132z
" />
    <glyph glyph-name="r" unicode="r" horiz-adv-x="346" 
d="M129 477h89l-19 -125h3q29 58 76 98t98 39l-21 -86q-67 -1 -113.5 -49.5t-59.5 -124.5l-41 -229h-96z" />
    <glyph glyph-name="s" unicode="s" horiz-adv-x="377" 
d="M350 399q-37 40 -96 40q-34 0 -56 -17t-22 -46q0 -22 12 -40t52 -54q48 -42 68.5 -74.5t20.5 -71.5q0 -67 -49.5 -105.5t-119.5 -38.5q-76 0 -133 38l-10 77h11q57 -62 127 -62q39 0 61 20t22 52q0 30 -14.5 51.5t-57.5 59.5q-45 40 -60 65t-15 59q0 61 47.5 98t114.5 37
q58 0 98 -20l9 -69z" />
    <glyph glyph-name="t" unicode="t" horiz-adv-x="314" 
d="M165 129q-4 -22 -4 -35q0 -46 45 -46q42 0 78 20l-12 -46q-45 -30 -104 -30q-103 0 -103 87q0 7 4 37l55 309h-69l9 52h69l22 124l96 11l-24 -135h124l-15 -52h-118z" />
    <glyph glyph-name="u" unicode="u" horiz-adv-x="545" 
d="M215 477l-51 -294q-7 -37 -7 -58q0 -71 66 -71q58 0 100.5 51.5t55.5 127.5l42 244h96l-85 -477h-88l11 99h-3q-26 -47 -68.5 -78t-94.5 -31q-130 0 -130 118q0 21 7 63l54 306h95z" />
    <glyph glyph-name="v" unicode="v" horiz-adv-x="443" 
d="M492 477l-282 -477h-73l-80 477h100l54 -370h3l202 370h76z" />
    <glyph glyph-name="w" unicode="w" horiz-adv-x="757" 
d="M717 477h77l-251 -477h-73l-63 360h-5l-195 -360h-73l-64 477h98l41 -366h3l197 366h64l65 -366h3z" />
    <glyph glyph-name="x" unicode="x" horiz-adv-x="456" 
d="M-23 0l206 245l-106 232h100l76 -178h5l141 178h75l-191 -226l115 -251h-101l-83 193h-5l-156 -193h-76z" />
    <glyph glyph-name="y" unicode="y" horiz-adv-x="455" 
d="M83 -223h-95q97 121 175 247l-108 453h100l76 -354h3q94 166 185 354h76q-234 -426 -412 -700z" />
    <glyph glyph-name="z" unicode="z" horiz-adv-x="464" 
d="M125 477h356l-3 -18l-347 -400l-1 -6q157 0 213 2t95 11h6l-50 -66h-408l3 19l350 401l1 6h-247z" />
    <glyph glyph-name="braceleft" unicode="{" horiz-adv-x="360" 
d="M371 680h-18q-40 0 -56.5 -20.5t-26.5 -77.5l-28 -158q-20 -116 -116 -144v-2q69 -29 69 -105q0 -21 -4 -38l-27 -156q-6 -34 -6 -49q0 -27 12 -39.5t40 -12.5h19l-7 -40h-50q-101 0 -101 92q0 9 2 27l28 156q6 36 6 63q0 41 -15 59.5t-48 18.5l9 50q44 0 68 32.5
t38 107.5l29 160q8 52 42 84t95 32h53z" />
    <glyph glyph-name="bar" unicode="|" horiz-adv-x="235" 
d="M155 -214h-65v1000h65v-1000z" />
    <glyph glyph-name="braceright" unicode="}" horiz-adv-x="360" 
d="M4 -122h18q39 0 55.5 20.5t26.5 77.5l28 158q20 116 116 144v2q-68 30 -68 105q0 19 3 38l27 156q6 34 6 49q0 27 -12 39.5t-40 12.5h-19l7 40h50q101 0 101 -92q0 -18 -2 -27l-28 -156q-6 -36 -6 -63q0 -41 15 -59.5t48 -18.5l-9 -50q-44 0 -68 -32.5t-38 -107.5
l-28 -160q-22 -116 -138 -116h-52z" />
    <glyph glyph-name="asciitilde" unicode="~" 
d="M529 272q-30 -45 -58 -65.5t-63 -20.5q-41 0 -104 32q-67 34 -107 34q-52 0 -81 -70l-37 50q43 86 121 86q45 0 121 -37q62 -29 86 -29q42 0 85 70z" />
    <glyph glyph-name="uni00A0" unicode="&#xa0;" horiz-adv-x="250" 
 />
    <glyph glyph-name="exclamdown" unicode="&#xa1;" horiz-adv-x="359" 
d="M152 356l21 119h113l-21 -119h-113zM51 -205l110 456h59l-52 -456h-117z" />
    <glyph glyph-name="cent" unicode="&#xa2;" 
d="M419 486q61 -6 93 -31v-61h-12q-31 36 -90 41l-69 -388q72 5 120 49h11l-27 -65q-42 -32 -113 -40l-20 -111h-52l20 111q-85 7 -136.5 59t-51.5 138q0 122 78 206t197 92l18 104h52zM198 198q0 -57 24.5 -96t67.5 -51l67 381q-72 -15 -115.5 -81.5t-43.5 -152.5z" />
    <glyph glyph-name="sterling" unicode="&#xa3;" horiz-adv-x="581" 
d="M7 27q81 49 130 123t49 159q0 18 -3 33h-99l10 52h88q-5 30 -5 50q0 110 71 179t185 69q69 0 116 -21l2 -66h-11q-39 28 -105 28q-152 0 -152 -196q0 -1 3 -43h175l-9 -52h-166q0 -90 -35 -147.5t-111 -108.5l-1 -4q304 0 367 9h6l-51 -91h-458z" />
    <glyph glyph-name="currency" unicode="&#xa4;" 
d="M535 491q29 -49 29 -109q0 -110 -78 -191l43 -52l-50 -42l-43 53q-66 -44 -146 -44t-137 49l-59 -49l-39 47l58 49q-29 49 -29 110q0 109 79 190l-43 52l49 42l44 -52q67 43 146 43q82 0 137 -49l59 49l39 -47zM297 174q80 0 134 62t54 144q0 59 -37.5 99t-95.5 40
q-79 0 -133.5 -61.5t-54.5 -143.5q0 -60 37 -100t96 -40z" />
    <glyph glyph-name="yen" unicode="&#xa5;" 
d="M650 680l-244 -305h135l-9 -48h-164l-14 -73h165l-7 -48h-166l-38 -206h-98l37 206h-154l8 48h155l13 73h-155l9 48h125l-136 305h113l117 -290h5l221 290h82z" />
    <glyph glyph-name="brokenbar" unicode="&#xa6;" horiz-adv-x="235" 
d="M90 661h65v-250h-65v250zM90 161h65v-250h-65v250z" />
    <glyph glyph-name="section" unicode="&#xa7;" 
d="M405 648q-45 0 -77.5 -26t-32.5 -71q0 -32 21.5 -55t69.5 -51q68 -39 98.5 -76t30.5 -82q0 -117 -131 -162q49 -47 49 -106q0 -83 -57.5 -129t-148.5 -46q-53 0 -100 19t-74 47l-5 89h12q27 -46 74.5 -70.5t97.5 -24.5q49 0 79.5 26t30.5 73q0 34 -25.5 58t-86.5 59
q-57 34 -84 65.5t-27 75.5q0 116 137 163q-53 45 -53 104q0 81 61 126t143 45q87 0 122 -29l-4 -71h-11q-35 49 -109 49zM423 265q0 33 -25 57.5t-84 60.5l-18 11q-38 -12 -63 -39.5t-25 -65.5q0 -29 18.5 -51t65.5 -49q44 -26 55 -34q76 38 76 110z" />
    <glyph glyph-name="dieresis" unicode="&#xa8;" horiz-adv-x="217" 
d="M150 699l-16 -95h-94l17 95h93zM323 699l-16 -95h-93l16 95h93z" />
    <glyph glyph-name="copyright" unicode="&#xa9;" horiz-adv-x="797" 
d="M782 346q0 -151 -103 -256t-257 -105q-153 0 -257 104.5t-104 256.5q0 153 104 256.5t257 103.5q151 0 255.5 -104t104.5 -256zM422 36q130 0 217 90t87 220t-88.5 219.5t-216.5 89.5q-130 0 -217 -89.5t-87 -219.5q0 -129 86 -219.5t219 -90.5zM562 467q-35 31 -103 31
q-59 0 -99 -40.5t-40 -111.5q0 -70 41 -108.5t102 -38.5q67 0 107 34h10l-13 -59q-43 -29 -114 -29q-97 0 -161.5 52.5t-64.5 148.5t65.5 150t156.5 54q68 0 115 -25l8 -58h-10z" />
    <glyph glyph-name="ordfeminine" unicode="&#xaa;" horiz-adv-x="390" 
d="M288 349l-3 48q-46 -55 -110 -55q-44 0 -68 21.5t-24 58.5q0 83 112 109q75 17 95.5 24t23.5 17t3 21q0 54 -69 54q-54 0 -99 -38h-9l12 52q51 31 111 31q62 0 94.5 -25t32.5 -68q0 -15 -3 -31l-27 -155q-7 -38 -6 -64h-66zM204 385q27 0 53 20t36 49l12 72
q-85 -16 -116 -38.5t-31 -58.5q0 -20 12 -32t34 -12z" />
    <glyph glyph-name="guillemotleft" unicode="&#xab;" horiz-adv-x="420" 
d="M246 435l-11 -61l-105 -100l70 -98l-11 -58l-138 127l11 60zM403 435l-11 -61l-105 -100l70 -98l-11 -58l-137 127l12 60z" />
    <glyph glyph-name="logicalnot" unicode="&#xac;" 
d="M546 385v-277h-65v211h-423v66h488z" />
    <glyph glyph-name="uni00AD" unicode="&#xad;" horiz-adv-x="385" 
d="M68 299h280l-11 -59h-281z" />
    <glyph glyph-name="registered" unicode="&#xae;" horiz-adv-x="527" 
d="M521 464q0 -90 -61 -152t-152 -62t-152.5 61.5t-61.5 152.5t61.5 152t152.5 61q90 0 151.5 -61.5t61.5 -151.5zM308 280q77 0 128.5 53.5t51.5 130.5t-52 130t-129 53t-128.5 -53t-51.5 -130q0 -78 51 -131t130 -53zM306 587q94 0 94 -61q0 -28 -13 -44.5t-44 -24.5
l86 -117h-56l-76 110h-20v-110h-44v247h73zM291 476q17 0 27 1.5t22 11.5t12 30t-13 31.5t-34 11.5h-28v-86h14z" />
    <glyph glyph-name="macron" unicode="&#xaf;" horiz-adv-x="217" 
d="M343 681l-9 -53h-314l9 53h314z" />
    <glyph glyph-name="degree" unicode="&#xb0;" horiz-adv-x="414" 
d="M413 561q0 -60 -42 -102.5t-103 -42.5q-60 0 -102.5 41.5t-42.5 103.5q0 61 42.5 103t102.5 42t102.5 -42.5t42.5 -102.5zM268 460q42 0 71 30t29 71q0 42 -29 71.5t-72 29.5q-40 0 -69 -29.5t-29 -71.5t29 -71.5t70 -29.5z" />
    <glyph glyph-name="plusminus" unicode="&#xb1;" 
d="M338 504v-168h210v-66h-210v-168h-67v168h-210v66h210v168h67zM548 66v-66h-487v66h487z" />
    <glyph glyph-name="two.sups" unicode="&#xb2;" horiz-adv-x="392" 
d="M62 430l5 25l91 73q109 88 148 138.5t39 97.5q0 31 -18 49.5t-50 18.5q-58 0 -102 -38h-11l16 52q51 34 116 34q62 0 97.5 -31t35.5 -81q0 -59 -46.5 -112t-147.5 -128l-39 -29l-1 -3h98q79 0 113 5h9l-39 -71h-314z" />
    <glyph glyph-name="three.sups" unicode="&#xb3;" horiz-adv-x="374" 
d="M308 573q0 35 -26.5 55t-70.5 20h-13l11 42h17q48 0 75 24t27 63q0 27 -16.5 43t-49.5 16q-46 0 -88 -29h-10l13 47q50 26 104 26q56 0 90 -25t34 -71q0 -43 -25 -72.5t-72 -40.5v-3q34 -9 56 -34t22 -62q0 -69 -51.5 -109.5t-129.5 -40.5q-73 0 -120 35l-1 57h9
q47 -44 109 -44q50 0 78 28t28 75z" />
    <glyph glyph-name="acute" unicode="&#xb4;" horiz-adv-x="217" 
d="M307 716l-172 -141h-58l122 141h108z" />
    <glyph glyph-name="uni00B5" unicode="&#xb5;" 
d="M194 477v-297q0 -120 81 -120q61 0 96.5 51t35.5 126v240h98v-477h-92l-6 102h-3q-21 -53 -49.5 -82.5t-79.5 -29.5q-24 0 -46 11t-32 26h-4v-177h-98v627h99z" />
    <glyph glyph-name="paragraph" unicode="&#xb6;" 
d="M440 -168h-71l141 801h-113l-141 -801h-71l87 494q-78 0 -126.5 43t-48.5 111q0 100 70.5 156t183.5 56h241z" />
    <glyph glyph-name="periodcentered" unicode="&#xb7;" horiz-adv-x="307" 
d="M119 342h115l-22 -121h-115z" />
    <glyph glyph-name="cedilla" unicode="&#xb8;" horiz-adv-x="217" 
d="M-32 -219l-13 34l4 4q106 2 106 57q0 31 -63 42v6l52 76h41l-30 -46l11 -3q58 -16 58 -66q0 -51 -47.5 -77.5t-118.5 -26.5z" />
    <glyph glyph-name="one.sups" unicode="&#xb9;" horiz-adv-x="311" 
d="M168 430l66 378l-106 -41l6 46l148 59h44l-78 -442h-80z" />
    <glyph glyph-name="ordmasculine" unicode="&#xba;" horiz-adv-x="446" 
d="M255 342q-68 0 -110 36.5t-42 103.5q0 91 54 150.5t142 59.5q67 0 109 -35t42 -102q0 -92 -53.5 -152.5t-141.5 -60.5zM257 384q52 0 82.5 54t30.5 120q0 43 -20.5 68t-53.5 25q-54 0 -83.5 -53t-29.5 -119q0 -44 20.5 -69.5t53.5 -25.5z" />
    <glyph glyph-name="guillemotright" unicode="&#xbb;" horiz-adv-x="420" 
d="M36 115l11 61l105 101l-70 97l11 58l136 -127l-12 -60zM193 115l11 61l105 101l-70 97l11 58l137 -127l-11 -60z" />
    <glyph glyph-name="onequarter" unicode="&#xbc;" horiz-adv-x="825" 
d="M645 703l40 -27l-512 -699l-40 28zM134 238l66 378l-106 -41l6 46l148 59h44l-78 -442h-80zM794 171l-16 -52h-69l-21 -119h-75l21 119h-207l4 29l273 294h62l-48 -271h76zM509 172h134l32 180h-5l-161 -175v-5z" />
    <glyph glyph-name="onehalf" unicode="&#xbd;" horiz-adv-x="856" 
d="M645 703l40 -27l-512 -699l-40 28zM134 238l66 378l-106 -41l6 46l148 59h44l-78 -442h-80zM450 0l5 25l90 73q110 88 149 138.5t39 97.5q0 31 -18 49.5t-50 18.5q-59 0 -103 -38h-10l16 52q51 34 116 34q62 0 97.5 -31t35.5 -81q0 -59 -46.5 -112t-147.5 -128l-39 -29
l-1 -3h97q79 0 114 5h9l-39 -71h-314z" />
    <glyph glyph-name="threequarters" unicode="&#xbe;" horiz-adv-x="887" 
d="M708 703l40 -27l-512 -699l-40 28zM352 380q0 -69 -51.5 -109.5t-129.5 -40.5q-73 0 -120 35l-1 57h9q47 -44 109 -44q50 0 78 28t28 75q0 35 -26.5 55t-70.5 20h-13l11 42h17q48 0 75 24t27 63q0 27 -16.5 43t-49.5 16q-46 0 -88 -29h-10l13 47q50 26 104 26
q56 0 90 -25t34 -71q0 -43 -25 -72.5t-72 -40.5v-3q34 -9 56 -34t22 -62zM857 171l-17 -52h-69l-21 -119h-74l21 119h-207l3 29l273 294h62l-48 -271h77zM572 172h134l32 180h-6l-160 -175v-5z" />
    <glyph glyph-name="questiondown" unicode="&#xbf;" horiz-adv-x="487" 
d="M235 356l21 119h113l-21 -119h-113zM312 250l-3 -22q-7 -42 -33 -73t-69 -62q-51 -37 -77 -71.5t-26 -86.5q0 -40 26 -63.5t70 -23.5q76 0 145 55h12l-23 -75q-71 -45 -154 -45q-87 0 -135 40.5t-48 106.5q0 39 11.5 69.5t37.5 55t48 39t64 38.5q38 22 59.5 45t26.5 62
l1 11h67z" />
    <glyph glyph-name="Agrave" unicode="&#xc0;" horiz-adv-x="639" 
d="M478 756h-54l-134 129h103zM486 0l-49 253h-247l-148 -253h-80l412 676l76 6l145 -682h-109zM376 564h-5l-148 -253h203z" />
    <glyph glyph-name="Aacute" unicode="&#xc1;" horiz-adv-x="639" 
d="M597 885l-181 -129h-59l127 129h113zM374 676l76 6l145 -682h-109l-49 253h-247l-148 -253h-80zM376 564h-5l-148 -253h203z" />
    <glyph glyph-name="Acircumflex" unicode="&#xc2;" horiz-adv-x="639" 
d="M436 831l-112 -75h-57l132 129h83l86 -129h-52zM486 0l-49 253h-247l-148 -253h-80l412 676l76 6l145 -682h-109zM376 564h-5l-148 -253h203z" />
    <glyph glyph-name="Atilde" unicode="&#xc3;" horiz-adv-x="639" 
d="M366 819q-33 0 -54 -49h-42q33 107 104 107q27 0 67 -25q38 -24 53 -24q34 0 55 47h40q-32 -105 -102 -105q-28 0 -67 24q-40 25 -54 25zM486 0l-49 253h-247l-148 -253h-80l412 676l76 6l145 -682h-109zM376 564h-5l-148 -253h203z" />
    <glyph glyph-name="Adieresis" unicode="&#xc4;" horiz-adv-x="639" 
d="M398 871l-16 -95h-94l16 95h94zM571 871l-16 -95h-94l17 95h93zM486 0l-49 253h-247l-148 -253h-80l412 676l76 6l145 -682h-109zM376 564h-5l-148 -253h203z" />
    <glyph glyph-name="Aring" unicode="&#xc5;" horiz-adv-x="639" 
d="M419 728q-44 0 -71 25.5t-27 64.5q0 51 35 86t89 35q44 0 71 -25.5t27 -64.5q0 -51 -35 -86t-89 -35zM442 903q-32 0 -54.5 -24t-22.5 -59q0 -24 15.5 -40.5t41.5 -16.5q34 0 55.5 25t21.5 59q0 23 -15 39.5t-42 16.5zM486 0l-49 253h-247l-148 -253h-80l412 676l76 6
l145 -682h-109zM376 564h-5l-148 -253h203z" />
    <glyph glyph-name="AE" unicode="&#xc6;" horiz-adv-x="863" 
d="M862 620h-220l-43 -244h197l-9 -58h-197l-47 -258h121q109 0 148 8h6l-44 -68h-341l45 253h-234l-202 -253h-88l552 680h367zM488 311l54 308h-6l-246 -308h198z" />
    <glyph glyph-name="Ccedilla" unicode="&#xc7;" horiz-adv-x="681" 
d="M668 642l12 -84h-15q-27 35 -77 54t-106 19q-126 -1 -211 -99t-85 -244q0 -107 62 -170t169 -63q126 0 208 67h13l-32 -80q-86 -54 -203 -54h-16l-22 -34l11 -3q58 -16 58 -66q0 -51 -47.5 -77.5t-118.5 -26.5l-13 34l4 4q106 2 106 57q0 31 -63 42v6l46 67
q-129 14 -201.5 90t-72.5 202q0 179 120 294t288 115q121 0 186 -50z" />
    <glyph glyph-name="Egrave" unicode="&#xc8;" horiz-adv-x="488" 
d="M222 885h103l85 -129h-54zM442 68l-43 -68h-342l120 680h321l-11 -60h-220l-43 -244h197l-9 -58h-197l-47 -258h121q109 0 147 8h6z" />
    <glyph glyph-name="Eacute" unicode="&#xc9;" horiz-adv-x="488" 
d="M530 885l-181 -129h-59l127 129h113zM442 68l-43 -68h-342l120 680h321l-11 -60h-220l-43 -244h197l-9 -58h-197l-47 -258h121q109 0 147 8h6z" />
    <glyph glyph-name="Ecircumflex" unicode="&#xca;" horiz-adv-x="488" 
d="M414 885l86 -129h-52l-80 75l-112 -75h-57l132 129h83zM442 68l-43 -68h-342l120 680h321l-11 -60h-220l-43 -244h197l-9 -58h-197l-47 -258h121q109 0 147 8h6z" />
    <glyph glyph-name="Edieresis" unicode="&#xcb;" horiz-adv-x="488" 
d="M331 871l-16 -95h-94l16 95h94zM504 871l-16 -95h-94l17 95h93zM442 68l-43 -68h-342l120 680h321l-11 -60h-220l-43 -244h197l-9 -58h-197l-47 -258h121q109 0 147 8h6z" />
    <glyph glyph-name="Igrave" unicode="&#xcc;" horiz-adv-x="291" 
d="M114 885h103l85 -129h-54zM177 680h102l-120 -680h-102z" />
    <glyph glyph-name="Iacute" unicode="&#xcd;" horiz-adv-x="291" 
d="M421 885l-181 -129h-59l127 129h113zM177 680h102l-120 -680h-102z" />
    <glyph glyph-name="Icircumflex" unicode="&#xce;" horiz-adv-x="291" 
d="M306 885l86 -129h-52l-80 75l-112 -75h-57l132 129h83zM177 680h102l-120 -680h-102z" />
    <glyph glyph-name="Idieresis" unicode="&#xcf;" horiz-adv-x="291" 
d="M222 871l-16 -95h-94l16 95h94zM395 871l-16 -95h-94l17 95h93zM177 680h102l-120 -680h-102z" />
    <glyph glyph-name="Eth" unicode="&#xd0;" horiz-adv-x="757" 
d="M384 680q157 0 249.5 -74t91.5 -213q-2 -178 -124.5 -285.5t-322.5 -107.5h-221l56 319h-72l11 57h71l54 304h207zM613 388q1 116 -68.5 174.5t-198.5 58.5h-77l-43 -245h182l-11 -57h-181l-46 -260h100q157 0 249 89.5t94 239.5z" />
    <glyph glyph-name="Ntilde" unicode="&#xd1;" horiz-adv-x="736" 
d="M593 875q-21 -47 -55 -47q-15 0 -53 24q-40 25 -67 25q-71 0 -104 -107h42q21 49 54 49q14 0 54 -25q39 -24 67 -24q70 0 102 105h-40zM557 168h4l87 512h74l-120 -681h-61l-314 539h-5l-91 -538h-74l120 680h84z" />
    <glyph glyph-name="Ograve" unicode="&#xd2;" horiz-adv-x="796" 
d="M368 885h103l85 -129h-54zM480 692q125 0 205.5 -73t79.5 -209q-2 -181 -114 -301.5t-284 -120.5q-128 0 -209 73.5t-79 209.5q2 177 116 299t285 122zM376 48q85 0 149.5 53t96 132.5t32.5 170.5q1 107 -44.5 168t-138.5 61q-85 0 -150 -52.5t-97 -132t-33 -171.5
q-2 -106 44.5 -167.5t140.5 -61.5z" />
    <glyph glyph-name="Oacute" unicode="&#xd3;" horiz-adv-x="796" 
d="M675 885l-181 -129h-59l127 129h113zM480 692q125 0 205.5 -73t79.5 -209q-2 -181 -114 -301.5t-284 -120.5q-128 0 -209 73.5t-79 209.5q2 177 116 299t285 122zM376 48q85 0 149.5 53t96 132.5t32.5 170.5q1 107 -44.5 168t-138.5 61q-85 0 -150 -52.5t-97 -132
t-33 -171.5q-2 -106 44.5 -167.5t140.5 -61.5z" />
    <glyph glyph-name="Ocircumflex" unicode="&#xd4;" horiz-adv-x="796" 
d="M560 885l86 -129h-52l-80 75l-112 -75h-57l132 129h83zM480 692q125 0 205.5 -73t79.5 -209q-2 -181 -114 -301.5t-284 -120.5q-128 0 -209 73.5t-79 209.5q2 177 116 299t285 122zM376 48q85 0 149.5 53t96 132.5t32.5 170.5q1 107 -44.5 168t-138.5 61
q-85 0 -150 -52.5t-97 -132t-33 -171.5q-2 -106 44.5 -167.5t140.5 -61.5z" />
    <glyph glyph-name="Otilde" unicode="&#xd5;" horiz-adv-x="796" 
d="M626 875q-21 -47 -55 -47q-15 0 -53 24q-40 25 -67 25q-71 0 -104 -107h42q21 49 54 49q14 0 54 -25q39 -24 67 -24q70 0 102 105h-40zM480 692q125 0 205.5 -73t79.5 -209q-2 -181 -114 -301.5t-284 -120.5q-128 0 -209 73.5t-79 209.5q2 177 116 299t285 122zM376 48
q85 0 149.5 53t96 132.5t32.5 170.5q1 107 -44.5 168t-138.5 61q-85 0 -150 -52.5t-97 -132t-33 -171.5q-2 -106 44.5 -167.5t140.5 -61.5z" />
    <glyph glyph-name="Odieresis" unicode="&#xd6;" horiz-adv-x="796" 
d="M476 871l-16 -95h-94l16 95h94zM649 871l-16 -95h-94l17 95h93zM480 692q125 0 205.5 -73t79.5 -209q-2 -181 -114 -301.5t-284 -120.5q-128 0 -209 73.5t-79 209.5q2 177 116 299t285 122zM376 48q85 0 149.5 53t96 132.5t32.5 170.5q1 107 -44.5 168t-138.5 61
q-85 0 -150 -52.5t-97 -132t-33 -171.5q-2 -106 44.5 -167.5t140.5 -61.5z" />
    <glyph glyph-name="multiply" unicode="&#xd7;" 
d="M128 480l176 -182l176 182l46 -46l-176 -183l176 -181l-46 -47l-176 181l-176 -181l-46 47l175 181l-174 183z" />
    <glyph glyph-name="Oslash" unicode="&#xd8;" horiz-adv-x="796" 
d="M785 650l-69 -66q50 -72 49 -174q-2 -181 -114 -301.5t-284 -120.5q-128 0 -205 70l-71 -67l-38 39l73 69q-48 69 -47 172q2 177 116 299t285 122q121 0 200 -68l68 64zM191 277q-1 -56 13 -104l412 390q-48 70 -145 70q-85 0 -150 -52.5t-97 -132t-33 -171.5zM654 404
q0 65 -14 108l-412 -391q48 -73 148 -73q85 0 149.5 53t96 132.5t32.5 170.5z" />
    <glyph glyph-name="Ugrave" unicode="&#xd9;" horiz-adv-x="696" 
d="M315 885h103l85 -129h-54zM328 -12q-118 0 -181 51.5t-62 144.5q2 37 6 55l78 441h101l-75 -425q-5 -27 -7 -61q0 -142 147 -142q90 0 139.5 49t67.5 153l75 426h72l-79 -441q-21 -120 -92 -185.5t-190 -65.5z" />
    <glyph glyph-name="Uacute" unicode="&#xda;" horiz-adv-x="696" 
d="M622 885l-181 -129h-59l127 129h113zM328 -12q-118 0 -181 51.5t-62 144.5q2 37 6 55l78 441h101l-75 -425q-5 -27 -7 -61q0 -142 147 -142q90 0 139.5 49t67.5 153l75 426h72l-79 -441q-21 -120 -92 -185.5t-190 -65.5z" />
    <glyph glyph-name="Ucircumflex" unicode="&#xdb;" horiz-adv-x="696" 
d="M507 885l86 -129h-52l-80 75l-112 -75h-57l132 129h83zM328 -12q-118 0 -181 51.5t-62 144.5q2 37 6 55l78 441h101l-75 -425q-5 -27 -7 -61q0 -142 147 -142q90 0 139.5 49t67.5 153l75 426h72l-79 -441q-21 -120 -92 -185.5t-190 -65.5z" />
    <glyph glyph-name="Udieresis" unicode="&#xdc;" horiz-adv-x="696" 
d="M423 871l-16 -95h-94l16 95h94zM596 871l-16 -95h-94l17 95h93zM328 -12q-118 0 -181 51.5t-62 144.5q2 37 6 55l78 441h101l-75 -425q-5 -27 -7 -61q0 -142 147 -142q90 0 139.5 49t67.5 153l75 426h72l-79 -441q-21 -120 -92 -185.5t-190 -65.5z" />
    <glyph glyph-name="Yacute" unicode="&#xdd;" horiz-adv-x="530" 
d="M542 885l-181 -129h-59l127 129h113zM236 311l-155 369h110l122 -297h5l216 297h82l-278 -360l-56 -320h-100z" />
    <glyph glyph-name="Thorn" unicode="&#xde;" horiz-adv-x="551" 
d="M325 551q99 0 155.5 -41t55.5 -126q-1 -107 -78.5 -165t-198.5 -58h-74l-28 -161h-100l120 680h99l-23 -129h72zM432 378q1 60 -33 89t-102 29h-53l-50 -282h62q82 0 128.5 42t47.5 122z" />
    <glyph glyph-name="germandbls" unicode="&#xdf;" horiz-adv-x="579" 
d="M361 -8q-66 0 -123 38l-10 77h11q59 -62 119 -62q38 0 63.5 28.5t25.5 76.5q0 29 -15 55.5t-56 69.5q-36 39 -53.5 68t-17.5 62q0 31 22 59.5t48.5 47t48.5 45t22 53.5q0 30 -21 46t-57 16q-52 0 -87 -40t-49 -118l-91 -514h-99l90 511q41 219 238 219q81 0 123.5 -29.5
t42.5 -82.5q0 -36 -22.5 -64.5t-49 -43t-49 -36.5t-22.5 -48q0 -28 55 -86l3 -3t2.5 -3t3.5 -4q43 -47 63 -84.5t20 -80.5q0 -79 -52 -126t-127 -47z" />
    <glyph glyph-name="agrave" unicode="&#xe0;" horiz-adv-x="519" 
d="M311 716l78 -141h-52l-124 141h98zM337 0l-4 71q-59 -81 -158 -81q-62 0 -97.5 32t-35.5 79q0 68 41.5 102t120.5 53q106 23 135 31.5t33 19.5q6 17 6 41q0 85 -93 85q-78 0 -146 -56h-10l16 67q69 43 150 43q85 0 130 -35.5t45 -97.5q0 -16 -5 -44l-40 -220
q-9 -42 -7 -90h-81zM213 44q43 0 79.5 29t51.5 73l19 106q-51 -10 -80 -16.5t-60.5 -18t-47 -24t-25.5 -32.5t-10 -46q0 -32 20 -51.5t53 -19.5z" />
    <glyph glyph-name="aacute" unicode="&#xe1;" horiz-adv-x="519" 
d="M495 716l-172 -141h-58l122 141h108zM337 0l-4 71q-59 -81 -158 -81q-62 0 -97.5 32t-35.5 79q0 68 41.5 102t120.5 53q106 23 135 31.5t33 19.5q6 17 6 41q0 85 -93 85q-78 0 -146 -56h-10l16 67q69 43 150 43q85 0 130 -35.5t45 -97.5q0 -16 -5 -44l-40 -220
q-9 -42 -7 -90h-81zM213 44q43 0 79.5 29t51.5 73l19 106q-51 -10 -80 -16.5t-60.5 -18t-47 -24t-25.5 -32.5t-10 -46q0 -32 20 -51.5t53 -19.5z" />
    <glyph glyph-name="acircumflex" unicode="&#xe2;" horiz-adv-x="519" 
d="M393 716l83 -141h-51l-80 87l-111 -87h-57l133 141h83zM337 0l-4 71q-59 -81 -158 -81q-62 0 -97.5 32t-35.5 79q0 68 41.5 102t120.5 53q106 23 135 31.5t33 19.5q6 17 6 41q0 85 -93 85q-78 0 -146 -56h-10l16 67q69 43 150 43q85 0 130 -35.5t45 -97.5q0 -16 -5 -44
l-40 -220q-9 -42 -7 -90h-81zM213 44q43 0 79.5 29t51.5 73l19 106q-51 -10 -80 -16.5t-60.5 -18t-47 -24t-25.5 -32.5t-10 -46q0 -32 20 -51.5t53 -19.5z" />
    <glyph glyph-name="atilde" unicode="&#xe3;" horiz-adv-x="519" 
d="M460 706q-21 -47 -55 -47q-15 0 -54 24q-38 25 -67 25q-35 0 -61.5 -29t-41.5 -78h41q22 49 55 49q12 0 53 -25q39 -24 67 -24q71 0 103 105h-40zM337 0l-4 71q-59 -81 -158 -81q-62 0 -97.5 32t-35.5 79q0 68 41.5 102t120.5 53q106 23 135 31.5t33 19.5q6 17 6 41
q0 85 -93 85q-78 0 -146 -56h-10l16 67q69 43 150 43q85 0 130 -35.5t45 -97.5q0 -16 -5 -44l-40 -220q-9 -42 -7 -90h-81zM213 44q43 0 79.5 29t51.5 73l19 106q-51 -10 -80 -16.5t-60.5 -18t-47 -24t-25.5 -32.5t-10 -46q0 -32 20 -51.5t53 -19.5z" />
    <glyph glyph-name="adieresis" unicode="&#xe4;" horiz-adv-x="519" 
d="M310 699l-16 -95h-94l17 95h93zM483 699l-16 -95h-93l16 95h93zM337 0l-4 71q-59 -81 -158 -81q-62 0 -97.5 32t-35.5 79q0 68 41.5 102t120.5 53q106 23 135 31.5t33 19.5q6 17 6 41q0 85 -93 85q-78 0 -146 -56h-10l16 67q69 43 150 43q85 0 130 -35.5t45 -97.5
q0 -16 -5 -44l-40 -220q-9 -42 -7 -90h-81zM213 44q43 0 79.5 29t51.5 73l19 106q-51 -10 -80 -16.5t-60.5 -18t-47 -24t-25.5 -32.5t-10 -46q0 -32 20 -51.5t53 -19.5z" />
    <glyph glyph-name="aring" unicode="&#xe5;" horiz-adv-x="519" 
d="M328 550q-45 0 -72 25.5t-27 64.5q0 52 35 87t89 35q45 0 72 -25t27 -65q0 -52 -35 -87t-89 -35zM330 585q34 0 55.5 25t21.5 60q0 24 -15 40.5t-42 16.5q-32 0 -54 -24.5t-22 -59.5q0 -25 15 -41.5t41 -16.5zM337 0l-4 71q-59 -81 -158 -81q-62 0 -97.5 32t-35.5 79
q0 68 41.5 102t120.5 53q106 23 135 31.5t33 19.5q6 17 6 41q0 85 -93 85q-78 0 -146 -56h-10l16 67q69 43 150 43q85 0 130 -35.5t45 -97.5q0 -16 -5 -44l-40 -220q-9 -42 -7 -90h-81zM213 44q43 0 79.5 29t51.5 73l19 106q-51 -10 -80 -16.5t-60.5 -18t-47 -24
t-25.5 -32.5t-10 -46q0 -32 20 -51.5t53 -19.5z" />
    <glyph glyph-name="ae" unicode="&#xe6;" horiz-adv-x="819" 
d="M783 251h-330q-2 -28 -2 -43q0 -76 37 -117.5t107 -41.5q90 0 151 57h11l-28 -69q-64 -47 -155 -47q-148 0 -192 109h-2q-57 -109 -189 -109q-71 0 -110 31.5t-39 83.5q0 66 44 100.5t129 53.5q100 22 127 30.5t32 19.5q4 13 4 39q0 85 -93 85q-78 0 -146 -56h-10l16 67
q69 43 150 43q115 0 151 -71h2q26 31 70 51t97 20q176 0 176 -177q0 -23 -8 -59zM613 441q-51 0 -91.5 -38t-58.5 -103h238q2 16 2 28q0 113 -90 113zM344 146l19 102q-123 -23 -173 -48.5t-50 -84.5q0 -32 20 -51.5t53 -19.5q43 0 79.5 29t51.5 73z" />
    <glyph glyph-name="ccedilla" unicode="&#xe7;" horiz-adv-x="467" 
d="M344 487q84 0 119 -29l-1 -62h-12q-32 39 -98 39q-89 0 -142 -70t-55 -168q-1 -67 35.5 -109t94.5 -42q77 0 132 50h11l-27 -65q-56 -41 -141 -41h-5l-24 -36l11 -3q58 -16 58 -66q0 -51 -47.5 -77.5t-118.5 -26.5l-13 34l4 4q106 2 106 57q0 31 -63 42v6l47 69
q-76 13 -120 65.5t-43 134.5q2 126 84 210t208 84z" />
    <glyph glyph-name="egrave" unicode="&#xe8;" horiz-adv-x="516" 
d="M305 716l78 -141h-52l-124 141h98zM152 250q-4 -19 -4 -43q0 -74 37 -116t107 -42q90 0 151 57h11l-28 -69q-64 -47 -155 -47q-104 0 -161.5 55.5t-57.5 151.5q0 124 74 207t187 83q88 0 131.5 -45.5t43.5 -131.5q0 -22 -8 -60h-328zM398 301q2 9 2 27q0 113 -90 113
q-48 0 -90.5 -38t-58.5 -102h237z" />
    <glyph glyph-name="eacute" unicode="&#xe9;" horiz-adv-x="516" 
d="M490 716l-172 -141h-58l122 141h108zM152 250q-4 -19 -4 -43q0 -74 37 -116t107 -42q90 0 151 57h11l-28 -69q-64 -47 -155 -47q-104 0 -161.5 55.5t-57.5 151.5q0 124 74 207t187 83q88 0 131.5 -45.5t43.5 -131.5q0 -22 -8 -60h-328zM398 301q2 9 2 27q0 113 -90 113
q-48 0 -90.5 -38t-58.5 -102h237z" />
    <glyph glyph-name="ecircumflex" unicode="&#xea;" horiz-adv-x="516" 
d="M387 716l83 -141h-51l-80 87l-111 -87h-57l133 141h83zM152 250q-4 -19 -4 -43q0 -74 37 -116t107 -42q90 0 151 57h11l-28 -69q-64 -47 -155 -47q-104 0 -161.5 55.5t-57.5 151.5q0 124 74 207t187 83q88 0 131.5 -45.5t43.5 -131.5q0 -22 -8 -60h-328zM398 301
q2 9 2 27q0 113 -90 113q-48 0 -90.5 -38t-58.5 -102h237z" />
    <glyph glyph-name="edieresis" unicode="&#xeb;" horiz-adv-x="516" 
d="M304 699l-16 -95h-94l17 95h93zM477 699l-16 -95h-93l16 95h93zM152 250q-4 -19 -4 -43q0 -74 37 -116t107 -42q90 0 151 57h11l-28 -69q-64 -47 -155 -47q-104 0 -161.5 55.5t-57.5 151.5q0 124 74 207t187 83q88 0 131.5 -45.5t43.5 -131.5q0 -22 -8 -60h-328zM398 301
q2 9 2 27q0 113 -90 113q-48 0 -90.5 -38t-58.5 -102h237z" />
    <glyph glyph-name="igrave" unicode="&#xec;" horiz-adv-x="252" 
d="M178 716l78 -141h-52l-124 141h98zM130 477h95l-84 -477h-96z" />
    <glyph glyph-name="iacute" unicode="&#xed;" horiz-adv-x="252" 
d="M363 716l-172 -141h-58l122 141h108zM130 477h95l-84 -477h-96z" />
    <glyph glyph-name="icircumflex" unicode="&#xee;" horiz-adv-x="252" 
d="M261 716l83 -141h-51l-80 87l-111 -87h-57l133 141h83zM130 477h95l-84 -477h-96z" />
    <glyph glyph-name="idieresis" unicode="&#xef;" horiz-adv-x="252" 
d="M177 699l-16 -95h-94l17 95h93zM350 699l-16 -95h-93l16 95h93zM130 477h95l-84 -477h-96z" />
    <glyph glyph-name="eth" unicode="&#xf0;" horiz-adv-x="564" 
d="M424 601q104 -106 104 -277q0 -151 -76 -242.5t-204 -91.5q-83 0 -137.5 50.5t-54.5 144.5q0 124 71 213t181 89q40 0 71 -14t46 -37l1 1q-14 70 -76 130l-113 -51l-21 48l88 40q-48 31 -103 46l52 43q69 -13 128 -55l101 46l21 -47zM260 44q52 0 91 40t57.5 96.5
t18.5 118.5q0 64 -28.5 99t-77.5 35q-53 0 -91.5 -38.5t-55.5 -94t-17 -119.5q0 -65 27 -101t76 -36z" />
    <glyph glyph-name="ntilde" unicode="&#xf1;" horiz-adv-x="555" 
d="M479 706q-21 -47 -55 -47q-15 0 -54 24q-38 25 -67 25q-35 0 -61.5 -29t-41.5 -78h41q22 49 55 49q12 0 53 -25q39 -24 67 -24q71 0 103 105h-40zM351 0l50 292q8 43 8 58q0 71 -67 71q-59 0 -103 -51.5t-56 -127.5l-42 -242h-96l85 477h87l-11 -100h3q27 46 71.5 78
t98.5 32q127 0 127 -123q0 -24 -6 -60l-54 -304h-95z" />
    <glyph glyph-name="ograve" unicode="&#xf2;" horiz-adv-x="568" 
d="M333 716l78 -141h-52l-124 141h98zM328 487q91 0 147.5 -50t56.5 -142q0 -127 -77 -216t-198 -89q-89 0 -145 52t-56 144q0 125 78 213t194 88zM260 44q54 0 94.5 38.5t59.5 94.5t19 118q0 64 -27 102t-82 38q-52 0 -91.5 -38t-58 -93t-18.5 -116q0 -65 25.5 -104.5
t78.5 -39.5z" />
    <glyph glyph-name="oacute" unicode="&#xf3;" horiz-adv-x="568" 
d="M518 716l-172 -141h-58l122 141h108zM328 487q91 0 147.5 -50t56.5 -142q0 -127 -77 -216t-198 -89q-89 0 -145 52t-56 144q0 125 78 213t194 88zM260 44q54 0 94.5 38.5t59.5 94.5t19 118q0 64 -27 102t-82 38q-52 0 -91.5 -38t-58 -93t-18.5 -116q0 -65 25.5 -104.5
t78.5 -39.5z" />
    <glyph glyph-name="ocircumflex" unicode="&#xf4;" horiz-adv-x="568" 
d="M416 716l83 -141h-51l-80 87l-111 -87h-57l133 141h83zM328 487q91 0 147.5 -50t56.5 -142q0 -127 -77 -216t-198 -89q-89 0 -145 52t-56 144q0 125 78 213t194 88zM260 44q54 0 94.5 38.5t59.5 94.5t19 118q0 64 -27 102t-82 38q-52 0 -91.5 -38t-58 -93t-18.5 -116
q0 -65 25.5 -104.5t78.5 -39.5z" />
    <glyph glyph-name="otilde" unicode="&#xf5;" horiz-adv-x="568" 
d="M483 706q-21 -47 -55 -47q-15 0 -54 24q-38 25 -67 25q-35 0 -61.5 -29t-41.5 -78h41q22 49 55 49q12 0 53 -25q39 -24 67 -24q71 0 103 105h-40zM328 487q91 0 147.5 -50t56.5 -142q0 -127 -77 -216t-198 -89q-89 0 -145 52t-56 144q0 125 78 213t194 88zM260 44
q54 0 94.5 38.5t59.5 94.5t19 118q0 64 -27 102t-82 38q-52 0 -91.5 -38t-58 -93t-18.5 -116q0 -65 25.5 -104.5t78.5 -39.5z" />
    <glyph glyph-name="odieresis" unicode="&#xf6;" horiz-adv-x="568" 
d="M332 699l-16 -95h-94l17 95h93zM505 699l-16 -95h-93l16 95h93zM328 487q91 0 147.5 -50t56.5 -142q0 -127 -77 -216t-198 -89q-89 0 -145 52t-56 144q0 125 78 213t194 88zM260 44q54 0 94.5 38.5t59.5 94.5t19 118q0 64 -27 102t-82 38q-52 0 -91.5 -38t-58 -93
t-18.5 -116q0 -65 25.5 -104.5t78.5 -39.5z" />
    <glyph glyph-name="divide" unicode="&#xf7;" 
d="M366 455q0 -24 -18.5 -43.5t-42.5 -19.5q-26 0 -44.5 18.5t-18.5 44.5t18.5 44.5t43.5 18.5t43.5 -18.5t18.5 -44.5zM548 285v-66h-487v66h487zM366 49q0 -25 -19 -44t-42 -19q-26 0 -44.5 18.5t-18.5 44.5t18.5 44.5t43.5 18.5t43.5 -18.5t18.5 -44.5z" />
    <glyph glyph-name="oslash" unicode="&#xf8;" horiz-adv-x="568" 
d="M563 462l-60 -57q29 -47 29 -110q0 -127 -77 -216t-198 -89q-87 0 -141 48l-62 -58l-30 33l63 59q-31 46 -31 114q0 125 78 213t194 88q91 0 145 -48l60 56zM156 188q0 -27 4 -46l255 241q-28 52 -91 52q-52 0 -91.5 -38t-58 -93t-18.5 -116zM433 295q0 21 -3 41
l-255 -241q26 -51 85 -51q54 0 94.5 38.5t59.5 94.5t19 118z" />
    <glyph glyph-name="ugrave" unicode="&#xf9;" horiz-adv-x="545" 
d="M319 716l78 -141h-52l-124 141h98zM215 477l-51 -294q-7 -37 -7 -58q0 -71 66 -71q58 0 100.5 51.5t55.5 127.5l42 244h96l-85 -477h-88l11 99h-3q-26 -47 -68.5 -78t-94.5 -31q-130 0 -130 118q0 21 7 63l54 306h95z" />
    <glyph glyph-name="uacute" unicode="&#xfa;" horiz-adv-x="545" 
d="M504 716l-172 -141h-58l122 141h108zM215 477l-51 -294q-7 -37 -7 -58q0 -71 66 -71q58 0 100.5 51.5t55.5 127.5l42 244h96l-85 -477h-88l11 99h-3q-26 -47 -68.5 -78t-94.5 -31q-130 0 -130 118q0 21 7 63l54 306h95z" />
    <glyph glyph-name="ucircumflex" unicode="&#xfb;" horiz-adv-x="545" 
d="M402 716l83 -141h-51l-80 87l-111 -87h-57l133 141h83zM215 477l-51 -294q-7 -37 -7 -58q0 -71 66 -71q58 0 100.5 51.5t55.5 127.5l42 244h96l-85 -477h-88l11 99h-3q-26 -47 -68.5 -78t-94.5 -31q-130 0 -130 118q0 21 7 63l54 306h95z" />
    <glyph glyph-name="udieresis" unicode="&#xfc;" horiz-adv-x="545" 
d="M318 699l-16 -95h-94l17 95h93zM491 699l-16 -95h-93l16 95h93zM215 477l-51 -294q-7 -37 -7 -58q0 -71 66 -71q58 0 100.5 51.5t55.5 127.5l42 244h96l-85 -477h-88l11 99h-3q-26 -47 -68.5 -78t-94.5 -31q-130 0 -130 118q0 21 7 63l54 306h95z" />
    <glyph glyph-name="yacute" unicode="&#xfd;" horiz-adv-x="455" 
d="M461 716l-172 -141h-58l122 141h108zM83 -223h-95q97 121 175 247l-108 453h100l76 -354h3q94 166 185 354h76q-234 -426 -412 -700z" />
    <glyph glyph-name="thorn" unicode="&#xfe;" horiz-adv-x="571" 
d="M101 -223h-95l164 931l97 12l-62 -335h2q60 102 166 102q82 0 122.5 -52t40.5 -135q0 -125 -70 -217.5t-188 -92.5q-92 0 -126 79h-2zM342 430q-73 0 -125 -80.5t-54 -167.5q-1 -65 28 -100.5t79 -35.5q77 0 121.5 77t44.5 172q0 67 -24.5 101t-69.5 34z" />
    <glyph glyph-name="ydieresis" unicode="&#xff;" horiz-adv-x="455" 
d="M275 699l-16 -95h-94l17 95h93zM448 699l-16 -95h-93l16 95h93zM83 -223h-95q97 121 175 247l-108 453h100l76 -354h3q94 166 185 354h76q-234 -426 -412 -700z" />
    <glyph glyph-name="Amacron" unicode="&#x100;" horiz-adv-x="639" 
d="M592 850l-10 -53h-314l10 53h314zM486 0l-49 253h-247l-148 -253h-80l412 676l76 6l145 -682h-109zM376 564h-5l-148 -253h203z" />
    <glyph glyph-name="amacron" unicode="&#x101;" horiz-adv-x="519" 
d="M502 681l-9 -53h-314l9 53h314zM337 0l-4 71q-59 -81 -158 -81q-62 0 -97.5 32t-35.5 79q0 68 41.5 102t120.5 53q106 23 135 31.5t33 19.5q6 17 6 41q0 85 -93 85q-78 0 -146 -56h-10l16 67q69 43 150 43q85 0 130 -35.5t45 -97.5q0 -16 -5 -44l-40 -220q-9 -42 -7 -90
h-81zM213 44q43 0 79.5 29t51.5 73l19 106q-51 -10 -80 -16.5t-60.5 -18t-47 -24t-25.5 -32.5t-10 -46q0 -32 20 -51.5t53 -19.5z" />
    <glyph glyph-name="Abreve" unicode="&#x102;" horiz-adv-x="639" 
d="M417 754q-64 0 -95.5 35t-25.5 94h48q-2 -33 20 -53t61 -20q83 0 111 73h48q-38 -129 -167 -129zM486 0l-49 253h-247l-148 -253h-80l412 676l76 6l145 -682h-109zM376 564h-5l-148 -253h203z" />
    <glyph glyph-name="abreve" unicode="&#x103;" horiz-adv-x="519" 
d="M253 707q-2 -36 20 -56t61 -20q86 0 112 76h48q-37 -132 -168 -132q-64 0 -95.5 36t-25.5 96h48zM337 0l-4 71q-59 -81 -158 -81q-62 0 -97.5 32t-35.5 79q0 68 41.5 102t120.5 53q106 23 135 31.5t33 19.5q6 17 6 41q0 85 -93 85q-78 0 -146 -56h-10l16 67q69 43 150 43
q85 0 130 -35.5t45 -97.5q0 -16 -5 -44l-40 -220q-9 -42 -7 -90h-81zM213 44q43 0 79.5 29t51.5 73l19 106q-51 -10 -80 -16.5t-60.5 -18t-47 -24t-25.5 -32.5t-10 -46q0 -32 20 -51.5t53 -19.5z" />
    <glyph glyph-name="Aogonek" unicode="&#x104;" horiz-adv-x="639" 
d="M513 -142q21 0 55 14h7l-18 -40q-34 -16 -74 -16q-36 0 -58 15.5t-22 44.5q0 69 128 124h-45l-49 253h-247l-148 -253h-80l412 676l76 6l145 -682q-121 -67 -121 -110q0 -32 39 -32zM376 564h-5l-148 -253h203z" />
    <glyph glyph-name="aogonek" unicode="&#x105;" horiz-adv-x="519" 
d="M42 101q0 68 41.5 102t120.5 53q106 23 135 31.5t33 19.5q6 17 6 41q0 85 -93 85q-78 0 -146 -56h-10l16 67q69 43 150 43q85 0 130 -35.5t45 -97.5q0 -16 -5 -44l-40 -220q-9 -42 -7 -90q-122 -64 -122 -110q0 -32 39 -32q21 0 55 14h7l-18 -40q-32 -16 -74 -16
q-35 0 -57.5 15.5t-22.5 44.5q0 34 29 63t96 61h-13l-4 71q-59 -81 -158 -81q-62 0 -97.5 32t-35.5 79zM140 115q0 -32 20 -51.5t53 -19.5q43 0 79.5 29t51.5 73l19 106q-51 -10 -80 -16.5t-60.5 -18t-47 -24t-25.5 -32.5t-10 -46z" />
    <glyph glyph-name="Cacute" unicode="&#x106;" horiz-adv-x="681" 
d="M653 885l-181 -129h-59l127 129h113zM665 558q-27 35 -77 54t-106 19q-126 -1 -211 -99t-85 -244q0 -107 62 -170t169 -63q126 0 208 67h13l-32 -80q-86 -54 -203 -54q-154 0 -241.5 78t-87.5 217q0 179 120 294t288 115q121 0 186 -50l12 -84h-15z" />
    <glyph glyph-name="cacute" unicode="&#x107;" horiz-adv-x="467" 
d="M499 716l-172 -141h-58l122 141h108zM344 487q84 0 119 -29l-1 -62h-12q-32 39 -98 39q-89 0 -142 -70t-55 -168q-1 -67 35.5 -109t94.5 -42q77 0 132 50h11l-27 -65q-56 -41 -141 -41q-96 0 -152.5 54.5t-55.5 148.5q2 126 84 210t208 84z" />
    <glyph glyph-name="Ccircumflex" unicode="&#x108;" horiz-adv-x="681" 
d="M537 885l86 -129h-52l-80 75l-112 -75h-57l132 129h83zM665 558q-27 35 -77 54t-106 19q-126 -1 -211 -99t-85 -244q0 -107 62 -170t169 -63q126 0 208 67h13l-32 -80q-86 -54 -203 -54q-154 0 -241.5 78t-87.5 217q0 179 120 294t288 115q121 0 186 -50l12 -84h-15z" />
    <glyph glyph-name="ccircumflex" unicode="&#x109;" horiz-adv-x="467" 
d="M397 716l83 -141h-51l-80 87l-111 -87h-57l133 141h83zM344 487q84 0 119 -29l-1 -62h-12q-32 39 -98 39q-89 0 -142 -70t-55 -168q-1 -67 35.5 -109t94.5 -42q77 0 132 50h11l-27 -65q-56 -41 -141 -41q-96 0 -152.5 54.5t-55.5 148.5q2 126 84 210t208 84z" />
    <glyph glyph-name="Cdotaccent" unicode="&#x10a;" horiz-adv-x="681" 
d="M545 872l-17 -98h-102l17 98h102zM665 558q-27 35 -77 54t-106 19q-126 -1 -211 -99t-85 -244q0 -107 62 -170t169 -63q126 0 208 67h13l-32 -80q-86 -54 -203 -54q-154 0 -241.5 78t-87.5 217q0 179 120 294t288 115q121 0 186 -50l12 -84h-15z" />
    <glyph glyph-name="cdotaccent" unicode="&#x10b;" horiz-adv-x="467" 
d="M404 701l-17 -98h-102l17 98h102zM344 487q84 0 119 -29l-1 -62h-12q-32 39 -98 39q-89 0 -142 -70t-55 -168q-1 -67 35.5 -109t94.5 -42q77 0 132 50h11l-27 -65q-56 -41 -141 -41q-96 0 -152.5 54.5t-55.5 148.5q2 126 84 210t208 84z" />
    <glyph glyph-name="Ccaron" unicode="&#x10c;" horiz-adv-x="681" 
d="M433 756l-86 129h53l80 -75l112 75h56l-132 -129h-83zM665 558q-27 35 -77 54t-106 19q-126 -1 -211 -99t-85 -244q0 -107 62 -170t169 -63q126 0 208 67h13l-32 -80q-86 -54 -203 -54q-154 0 -241.5 78t-87.5 217q0 179 120 294t288 115q121 0 186 -50l12 -84h-15z" />
    <glyph glyph-name="ccaron" unicode="&#x10d;" horiz-adv-x="467" 
d="M289 575l-83 141h52l79 -87l112 87h56l-133 -141h-83zM344 487q84 0 119 -29l-1 -62h-12q-32 39 -98 39q-89 0 -142 -70t-55 -168q-1 -67 35.5 -109t94.5 -42q77 0 132 50h11l-27 -65q-56 -41 -141 -41q-96 0 -152.5 54.5t-55.5 148.5q2 126 84 210t208 84z" />
    <glyph glyph-name="Dcaron" unicode="&#x10e;" horiz-adv-x="757" 
d="M397 756l-86 129h53l80 -75l112 75h56l-132 -129h-83zM177 680h207q157 0 249.5 -74t91.5 -213q-2 -178 -124.5 -285.5t-322.5 -107.5h-221zM170 59h100q157 0 249 89.5t94 239.5q1 116 -68.5 174.5t-198.5 58.5h-77z" />
    <glyph glyph-name="dcaron" unicode="&#x10f;" horiz-adv-x="571" 
d="M487 708l97 12l-126 -720h-89l13 87h-2q-59 -97 -166 -97q-82 0 -121.5 51t-39.5 135q0 125 70 218t188 93q90 0 125 -76h2zM742 720q-34 -117 -95 -194h-47q41 104 57 194h85zM245 47q72 0 123.5 78.5t53.5 165.5q2 66 -24 103t-79 37t-92 -40.5t-56.5 -96t-17.5 -114.5
q0 -133 92 -133z" />
    <glyph glyph-name="Dcroat" unicode="&#x110;" horiz-adv-x="757" 
d="M384 680q157 0 249.5 -74t91.5 -213q-2 -178 -124.5 -285.5t-322.5 -107.5h-221l56 319h-72l11 57h71l54 304h207zM613 388q1 116 -68.5 174.5t-198.5 58.5h-77l-43 -245h182l-11 -57h-181l-46 -260h100q157 0 249 89.5t94 239.5z" />
    <glyph glyph-name="dcroat" unicode="&#x111;" horiz-adv-x="571" 
d="M625 612l-10 -53h-59l-98 -559h-89l13 87h-2q-59 -97 -166 -97q-82 0 -121.5 51t-39.5 135q0 125 70 218t188 93q90 0 125 -76h2l24 148h-151l9 53h151l16 96l97 12l-19 -108h60zM422 291q2 66 -24 103t-79 37t-92 -40.5t-56.5 -96t-17.5 -114.5q0 -133 92 -133
q72 0 123.5 78.5t53.5 165.5z" />
    <glyph glyph-name="Emacron" unicode="&#x112;" horiz-adv-x="488" 
d="M524 850l-10 -53h-314l10 53h314zM442 68l-43 -68h-342l120 680h321l-11 -60h-220l-43 -244h197l-9 -58h-197l-47 -258h121q109 0 147 8h6z" />
    <glyph glyph-name="emacron" unicode="&#x113;" horiz-adv-x="516" 
d="M496 681l-9 -53h-314l9 53h314zM152 250q-4 -19 -4 -43q0 -74 37 -116t107 -42q90 0 151 57h11l-28 -69q-64 -47 -155 -47q-104 0 -161.5 55.5t-57.5 151.5q0 124 74 207t187 83q88 0 131.5 -45.5t43.5 -131.5q0 -22 -8 -60h-328zM398 301q2 9 2 27q0 113 -90 113
q-48 0 -90.5 -38t-58.5 -102h237z" />
    <glyph glyph-name="Ebreve" unicode="&#x114;" horiz-adv-x="488" 
d="M277 883q-2 -33 20 -53t61 -20q83 0 111 73h48q-38 -129 -167 -129q-64 0 -95.5 35t-25.5 94h48zM442 68l-43 -68h-342l120 680h321l-11 -60h-220l-43 -244h197l-9 -58h-197l-47 -258h121q109 0 147 8h6z" />
    <glyph glyph-name="ebreve" unicode="&#x115;" horiz-adv-x="516" 
d="M247 707q-2 -36 20 -56t61 -20q86 0 112 76h48q-37 -132 -168 -132q-64 0 -95.5 36t-25.5 96h48zM152 250q-4 -19 -4 -43q0 -74 37 -116t107 -42q90 0 151 57h11l-28 -69q-64 -47 -155 -47q-104 0 -161.5 55.5t-57.5 151.5q0 124 74 207t187 83q88 0 131.5 -45.5
t43.5 -131.5q0 -22 -8 -60h-328zM398 301q2 9 2 27q0 113 -90 113q-48 0 -90.5 -38t-58.5 -102h237z" />
    <glyph glyph-name="Edotaccent" unicode="&#x116;" horiz-adv-x="488" 
d="M422 872l-17 -98h-102l17 98h102zM442 68l-43 -68h-342l120 680h321l-11 -60h-220l-43 -244h197l-9 -58h-197l-47 -258h121q109 0 147 8h6z" />
    <glyph glyph-name="edotaccent" unicode="&#x117;" horiz-adv-x="516" 
d="M394 701l-17 -98h-102l17 98h102zM152 250q-4 -19 -4 -43q0 -74 37 -116t107 -42q90 0 151 57h11l-28 -69q-64 -47 -155 -47q-104 0 -161.5 55.5t-57.5 151.5q0 124 74 207t187 83q88 0 131.5 -45.5t43.5 -131.5q0 -22 -8 -60h-328zM398 301q2 9 2 27q0 113 -90 113
q-48 0 -90.5 -38t-58.5 -102h237z" />
    <glyph glyph-name="Eogonek" unicode="&#x118;" horiz-adv-x="488" 
d="M286 -184q-35 0 -57.5 15.5t-22.5 44.5q0 69 131 124h-280l120 680h321l-11 -60h-220l-43 -244h197l-9 -58h-197l-47 -258h121q109 0 147 8h6l-43 -68q-122 -67 -122 -110q0 -32 40 -32q21 0 55 14h7l-18 -40q-34 -16 -75 -16z" />
    <glyph glyph-name="eogonek" unicode="&#x119;" horiz-adv-x="516" 
d="M284 -184q-35 0 -57.5 15.5t-22.5 44.5q0 59 98 116q-11 -2 -31 -2q-104 0 -161.5 55.5t-57.5 151.5q0 124 74 207t187 83q88 0 131.5 -45.5t43.5 -131.5q0 -22 -8 -60h-328q-4 -19 -4 -43q0 -74 37 -116t107 -42q90 0 151 57h11l-28 -69q-89 -56 -120 -89.5t-31 -58.5
q0 -13 10 -22t29 -9q22 0 56 14h7l-19 -40q-32 -16 -74 -16zM161 301h237q2 9 2 27q0 113 -90 113q-48 0 -90.5 -38t-58.5 -102z" />
    <glyph glyph-name="Ecaron" unicode="&#x11a;" horiz-adv-x="488" 
d="M310 756l-86 129h53l80 -75l112 75h56l-132 -129h-83zM442 68l-43 -68h-342l120 680h321l-11 -60h-220l-43 -244h197l-9 -58h-197l-47 -258h121q109 0 147 8h6z" />
    <glyph glyph-name="ecaron" unicode="&#x11b;" horiz-adv-x="516" 
d="M280 575l-83 141h52l79 -87l112 87h56l-133 -141h-83zM152 250q-4 -19 -4 -43q0 -74 37 -116t107 -42q90 0 151 57h11l-28 -69q-64 -47 -155 -47q-104 0 -161.5 55.5t-57.5 151.5q0 124 74 207t187 83q88 0 131.5 -45.5t43.5 -131.5q0 -22 -8 -60h-328zM398 301q2 9 2 27
q0 113 -90 113q-48 0 -90.5 -38t-58.5 -102h237z" />
    <glyph glyph-name="Gcircumflex" unicode="&#x11c;" horiz-adv-x="723" 
d="M533 885l86 -129h-52l-80 75l-112 -75h-57l132 129h83zM398 -12q-150 0 -239 78t-88 213q2 184 119.5 298.5t291.5 114.5q120 0 185 -43l13 -83h-17q-27 30 -76.5 47t-104.5 17q-135 0 -216 -96.5t-83 -249.5q-1 -110 61.5 -172t169.5 -62q71 0 114 23l46 262h101
l-52 -296q-92 -51 -225 -51z" />
    <glyph glyph-name="gcircumflex" unicode="&#x11d;" horiz-adv-x="503" 
d="M373 716l83 -141h-51l-80 87l-111 -87h-57l133 141h83zM296 70q91 0 134.5 -24.5t43.5 -77.5q0 -92 -86.5 -148.5t-199.5 -56.5q-88 0 -142 28.5t-54 83.5q0 33 23.5 63t68.5 65q-27 7 -43.5 25.5t-16.5 43.5q1 31 96 132q-43 34 -43 94q0 83 57.5 136t143.5 53
q56 0 97 -15h158l-14 -49h-96v-4q23 -25 23 -72q0 -79 -57.5 -129.5t-146.5 -50.5q-63 0 -93 19q-36 -52 -37 -79q-1 -20 16.5 -28.5t60.5 -8.5h107zM168 296q0 -38 20.5 -61t55.5 -23q56 0 82.5 40.5t26.5 102.5q0 40 -21 64t-56 24q-49 0 -78.5 -45t-29.5 -102zM190 -187
q78 0 133 34t55 90q0 23 -15 34t-45 16q-52 6 -202 8q-44 -44 -44 -102q0 -39 31.5 -59.5t86.5 -20.5z" />
    <glyph glyph-name="Gbreve" unicode="&#x11e;" horiz-adv-x="723" 
d="M395 883q-2 -33 20 -53t61 -20q83 0 111 73h48q-38 -129 -167 -129q-64 0 -95.5 35t-25.5 94h48zM398 -12q-150 0 -239 78t-88 213q2 184 119.5 298.5t291.5 114.5q120 0 185 -43l13 -83h-17q-27 30 -76.5 47t-104.5 17q-135 0 -216 -96.5t-83 -249.5q-1 -110 61.5 -172
t169.5 -62q71 0 114 23l46 262h101l-52 -296q-92 -51 -225 -51z" />
    <glyph glyph-name="gbreve" unicode="&#x11f;" horiz-adv-x="503" 
d="M233 707q-2 -36 20 -56t61 -20q86 0 112 76h48q-37 -132 -168 -132q-64 0 -95.5 36t-25.5 96h48zM296 70q91 0 134.5 -24.5t43.5 -77.5q0 -92 -86.5 -148.5t-199.5 -56.5q-88 0 -142 28.5t-54 83.5q0 33 23.5 63t68.5 65q-27 7 -43.5 25.5t-16.5 43.5q1 31 96 132
q-43 34 -43 94q0 83 57.5 136t143.5 53q56 0 97 -15h158l-14 -49h-96v-4q23 -25 23 -72q0 -79 -57.5 -129.5t-146.5 -50.5q-63 0 -93 19q-36 -52 -37 -79q-1 -20 16.5 -28.5t60.5 -8.5h107zM168 296q0 -38 20.5 -61t55.5 -23q56 0 82.5 40.5t26.5 102.5q0 40 -21 64t-56 24
q-49 0 -78.5 -45t-29.5 -102zM190 -187q78 0 133 34t55 90q0 23 -15 34t-45 16q-52 6 -202 8q-44 -44 -44 -102q0 -39 31.5 -59.5t86.5 -20.5z" />
    <glyph glyph-name="Gdotaccent" unicode="&#x120;" horiz-adv-x="723" 
d="M541 872l-17 -98h-102l17 98h102zM398 -12q-150 0 -239 78t-88 213q2 184 119.5 298.5t291.5 114.5q120 0 185 -43l13 -83h-17q-27 30 -76.5 47t-104.5 17q-135 0 -216 -96.5t-83 -249.5q-1 -110 61.5 -172t169.5 -62q71 0 114 23l46 262h101l-52 -296q-92 -51 -225 -51z
" />
    <glyph glyph-name="gdotaccent" unicode="&#x121;" horiz-adv-x="503" 
d="M379 701l-17 -98h-102l17 98h102zM296 70q91 0 134.5 -24.5t43.5 -77.5q0 -92 -86.5 -148.5t-199.5 -56.5q-88 0 -142 28.5t-54 83.5q0 33 23.5 63t68.5 65q-27 7 -43.5 25.5t-16.5 43.5q1 31 96 132q-43 34 -43 94q0 83 57.5 136t143.5 53q56 0 97 -15h158l-14 -49h-96
v-4q23 -25 23 -72q0 -79 -57.5 -129.5t-146.5 -50.5q-63 0 -93 19q-36 -52 -37 -79q-1 -20 16.5 -28.5t60.5 -8.5h107zM168 296q0 -38 20.5 -61t55.5 -23q56 0 82.5 40.5t26.5 102.5q0 40 -21 64t-56 24q-49 0 -78.5 -45t-29.5 -102zM190 -187q78 0 133 34t55 90
q0 23 -15 34t-45 16q-52 6 -202 8q-44 -44 -44 -102q0 -39 31.5 -59.5t86.5 -20.5z" />
    <glyph glyph-name="uni0122" unicode="&#x122;" horiz-adv-x="723" 
d="M398 -12q-150 0 -239 78t-88 213q2 184 119.5 298.5t291.5 114.5q120 0 185 -43l13 -83h-17q-27 30 -76.5 47t-104.5 17q-135 0 -216 -96.5t-83 -249.5q-1 -110 61.5 -172t169.5 -62q71 0 114 23l46 262h101l-52 -296q-92 -51 -225 -51zM411 -70q-19 -65 -85 -146h-46
q31 68 47 146h84z" />
    <glyph glyph-name="uni0123" unicode="&#x123;" horiz-adv-x="503" 
d="M255 575q22 66 85 141h47q-28 -61 -45 -141h-87zM296 70q91 0 134.5 -24.5t43.5 -77.5q0 -92 -86.5 -148.5t-199.5 -56.5q-88 0 -142 28.5t-54 83.5q0 33 23.5 63t68.5 65q-27 7 -43.5 25.5t-16.5 43.5q1 31 96 132q-43 34 -43 94q0 83 57.5 136t143.5 53q56 0 97 -15
h158l-14 -49h-96v-4q23 -25 23 -72q0 -79 -57.5 -129.5t-146.5 -50.5q-63 0 -93 19q-36 -52 -37 -79q-1 -20 16.5 -28.5t60.5 -8.5h107zM168 296q0 -38 20.5 -61t55.5 -23q56 0 82.5 40.5t26.5 102.5q0 40 -21 64t-56 24q-49 0 -78.5 -45t-29.5 -102zM190 -187q78 0 133 34
t55 90q0 23 -15 34t-45 16q-52 6 -202 8q-44 -44 -44 -102q0 -39 31.5 -59.5t86.5 -20.5z" />
    <glyph glyph-name="Hcircumflex" unicode="&#x124;" horiz-adv-x="732" 
d="M526 885l86 -129h-52l-80 75l-112 -75h-57l132 129h83zM177 680h101l-51 -290h342l50 290h101l-120 -680h-100l57 325h-342l-57 -325h-101z" />
    <glyph glyph-name="hcircumflex" unicode="&#x125;" horiz-adv-x="554" 
d="M292 885l86 -129h-53l-80 75l-112 -75h-57l132 129h84zM351 0l50 292q8 43 8 60q0 71 -67 71q-59 0 -102.5 -52.5t-56.5 -128.5l-42 -242h-96l126 708l98 12l-62 -343h3q27 47 71 78.5t98 31.5q127 0 127 -121q0 -26 -6 -62l-54 -304h-95z" />
    <glyph glyph-name="Hbar" unicode="&#x126;" horiz-adv-x="732" 
d="M770 570l-10 -59h-70l-90 -511h-100l57 325h-342l-57 -325h-101l90 511h-70l10 59h71l19 110h101l-19 -110h341l19 110h101l-19 -110h69zM569 390l21 121h-342l-21 -121h342z" />
    <glyph glyph-name="hbar" unicode="&#x127;" horiz-adv-x="554" 
d="M379 487q127 0 127 -121q0 -26 -6 -62l-54 -304h-95l50 292q8 43 8 60q0 71 -67 71q-59 0 -102.5 -52.5t-56.5 -128.5l-42 -242h-96l99 559h-59l9 53h60l17 96l98 12l-20 -108h150l-9 -53h-150l-33 -182h3q27 47 71 78.5t98 31.5z" />
    <glyph glyph-name="Itilde" unicode="&#x128;" horiz-adv-x="291" 
d="M372 875q-21 -47 -55 -47q-15 0 -53 24q-40 25 -67 25q-71 0 -104 -107h42q21 49 54 49q14 0 54 -25q39 -24 67 -24q70 0 102 105h-40zM177 680h102l-120 -680h-102z" />
    <glyph glyph-name="itilde" unicode="&#x129;" horiz-adv-x="252" 
d="M328 706q-21 -47 -55 -47q-15 0 -54 24q-38 25 -67 25q-35 0 -61.5 -29t-41.5 -78h41q22 49 55 49q12 0 53 -25q39 -24 67 -24q71 0 103 105h-40zM130 477h95l-84 -477h-96z" />
    <glyph glyph-name="Imacron" unicode="&#x12a;" horiz-adv-x="291" 
d="M416 850l-10 -53h-314l10 53h314zM177 680h102l-120 -680h-102z" />
    <glyph glyph-name="imacron" unicode="&#x12b;" horiz-adv-x="252" 
d="M370 681l-9 -53h-314l9 53h314zM130 477h95l-84 -477h-96z" />
    <glyph glyph-name="Ibreve" unicode="&#x12c;" horiz-adv-x="291" 
d="M168 883q-2 -33 20 -53t61 -20q83 0 111 73h48q-38 -129 -167 -129q-64 0 -95.5 35t-25.5 94h48zM177 680h102l-120 -680h-102z" />
    <glyph glyph-name="ibreve" unicode="&#x12d;" horiz-adv-x="252" 
d="M121 707q-2 -36 20 -56t61 -20q86 0 112 76h48q-37 -132 -168 -132q-64 0 -95.5 36t-25.5 96h48zM130 477h95l-84 -477h-96z" />
    <glyph glyph-name="Iogonek" unicode="&#x12e;" horiz-adv-x="291" 
d="M-15 -124q0 35 26 62.5t89 61.5h-43l120 680h102l-120 -680q-103 -69 -103 -110q0 -32 39 -32q21 0 55 14h7l-18 -40q-34 -16 -74 -16q-36 0 -58 15.5t-22 44.5z" />
    <glyph glyph-name="iogonek" unicode="&#x12f;" horiz-adv-x="252" 
d="M165 701h102l-17 -98h-102zM45 0l85 477h95l-84 -477q-100 -69 -100 -110q0 -32 39 -32q21 0 55 14h7l-18 -40q-34 -16 -74 -16q-35 0 -57.5 15.5t-22.5 44.5q0 35 25 62t87 62h-37z" />
    <glyph glyph-name="Idotaccent" unicode="&#x130;" horiz-adv-x="291" 
d="M313 872l-17 -98h-102l17 98h102zM177 680h102l-120 -680h-102z" />
    <glyph glyph-name="dotlessi" unicode="&#x131;" horiz-adv-x="252" 
d="M130 477h95l-84 -477h-96z" />
    <glyph glyph-name="IJ" unicode="&#x132;" horiz-adv-x="580" 
d="M177 680h102l-120 -680h-102zM472 680h102l-99 -559q-19 -122 -76.5 -182.5t-162.5 -90.5l-57 22v9q90 26 133 81t64 170z" />
    <glyph glyph-name="ij" unicode="&#x133;" horiz-adv-x="505" 
d="M165 701h102l-17 -98h-102zM518 701l-17 -98h-102l17 98h102zM130 477h95l-84 -477h-96zM479 477l-80 -451q-21 -121 -82.5 -180.5t-168.5 -84.5l-42 22v9q90 29 135 79t65 161l79 445h94z" />
    <glyph glyph-name="Jcircumflex" unicode="&#x134;" horiz-adv-x="289" 
d="M309 885l86 -129h-52l-80 75l-112 -75h-57l132 129h83zM181 680h102l-99 -559q-19 -122 -76.5 -182.5t-162.5 -90.5l-57 22v9q90 26 133 81t64 170z" />
    <glyph glyph-name="jcircumflex" unicode="&#x135;" horiz-adv-x="253" 
d="M263 716l83 -141h-51l-80 87l-111 -87h-57l133 141h83zM227 477l-80 -451q-21 -121 -82.5 -180.5t-168.5 -84.5l-43 22v9q91 29 136 79t65 161l79 445h94z" />
    <glyph glyph-name="uni0136" unicode="&#x136;" horiz-adv-x="612" 
d="M278 680l-120 -680h-101l120 680h101zM566 680h100l-338 -311q131 -220 253 -364l-1 -5h-128q-98 132 -222 350l1 7zM327 -70q-19 -65 -85 -146h-46q31 68 47 146h84z" />
    <glyph glyph-name="uni0137" unicode="&#x137;" horiz-adv-x="490" 
d="M170 708l98 12l-128 -720h-95zM195 255l223 222h94l-225 -208q88 -161 172 -264v-5h-115q-62 91 -151 247zM271 -70q-19 -65 -85 -146h-46q31 68 47 146h84z" />
    <glyph glyph-name="kgreenlandic" unicode="&#x138;" horiz-adv-x="490" 
d="M129 477h95l-84 -477h-95zM195 255l223 222h94l-225 -208q88 -161 172 -264v-5h-115q-67 98 -150 247z" />
    <glyph glyph-name="Lacute" unicode="&#x139;" horiz-adv-x="438" 
d="M433 885l-181 -129h-59l127 129h113zM363 0h-306l120 680h102l-111 -620h88q99 0 141 8h6z" />
    <glyph glyph-name="lacute" unicode="&#x13a;" horiz-adv-x="252" 
d="M418 885l-180 -129h-59l126 129h113zM170 708l98 12l-128 -720h-95z" />
    <glyph glyph-name="uni013B" unicode="&#x13b;" horiz-adv-x="438" 
d="M363 0h-306l120 680h102l-111 -620h88q99 0 141 8h6zM244 -70q-19 -65 -85 -146h-46q31 68 47 146h84z" />
    <glyph glyph-name="uni013C" unicode="&#x13c;" horiz-adv-x="252" 
d="M170 708l98 12l-128 -720h-95zM125 -70q-19 -65 -85 -146h-46q31 68 47 146h84z" />
    <glyph glyph-name="Lcaron" unicode="&#x13d;" horiz-adv-x="438" 
d="M450 720q-34 -117 -95 -194h-47q41 104 57 194h85zM363 0h-306l120 680h102l-111 -620h88q99 0 141 8h6z" />
    <glyph glyph-name="lcaron" unicode="&#x13e;" horiz-adv-x="252" 
d="M170 708l98 12l-128 -720h-95zM425 720q-34 -117 -95 -194h-47q41 104 57 194h85z" />
    <glyph glyph-name="Ldot" unicode="&#x13f;" horiz-adv-x="438" 
d="M363 0h-306l120 680h102l-111 -620h88q99 0 141 8h6zM447 396l-17 -98h-102l17 98h102z" />
    <glyph glyph-name="ldot" unicode="&#x140;" horiz-adv-x="356" 
d="M170 708l98 12l-128 -720h-95zM392 396l-17 -98h-102l17 98h102z" />
    <glyph glyph-name="Lslash" unicode="&#x141;" horiz-adv-x="438" 
d="M397 68h6l-40 -68h-306l50 286l-81 -42l11 69l83 43l57 324h102l-50 -277l139 71l-10 -69l-141 -72l-49 -273h88q99 0 141 8z" />
    <glyph glyph-name="lslash" unicode="&#x142;" horiz-adv-x="252" 
d="M308 487l-10 -66l-92 -48l-66 -373h-95l57 325l-88 -47l10 66l90 47l56 317l98 12l-50 -280z" />
    <glyph glyph-name="Nacute" unicode="&#x143;" horiz-adv-x="736" 
d="M642 885l-181 -129h-59l127 129h113zM557 168h4l87 512h74l-120 -681h-61l-314 539h-5l-91 -538h-74l120 680h84z" />
    <glyph glyph-name="nacute" unicode="&#x144;" horiz-adv-x="555" 
d="M514 716l-172 -141h-58l122 141h108zM351 0l50 292q8 43 8 58q0 71 -67 71q-59 0 -103 -51.5t-56 -127.5l-42 -242h-96l85 477h87l-11 -100h3q27 46 71.5 78t98.5 32q127 0 127 -123q0 -24 -6 -60l-54 -304h-95z" />
    <glyph glyph-name="uni0145" unicode="&#x145;" horiz-adv-x="736" 
d="M557 168h4l87 512h74l-120 -681h-61l-314 539h-5l-91 -538h-74l120 680h84zM367 -70q-19 -65 -85 -146h-46q31 68 47 146h84z" />
    <glyph glyph-name="uni0146" unicode="&#x146;" horiz-adv-x="555" 
d="M351 0l50 292q8 43 8 58q0 71 -67 71q-59 0 -103 -51.5t-56 -127.5l-42 -242h-96l85 477h87l-11 -100h3q27 46 71.5 78t98.5 32q127 0 127 -123q0 -24 -6 -60l-54 -304h-95zM287 -70q-19 -65 -85 -146h-46q31 68 47 146h84z" />
    <glyph glyph-name="Ncaron" unicode="&#x147;" horiz-adv-x="736" 
d="M422 756l-86 129h53l80 -75l112 75h56l-132 -129h-83zM557 168h4l87 512h74l-120 -681h-61l-314 539h-5l-91 -538h-74l120 680h84z" />
    <glyph glyph-name="ncaron" unicode="&#x148;" horiz-adv-x="555" 
d="M304 575l-83 141h52l79 -87l112 87h56l-133 -141h-83zM351 0l50 292q8 43 8 58q0 71 -67 71q-59 0 -103 -51.5t-56 -127.5l-42 -242h-96l85 477h87l-11 -100h3q27 46 71.5 78t98.5 32q127 0 127 -123q0 -24 -6 -60l-54 -304h-95z" />
    <glyph glyph-name="napostrophe" unicode="&#x149;" horiz-adv-x="555" 
d="M194 720q-34 -117 -95 -194h-47q41 104 57 194h85zM351 0l50 292q8 43 8 58q0 71 -67 71q-59 0 -103 -51.5t-56 -127.5l-42 -242h-96l85 477h87l-11 -100h3q27 46 71.5 78t98.5 32q127 0 127 -123q0 -24 -6 -60l-54 -304h-95z" />
    <glyph glyph-name="Eng" unicode="&#x14a;" horiz-adv-x="736" 
d="M365 -228l-43 17l1 6q88 33 135 85t70 141l-301 517h-5l-91 -538h-74l120 680h84l296 -512h4l87 512h74l-111 -632q-22 -124 -79 -185.5t-167 -90.5z" />
    <glyph glyph-name="eng" unicode="&#x14b;" horiz-adv-x="555" 
d="M200 -239l-43 22v9q91 29 136 79t64 161l44 260q8 43 8 58q0 71 -67 71q-59 0 -103 -51.5t-56 -127.5l-42 -242h-96l85 477h87l-11 -100h3q27 46 71.5 78t98.5 32q127 0 127 -123q0 -24 -6 -60l-49 -278q-21 -121 -82.5 -180.5t-168.5 -84.5z" />
    <glyph glyph-name="Omacron" unicode="&#x14c;" horiz-adv-x="796" 
d="M670 850l-10 -53h-314l10 53h314zM480 692q125 0 205.5 -73t79.5 -209q-2 -181 -114 -301.5t-284 -120.5q-128 0 -209 73.5t-79 209.5q2 177 116 299t285 122zM376 48q85 0 149.5 53t96 132.5t32.5 170.5q1 107 -44.5 168t-138.5 61q-85 0 -150 -52.5t-97 -132
t-33 -171.5q-2 -106 44.5 -167.5t140.5 -61.5z" />
    <glyph glyph-name="omacron" unicode="&#x14d;" horiz-adv-x="568" 
d="M524 681l-9 -53h-314l9 53h314zM328 487q91 0 147.5 -50t56.5 -142q0 -127 -77 -216t-198 -89q-89 0 -145 52t-56 144q0 125 78 213t194 88zM260 44q54 0 94.5 38.5t59.5 94.5t19 118q0 64 -27 102t-82 38q-52 0 -91.5 -38t-58 -93t-18.5 -116q0 -65 25.5 -104.5
t78.5 -39.5z" />
    <glyph glyph-name="Obreve" unicode="&#x14e;" horiz-adv-x="796" 
d="M422 883q-2 -33 20 -53t61 -20q83 0 111 73h48q-38 -129 -167 -129q-64 0 -95.5 35t-25.5 94h48zM480 692q125 0 205.5 -73t79.5 -209q-2 -181 -114 -301.5t-284 -120.5q-128 0 -209 73.5t-79 209.5q2 177 116 299t285 122zM376 48q85 0 149.5 53t96 132.5t32.5 170.5
q1 107 -44.5 168t-138.5 61q-85 0 -150 -52.5t-97 -132t-33 -171.5q-2 -106 44.5 -167.5t140.5 -61.5z" />
    <glyph glyph-name="obreve" unicode="&#x14f;" horiz-adv-x="568" 
d="M276 707q-2 -36 20 -56t61 -20q86 0 112 76h48q-37 -132 -168 -132q-64 0 -95.5 36t-25.5 96h48zM328 487q91 0 147.5 -50t56.5 -142q0 -127 -77 -216t-198 -89q-89 0 -145 52t-56 144q0 125 78 213t194 88zM260 44q54 0 94.5 38.5t59.5 94.5t19 118q0 64 -27 102t-82 38
q-52 0 -91.5 -38t-58 -93t-18.5 -116q0 -65 25.5 -104.5t78.5 -39.5z" />
    <glyph glyph-name="Ohungarumlaut" unicode="&#x150;" horiz-adv-x="796" 
d="M592 885l-166 -129h-57l120 129h103zM757 885l-166 -129h-57l120 129h103zM480 692q125 0 205.5 -73t79.5 -209q-2 -181 -114 -301.5t-284 -120.5q-128 0 -209 73.5t-79 209.5q2 177 116 299t285 122zM376 48q85 0 149.5 53t96 132.5t32.5 170.5q1 107 -44.5 168
t-138.5 61q-85 0 -150 -52.5t-97 -132t-33 -171.5q-2 -106 44.5 -167.5t140.5 -61.5z" />
    <glyph glyph-name="ohungarumlaut" unicode="&#x151;" horiz-adv-x="568" 
d="M445 716l-165 -141h-56l120 141h101zM610 716l-165 -141h-56l120 141h101zM328 487q91 0 147.5 -50t56.5 -142q0 -127 -77 -216t-198 -89q-89 0 -145 52t-56 144q0 125 78 213t194 88zM260 44q54 0 94.5 38.5t59.5 94.5t19 118q0 64 -27 102t-82 38q-52 0 -91.5 -38
t-58 -93t-18.5 -116q0 -65 25.5 -104.5t78.5 -39.5z" />
    <glyph glyph-name="OE" unicode="&#x152;" horiz-adv-x="940" 
d="M396 -5q-147 0 -232 66.5t-85 201.5q0 186 120 304t310 118q25 0 88 -2.5t75 -2.5h278l-11 -60h-220l-43 -244h197l-9 -58h-197l-47 -258h121q109 0 147 8h6l-43 -68h-305q-16 0 -72.5 -2.5t-77.5 -2.5zM406 57q63 0 114 4l99 559q-86 4 -122 4q-140 0 -224 -102
t-84 -250q0 -215 217 -215z" />
    <glyph glyph-name="oe" unicode="&#x153;" horiz-adv-x="892" 
d="M257 -10q-89 0 -145 52t-56 144q0 124 77.5 212.5t191.5 88.5q128 0 172 -97h2q28 43 78.5 70t109.5 27q88 0 132 -46t44 -131q0 -30 -8 -60h-328q-3 -21 -3 -43q0 -75 36.5 -116.5t106.5 -41.5q91 0 151 57h12l-28 -69q-66 -47 -155 -47q-135 0 -184 104h-2
q-30 -46 -84.5 -75t-119.5 -29zM536 301h237q3 14 3 27q0 113 -92 113q-48 0 -90 -38t-58 -102zM260 44q54 0 94.5 38.5t59.5 94.5t19 118q0 64 -27 102t-82 38q-52 0 -91.5 -38t-58 -93t-18.5 -116q0 -65 25.5 -104.5t78.5 -39.5z" />
    <glyph glyph-name="Racute" unicode="&#x154;" horiz-adv-x="593" 
d="M559 885l-181 -129h-59l127 129h113zM177 680h169q94 0 149.5 -40.5t54.5 -120.5q-1 -81 -52 -133t-139 -70l-2 -4q44 -74 106 -161.5t113 -144.5l-1 -6h-129q-81 105 -188 302h-46l-54 -302h-101zM220 351h74q152 17 154 163q1 54 -33 82t-92 28h-55z" />
    <glyph glyph-name="racute" unicode="&#x155;" horiz-adv-x="346" 
d="M414 716l-172 -141h-58l122 141h108zM129 477h89l-19 -125h3q29 58 76 98t98 39l-21 -86q-67 -1 -113.5 -49.5t-59.5 -124.5l-41 -229h-96z" />
    <glyph glyph-name="uni0156" unicode="&#x156;" horiz-adv-x="593" 
d="M177 680h169q94 0 149.5 -40.5t54.5 -120.5q-1 -81 -52 -133t-139 -70l-2 -4q44 -74 106 -161.5t113 -144.5l-1 -6h-129q-81 105 -188 302h-46l-54 -302h-101zM220 351h74q152 17 154 163q1 54 -33 82t-92 28h-55zM316 -70q-19 -65 -85 -146h-46q31 68 47 146h84z" />
    <glyph glyph-name="uni0157" unicode="&#x157;" horiz-adv-x="346" 
d="M129 477h89l-19 -125h3q29 58 76 98t98 39l-21 -86q-67 -1 -113.5 -49.5t-59.5 -124.5l-41 -229h-96zM124 -70q-19 -65 -85 -146h-46q31 68 47 146h84z" />
    <glyph glyph-name="Rcaron" unicode="&#x158;" horiz-adv-x="593" 
d="M339 756l-86 129h53l80 -75l112 75h56l-132 -129h-83zM177 680h169q94 0 149.5 -40.5t54.5 -120.5q-1 -81 -52 -133t-139 -70l-2 -4q44 -74 106 -161.5t113 -144.5l-1 -6h-129q-81 105 -188 302h-46l-54 -302h-101zM220 351h74q152 17 154 163q1 54 -33 82t-92 28h-55z
" />
    <glyph glyph-name="rcaron" unicode="&#x159;" horiz-adv-x="346" 
d="M204 575l-83 141h52l79 -87l112 87h56l-133 -141h-83zM129 477h89l-19 -125h3q29 58 76 98t98 39l-21 -86q-67 -1 -113.5 -49.5t-59.5 -124.5l-41 -229h-96z" />
    <glyph glyph-name="Sacute" unicode="&#x15a;" horiz-adv-x="494" 
d="M517 885l-181 -129h-59l127 129h113zM461 588q-42 44 -117 44q-48 0 -84 -26t-37 -81q0 -35 19.5 -61.5t68.5 -62.5q68 -49 103.5 -98t34.5 -109q-1 -98 -68 -152t-169 -54q-50 0 -101 18.5t-84 44.5l-11 98h12q35 -46 86 -72t100 -26q60 0 96 31.5t37 93.5q1 44 -27 79
t-86 78q-60 44 -85.5 79.5t-24.5 87.5q1 88 66.5 140t153.5 52q84 0 138 -31l-5 -74z" />
    <glyph glyph-name="sacute" unicode="&#x15b;" horiz-adv-x="377" 
d="M413 716l-172 -141h-58l122 141h108zM350 399q-37 40 -96 40q-34 0 -56 -17t-22 -46q0 -22 12 -40t52 -54q48 -42 68.5 -74.5t20.5 -71.5q0 -67 -49.5 -105.5t-119.5 -38.5q-76 0 -133 38l-10 77h11q57 -62 127 -62q39 0 61 20t22 52q0 30 -14.5 51.5t-57.5 59.5
q-45 40 -60 65t-15 59q0 61 47.5 98t114.5 37q58 0 98 -20l9 -69z" />
    <glyph glyph-name="Scircumflex" unicode="&#x15c;" horiz-adv-x="494" 
d="M401 885l86 -129h-52l-80 75l-112 -75h-57l132 129h83zM461 588q-42 44 -117 44q-48 0 -84 -26t-37 -81q0 -35 19.5 -61.5t68.5 -62.5q68 -49 103.5 -98t34.5 -109q-1 -98 -68 -152t-169 -54q-50 0 -101 18.5t-84 44.5l-11 98h12q35 -46 86 -72t100 -26q60 0 96 31.5
t37 93.5q1 44 -27 79t-86 78q-60 44 -85.5 79.5t-24.5 87.5q1 88 66.5 140t153.5 52q84 0 138 -31l-5 -74z" />
    <glyph glyph-name="scircumflex" unicode="&#x15d;" horiz-adv-x="377" 
d="M310 716l83 -141h-51l-80 87l-111 -87h-57l133 141h83zM350 399q-37 40 -96 40q-34 0 -56 -17t-22 -46q0 -22 12 -40t52 -54q48 -42 68.5 -74.5t20.5 -71.5q0 -67 -49.5 -105.5t-119.5 -38.5q-76 0 -133 38l-10 77h11q57 -62 127 -62q39 0 61 20t22 52q0 30 -14.5 51.5
t-57.5 59.5q-45 40 -60 65t-15 59q0 61 47.5 98t114.5 37q58 0 98 -20l9 -69z" />
    <glyph glyph-name="Scedilla" unicode="&#x15e;" horiz-adv-x="494" 
d="M344 692q84 0 138 -31l-5 -74l-16 1q-42 44 -117 44q-48 0 -84 -26t-37 -81q0 -35 19.5 -61.5t68.5 -62.5q68 -49 103.5 -98t34.5 -109q-1 -95 -63.5 -148.5t-159.5 -57.5l-22 -34l11 -3q58 -16 58 -66q0 -51 -47.5 -77.5t-118.5 -26.5l-13 34l4 4q106 2 106 57
q0 31 -63 42v6l45 65q-95 11 -159 62l-11 98h12q35 -46 86 -72t100 -26q60 0 96 31.5t37 93.5q1 44 -27 79t-86 78q-60 44 -85.5 79.5t-24.5 87.5q1 88 66.5 140t153.5 52z" />
    <glyph glyph-name="scedilla" unicode="&#x15f;" horiz-adv-x="377" 
d="M351 467l9 -69l-10 1q-37 40 -96 40q-34 0 -56 -17t-22 -46q0 -22 12 -40t52 -54q48 -42 68.5 -74.5t20.5 -71.5q0 -63 -44 -101t-109 -42l-25 -39l11 -3q58 -16 58 -66q0 -51 -47.5 -77.5t-118.5 -26.5l-13 34l4 4q106 2 106 57q0 31 -63 42v6l47 69q-61 6 -108 37
l-10 77h11q57 -62 127 -62q39 0 61 20t22 52q0 30 -14.5 51.5t-57.5 59.5q-45 40 -60 65t-15 59q0 61 47.5 98t114.5 37q58 0 98 -20z" />
    <glyph glyph-name="Scaron" unicode="&#x160;" horiz-adv-x="494" 
d="M297 756l-86 129h53l80 -75l112 75h56l-132 -129h-83zM461 588q-42 44 -117 44q-48 0 -84 -26t-37 -81q0 -35 19.5 -61.5t68.5 -62.5q68 -49 103.5 -98t34.5 -109q-1 -98 -68 -152t-169 -54q-50 0 -101 18.5t-84 44.5l-11 98h12q35 -46 86 -72t100 -26q60 0 96 31.5
t37 93.5q1 44 -27 79t-86 78q-60 44 -85.5 79.5t-24.5 87.5q1 88 66.5 140t153.5 52q84 0 138 -31l-5 -74z" />
    <glyph glyph-name="scaron" unicode="&#x161;" horiz-adv-x="377" 
d="M203 575l-83 141h52l79 -87l112 87h56l-133 -141h-83zM350 399q-37 40 -96 40q-34 0 -56 -17t-22 -46q0 -22 12 -40t52 -54q48 -42 68.5 -74.5t20.5 -71.5q0 -67 -49.5 -105.5t-119.5 -38.5q-76 0 -133 38l-10 77h11q57 -62 127 -62q39 0 61 20t22 52q0 30 -14.5 51.5
t-57.5 59.5q-45 40 -60 65t-15 59q0 61 47.5 98t114.5 37q58 0 98 -20l9 -69z" />
    <glyph glyph-name="uni0162" unicode="&#x162;" horiz-adv-x="481" 
d="M96 680h458l-11 -61h-180l-109 -619h-31l-30 -46l11 -3q58 -16 58 -66q0 -51 -47.5 -77.5t-118.5 -26.5l-13 34l4 4q106 2 106 57q0 31 -63 42v6l52 76h-32l109 619h-174z" />
    <glyph glyph-name="uni0163" unicode="&#x163;" horiz-adv-x="314" 
d="M218 425l-53 -296q-4 -22 -4 -35q0 -46 45 -46q42 0 78 20l-12 -46q-45 -30 -104 -30h-8l-25 -38l11 -3q58 -16 58 -66q0 -51 -47.5 -77.5t-118.5 -26.5l-13 34l4 4q106 2 106 57q0 31 -63 42v6l50 73q-57 17 -57 82q0 7 4 37l55 309h-69l9 52h69l22 124l96 11l-24 -135
h124l-15 -52h-118z" />
    <glyph glyph-name="Tcaron" unicode="&#x164;" horiz-adv-x="481" 
d="M297 756l-86 129h53l80 -75l112 75h56l-132 -129h-83zM259 619h-174l11 61h458l-11 -61h-180l-109 -619h-104z" />
    <glyph glyph-name="tcaron" unicode="&#x165;" horiz-adv-x="314" 
d="M426 720q-34 -117 -95 -194h-47q41 104 57 194h85zM165 129q-4 -22 -4 -35q0 -46 45 -46q42 0 78 20l-12 -46q-45 -30 -104 -30q-103 0 -103 87q0 7 4 37l55 309h-69l9 52h69l22 124l96 11l-24 -135h124l-15 -52h-118z" />
    <glyph glyph-name="Tbar" unicode="&#x166;" horiz-adv-x="481" 
d="M543 619h-180l-43 -243h110l-11 -57h-109l-56 -319h-104l56 319h-109l11 57h108l43 243h-174l11 61h458z" />
    <glyph glyph-name="tbar" unicode="&#x167;" horiz-adv-x="314" 
d="M336 425h-118l-19 -106h97l-8 -49h-98l-25 -141q-4 -22 -4 -35q0 -46 45 -46q42 0 78 20l-12 -46q-45 -30 -104 -30q-103 0 -103 87q0 7 4 37l27 154h-68l8 49h69l19 106h-69l9 52h69l22 124l96 11l-24 -135h124z" />
    <glyph glyph-name="Utilde" unicode="&#x168;" horiz-adv-x="696" 
d="M574 875q-21 -47 -55 -47q-15 0 -53 24q-40 25 -67 25q-71 0 -104 -107h42q21 49 54 49q14 0 54 -25q39 -24 67 -24q70 0 102 105h-40zM328 -12q-118 0 -181 51.5t-62 144.5q2 37 6 55l78 441h101l-75 -425q-5 -27 -7 -61q0 -142 147 -142q90 0 139.5 49t67.5 153l75 426
h72l-79 -441q-21 -120 -92 -185.5t-190 -65.5z" />
    <glyph glyph-name="utilde" unicode="&#x169;" horiz-adv-x="545" 
d="M469 706q-21 -47 -55 -47q-15 0 -54 24q-38 25 -67 25q-35 0 -61.5 -29t-41.5 -78h41q22 49 55 49q12 0 53 -25q39 -24 67 -24q71 0 103 105h-40zM215 477l-51 -294q-7 -37 -7 -58q0 -71 66 -71q58 0 100.5 51.5t55.5 127.5l42 244h96l-85 -477h-88l11 99h-3
q-26 -47 -68.5 -78t-94.5 -31q-130 0 -130 118q0 21 7 63l54 306h95z" />
    <glyph glyph-name="Umacron" unicode="&#x16a;" horiz-adv-x="696" 
d="M617 850l-10 -53h-314l10 53h314zM328 -12q-118 0 -181 51.5t-62 144.5q2 37 6 55l78 441h101l-75 -425q-5 -27 -7 -61q0 -142 147 -142q90 0 139.5 49t67.5 153l75 426h72l-79 -441q-21 -120 -92 -185.5t-190 -65.5z" />
    <glyph glyph-name="umacron" unicode="&#x16b;" horiz-adv-x="545" 
d="M511 681l-9 -53h-314l9 53h314zM215 477l-51 -294q-7 -37 -7 -58q0 -71 66 -71q58 0 100.5 51.5t55.5 127.5l42 244h96l-85 -477h-88l11 99h-3q-26 -47 -68.5 -78t-94.5 -31q-130 0 -130 118q0 21 7 63l54 306h95z" />
    <glyph glyph-name="Ubreve" unicode="&#x16c;" horiz-adv-x="696" 
d="M369 883q-2 -33 20 -53t61 -20q83 0 111 73h48q-38 -129 -167 -129q-64 0 -95.5 35t-25.5 94h48zM328 -12q-118 0 -181 51.5t-62 144.5q2 37 6 55l78 441h101l-75 -425q-5 -27 -7 -61q0 -142 147 -142q90 0 139.5 49t67.5 153l75 426h72l-79 -441q-21 -120 -92 -185.5
t-190 -65.5z" />
    <glyph glyph-name="ubreve" unicode="&#x16d;" horiz-adv-x="545" 
d="M262 707q-2 -36 20 -56t61 -20q86 0 112 76h48q-37 -132 -168 -132q-64 0 -95.5 36t-25.5 96h48zM215 477l-51 -294q-7 -37 -7 -58q0 -71 66 -71q58 0 100.5 51.5t55.5 127.5l42 244h96l-85 -477h-88l11 99h-3q-26 -47 -68.5 -78t-94.5 -31q-130 0 -130 118q0 21 7 63
l54 306h95z" />
    <glyph glyph-name="Uring" unicode="&#x16e;" horiz-adv-x="696" 
d="M444 728q-44 0 -71 25.5t-27 64.5q0 51 35 86t89 35q44 0 71 -25.5t27 -64.5q0 -51 -35 -86t-89 -35zM447 763q34 0 55.5 25t21.5 59q0 23 -15 39.5t-42 16.5q-32 0 -54.5 -24t-22.5 -59q0 -24 15.5 -40.5t41.5 -16.5zM328 -12q-118 0 -181 51.5t-62 144.5q2 37 6 55
l78 441h101l-75 -425q-5 -27 -7 -61q0 -142 147 -142q90 0 139.5 49t67.5 153l75 426h72l-79 -441q-21 -120 -92 -185.5t-190 -65.5z" />
    <glyph glyph-name="uring" unicode="&#x16f;" horiz-adv-x="545" 
d="M337 550q-45 0 -72 25.5t-27 64.5q0 52 35 87t89 35q45 0 72 -25t27 -65q0 -52 -35.5 -87t-88.5 -35zM339 585q34 0 55.5 25t21.5 60q0 24 -15 40.5t-42 16.5q-32 0 -54 -24.5t-22 -59.5q0 -25 15 -41.5t41 -16.5zM215 477l-51 -294q-7 -37 -7 -58q0 -71 66 -71
q58 0 100.5 51.5t55.5 127.5l42 244h96l-85 -477h-88l11 99h-3q-26 -47 -68.5 -78t-94.5 -31q-130 0 -130 118q0 21 7 63l54 306h95z" />
    <glyph glyph-name="Uhungarumlaut" unicode="&#x170;" horiz-adv-x="696" 
d="M540 885l-166 -129h-57l120 129h103zM705 885l-166 -129h-57l120 129h103zM328 -12q-118 0 -181 51.5t-62 144.5q2 37 6 55l78 441h101l-75 -425q-5 -27 -7 -61q0 -142 147 -142q90 0 139.5 49t67.5 153l75 426h72l-79 -441q-21 -120 -92 -185.5t-190 -65.5z" />
    <glyph glyph-name="uhungarumlaut" unicode="&#x171;" horiz-adv-x="545" 
d="M432 716l-165 -141h-56l120 141h101zM597 716l-165 -141h-56l120 141h101zM215 477l-51 -294q-7 -37 -7 -58q0 -71 66 -71q58 0 100.5 51.5t55.5 127.5l42 244h96l-85 -477h-88l11 99h-3q-26 -47 -68.5 -78t-94.5 -31q-130 0 -130 118q0 21 7 63l54 306h95z" />
    <glyph glyph-name="Uogonek" unicode="&#x172;" horiz-adv-x="696" 
d="M85 184q2 37 6 55l78 441h101l-75 -425q-5 -27 -7 -61q0 -142 147 -142q90 0 139.5 49t67.5 153l75 426h72l-79 -441q-17 -97 -65 -155.5t-131 -85.5q-55 -17 -93.5 -49.5t-38.5 -58.5q0 -32 40 -32q21 0 55 14h7l-18 -40q-34 -16 -75 -16q-35 0 -57.5 15.5t-22.5 44.5
q0 65 103 112q-111 4 -170.5 54.5t-58.5 141.5z" />
    <glyph glyph-name="uogonek" unicode="&#x173;" horiz-adv-x="545" 
d="M59 108q0 21 7 63l54 306h95l-51 -294q-7 -37 -7 -58q0 -71 66 -71q58 0 100.5 51.5t55.5 127.5l42 244h96l-85 -477q-122 -67 -122 -110q0 -32 40 -32q21 0 55 14h7l-18 -40q-34 -16 -75 -16q-35 0 -57 15.5t-22 44.5q0 69 128 124h-24l11 99h-3q-26 -47 -68.5 -78
t-94.5 -31q-130 0 -130 118z" />
    <glyph glyph-name="Wcircumflex" unicode="&#x174;" horiz-adv-x="946" 
d="M648 885l86 -129h-52l-80 75l-112 -75h-57l132 129h83zM618 0l-85 531h-6l-287 -531h-78l-50 679l104 1l32 -536h3l285 536h72l82 -539h3l234 539h85l-316 -680h-78z" />
    <glyph glyph-name="wcircumflex" unicode="&#x175;" horiz-adv-x="757" 
d="M524 716l83 -141h-51l-80 87l-111 -87h-57l133 141h83zM717 477h77l-251 -477h-73l-63 360h-5l-195 -360h-73l-64 477h98l41 -366h3l197 366h64l65 -366h3z" />
    <glyph glyph-name="Ycircumflex" unicode="&#x176;" horiz-adv-x="530" 
d="M427 885l86 -129h-52l-80 75l-112 -75h-57l132 129h83zM236 311l-155 369h110l122 -297h5l216 297h82l-278 -360l-56 -320h-100z" />
    <glyph glyph-name="ycircumflex" unicode="&#x177;" horiz-adv-x="455" 
d="M358 716l83 -141h-51l-80 87l-111 -87h-57l133 141h83zM83 -223h-95q97 121 175 247l-108 453h100l76 -354h3q94 166 185 354h76q-234 -426 -412 -700z" />
    <glyph glyph-name="Ydieresis" unicode="&#x178;" horiz-adv-x="530" 
d="M343 871l-16 -95h-94l16 95h94zM516 871l-16 -95h-94l17 95h93zM236 311l-155 369h110l122 -297h5l216 297h82l-278 -360l-56 -320h-100z" />
    <glyph glyph-name="Zacute" unicode="&#x179;" horiz-adv-x="674" 
d="M617 885l-181 -129h-59l127 129h113zM585 -1l-581 1l6 29l525 584l1 6h-387l29 61h523l-4 -24l-531 -590l-1 -6q248 0 325.5 2.5t136.5 12.5h6z" />
    <glyph glyph-name="zacute" unicode="&#x17a;" horiz-adv-x="464" 
d="M470 716l-172 -141h-58l122 141h108zM125 477h356l-3 -18l-347 -400l-1 -6q157 0 213 2t95 11h6l-50 -66h-408l3 19l350 401l1 6h-247z" />
    <glyph glyph-name="Zdotaccent" unicode="&#x17b;" horiz-adv-x="674" 
d="M510 872l-17 -98h-102l17 98h102zM585 -1l-581 1l6 29l525 584l1 6h-387l29 61h523l-4 -24l-531 -590l-1 -6q248 0 325.5 2.5t136.5 12.5h6z" />
    <glyph glyph-name="zdotaccent" unicode="&#x17c;" horiz-adv-x="464" 
d="M374 701l-17 -98h-102l17 98h102zM125 477h356l-3 -18l-347 -400l-1 -6q157 0 213 2t95 11h6l-50 -66h-408l3 19l350 401l1 6h-247z" />
    <glyph glyph-name="Zcaron" unicode="&#x17d;" horiz-adv-x="674" 
d="M397 756l-86 129h53l80 -75l112 75h56l-132 -129h-83zM585 -1l-581 1l6 29l525 584l1 6h-387l29 61h523l-4 -24l-531 -590l-1 -6q248 0 325.5 2.5t136.5 12.5h6z" />
    <glyph glyph-name="zcaron" unicode="&#x17e;" horiz-adv-x="464" 
d="M260 575l-83 141h52l79 -87l112 87h56l-133 -141h-83zM125 477h356l-3 -18l-347 -400l-1 -6q157 0 213 2t95 11h6l-50 -66h-408l3 19l350 401l1 6h-247z" />
    <glyph glyph-name="longs" unicode="&#x17f;" horiz-adv-x="292" 
d="M362 730q39 0 63 -12l-5 -61h-9q-21 15 -55 15q-54 0 -79.5 -43.5t-42.5 -141.5l-87 -487h-96l76 425h-71l9 52h72l5 31q19 100 73.5 161t146.5 61z" />
    <glyph glyph-name="uni018F" unicode="&#x18f;" horiz-adv-x="722" 
d="M400 692q137 0 214 -69t77 -204q0 -184 -106 -308t-260 -124q-121 0 -184 65.5t-63 182.5q0 65 18 133h484q2 34 2 53q0 209 -194 209q-117 0 -222 -89h-13l24 83q101 68 223 68zM328 46q85 0 152.5 71.5t91.5 191.5h-379q-9 -42 -9 -94q0 -169 144 -169z" />
    <glyph glyph-name="florin" unicode="&#x192;" horiz-adv-x="588" 
d="M544 692q38 0 63 -11l-5 -62h-9q-21 16 -45 16q-33 0 -58 -26t-52 -98l-49 -128h97l-18 -51h-98l-132 -345q-46 -118 -98.5 -169.5t-127.5 -51.5q-35 0 -64 12l5 62h10q18 -16 46 -16q33 0 58.5 26t52.5 98l147 384h-92l18 51h93l34 89q45 118 98 169t126 51z" />
    <glyph glyph-name="Aringacute" unicode="&#x1fa;" horiz-adv-x="639" 
d="M527 748q0 -35 -18.5 -64t-50.5 -43l137 -641h-109l-49 253h-247l-148 -253h-80l391 641q-48 26 -48 79q0 40 24.5 71t65.5 42l90 84h113l-134 -85q29 -9 46 -31.5t17 -52.5zM426 801q-32 0 -54.5 -22.5t-22.5 -55.5q0 -24 15.5 -40.5t41.5 -16.5q34 0 55.5 23.5
t21.5 56.5q0 23 -15 39t-42 16zM376 564h-5l-148 -253h203z" />
    <glyph glyph-name="aringacute" unicode="&#x1fb;" horiz-adv-x="519" 
d="M328 550q-44 0 -71 25.5t-27 64.5q0 40 21.5 71t58.5 44l103 119h108l-140 -115q33 -7 52 -30.5t19 -56.5q0 -52 -35 -87t-89 -35zM351 727q-32 0 -54.5 -24.5t-22.5 -59.5q0 -25 15.5 -41.5t41.5 -16.5q34 0 55.5 25t21.5 60q0 24 -15 40.5t-42 16.5zM295 487
q85 0 130 -35.5t45 -97.5q0 -16 -5 -44l-40 -220q-9 -42 -7 -90h-81l-4 71q-59 -81 -158 -81q-62 0 -97.5 32t-35.5 79q0 68 41.5 102t120.5 53q106 23 135 31.5t33 19.5q6 17 6 41q0 85 -93 85q-78 0 -146 -56h-10l16 67q69 43 150 43zM344 146l19 106q-51 -10 -80 -16.5
t-60.5 -18t-47 -24t-25.5 -32.5t-10 -46q0 -32 20 -51.5t53 -19.5q43 0 79.5 29t51.5 73z" />
    <glyph glyph-name="AEacute" unicode="&#x1fc;" horiz-adv-x="863" 
d="M851 885l-181 -129h-59l127 129h113zM862 620h-220l-43 -244h197l-9 -58h-197l-47 -258h121q109 0 148 8h6l-44 -68h-341l45 253h-234l-202 -253h-88l552 680h367zM488 311l54 308h-6l-246 -308h198z" />
    <glyph glyph-name="aeacute" unicode="&#x1fd;" horiz-adv-x="819" 
d="M654 716l-172 -141h-58l122 141h108zM783 251h-330q-2 -28 -2 -43q0 -76 37 -117.5t107 -41.5q90 0 151 57h11l-28 -69q-64 -47 -155 -47q-148 0 -192 109h-2q-57 -109 -189 -109q-71 0 -110 31.5t-39 83.5q0 66 44 100.5t129 53.5q100 22 127 30.5t32 19.5q4 13 4 39
q0 85 -93 85q-78 0 -146 -56h-10l16 67q69 43 150 43q115 0 151 -71h2q26 31 70 51t97 20q176 0 176 -177q0 -23 -8 -59zM613 441q-51 0 -91.5 -38t-58.5 -103h238q2 16 2 28q0 113 -90 113zM344 146l19 102q-123 -23 -173 -48.5t-50 -84.5q0 -32 20 -51.5t53 -19.5
q43 0 79.5 29t51.5 73z" />
    <glyph glyph-name="Oslashacute" unicode="&#x1fe;" horiz-adv-x="796" 
d="M675 885l-181 -129h-59l127 129h113zM785 650l-69 -66q50 -72 49 -174q-2 -181 -114 -301.5t-284 -120.5q-128 0 -205 70l-71 -67l-38 39l73 69q-48 69 -47 172q2 177 116 299t285 122q121 0 200 -68l68 64zM191 277q-1 -56 13 -104l412 390q-48 70 -145 70
q-85 0 -150 -52.5t-97 -132t-33 -171.5zM654 404q0 65 -14 108l-412 -391q48 -73 148 -73q85 0 149.5 53t96 132.5t32.5 170.5z" />
    <glyph glyph-name="oslashacute" unicode="&#x1ff;" horiz-adv-x="568" 
d="M518 716l-172 -141h-58l122 141h108zM563 462l-60 -57q29 -47 29 -110q0 -127 -77 -216t-198 -89q-87 0 -141 48l-62 -58l-30 33l63 59q-31 46 -31 114q0 125 78 213t194 88q91 0 145 -48l60 56zM156 188q0 -27 4 -46l255 241q-28 52 -91 52q-52 0 -91.5 -38t-58 -93
t-18.5 -116zM433 295q0 21 -3 41l-255 -241q26 -51 85 -51q54 0 94.5 38.5t59.5 94.5t19 118z" />
    <glyph glyph-name="uni0218" unicode="&#x218;" horiz-adv-x="494" 
d="M461 588q-42 44 -117 44q-48 0 -84 -26t-37 -81q0 -35 19.5 -61.5t68.5 -62.5q68 -49 103.5 -98t34.5 -109q-1 -98 -68 -152t-169 -54q-50 0 -101 18.5t-84 44.5l-11 98h12q35 -46 86 -72t100 -26q60 0 96 31.5t37 93.5q1 44 -27 79t-86 78q-60 44 -85.5 79.5t-24.5 87.5
q1 88 66.5 140t153.5 52q84 0 138 -31l-5 -74zM244 -70q-19 -65 -85 -146h-46q31 68 47 146h84z" />
    <glyph glyph-name="uni0219" unicode="&#x219;" horiz-adv-x="377" 
d="M350 399q-37 40 -96 40q-34 0 -56 -17t-22 -46q0 -22 12 -40t52 -54q48 -42 68.5 -74.5t20.5 -71.5q0 -67 -49.5 -105.5t-119.5 -38.5q-76 0 -133 38l-10 77h11q57 -62 127 -62q39 0 61 20t22 52q0 30 -14.5 51.5t-57.5 59.5q-45 40 -60 65t-15 59q0 61 47.5 98t114.5 37
q58 0 98 -20l9 -69zM191 -70q-19 -65 -85 -146h-46q31 68 47 146h84z" />
    <glyph glyph-name="uni021A" unicode="&#x21a;" horiz-adv-x="481" 
d="M259 619h-174l11 61h458l-11 -61h-180l-109 -619h-104zM233 -70q-19 -65 -85 -146h-46q31 68 47 146h84z" />
    <glyph glyph-name="uni021B" unicode="&#x21b;" horiz-adv-x="314" 
d="M165 129q-4 -22 -4 -35q0 -46 45 -46q42 0 78 20l-12 -46q-45 -30 -104 -30q-103 0 -103 87q0 7 4 37l55 309h-69l9 52h69l22 124l96 11l-24 -135h124l-15 -52h-118zM176 -70q-19 -65 -85 -146h-46q31 68 47 146h84z" />
    <glyph glyph-name="uni0237" unicode="&#x237;" horiz-adv-x="253" 
d="M227 477l-80 -451q-21 -121 -82.5 -180.5t-168.5 -84.5l-43 22v9q91 29 136 79t65 161l79 445h94z" />
    <glyph glyph-name="uni0259" unicode="&#x259;" horiz-adv-x="520" 
d="M276 487q100 0 153.5 -53t53.5 -147q0 -127 -74 -212t-186 -85q-80 0 -124.5 46t-44.5 128q0 43 9 88h324q1 11 1 33q0 71 -34 107t-98 36q-87 0 -148 -57h-11l29 73q66 43 150 43zM230 37q55 0 94 46t55 119h-234q-4 -24 -4 -52q0 -54 23 -83.5t66 -29.5z" />
    <glyph glyph-name="circumflex" unicode="&#x2c6;" horiz-adv-x="217" 
d="M241 716l83 -141h-51l-80 87l-111 -87h-57l133 141h83z" />
    <glyph glyph-name="caron" unicode="&#x2c7;" horiz-adv-x="217" 
d="M109 575l-94 141h55l84 -87l107 87h54l-124 -141h-82z" />
    <glyph glyph-name="uni02C9" unicode="&#x2c9;" horiz-adv-x="217" 
d="M343 681l-9 -53h-314l9 53h314z" />
    <glyph glyph-name="breve" unicode="&#x2d8;" horiz-adv-x="217" 
d="M99 708q-2 -35 20 -55t61 -20q85 0 112 75h48q-37 -131 -168 -131q-64 0 -95.5 35.5t-25.5 95.5h48z" />
    <glyph glyph-name="dotaccent" unicode="&#x2d9;" horiz-adv-x="217" 
d="M241 701l-17 -98h-102l17 98h102z" />
    <glyph glyph-name="ring" unicode="&#x2da;" horiz-adv-x="217" 
d="M169 550q-45 0 -72 25.5t-27 64.5q0 52 35 87t89 35q45 0 72 -25t27 -65q0 -52 -35.5 -87t-88.5 -35zM171 585q34 0 55.5 25t21.5 60q0 24 -15 40.5t-42 16.5q-32 0 -54 -24.5t-22 -59.5q0 -25 15 -41.5t41 -16.5z" />
    <glyph glyph-name="ogonek" unicode="&#x2db;" horiz-adv-x="217" 
d="M162 0q-122 -67 -122 -110q0 -32 40 -32q21 0 55 14h7l-18 -40q-34 -16 -75 -16q-35 0 -57.5 15.5t-22.5 44.5q0 69 131 124h62z" />
    <glyph glyph-name="tilde" unicode="&#x2dc;" horiz-adv-x="217" 
d="M301 706q-21 -47 -55 -47q-15 0 -54 24q-38 25 -67 25q-35 0 -61.5 -29t-41.5 -78h41q22 49 55 49q12 0 53 -25q39 -24 67 -24q71 0 103 105h-40z" />
    <glyph glyph-name="hungarumlaut" unicode="&#x2dd;" horiz-adv-x="217" 
d="M227 716l-165 -141h-56l120 141h101zM392 716l-165 -141h-56l120 141h101z" />
    <glyph glyph-name="gravecomb" unicode="&#x300;" horiz-adv-x="0" 
d="M-37 716l78 -141h-52l-124 141h98z" />
    <glyph glyph-name="acutecomb" unicode="&#x301;" horiz-adv-x="0" 
d="M90 716l-172 -141h-58l122 141h108z" />
    <glyph glyph-name="uni0302" unicode="&#x302;" horiz-adv-x="0" 
d="M24 716l83 -141h-51l-80 87l-111 -87h-57l133 141h83z" />
    <glyph glyph-name="tildecomb" unicode="&#x303;" horiz-adv-x="0" 
d="M84 706q-21 -47 -55 -47q-15 0 -54 24q-38 25 -67 25q-35 0 -61.5 -29t-41.5 -78h41q22 49 55 49q12 0 53 -25q39 -24 67 -24q71 0 103 105h-40z" />
    <glyph glyph-name="uni0304" unicode="&#x304;" horiz-adv-x="0" 
d="M126 681l-9 -53h-314l9 53h314z" />
    <glyph glyph-name="uni0306" unicode="&#x306;" horiz-adv-x="0" 
d="M-118 707q-2 -36 20 -56t61 -20q86 0 112 76h48q-37 -132 -168 -132q-64 0 -95.5 36t-25.5 96h48z" />
    <glyph glyph-name="uni0307" unicode="&#x307;" horiz-adv-x="0" 
d="M24 701l-17 -98h-102l17 98h102z" />
    <glyph glyph-name="uni0308" unicode="&#x308;" horiz-adv-x="0" 
d="M-67 699l-16 -95h-94l17 95h93zM106 699l-16 -95h-93l16 95h93z" />
    <glyph glyph-name="uni030A" unicode="&#x30a;" horiz-adv-x="0" 
d="M-48 550q-45 0 -72 25.5t-27 64.5q0 52 35 87t89 35q45 0 72 -25t27 -65q0 -52 -35 -87t-89 -35zM-46 585q34 0 55.5 25t21.5 60q0 24 -15 40.5t-42 16.5q-32 0 -54 -24.5t-22 -59.5q0 -25 15 -41.5t41 -16.5z" />
    <glyph glyph-name="uni030B" unicode="&#x30b;" horiz-adv-x="0" 
d="M10 716l-165 -141h-56l120 141h101zM175 716l-165 -141h-56l120 141h101z" />
    <glyph glyph-name="uni030C" unicode="&#x30c;" horiz-adv-x="0" 
d="M-86 575l-83 141h52l79 -87l112 87h56l-133 -141h-83z" />
    <glyph glyph-name="uni0312" unicode="&#x312;" horiz-adv-x="0" 
d="M-98 575q22 66 85 141h47q-28 -61 -45 -141h-87z" />
    <glyph glyph-name="uni0313" unicode="&#x313;" horiz-adv-x="0" 
d="M36 720q-34 -117 -95 -194h-47q41 104 57 194h85z" />
    <glyph glyph-name="uni0326" unicode="&#x326;" horiz-adv-x="0" 
d="M-103 -70q-19 -65 -85 -146h-46q31 68 47 146h84z" />
    <glyph glyph-name="uni0327" unicode="&#x327;" horiz-adv-x="0" 
d="M-249 -219l-13 34l4 4q106 2 106 57q0 31 -63 42v6l52 76h41l-30 -46l11 -3q58 -16 58 -66q0 -51 -47.5 -77.5t-118.5 -26.5z" />
    <glyph glyph-name="uni0328" unicode="&#x328;" horiz-adv-x="0" 
d="M-55 0q-122 -67 -122 -110q0 -32 40 -32q21 0 55 14h7l-18 -40q-34 -16 -75 -16q-35 0 -57.5 15.5t-22.5 44.5q0 69 131 124h62z" />
    <glyph glyph-name="uni0394" unicode="&#x394;" horiz-adv-x="684" 
d="M19 0v42l280 628l77 11l270 -644v-37h-627zM100 60h425l-207 501h-5z" />
    <glyph glyph-name="uni03A9" unicode="&#x3a9;" horiz-adv-x="807" 
d="M749 363q0 -178 -169 -287v-5h179v-71h-265v71q81 57 110 122t29 168q0 114 -61 192.5t-164 78.5q-105 0 -166.5 -76t-61.5 -194q0 -102 28.5 -168t112.5 -123v-71h-267v71h175v5q-165 103 -165 287q0 140 99 234t245 94q145 0 243 -96.5t98 -231.5z" />
    <glyph glyph-name="uni03BC" unicode="&#x3bc;" 
d="M194 477v-297q0 -120 81 -120q61 0 96.5 51t35.5 126v240h98v-477h-92l-6 102h-3q-21 -53 -49.5 -82.5t-79.5 -29.5q-24 0 -46 11t-32 26h-4v-177h-98v627h99z" />
    <glyph glyph-name="pi" unicode="&#x3c0;" 
d="M532 48q30 0 65 23l-4 -47q-41 -32 -88 -32q-60 0 -89 28t-29 95v300h-172v-415h-99v415h-89v62h555l-5 -62h-92v-288q0 -79 47 -79z" />
    <glyph glyph-name="zero.ss01" unicode="&#x1e00;" horiz-adv-x="706" 
d="M429 706q109 0 168.5 -71.5t59.5 -194.5q0 -87 -21.5 -167t-61.5 -144t-104 -102.5t-143 -38.5q-111 0 -171.5 69t-60.5 192q0 118 38 220.5t116 169.5t180 67zM427 645q-71 0 -124 -67.5t-76.5 -159t-23.5 -185.5q0 -88 32.5 -135.5t95.5 -47.5q70 0 121 65.5t73.5 155
t22.5 183.5q0 89 -31 140t-90 51z" />
    <glyph glyph-name="one.ss01" unicode="&#x1e01;" horiz-adv-x="508" 
d="M210 0l106 603l-193 -79l11 69l234 101h64l-122 -694h-100z" />
    <glyph glyph-name="two.ss01" unicode="&#x1e02;" horiz-adv-x="670" 
d="M3 0l7 39l162 114q165 117 249 204t84 168q0 52 -33 81t-91 29q-107 0 -203 -82h-12l23 82q99 71 216 71q103 0 158.5 -48t55.5 -121q0 -54 -24 -103t-76.5 -98.5t-103.5 -87.5t-136 -94l-94 -63l-1 -4h191q141 0 199 13h13l-52 -100h-532z" />
    <glyph glyph-name="three.ss01" unicode="&#x1e03;" horiz-adv-x="599" 
d="M427 227q0 116 -182 116h-52l19 65h47q95 0 148.5 36t53.5 102q0 46 -35 69.5t-95 23.5q-92 0 -169 -49h-11l22 74q81 42 179 42t157 -38t59 -109q0 -135 -149 -179l-1 -7q116 -35 116 -145t-85 -175t-213 -65q-64 0 -124.5 17.5t-91.5 45.5l-6 88h13q36 -38 93.5 -59
t116.5 -21q85 0 137.5 46t52.5 122z" />
    <glyph glyph-name="four.ss01" unicode="&#x1e04;" horiz-adv-x="692" 
d="M647 269l-26 -74h-106l-34 -195h-100l35 195h-368l5 38l462 461h88l-75 -425h119zM181 269h248l53 301h-7l-293 -293z" />
    <glyph glyph-name="five.ss01" unicode="&#x1e05;" horiz-adv-x="632" 
d="M456 245q0 57 -38.5 91t-106.5 34q-71 0 -137 -43l-61 10l112 357h377l-28 -88h-300l-63 -197q52 26 123 26q108 0 169.5 -50t61.5 -137q0 -121 -88.5 -190.5t-228.5 -69.5q-127 0 -209 64l-2 86h12q78 -78 203 -78q96 0 150 50.5t54 134.5z" />
    <glyph glyph-name="six.ss01" unicode="&#x1e06;" horiz-adv-x="679" 
d="M235 363q78 69 174 69q85 0 143 -48t58 -137q0 -113 -79.5 -185t-200.5 -74q-107 -2 -175 53t-68 155q0 126 70 240.5t186 187t247 83.5l24 -46q-137 -25 -238 -106.5t-145 -191.5h4zM194 187q0 -62 36.5 -102t97.5 -40q80 0 127.5 58.5t47.5 139.5q0 60 -34.5 95
t-92.5 35q-77 0 -129.5 -51.5t-52.5 -134.5z" />
    <glyph glyph-name="seven.ss01" unicode="&#x1e07;" horiz-adv-x="653" 
d="M85 0q76 101 458 606h-408l32 88h511l-5 -28q-113 -154 -475 -666h-113z" />
    <glyph glyph-name="eight.ss01" unicode="&#x1e08;" horiz-adv-x="670" 
d="M313 -12q-109 0 -173.5 45t-64.5 123q0 149 199 215l1 3q-94 57 -94 153q0 87 68.5 133t168.5 46q85 0 141 -37t56 -105q0 -58 -44 -102.5t-114 -67.5v-3q77 -42 110 -87t33 -100q0 -99 -81.5 -157.5t-205.5 -58.5zM401 419q134 47 134 141q0 44 -33 68.5t-88 24.5
q-59 0 -94 -31t-35 -84q0 -74 116 -119zM318 45q78 0 125.5 39.5t47.5 106.5q0 88 -160 152q-164 -57 -164 -179q0 -53 45.5 -86t105.5 -33z" />
    <glyph glyph-name="nine.ss01" unicode="&#x1e09;" horiz-adv-x="648" 
d="M469 351q-70 -70 -159 -70q-81 0 -137 45t-56 129q0 112 78 182t195 70q102 0 164.5 -51t62.5 -149q0 -124 -69 -238.5t-181 -189t-238 -91.5l-34 47q136 30 239.5 120t139.5 196h-5zM512 524q0 58 -34 92t-89 34q-75 0 -120.5 -55.5t-45.5 -132.5q0 -54 32 -87t84 -33
q72 0 122.5 51.5t50.5 130.5z" />
    <glyph glyph-name="uni1E0A" unicode="&#x1e0a;" horiz-adv-x="351" 
d="M303 584l-21 -119h-123l21 119h123zM240 226l-21 -119h-122l20 119h123z" />
    <glyph glyph-name="uni1E0B" unicode="&#x1e0b;" horiz-adv-x="397" 
d="M90 387h280l-11 -59h-280z" />
    <glyph glyph-name="uni1E0C" unicode="&#x1e0c;" horiz-adv-x="420" 
d="M264 515l-11 -61l-105 -100l70 -98l-11 -58l-138 127l12 60zM421 515l-11 -61l-105 -100l70 -98l-11 -58l-136 127l12 60z" />
    <glyph glyph-name="uni1E0D" unicode="&#x1e0d;" horiz-adv-x="420" 
d="M49 195l11 61l104 101l-69 97l10 58l137 -127l-12 -60zM206 195l11 61l104 101l-69 97l10 58l139 -127l-12 -60z" />
    <glyph glyph-name="uni1E0E" unicode="&#x1e0e;" horiz-adv-x="263" 
d="M258 515l-11 -61l-105 -100l70 -98l-11 -58l-138 127l11 61z" />
    <glyph glyph-name="uni1E0F" unicode="&#x1e0f;" horiz-adv-x="263" 
d="M49 195l11 61l104 101l-69 97l10 58l139 -127l-12 -60z" />
    <glyph glyph-name="Wgrave" unicode="&#x1e80;" horiz-adv-x="946" 
d="M456 885h103l85 -129h-54zM618 0l-85 531h-6l-287 -531h-78l-50 679l104 1l32 -536h3l285 536h72l82 -539h3l234 539h85l-316 -680h-78z" />
    <glyph glyph-name="wgrave" unicode="&#x1e81;" horiz-adv-x="757" 
d="M441 716l78 -141h-52l-124 141h98zM717 477h77l-251 -477h-73l-63 360h-5l-195 -360h-73l-64 477h98l41 -366h3l197 366h64l65 -366h3z" />
    <glyph glyph-name="Wacute" unicode="&#x1e82;" horiz-adv-x="946" 
d="M764 885l-181 -129h-59l127 129h113zM618 0l-85 531h-6l-287 -531h-78l-50 679l104 1l32 -536h3l285 536h72l82 -539h3l234 539h85l-316 -680h-78z" />
    <glyph glyph-name="wacute" unicode="&#x1e83;" horiz-adv-x="757" 
d="M626 716l-172 -141h-58l122 141h108zM717 477h77l-251 -477h-73l-63 360h-5l-195 -360h-73l-64 477h98l41 -366h3l197 366h64l65 -366h3z" />
    <glyph glyph-name="Wdieresis" unicode="&#x1e84;" horiz-adv-x="946" 
d="M565 871l-16 -95h-94l16 95h94zM738 871l-16 -95h-94l17 95h93zM618 0l-85 531h-6l-287 -531h-78l-50 679l104 1l32 -536h3l285 536h72l82 -539h3l234 539h85l-316 -680h-78z" />
    <glyph glyph-name="wdieresis" unicode="&#x1e85;" horiz-adv-x="757" 
d="M440 699l-16 -95h-94l17 95h93zM613 699l-16 -95h-93l16 95h93zM717 477h77l-251 -477h-73l-63 360h-5l-195 -360h-73l-64 477h98l41 -366h3l197 366h64l65 -366h3z" />
    <glyph glyph-name="uni1E9E" unicode="&#x1e9e;" horiz-adv-x="682" 
d="M423 -12q-87 0 -149 52l-12 98h12q69 -88 153 -88q47 0 76 29.5t29 76.5q0 29 -16 57.5t-57 76.5q-74 85 -74 157q0 129 154 176q-68 4 -93 4q-97 0 -142.5 -40.5t-63.5 -134.5l-80 -452l-108 1l81 457q22 121 92.5 176.5t216.5 55.5q107 0 211 -20l1 -57
q-89 -19 -127 -53.5t-40 -88.5q0 -49 53 -112q51 -62 73 -102t22 -81q0 -85 -59.5 -136.5t-152.5 -51.5z" />
    <glyph glyph-name="Ygrave" unicode="&#x1ef2;" horiz-adv-x="530" 
d="M235 885h103l85 -129h-54zM236 311l-155 369h110l122 -297h5l216 297h82l-278 -360l-56 -320h-100z" />
    <glyph glyph-name="ygrave" unicode="&#x1ef3;" horiz-adv-x="455" 
d="M276 716l78 -141h-52l-124 141h98zM83 -223h-95q97 121 175 247l-108 453h100l76 -354h3q94 166 185 354h76q-234 -426 -412 -700z" />
    <glyph glyph-name="uni2011" unicode="&#x2011;" horiz-adv-x="385" 
d="M68 299h280l-11 -59h-281z" />
    <glyph glyph-name="endash" unicode="&#x2013;" horiz-adv-x="500" 
d="M508 298l-10 -58h-487l10 58h487z" />
    <glyph glyph-name="emdash" unicode="&#x2014;" horiz-adv-x="918" 
d="M833 298l-10 -58h-718l10 58h718z" />
    <glyph glyph-name="quoteleft" unicode="&#x2018;" horiz-adv-x="237" 
d="M84 438q9 32 49 111.5t69 130.5h58q-20 -46 -45 -125t-33 -117h-98z" />
    <glyph glyph-name="quoteright" unicode="&#x2019;" horiz-adv-x="237" 
d="M260 680q-9 -32 -49 -111.5t-69 -130.5h-59q21 48 46 126.5t32 115.5h99z" />
    <glyph glyph-name="quotesinglbase" unicode="&#x201a;" horiz-adv-x="246" 
d="M172 125q-10 -34 -57 -118t-75 -124h-58q24 45 52.5 123t38.5 119h99z" />
    <glyph glyph-name="quotedblleft" unicode="&#x201c;" horiz-adv-x="410" 
d="M78 438q11 34 57.5 117.5t74.5 124.5h58q-23 -45 -51.5 -122.5t-38.5 -119.5h-100zM244 438q11 33 57 115.5t75 126.5h58q-23 -45 -51.5 -122.5t-38.5 -119.5h-100z" />
    <glyph glyph-name="quotedblright" unicode="&#x201d;" horiz-adv-x="410" 
d="M270 680q-11 -33 -56 -114t-75 -128h-59q23 44 52 122.5t39 119.5h99zM436 680q-10 -33 -56 -115.5t-75 -126.5h-59q23 44 52 122.5t39 119.5h99z" />
    <glyph glyph-name="quotedblbase" unicode="&#x201e;" horiz-adv-x="410" 
d="M172 125q-10 -34 -57 -118t-75 -124h-58q23 44 52 122.5t39 119.5h99zM339 125q-11 -34 -58.5 -118.5t-74.5 -123.5h-58q23 44 52 122.5t39 119.5h100z" />
    <glyph glyph-name="dagger" unicode="&#x2020;" horiz-adv-x="560" 
d="M404 691l-37 -207h190l-11 -69h-190l-100 -565h-81l100 565h-189l12 69h189l36 207h81z" />
    <glyph glyph-name="daggerdbl" unicode="&#x2021;" horiz-adv-x="560" 
d="M404 691l-34 -191h190l-12 -69h-190l-57 -322h190l-12 -69h-190l-33 -190h-81l33 190h-188l12 69h188l58 322h-189l12 69h188l34 191h81z" />
    <glyph glyph-name="bullet" unicode="&#x2022;" 
d="M156 328q0 68 48 116.5t116 48.5t116.5 -48.5t48.5 -116.5t-48.5 -116t-116.5 -48t-116 48t-48 116z" />
    <glyph glyph-name="ellipsis" unicode="&#x2026;" horiz-adv-x="922" 
d="M74 121h115l-22 -121h-114zM382 121h114l-21 -121h-115zM689 121h115l-22 -121h-114z" />
    <glyph glyph-name="perthousand" unicode="&#x2030;" horiz-adv-x="1130" 
d="M646 704l41 -28l-512 -698l-40 28zM280 691q55 0 86 -35t31 -98q0 -86 -48.5 -152t-122.5 -66q-57 0 -89.5 35t-32.5 97q0 87 50 153t126 66zM277 652q-46 0 -73.5 -61t-27.5 -128q0 -83 53 -83q45 0 70.5 60t25.5 128q0 84 -48 84zM605 346q55 0 86 -35t31 -98
q0 -86 -48.5 -152t-123.5 -66q-56 0 -88.5 35t-32.5 97q0 87 50 153t126 66zM960 346q55 0 86 -35t31 -98q0 -86 -48.5 -152t-123.5 -66q-56 0 -88.5 35t-32.5 97q0 87 50 153t126 66zM602 307q-46 0 -73.5 -61t-27.5 -128q0 -83 53 -83q45 0 70.5 60t25.5 128q0 84 -48 84z
M957 307q-46 0 -73.5 -61t-27.5 -128q0 -83 53 -83q45 0 70.5 60t25.5 128q0 84 -48 84z" />
    <glyph glyph-name="guilsinglleft" unicode="&#x2039;" horiz-adv-x="263" 
d="M244 435l-11 -61l-105 -100l70 -98l-11 -58l-138 127l11 60z" />
    <glyph glyph-name="guilsinglright" unicode="&#x203a;" horiz-adv-x="263" 
d="M35 115l11 61l104 101l-69 97l10 58l138 -127l-11 -60z" />
    <glyph glyph-name="fraction" unicode="&#x2044;" horiz-adv-x="153" 
d="M334 703l40 -27l-512 -699l-40 28z" />
    <glyph glyph-name="zero.sups" unicode="&#x2070;" horiz-adv-x="438" 
d="M267 422q-68 0 -109.5 45t-41.5 124q0 125 58.5 207.5t153.5 82.5q68 0 109.5 -45.5t41.5 -124.5q0 -125 -58.5 -207t-153.5 -82zM269 466q54 0 89.5 76t35.5 180q0 55 -18 85t-50 30q-54 0 -89.5 -76t-35.5 -180q0 -115 68 -115z" />
    <glyph glyph-name="four.sups" unicode="&#x2074;" horiz-adv-x="395" 
d="M441 601l-17 -52h-69l-21 -119h-75l21 119h-207l4 29l273 294h62l-48 -271h77zM155 602h134l32 180h-5l-160 -175z" />
    <glyph glyph-name="five.sups" unicode="&#x2075;" horiz-adv-x="376" 
d="M210 422q-74 0 -121 36l2 56h10q39 -42 104 -42q53 0 84.5 30.5t31.5 82.5q0 36 -22 56.5t-60 20.5q-40 0 -69 -20l-35 6l72 224h219l-21 -64h-162l-37 -111q25 11 58 11q63 0 99.5 -32t36.5 -86q0 -77 -54 -122.5t-136 -45.5z" />
    <glyph glyph-name="six.sups" unicode="&#x2076;" horiz-adv-x="403" 
d="M254 422q-69 0 -108 34.5t-39 97.5q0 112 87.5 206.5t205.5 119.5l31 -34q-66 -16 -129.5 -66t-88.5 -110l3 -1q34 36 87 36q54 0 90 -33t36 -85q0 -71 -50 -118t-125 -47zM257 464q37 0 63 34t26 88q0 36 -18.5 56t-48.5 20q-37 0 -63.5 -34t-26.5 -86q0 -36 19 -57
t49 -21z" />
    <glyph glyph-name="seven.sups" unicode="&#x2077;" horiz-adv-x="382" 
d="M104 430q44 65 135 193.5t131 187.5h-226l21 61h302l-4 -20q-163 -240 -275 -422h-84z" />
    <glyph glyph-name="eight.sups" unicode="&#x2078;" horiz-adv-x="414" 
d="M255 422q-67 0 -105 30t-38 77q0 89 119 138v2q-57 42 -57 97q0 51 41.5 82.5t106.5 31.5q56 0 90.5 -25.5t34.5 -65.5q0 -70 -96 -109v-2q82 -47 82 -117q0 -64 -49.5 -101.5t-128.5 -37.5zM310 701q78 32 78 87q0 24 -18 39.5t-46 15.5q-31 0 -52 -20t-21 -49
q0 -40 59 -73zM259 463q41 0 67 23.5t26 64.5q0 55 -82 92q-92 -40 -92 -109q0 -30 23 -50.5t58 -20.5z" />
    <glyph glyph-name="nine.sups" unicode="&#x2079;" horiz-adv-x="398" 
d="M159 422l-30 33q79 24 137.5 73.5t83.5 115.5h-2q-38 -36 -92 -36q-53 0 -86.5 32t-33.5 84q0 71 48 113.5t123 42.5q66 0 105 -35.5t39 -97.5q0 -111 -86 -205t-206 -120zM281 653q38 0 63.5 30.5t25.5 79.5q0 35 -18 55t-49 20q-38 0 -61.5 -33t-23.5 -82
q0 -30 17.5 -50t45.5 -20z" />
    <glyph glyph-name="uni207F" unicode="&#x207f;" horiz-adv-x="423" 
d="M311 349l37 210q3 16 3 31q0 49 -48 49q-38 0 -66.5 -32.5t-38.5 -86.5l-30 -171h-80l59 336h73l-8 -70h2q42 77 121 77q45 0 70.5 -25t25.5 -69q0 -14 -3 -34l-38 -215h-79z" />
    <glyph glyph-name="zero.subs" unicode="&#x2080;" horiz-adv-x="438" 
d="M163 -168q-68 0 -109.5 45t-41.5 124q0 125 58.5 207.5t153.5 82.5q68 0 109.5 -45.5t41.5 -124.5q0 -125 -58.5 -207t-153.5 -82zM165 -125q54 0 89.5 76.5t35.5 180.5q0 55 -18 85t-50 30q-54 0 -89.5 -76t-35.5 -181q0 -115 68 -115z" />
    <glyph glyph-name="one.subs" unicode="&#x2081;" horiz-adv-x="311" 
d="M64 -160l66 378l-106 -41l6 46l148 59h44l-78 -442h-80z" />
    <glyph glyph-name="two.subs" unicode="&#x2082;" horiz-adv-x="392" 
d="M-42 -160l5 25l91 73q109 88 148 138.5t39 97.5q0 31 -18 49.5t-50 18.5q-58 0 -102 -38h-11l16 52q51 34 116 34q62 0 97.5 -31t35.5 -81q0 -59 -46.5 -112t-147.5 -128l-39 -29l-1 -3h98q79 0 113 5h9l-39 -71h-314z" />
    <glyph glyph-name="three.subs" unicode="&#x2083;" horiz-adv-x="374" 
d="M204 -17q0 35 -26.5 55t-70.5 20h-13l11 42h17q48 0 75 24t27 63q0 27 -16.5 43t-49.5 16q-46 0 -88 -29h-10l13 47q50 26 104 26q56 0 90 -25t34 -71q0 -43 -25 -72.5t-72 -40.5v-3q34 -9 56 -34t22 -62q0 -69 -51.5 -109.5t-129.5 -40.5q-73 0 -120 35l-2 57h10
q47 -44 109 -44q50 0 78 28t28 75z" />
    <glyph glyph-name="four.subs" unicode="&#x2084;" horiz-adv-x="395" 
d="M337 11l-17 -52h-69l-21 -119h-75l21 119h-207l4 29l273 294h62l-48 -271h77zM51 12h134l32 180h-5l-160 -175z" />
    <glyph glyph-name="five.subs" unicode="&#x2085;" horiz-adv-x="376" 
d="M106 -168q-74 0 -121 36l2 56h10q40 -43 104 -43q53 0 84.5 31t31.5 83q0 36 -22 56.5t-60 20.5q-40 0 -69 -20l-35 6l72 224h219l-21 -64h-162l-37 -111q25 11 58 11q63 0 99.5 -32t36.5 -86q0 -77 -54 -122.5t-136 -45.5z" />
    <glyph glyph-name="six.subs" unicode="&#x2086;" horiz-adv-x="403" 
d="M150 -168q-69 0 -108 34.5t-39 97.5q0 112 87.5 206.5t205.5 119.5l31 -34q-66 -16 -129.5 -66t-88.5 -110l3 -1q34 36 87 36q54 0 90 -33t36 -86q0 -70 -50.5 -117t-124.5 -47zM153 -126q37 0 63 34t26 87q0 36 -18.5 56.5t-48.5 20.5q-37 0 -63.5 -34.5t-26.5 -86.5
q0 -36 19.5 -56.5t48.5 -20.5z" />
    <glyph glyph-name="seven.subs" unicode="&#x2087;" horiz-adv-x="382" 
d="M0 -160q44 65 135 193.5t131 187.5h-226l21 61h302l-4 -20q-163 -240 -275 -422h-84z" />
    <glyph glyph-name="eight.subs" unicode="&#x2088;" horiz-adv-x="414" 
d="M151 -168q-67 0 -105 30t-38 77q0 89 119 138v2q-57 42 -57 97q0 51 41.5 82.5t106.5 31.5q56 0 90.5 -25.5t34.5 -65.5q0 -70 -96 -109v-2q82 -47 82 -117q0 -64 -49.5 -101.5t-128.5 -37.5zM206 111q78 32 78 87q0 24 -18 39.5t-46 15.5q-31 0 -52 -20t-21 -49
q0 -40 59 -73zM155 -127q41 0 67 23.5t26 64.5q0 55 -82 92q-92 -40 -92 -110q0 -29 23 -49.5t58 -20.5z" />
    <glyph glyph-name="nine.subs" unicode="&#x2089;" horiz-adv-x="398" 
d="M55 -168l-30 33q79 24 137.5 73.5t83.5 115.5h-2q-38 -36 -92 -36q-53 0 -86.5 32t-33.5 84q0 71 48 113.5t123 42.5q66 0 105 -35.5t39 -97.5q0 -111 -86 -205t-206 -120zM177 63q38 0 63.5 30.5t25.5 79.5q0 35 -18 55t-49 20q-38 0 -61.5 -33t-23.5 -82
q0 -30 17.5 -50t45.5 -20z" />
    <glyph glyph-name="uni2099" unicode="&#x2099;" horiz-adv-x="423" 
d="M250 0l36 210q4 22 4 31q0 24 -13 36.5t-35 12.5q-39 0 -67.5 -32.5t-38.5 -86.5l-30 -171h-79l59 336h72l-7 -70h2q41 77 120 77q46 0 71 -25t25 -69q0 -15 -3 -34l-37 -215h-79z" />
    <glyph glyph-name="Euro" unicode="&#x20ac;" horiz-adv-x="680" 
d="M525 692q102 0 152 -37v-76h-11q-51 54 -145 54q-88 0 -155 -53.5t-102 -142.5h289l-17 -48h-287q-10 -36 -13 -80h283l-16 -48h-269q2 -99 52.5 -154.5t139.5 -55.5q102 0 183 62h14l-37 -80q-77 -45 -180 -45q-127 0 -204.5 71.5t-79.5 201.5h-90l16 48h76q3 43 13 80
h-72l17 48h71q45 116 145.5 185.5t226.5 69.5z" />
    <glyph glyph-name="uni20B9" unicode="&#x20b9;" horiz-adv-x="565" 
d="M594 680l-18 -48h-206q48 -42 48 -112v-4h140l-17 -48h-129q-30 -118 -185 -154l-2 -4q99 -170 217 -304l-1 -6h-127q-101 140 -185 302h-53l9 48h65q63 6 105 36.5t56 81.5h-206l9 48h204v3q0 57 -35.5 85t-98.5 28h-50l9 48h451z" />
    <glyph glyph-name="uni20BA" unicode="&#x20ba;" horiz-adv-x="620" 
d="M491 323h103q-32 -155 -128 -239t-255 -84h-113l49 277l-103 -40l9 52l103 40l14 79l-103 -40l9 51l103 40l39 221h101l-32 -179l225 87l-9 -52l-225 -87l-14 -79l225 87l-10 -52l-224 -86l-45 -258h9q213 0 272 262z" />
    <glyph glyph-name="uni20BC" unicode="&#x20bc;" horiz-adv-x="777" 
d="M502 553q94 -16 145.5 -91.5t51.5 -205.5q0 -94 -37 -256h-104q40 171 40 288q0 172 -107 202l-73 -410h-102l73 412q-56 -11 -97 -49.5t-68 -107t-44 -146t-31 -189.5h-104q27 252 109.5 394.5t245.5 160.5l22 125h102z" />
    <glyph glyph-name="uni2113" unicode="&#x2113;" horiz-adv-x="500" 
d="M242 280l-27 -153q-2 -10 -2 -28q0 -56 53 -56q21 0 50.5 11.5t52.5 29.5l6 -40q-71 -58 -148 -58q-114 0 -114 97q0 17 3 35l15 83l-68 -57l-25 46l105 85l48 267q15 83 63.5 131t114.5 48q46 0 74.5 -27.5t28.5 -74.5q0 -147 -230 -339zM255 351q65 61 106 132.5
t41 136.5q0 51 -36 51q-55 0 -73 -102z" />
    <glyph glyph-name="uni2117" unicode="&#x2117;" horiz-adv-x="797" 
d="M782 346q0 -151 -103 -256t-257 -105q-153 0 -257 104.5t-104 256.5q0 153 104 256.5t257 103.5q151 0 255.5 -104t104.5 -256zM422 36q130 0 217 90t87 220t-88.5 219.5t-216.5 89.5q-130 0 -217 -89.5t-87 -219.5q0 -129 86 -219.5t219 -90.5zM443 542q147 0 147 -118
q0 -57 -40.5 -88.5t-109.5 -31.5h-54v-151h-81v389h138zM427 348q43 0 62.5 18.5t19.5 57.5q0 38 -19.5 56t-62.5 18h-41v-150h41z" />
    <glyph glyph-name="trademark" unicode="&#x2122;" horiz-adv-x="652" 
d="M91 642v38h194v-38h-69v-234h-59v234h-66zM491 505h3l76 175h68l30 -272h-61l-20 206h-4l-86 -189h-29l-86 189h-4l-18 -206h-47l29 272h69z" />
    <glyph glyph-name="uni2126" unicode="&#x2126;" horiz-adv-x="807" 
d="M749 363q0 -178 -169 -287v-5h179v-71h-265v71q81 57 110 122t29 168q0 114 -61 192.5t-164 78.5q-105 0 -166.5 -76t-61.5 -194q0 -102 28.5 -168t112.5 -123v-71h-267v71h175v5q-165 103 -165 287q0 140 99 234t245 94q145 0 243 -96.5t98 -231.5z" />
    <glyph glyph-name="estimated" unicode="&#x212e;" horiz-adv-x="904" 
d="M477 -9q-184 0 -293 102.5t-109 250.5q0 72 28 138.5t78 118t127 82.5t169 31q89 0 159.5 -22.5t115 -58.5t74 -86t41.5 -100.5t12 -104.5h-652q-5 0 -5 -6v-184q0 -22 7 -30q89 -105 247 -105q79 0 140 29.5t121 83.5h70q-61 -73 -135 -106t-195 -33zM227 363h498
q7 0 7 7v189q0 9 -12 26q-75 105 -247 105q-154 0 -242 -103q-9 -11 -9 -28v-189q0 -7 5 -7z" />
    <glyph glyph-name="oneeighth" unicode="&#x215b;" horiz-adv-x="878" 
d="M645 703l40 -27l-512 -699l-40 28zM134 238l66 378l-106 -41l6 46l148 59h44l-78 -442h-80zM643 -8q-67 0 -105 30t-38 77q0 89 118 138l1 2q-57 42 -57 97q0 51 41.5 82.5t105.5 31.5q56 0 90.5 -25t34.5 -66q0 -70 -95 -109v-2q82 -47 82 -117q0 -64 -49.5 -101.5
t-128.5 -37.5zM698 271q77 31 77 87q0 24 -17.5 39.5t-46.5 15.5q-31 0 -51.5 -20t-20.5 -49q0 -40 59 -73zM647 33q41 0 67 23.5t26 64.5q0 55 -83 92q-92 -40 -92 -109q0 -30 23.5 -50.5t58.5 -20.5z" />
    <glyph glyph-name="threeeighths" unicode="&#x215c;" horiz-adv-x="949" 
d="M708 703l40 -27l-512 -699l-40 28zM274 381q0 35 -26.5 55t-70.5 20h-13l11 42h17q48 0 75 24t27 63q0 27 -16.5 43t-49.5 16q-46 0 -88 -29h-10l13 47q50 26 104 26q56 0 90 -25t34 -71q0 -43 -25 -72.5t-72 -40.5v-3q34 -9 56 -34t22 -62q0 -69 -51.5 -109.5
t-129.5 -40.5q-73 0 -120 35l-1 57h9q47 -44 109 -44q50 0 78 28t28 75zM706 -8q-67 0 -105.5 30t-38.5 77q0 89 119 138v2q-56 41 -56 97q0 51 41 82.5t106 31.5q56 0 90.5 -25t34.5 -66q0 -70 -96 -109v-2q83 -47 83 -117q0 -64 -49.5 -101.5t-128.5 -37.5zM761 271
q77 32 77 87q0 24 -17.5 39.5t-46.5 15.5q-31 0 -51.5 -20t-20.5 -49q0 -41 59 -73zM710 33q41 0 67 24t26 64q0 55 -83 92q-92 -40 -92 -109q0 -30 23.5 -50.5t58.5 -20.5z" />
    <glyph glyph-name="fiveeighths" unicode="&#x215d;" horiz-adv-x="951" 
d="M720 703l40 -27l-512 -699l-40 28zM176 230q-74 0 -121 36l2 56h10q39 -42 104 -42q53 0 84.5 30.5t31.5 82.5q0 36 -22 56.5t-60 20.5q-40 0 -69 -20l-35 6l72 224h219l-21 -64h-162l-37 -111q25 11 58 11q63 0 99.5 -32t36.5 -86q0 -77 -54 -122.5t-136 -45.5zM718 -8
q-67 0 -105.5 30t-38.5 77q0 89 119 138v2q-56 41 -56 97q0 51 41 82.5t106 31.5q56 0 90.5 -25t34.5 -66q0 -70 -96 -109v-2q83 -47 83 -117q0 -64 -49.5 -101.5t-128.5 -37.5zM773 271q77 32 77 87q0 24 -17.5 39.5t-46.5 15.5q-31 0 -51.5 -20t-20.5 -49q0 -41 59 -73z
M722 33q41 0 67 24t26 64q0 55 -83 92q-92 -40 -92 -109q0 -30 23.5 -50.5t58.5 -20.5z" />
    <glyph glyph-name="seveneighths" unicode="&#x215e;" horiz-adv-x="860" 
d="M636 703l40 -27l-512 -699l-40 28zM70 238q44 65 135 193.5t131 187.5h-226l21 61h302l-4 -20q-163 -240 -275 -422h-84zM634 -8q-67 0 -105 30t-38 77q0 89 118 138l1 2q-57 42 -57 97q0 51 41.5 82.5t105.5 31.5q56 0 90.5 -25t34.5 -66q0 -70 -95 -109v-2
q82 -47 82 -117q0 -64 -49.5 -101.5t-128.5 -37.5zM689 271q77 31 77 87q0 24 -17.5 39.5t-46.5 15.5q-31 0 -51.5 -20t-20.5 -49q0 -40 59 -73zM638 33q41 0 67 23.5t26 64.5q0 55 -83 92q-92 -40 -92 -109q0 -30 23.5 -50.5t58.5 -20.5z" />
    <glyph glyph-name="partialdiff" unicode="&#x2202;" 
d="M287 721q66 0 116 -30.5t78 -82.5t41.5 -114t13.5 -134q0 -174 -57 -273t-174 -99q-92 0 -148.5 65.5t-56.5 161.5q0 93 55.5 154.5t143.5 61.5q85 0 151 -71v24q0 68 -14 124.5t-51.5 98.5t-94.5 42q-53 0 -111 -48l-49 57q70 63 157 63zM306 57q122 0 140 225
q-63 79 -136 79q-56 0 -90 -43.5t-34 -107.5q0 -61 32 -107t88 -46z" />
    <glyph glyph-name="uni2206" unicode="&#x2206;" horiz-adv-x="684" 
d="M19 0v42l280 628l77 11l270 -644v-37h-627zM100 60h425l-207 501h-5z" />
    <glyph glyph-name="product" unicode="&#x220f;" horiz-adv-x="724" 
d="M672 786v-1000h-89v915h-400v-915h-90v1000h579z" />
    <glyph glyph-name="summation" unicode="&#x2211;" 
d="M591 786v-85h-411l282 -410l-300 -420h441v-85h-554v75l305 429l-292 421v75h529z" />
    <glyph glyph-name="minus" unicode="&#x2212;" 
d="M548 285v-66h-487v66h487z" />
    <glyph glyph-name="uni2215" unicode="&#x2215;" horiz-adv-x="153" 
d="M334 703l40 -27l-512 -699l-40 28z" />
    <glyph glyph-name="uni2219" unicode="&#x2219;" horiz-adv-x="307" 
d="M119 342h115l-22 -121h-115z" />
    <glyph glyph-name="radical" unicode="&#x221a;" 
d="M575 786l-207 -1000h-85l-153 327l-47 -23l-33 70l124 59l138 -302l173 869h90z" />
    <glyph glyph-name="infinity" unicode="&#x221e;" horiz-adv-x="779" 
d="M730 258q0 -72 -41 -119.5t-111 -47.5q-89 0 -185 111q-57 -57 -97 -83.5t-87 -26.5q-72 0 -113 47.5t-41 116.5q0 72 41.5 118.5t108.5 46.5q46 0 88.5 -26t99.5 -90q52 59 93 88.5t92 29.5q69 0 110.5 -47t41.5 -118zM581 171q35 0 55 23.5t20 60.5q0 39 -20.5 64
t-58.5 25q-52 0 -136 -90q78 -83 140 -83zM208 171q59 0 137 83q-86 89 -140 89q-35 0 -55.5 -26t-20.5 -62q0 -37 21.5 -60.5t57.5 -23.5z" />
    <glyph glyph-name="integral" unicode="&#x222b;" 
d="M484 723q0 -20 -13 -32t-33 -12q-23 0 -40 31q-13 23 -20 23q-27 0 -27 -78q0 -15 1.5 -57t1.5 -58v-526q0 -112 -31.5 -169.5t-101.5 -57.5q-32 0 -56.5 17t-24.5 44q0 17 13.5 29t29.5 12q23 0 38 -33q10 -20 18 -20q26 0 26 91q0 4 -1.5 34.5t-1.5 42.5v577
q0 114 37 161q36 44 97 44q36 0 62 -16.5t26 -46.5z" />
    <glyph glyph-name="approxequal" unicode="&#x2248;" 
d="M310 384q84 -34 121 -34q27 0 45.5 18.5t24.5 53.5h58q-7 -64 -40.5 -100.5t-90.5 -36.5q-45 0 -131 34q-82 35 -119 35q-28 0 -46.5 -19t-24.5 -53h-58q8 65 41.5 101t89.5 36q43 0 130 -35zM314 181q84 -33 116 -33q27 0 45.5 18.5t25.5 53.5h58q-8 -67 -42.5 -102
t-88.5 -35q-44 0 -134 37q-79 33 -117 33q-26 0 -45 -19t-25 -53h-58q7 63 40.5 100t90.5 37q42 0 134 -37z" />
    <glyph glyph-name="notequal" unicode="&#x2260;" 
d="M480 503l-64 -117h132v-65h-170l-74 -136h244v-66h-281l-82 -150l-56 29l66 121h-134v66h173l72 136h-245v65h282l81 147z" />
    <glyph glyph-name="lessequal" unicode="&#x2264;" 
d="M548 456l-407 -146l407 -146v-69l-488 181v68l488 181v-69zM548 66v-66h-488v66h488z" />
    <glyph glyph-name="greaterequal" unicode="&#x2265;" 
d="M61 525l487 -181v-68l-487 -181v69l406 146l-406 146v69zM548 66v-66h-487v66h487z" />
    <glyph glyph-name="lozenge" unicode="&#x25ca;" 
d="M366 747l171 -391l-171 -391h-82l-170 391l171 391h81zM203 356l122 -302l124 302l-124 302z" />
    <glyph glyph-name="uniFEFF" unicode="&#xfeff;" horiz-adv-x="0" 
 />
    <glyph glyph-name="i.loclTRK" horiz-adv-x="252" 
d="M268 701l-17 -98h-102l17 98h102zM130 477h95l-84 -477h-96z" />
    <glyph glyph-name="zero.lf" horiz-adv-x="606" 
d="M390 692q94 0 142.5 -65.5t48.5 -184.5q0 -83 -21 -163t-59 -145.5t-98.5 -106t-133.5 -40.5q-95 0 -145.5 64t-50.5 181q0 111 37 214.5t111.5 174.5t168.5 71zM381 632q-62 0 -110.5 -71.5t-70.5 -164.5t-22 -182q0 -166 97 -166q48 0 87.5 40.5t63.5 103.5t36.5 133
t12.5 135q0 172 -94 172z" />
    <glyph glyph-name="one.lf" horiz-adv-x="411" 
d="M259 0h-99l104 590l-160 -67l10 64l211 93h54z" />
    <glyph glyph-name="two.lf" horiz-adv-x="559" 
d="M-8 0l7 37l133 111q68 58 112 99t89.5 91.5t68.5 97t23 88.5q1 44 -25 73t-73 29q-83 0 -164 -66h-10l23 77q83 55 171 55q89 0 138.5 -44.5t48.5 -115.5q0 -48 -21 -94t-68.5 -97t-91 -89t-121.5 -100l-78 -62l-1 -4h169q131 0 172 5h10l-54 -91h-458z" />
    <glyph glyph-name="three.lf" horiz-adv-x="518" 
d="M356 221q1 60 -37.5 89.5t-112.5 29.5h-31l17 59h19q83 0 129 37t47 104q1 42 -26 66.5t-76 24.5q-71 0 -134 -40h-10l20 66q73 35 149 35q80 0 129 -37t48 -106q-1 -122 -128 -171l-1 -5q46 -15 75 -52.5t28 -91.5q-1 -113 -80.5 -177t-200.5 -64q-50 0 -98.5 14.5
t-79.5 39.5l-1 83h10q67 -68 168 -68q75 0 126 44.5t51 119.5z" />
    <glyph glyph-name="four.lf" horiz-adv-x="594" 
d="M461 265h112l-25 -74h-99l-34 -191h-97l34 191h-327l6 40l422 449h83zM365 265l52 294h-7l-263 -289l-1 -5h219z" />
    <glyph glyph-name="five.lf" horiz-adv-x="533" 
d="M382 235q1 55 -32 91.5t-93 36.5q-64 0 -118 -35l-45 9l110 343h323l-29 -87h-247l-62 -184q48 16 91 16q92 0 149 -46t56 -136q-1 -120 -81.5 -187.5t-205.5 -67.5q-50 0 -99.5 15t-80.5 41l2 82h10q65 -68 167 -68q80 0 132 48.5t53 128.5z" />
    <glyph glyph-name="six.lf" horiz-adv-x="583" 
d="M211 364q57 55 141 55t134 -50t49 -133q-1 -109 -75.5 -178.5t-185.5 -69.5q-97 0 -155 55.5t-57 150.5q1 85 38.5 169.5t99 150.5t142 114t165.5 65l36 -39q-105 -24 -202.5 -109.5t-133.5 -180.5h4zM166 182q0 -58 29.5 -98t84.5 -40q68 0 108 56t41 132q0 56 -27 94
t-78 38q-69 0 -113 -52t-45 -130z" />
    <glyph glyph-name="seven.lf" horiz-adv-x="553" 
d="M72 0q89 137 399 593h-345l28 87h439l-6 -28q-253 -385 -415 -652h-100z" />
    <glyph glyph-name="eight.lf" horiz-adv-x="581" 
d="M396 379v-3q62 -38 96.5 -80t33.5 -97q-1 -99 -78.5 -155t-187.5 -56q-90 0 -151 44t-60 122q1 135 188 209l1 3q-49 32 -71.5 65.5t-21.5 80.5q1 85 70.5 132.5t157.5 47.5q76 0 124 -38t47 -102q-1 -60 -38 -100.5t-110 -72.5zM465 543q1 43 -24.5 70.5t-72.5 27.5
q-49 0 -87 -29.5t-39 -85.5q0 -37 24.5 -64.5t77.5 -56.5q61 26 90.5 58t30.5 80zM420 182q1 49 -33.5 83.5t-100.5 67.5q-75 -32 -112 -72.5t-38 -100.5q-1 -51 37 -84t93 -33q68 0 111 37.5t43 101.5z" />
    <glyph glyph-name="nine.lf" horiz-adv-x="583" 
d="M426 335q-53 -55 -136 -55q-84 0 -137.5 44.5t-52.5 124.5q1 108 76 175.5t185 67.5q96 0 151.5 -56.5t55.5 -149.5q0 -174 -135 -318.5t-322 -181.5l-36 46q128 34 226.5 122t128.5 181h-4zM467 510q0 52 -30 89t-80 37q-67 0 -108.5 -54t-41.5 -129q-1 -51 26.5 -83.5
t75.5 -32.5q64 0 111 45.5t47 127.5z" />
    <glyph glyph-name="zero.dnom" horiz-adv-x="438" 
d="M191 -8q-68 0 -109.5 45t-41.5 124q0 125 58.5 207.5t153.5 82.5q68 0 109.5 -45.5t41.5 -124.5q0 -125 -58.5 -207t-153.5 -82zM193 36q54 0 89.5 76t35.5 180q0 55 -18 85t-50 30q-54 0 -89.5 -76t-35.5 -180q0 -115 68 -115z" />
    <glyph glyph-name="one.dnom" horiz-adv-x="311" 
d="M92 0l66 378l-106 -41l6 46l148 59h44l-78 -442h-80z" />
    <glyph glyph-name="two.dnom" horiz-adv-x="392" 
d="M-14 0l5 25l91 73q109 88 148 138.5t39 97.5q0 31 -18 49.5t-50 18.5q-58 0 -102 -38h-11l16 52q51 34 116 34q62 0 97.5 -31t35.5 -81q0 -59 -46.5 -112t-147.5 -128l-39 -29l-1 -3h98q79 0 113 5h9l-39 -71h-314z" />
    <glyph glyph-name="three.dnom" horiz-adv-x="374" 
d="M232 143q0 35 -26.5 55t-70.5 20h-13l11 42h17q48 0 75 24t27 63q0 27 -16.5 43t-49.5 16q-46 0 -88 -29h-10l13 47q50 26 104 26q56 0 90 -25t34 -71q0 -43 -25 -72.5t-72 -40.5v-3q34 -9 56 -34t22 -62q0 -69 -51.5 -109.5t-129.5 -40.5q-73 0 -120 35l-1 57h9
q47 -44 109 -44q50 0 78 28t28 75z" />
    <glyph glyph-name="four.dnom" horiz-adv-x="395" 
d="M365 171l-17 -52h-69l-21 -119h-75l21 119h-207l4 29l273 294h62l-48 -271h77zM79 172h134l32 180h-5l-160 -175z" />
    <glyph glyph-name="five.dnom" horiz-adv-x="376" 
d="M134 -8q-74 0 -121 36l2 56h10q39 -42 104 -42q53 0 84.5 30.5t31.5 82.5q0 36 -22 56.5t-60 20.5q-40 0 -69 -20l-35 6l72 224h219l-21 -64h-162l-37 -111q25 11 58 11q63 0 99.5 -32t36.5 -86q0 -77 -54 -122.5t-136 -45.5z" />
    <glyph glyph-name="six.dnom" horiz-adv-x="403" 
d="M178 -8q-69 0 -108 34.5t-39 97.5q0 112 87.5 206.5t205.5 119.5l31 -34q-66 -16 -129.5 -66t-88.5 -110l3 -1q34 36 87 36q54 0 90 -33t36 -85q0 -71 -50 -118t-125 -47zM181 34q37 0 63 34t26 88q0 36 -18.5 56t-48.5 20q-37 0 -63.5 -34t-26.5 -86q0 -36 19 -57
t49 -21z" />
    <glyph glyph-name="seven.dnom" horiz-adv-x="382" 
d="M28 0q44 65 135 193.5t131 187.5h-226l21 61h302l-4 -20q-163 -240 -275 -422h-84z" />
    <glyph glyph-name="eight.dnom" horiz-adv-x="414" 
d="M179 -8q-67 0 -105 30t-38 77q0 89 119 138v2q-57 42 -57 97q0 51 41.5 82.5t106.5 31.5q56 0 90.5 -25.5t34.5 -65.5q0 -70 -96 -109v-2q82 -47 82 -117q0 -64 -49.5 -101.5t-128.5 -37.5zM234 271q78 32 78 87q0 24 -18 39.5t-46 15.5q-31 0 -52 -20t-21 -49
q0 -40 59 -73zM183 33q41 0 67 23.5t26 64.5q0 55 -82 92q-92 -40 -92 -109q0 -30 23 -50.5t58 -20.5z" />
    <glyph glyph-name="nine.dnom" horiz-adv-x="398" 
d="M83 -8l-30 33q79 24 137.5 73.5t83.5 115.5h-2q-38 -36 -92 -36q-53 0 -86.5 32t-33.5 84q0 71 48 113.5t123 42.5q66 0 105 -35.5t39 -97.5q0 -111 -86 -205t-206 -120zM205 223q38 0 63.5 30.5t25.5 79.5q0 35 -18 55t-49 20q-38 0 -61.5 -33t-23.5 -82q0 -30 17.5 -50
t45.5 -20z" />
    <glyph glyph-name="zero.numr" horiz-adv-x="438" 
d="M233 230q-68 0 -109.5 45t-41.5 124q0 125 58.5 207.5t153.5 82.5q68 0 109.5 -45.5t41.5 -124.5q0 -125 -58.5 -207t-153.5 -82zM235 274q54 0 89.5 76t35.5 180q0 55 -18 85t-50 30q-54 0 -89.5 -76t-35.5 -180q0 -115 68 -115z" />
    <glyph glyph-name="one.numr" horiz-adv-x="311" 
d="M134 238l66 378l-106 -41l6 46l148 59h44l-78 -442h-80z" />
    <glyph glyph-name="two.numr" horiz-adv-x="392" 
d="M28 238l5 25l91 73q109 88 148 138.5t39 97.5q0 31 -18 49.5t-50 18.5q-58 0 -102 -38h-11l16 52q51 34 116 34q62 0 97.5 -31t35.5 -81q0 -59 -46.5 -112t-147.5 -128l-39 -29l-1 -3h98q79 0 113 5h9l-39 -71h-314z" />
    <glyph glyph-name="three.numr" horiz-adv-x="374" 
d="M274 381q0 35 -26.5 55t-70.5 20h-13l11 42h17q48 0 75 24t27 63q0 27 -16.5 43t-49.5 16q-46 0 -88 -29h-10l13 47q50 26 104 26q56 0 90 -25t34 -71q0 -43 -25 -72.5t-72 -40.5v-3q34 -9 56 -34t22 -62q0 -69 -51.5 -109.5t-129.5 -40.5q-73 0 -120 35l-1 57h9
q47 -44 109 -44q50 0 78 28t28 75z" />
    <glyph glyph-name="four.numr" horiz-adv-x="395" 
d="M407 409l-17 -52h-69l-21 -119h-75l21 119h-207l4 29l273 294h62l-48 -271h77zM121 410h134l32 180h-5l-160 -175z" />
    <glyph glyph-name="five.numr" horiz-adv-x="376" 
d="M176 230q-74 0 -121 36l2 56h10q39 -42 104 -42q53 0 84.5 30.5t31.5 82.5q0 36 -22 56.5t-60 20.5q-40 0 -69 -20l-35 6l72 224h219l-21 -64h-162l-37 -111q25 11 58 11q63 0 99.5 -32t36.5 -86q0 -77 -54 -122.5t-136 -45.5z" />
    <glyph glyph-name="six.numr" horiz-adv-x="403" 
d="M220 230q-69 0 -108 34.5t-39 97.5q0 112 87.5 206.5t205.5 119.5l31 -34q-66 -16 -129.5 -66t-88.5 -110l3 -1q34 36 87 36q54 0 90 -33t36 -85q0 -71 -50 -118t-125 -47zM223 272q37 0 63 34t26 88q0 36 -18.5 56t-48.5 20q-37 0 -63.5 -34t-26.5 -86q0 -36 19 -57
t49 -21z" />
    <glyph glyph-name="seven.numr" horiz-adv-x="382" 
d="M70 238q44 65 135 193.5t131 187.5h-226l21 61h302l-4 -20q-163 -240 -275 -422h-84z" />
    <glyph glyph-name="eight.numr" horiz-adv-x="414" 
d="M221 230q-67 0 -105 30t-38 77q0 89 119 138v2q-57 42 -57 97q0 51 41.5 82.5t106.5 31.5q56 0 90.5 -25.5t34.5 -65.5q0 -70 -96 -109v-2q82 -47 82 -117q0 -64 -49.5 -101.5t-128.5 -37.5zM276 509q78 32 78 87q0 24 -18 39.5t-46 15.5q-31 0 -52 -20t-21 -49
q0 -40 59 -73zM225 271q41 0 67 23.5t26 64.5q0 55 -82 92q-92 -40 -92 -109q0 -30 23 -50.5t58 -20.5z" />
    <glyph glyph-name="nine.numr" horiz-adv-x="398" 
d="M125 230l-30 33q79 24 137.5 73.5t83.5 115.5h-2q-38 -36 -92 -36q-53 0 -86.5 32t-33.5 84q0 71 48 113.5t123 42.5q66 0 105 -35.5t39 -97.5q0 -111 -86 -205t-206 -120zM247 461q38 0 63.5 30.5t25.5 79.5q0 35 -18 55t-49 20q-38 0 -61.5 -33t-23.5 -82
q0 -30 17.5 -50t45.5 -20z" />
    <glyph glyph-name="uni00AD.ss01" horiz-adv-x="397" 
d="M90 387h280l-11 -59h-280z" />
    <glyph glyph-name="endash.ss01" horiz-adv-x="500" 
d="M521 389l-5 -63h-487l5 63h487z" />
    <glyph glyph-name="emdash.ss01" horiz-adv-x="918" 
d="M846 389l-5 -63h-718l5 63h718z" />
    <glyph glyph-name="uni2011.ss01" horiz-adv-x="397" 
d="M90 387h280l-11 -59h-280z" />
    <glyph glyph-name="caroncomb.alt" horiz-adv-x="0" 
d="M36 720q-34 -117 -95 -194h-47q41 104 57 194h85z" />
    <glyph glyph-name="uni0308.case" horiz-adv-x="0" 
d="M-37 871l-16 -95h-94l16 95h94zM136 871l-16 -95h-94l17 95h93z" />
    <glyph glyph-name="uni0307.case" horiz-adv-x="0" 
d="M54 872l-17 -98h-102l17 98h102z" />
    <glyph glyph-name="gravecomb.case" horiz-adv-x="0" 
d="M-140 885h103l85 -129h-54z" />
    <glyph glyph-name="acutecomb.case" horiz-adv-x="0" 
d="M147 885l-181 -129h-59l127 129h113z" />
    <glyph glyph-name="uni030B.case" horiz-adv-x="0" 
d="M63 885l-166 -129h-57l120 129h103zM228 885l-166 -129h-57l120 129h103z" />
    <glyph glyph-name="uni0302.case" horiz-adv-x="0" 
d="M51 885l86 -129h-52l-80 75l-112 -75h-57l132 129h83z" />
    <glyph glyph-name="uni030C.case" horiz-adv-x="0" 
d="M-58 756l-86 129h53l80 -75l112 75h56l-132 -129h-83z" />
    <glyph glyph-name="uni0306.case" horiz-adv-x="0" 
d="M-91 883q-2 -33 20 -53t61 -20q83 0 111 73h48q-38 -129 -167 -129q-64 0 -95.5 35t-25.5 94h48z" />
    <glyph glyph-name="uni030A.case" horiz-adv-x="0" 
d="M-16 728q-44 0 -71 25.5t-27 64.5q0 51 35 86t89 35q44 0 71 -25.5t27 -64.5q0 -51 -35 -86t-89 -35zM-13 763q34 0 55.5 25t21.5 59q0 23 -15 39.5t-42 16.5q-32 0 -54.5 -24t-22.5 -59q0 -24 15.5 -40.5t41.5 -16.5z" />
    <glyph glyph-name="tildecomb.case" horiz-adv-x="0" 
d="M114 875q-21 -47 -55 -47q-15 0 -53 24q-40 25 -67 25q-71 0 -104 -107h42q21 49 54 49q14 0 54 -25q39 -24 67 -24q70 0 102 105h-40z" />
    <glyph glyph-name="uni0304.case" horiz-adv-x="0" 
d="M157 850l-10 -53h-314l10 53h314z" />
    </font>
</defs>
</svg>
