<?xml version="1.0" standalone="no"?>
<!DOCTYPE svg PUBLIC "-//W3C//DTD SVG 1.1//EN" "http://www.w3.org/Graphics/SVG/1.1/DTD/svg11.dtd" >
<svg xmlns="http://www.w3.org/2000/svg" xmlns:xlink="http://www.w3.org/1999/xlink" version="1.1">
<metadata>
Created by FontForge 20170731 at Wed Jun 27 13:51:30 2018
 By Aleksey,,,
Copyright (c) 2018 Mazda Motor Corp.
</metadata>
<defs>
<font id="MazdaType-BoldItalic" horiz-adv-x="600" >
  <font-face 
    font-family="Mazda Type"
    font-weight="700"
    font-style="italic"
    font-stretch="normal"
    units-per-em="1000"
    panose-1="1 0 0 0 0 0 0 0 0 0"
    ascent="800"
    descent="-200"
    x-height="480"
    cap-height="680"
    bbox="-277 -240 1125 953"
    underline-thickness="50"
    underline-position="-200"
    slope="-10"
    unicode-range="U+000D-FEFF"
  />
<missing-glyph horiz-adv-x="572" 
d="M50 0h472v680h-472v-680zM148 618h276l-138 -228zM116 109v462l140 -231zM316 340l140 231v-462zM148 62l138 228l138 -228h-276z" />
    <glyph glyph-name="f_f" unicode="ff" horiz-adv-x="611" 
d="M675 732q39 0 65 -10l-6 -73h-9q-21 15 -50 15q-52 0 -76 -41.5t-39 -130.5l-2 -12h92l-18 -64h-85l-74 -416h-126l74 416h-177l-74 -416h-126l74 416h-70l11 64h70l4 25q19 105 78.5 166t160.5 61q39 0 65 -10l-6 -73h-9q-21 15 -50 15q-52 0 -76 -41.5t-39 -130.5
l-2 -12h177l4 25q16 104 77 165.5t162 61.5z" />
    <glyph glyph-name="fi" unicode="fi" horiz-adv-x="572" 
d="M44 0l74 416h-70l11 64h70l4 24q17 104 73.5 166t150.5 62q39 0 65 -10l-9 -73h-9q-21 15 -45 15q-39 0 -61.5 -35t-38.5 -126l-4 -23h92l-18 -64h-85l-74 -416h-126zM440 581l21 118h130l-21 -118h-130zM339 0l85 480h126l-85 -480h-126z" />
    <glyph glyph-name="fl" unicode="fl" horiz-adv-x="572" 
d="M44 0l74 416h-70l11 64h70l4 24q17 103 74 165.5t150 62.5q39 0 65 -10l-9 -73h-9q-21 15 -45 15q-39 0 -61.5 -35t-38.5 -126l-4 -23h92l-18 -64h-85l-74 -416h-126zM339 0l126 709l127 13l-127 -722h-126z" />
    <glyph glyph-name="f_f_i" unicode="ffi" horiz-adv-x="875" 
d="M558 480h92l-18 -64h-85l-74 -416h-126l74 416h-177l-74 -416h-126l74 416h-70l11 64h70l4 25q19 105 78.5 166t160.5 61q39 0 65 -10l-6 -73h-9q-21 15 -50 15q-52 0 -76 -41.5t-39 -130.5l-2 -12h177l4 24q17 104 73.5 166t150.5 62q39 0 65 -10l-9 -73h-9
q-21 15 -45 15q-39 0 -61.5 -35t-38.5 -126zM764 699h130l-21 -118h-130zM642 0l85 480h126l-85 -480h-126z" />
    <glyph glyph-name="f_f_l" unicode="ffl" horiz-adv-x="875" 
d="M558 480h92l-18 -64h-85l-74 -416h-126l74 416h-177l-74 -416h-126l74 416h-70l11 64h70l4 25q19 105 78.5 166t160.5 61q39 0 65 -10l-6 -73h-9q-21 15 -50 15q-52 0 -76 -41.5t-39 -130.5l-2 -12h177l4 24q17 104 73.5 166t150.5 62q39 0 65 -10l-9 -73h-9
q-21 15 -45 15q-39 0 -61.5 -35t-38.5 -126zM768 709l127 13l-127 -722h-126z" />
    <glyph glyph-name=".notdef" horiz-adv-x="572" 
d="M50 0h472v680h-472v-680zM148 618h276l-138 -228zM116 109v462l140 -231zM316 340l140 231v-462zM148 62l138 228l138 -228h-276z" />
    <glyph glyph-name=".null" horiz-adv-x="0" 
 />
    <glyph glyph-name=".null" horiz-adv-x="0" 
 />
    <glyph glyph-name="nonmarkingreturn" horiz-adv-x="333" 
 />
    <glyph glyph-name="CR" unicode="&#xd;" horiz-adv-x="254" 
 />
    <glyph glyph-name="space" unicode=" " horiz-adv-x="254" 
 />
    <glyph glyph-name="exclam" unicode="!" horiz-adv-x="384" 
d="M343 680l-109 -456h-84l51 456h142zM246 144l-25 -144h-138l25 144h138z" />
    <glyph glyph-name="quotedbl" unicode="&#x22;" horiz-adv-x="512" 
d="M297 710l-75 -256h-74l17 256h132zM513 710l-75 -256h-74l17 256h132z" />
    <glyph glyph-name="numbersign" unicode="#" horiz-adv-x="500" 
d="M40 0l67 184h-82l35 75h71l69 185h-83l37 74h71l58 162h49l-58 -162h110l57 162h50l-57 -162h81l-37 -74h-71l-68 -185h82l-35 -75h-72l-65 -184h-50l67 184h-110l-67 -184h-49zM181 259h109l67 185h-109z" />
    <glyph glyph-name="dollar" unicode="$" horiz-adv-x="550" 
d="M395 676q81 -3 119 -31l-9 -80h-14q-40 46 -107 51l-38 -216q70 -47 104 -91.5t34 -101.5q0 -91 -57 -142.5t-151 -60.5l-18 -104h-55l18 102q-54 3 -103 22t-76 46l-9 111h14q34 -50 85 -76.5t102 -27.5l41 231l-24 15q-58 35 -85 70t-27 92q0 83 57.5 132.5t143.5 57.5
l16 94h55zM254 514q0 -41 43 -78l31 175q-74 -21 -74 -97zM363 185q0 48 -40 86l-32 -186q72 23 72 100z" />
    <glyph glyph-name="percent" unicode="%" horiz-adv-x="800" 
d="M652 707l47 -32l-512 -699l-46 32zM284 691q61 0 94.5 -37t33.5 -102q0 -86 -53 -149t-131 -63q-61 0 -96.5 36.5t-35.5 100.5q0 88 54.5 151t133.5 63zM280 648q-30 0 -53 -31.5t-32.5 -73.5t-9.5 -84q0 -75 48 -75q30 0 51.5 31.5t30.5 73t9 83.5q0 76 -44 76zM617 346
q61 0 94.5 -37t33.5 -102q0 -86 -53 -149t-131 -63q-61 0 -96.5 36.5t-35.5 100.5q0 88 54.5 151t133.5 63zM613 303q-30 0 -53 -31.5t-32.5 -73.5t-9.5 -84q0 -75 48 -75q30 0 51.5 31.5t30.5 73t9 83.5q0 76 -44 76z" />
    <glyph glyph-name="ampersand" unicode="&#x26;" horiz-adv-x="747" 
d="M532 0q-36 37 -70 79q-87 -92 -217 -92q-87 0 -146.5 43.5t-59.5 122.5q0 85 53.5 137t152.5 89q-45 64 -45 124q0 82 57.5 133.5t144.5 51.5q68 0 106 -33.5t38 -86.5q0 -66 -42.5 -105t-128.5 -77q50 -74 117 -157q27 44 49 158h87q-11 -45 -36.5 -107.5t-50.5 -101.5
q66 -82 167 -173l-1 -5h-175zM456 560q0 76 -60 76q-37 0 -60 -32t-23 -74q0 -49 35 -103q108 50 108 133zM269 336q-100 -61 -100 -162q0 -48 30.5 -79.5t78.5 -31.5q85 0 146 61q-92 115 -155 212z" />
    <glyph glyph-name="quotesingle" unicode="'" horiz-adv-x="296" 
d="M297 710l-75 -256h-74l17 256h132z" />
    <glyph glyph-name="parenleft" unicode="(" horiz-adv-x="321" 
d="M139 116q0 -184 62 -278h-58q-43 51 -72.5 132t-29.5 178q0 165 72.5 327t188.5 245h58q-87 -78 -154 -247.5t-67 -356.5z" />
    <glyph glyph-name="parenright" unicode=")" horiz-adv-x="321" 
d="M196 442q0 184 -62 278h58q43 -51 72.5 -131.5t29.5 -178.5q0 -165 -72.5 -327t-188.5 -245h-58q87 78 154 247.5t67 356.5z" />
    <glyph glyph-name="asterisk" unicode="*" horiz-adv-x="367" 
d="M354 723l27 -52l-88 -38l88 -40l-27 -52l-81 58l15 -100h-70l16 101l-83 -59l-27 52l89 40l-88 38l27 51l81 -58l-15 101h70l-16 -101z" />
    <glyph glyph-name="plus" unicode="+" 
d="M345 504v-208h200v-88h-200v-208h-88v208h-200v88h200v208h88z" />
    <glyph glyph-name="comma" unicode="," horiz-adv-x="320" 
d="M228 147q-14 -45 -63 -138t-90 -152h-71q60 131 94 290h130z" />
    <glyph glyph-name="hyphen" unicode="-" horiz-adv-x="404" 
d="M65 309h299l-15 -80h-299z" />
    <glyph glyph-name="period" unicode="." horiz-adv-x="320" 
d="M71 147h149l-26 -147h-149z" />
    <glyph glyph-name="slash" unicode="/" horiz-adv-x="609" 
d="M28 -191l-3 5l481 908l6 3h64l3 -5l-482 -908l-5 -3h-64z" />
    <glyph glyph-name="zero" unicode="0" horiz-adv-x="620" 
d="M400 692q103 0 154.5 -63.5t51.5 -182.5q0 -115 -39 -218.5t-119 -172.5t-184 -69q-103 0 -154.5 64t-51.5 182q0 114 40 218t120 173t182 69zM388 613q-59 0 -104 -68.5t-64.5 -157.5t-19.5 -175q0 -145 79 -145q45 0 82 40t58 101.5t32.5 128t11.5 127.5q0 149 -75 149
z" />
    <glyph glyph-name="one" unicode="1" horiz-adv-x="620" 
d="M345 0h-131l102 574l-163 -59l27 84l214 81h73z" />
    <glyph glyph-name="two" unicode="2" horiz-adv-x="620" 
d="M18 0l9 46l131 111q64 54 102.5 90t85.5 86t70 94t23 84q0 44 -23 70t-63 26q-80 0 -157 -60h-10l28 99q89 47 176 47q92 0 143.5 -46.5t51.5 -118.5q0 -48 -18.5 -91t-66.5 -91.5t-81 -76.5t-110 -88q-13 -10 -19 -15l-67 -52l-1 -4h171q120 0 160 6h10l-70 -116h-475z
" />
    <glyph glyph-name="three" unicode="3" horiz-adv-x="620" 
d="M378 214q0 61 -33 87t-104 26h-37l21 77h14q184 0 184 125q0 40 -23.5 62.5t-67.5 22.5q-78 0 -142 -41h-10l23 82q75 38 167 38q83 0 134 -38.5t51 -111.5q0 -57 -33 -101t-92 -67l-1 -6q39 -16 63 -55t24 -88q0 -115 -83.5 -177t-212.5 -62q-52 0 -104.5 14.5
t-82.5 38.5l6 100h10q64 -61 163 -61q64 0 115 35t51 100z" />
    <glyph glyph-name="four" unicode="4" horiz-adv-x="620" 
d="M497 274h100l-32 -92h-84l-32 -182h-132l32 182h-327l14 65l416 433h118zM365 274l47 270h-6l-246 -265l-1 -5h206z" />
    <glyph glyph-name="five" unicode="5" horiz-adv-x="620" 
d="M411 223q0 51 -28.5 85.5t-82.5 34.5q-66 0 -109 -33l-59 14l110 356h353l-33 -110h-258l-53 -157q55 13 89 13q51 0 96.5 -18t78.5 -62.5t33 -109.5q0 -124 -83.5 -186.5t-213.5 -62.5q-50 0 -104.5 14t-88.5 39l8 101h10q70 -64 174 -64q68 0 114.5 39t46.5 107z" />
    <glyph glyph-name="six" unicode="6" horiz-adv-x="620" 
d="M259 383q56 40 133 40q76 0 129 -48t53 -130q0 -113 -80 -185.5t-202 -72.5q-104 0 -163.5 57.5t-59.5 151.5q0 185 140.5 328.5t335.5 168.5l41 -53q-112 -18 -202.5 -89.5t-128.5 -167.5h4zM206 186q0 -49 23 -85.5t71 -36.5q61 0 97.5 50.5t36.5 121.5q0 51 -22 83.5
t-67 32.5q-62 0 -100.5 -49t-38.5 -117z" />
    <glyph glyph-name="seven" unicode="7" horiz-adv-x="620" 
d="M70 0q169 237 399 570h-340l35 110h471l-5 -28q-145 -213 -426 -652h-134z" />
    <glyph glyph-name="eight" unicode="8" horiz-adv-x="620" 
d="M440 384v-2q125 -75 125 -172q0 -72 -43 -124t-107.5 -75.5t-140.5 -23.5q-90 0 -155 43t-65 120q0 139 187 214l1 3q-50 35 -71 66.5t-21 75.5q0 85 75.5 134.5t175.5 49.5q82 0 131.5 -36t49.5 -99q0 -53 -37.5 -98t-104.5 -76zM479 544q0 36 -23 59.5t-62 23.5
q-47 0 -80.5 -25t-33.5 -75q0 -63 94 -111q105 46 105 128zM424 183q0 45 -32 77.5t-92 61.5q-128 -56 -128 -161q0 -43 32.5 -71t79.5 -28q64 0 102 32t38 89z" />
    <glyph glyph-name="nine" unicode="9" horiz-adv-x="620" 
d="M414 305q-50 -41 -125 -41t-131.5 43t-56.5 123q0 118 77.5 190.5t201.5 72.5q101 0 162 -55t61 -151q0 -187 -139.5 -331.5t-336.5 -168.5l-47 66q121 18 216.5 91.5t121.5 160.5h-4zM469 515q0 46 -27 74t-67 28q-62 0 -97 -53.5t-35 -125.5q0 -46 20.5 -70.5
t57.5 -24.5q59 0 103.5 45.5t44.5 126.5z" />
    <glyph glyph-name="colon" unicode=":" horiz-adv-x="357" 
d="M297 480l-25 -140h-147l25 140h147zM237 139l-25 -139h-147l25 139h147z" />
    <glyph glyph-name="semicolon" unicode=";" horiz-adv-x="357" 
d="M297 480l-25 -143h-147l25 143h147zM234 147q-14 -47 -61 -140t-87 -150h-81q55 119 100 290h129z" />
    <glyph glyph-name="less" unicode="&#x3c;" 
d="M546 420l-378 -167l378 -167v-94l-492 214v94l492 214v-94z" />
    <glyph glyph-name="equal" unicode="=" 
d="M545 401v-88h-488v88h488zM545 193v-89h-488v89h488z" />
    <glyph glyph-name="greater" unicode="&#x3e;" 
d="M54 514l492 -214v-94l-492 -214v94l378 167l-378 167v94z" />
    <glyph glyph-name="question" unicode="?" horiz-adv-x="515" 
d="M179 222l4 22q12 64 105 135q52 39 75.5 70.5t23.5 79.5q0 38 -25.5 59.5t-68.5 21.5q-69 0 -144 -52h-14l30 90q69 41 160 41q96 0 149.5 -40t53.5 -110q0 -38 -13 -69t-40.5 -55.5t-51.5 -40t-65 -37.5q-75 -40 -87 -104l-2 -11h-90zM286 141l-26 -144h-138l26 144h138
z" />
    <glyph glyph-name="at" unicode="@" horiz-adv-x="930" 
d="M666 -23l-11 -57q-91 -40 -204 -40q-170 0 -271.5 92t-101.5 231q0 219 139.5 348t357.5 129q134 0 226 -79t92 -207q0 -147 -81.5 -242t-208.5 -95q-41 0 -62.5 16.5t-21.5 44.5q0 13 3 25q-26 -34 -64 -60t-76 -26q-50 0 -73 30.5t-23 79.5q0 81 33 158t97 129.5
t142 52.5q57 0 92 -28h75l-106 -282q-15 -36 -15 -56q0 -23 24 -23q89 0 143.5 81.5t54.5 193.5q0 105 -70.5 169t-184.5 64q-177 0 -292.5 -109.5t-115.5 -310.5q0 -120 77.5 -193.5t219.5 -73.5q126 0 206 38zM608 437q-12 17 -49 17q-43 0 -82 -45.5t-59.5 -106
t-20.5 -110.5q0 -57 37 -57q25 0 53 29t36 49z" />
    <glyph glyph-name="A" unicode="A" horiz-adv-x="660" 
d="M473 0l-41 235h-243l-139 -235h-92l418 676l96 6l142 -682h-141zM377 546h-5l-142 -241h191z" />
    <glyph glyph-name="B" unicode="B" horiz-adv-x="582" 
d="M166 680h201q87 0 141 -37.5t54 -103.5q0 -129 -156 -169l-1 -5q61 -9 98 -44.5t37 -100.5q0 -108 -80 -164t-206 -56h-208zM245 396h47q69 0 107.5 35t38.5 95q0 86 -102 86h-52zM247 70q78 0 121 37.5t43 106.5q0 59 -35.5 88.5t-96.5 29.5h-45l-46 -262h59z" />
    <glyph glyph-name="C" unicode="C" horiz-adv-x="683" 
d="M655 551q-24 33 -70 49.5t-97 15.5q-120 -2 -197.5 -93.5t-77.5 -235.5q0 -97 57 -156t151 -59q113 0 198 63h15l-43 -97q-79 -51 -186 -51q-158 0 -246.5 78t-88.5 217q0 122 58 217t152 144.5t204 49.5q112 0 179 -52l8 -90h-16z" />
    <glyph glyph-name="D" unicode="D" horiz-adv-x="764" 
d="M166 680h232q154 0 244 -74t90 -206q0 -180 -122.5 -290t-323.5 -110h-240zM195 75h91q145 0 224 90t79 230q0 98 -58.5 154.5t-168.5 56.5h-75z" />
    <glyph glyph-name="E" unicode="E" horiz-adv-x="490" 
d="M456 82l-57 -82h-353l120 680h341l-13 -75h-211l-40 -222h188l-12 -71h-187l-42 -236h107q108 0 153 6h6z" />
    <glyph glyph-name="F" unicode="F" horiz-adv-x="468" 
d="M166 680h354l-14 -76h-223l-40 -231h199l-12 -72h-199l-54 -301h-131z" />
    <glyph glyph-name="G" unicode="G" horiz-adv-x="728" 
d="M385 -13q-146 0 -234.5 76t-88.5 210q0 187 119 303.5t304 116.5q54 0 105.5 -12.5t81.5 -33.5l7 -90h-17q-54 60 -176 60q-132 0 -207 -94t-75 -238q0 -100 54.5 -160.5t152.5 -60.5q55 0 88 15l45 255h134l-51 -290q-102 -57 -242 -57z" />
    <glyph glyph-name="H" unicode="H" horiz-adv-x="739" 
d="M166 680h131l-50 -283h301l50 283h131l-120 -680h-131l55 316h-301l-55 -316h-131z" />
    <glyph glyph-name="I" unicode="I" horiz-adv-x="309" 
d="M166 680h133l-120 -680h-133z" />
    <glyph glyph-name="J" unicode="J" horiz-adv-x="305" 
d="M175 680h132l-96 -544q-13 -72 -38.5 -124.5t-63 -85t-77.5 -51t-93 -30.5l-60 30l1 8q96 31 138 90t64 182z" />
    <glyph glyph-name="K" unicode="K" horiz-adv-x="633" 
d="M297 680l-120 -680h-131l120 680h131zM570 680h123l-320 -289q150 -274 237 -386l-1 -5h-167q-62 96 -194 361l1 8z" />
    <glyph glyph-name="L" unicode="L" horiz-adv-x="447" 
d="M360 0h-314l120 680h133l-106 -604h70q97 0 145 6h6z" />
    <glyph glyph-name="M" unicode="M" horiz-adv-x="939" 
d="M326 680l138 -448h3l286 448h132l-36 -680h-139l33 521h-4l-311 -480h-47l-148 478h-4l-126 -519h-89l181 680h131z" />
    <glyph glyph-name="N" unicode="N" horiz-adv-x="730" 
d="M546 220h4l78 460h92l-120 -683h-80l-293 510h-5l-84 -507h-92l120 680h116z" />
    <glyph glyph-name="O" unicode="O" horiz-adv-x="803" 
d="M483 692q124 0 205 -72t81 -205q0 -183 -114.5 -305.5t-295.5 -122.5q-128 0 -208.5 73t-80.5 208q0 179 116 301.5t297 122.5zM373 62q78 0 136.5 53t85 130t26.5 164q0 211 -154 211q-78 0 -136 -52t-85 -128.5t-27 -162.5q0 -215 154 -215z" />
    <glyph glyph-name="P" unicode="P" horiz-adv-x="587" 
d="M166 680h207q99 0 158.5 -44t59.5 -127q0 -116 -80.5 -176t-213.5 -60h-72l-47 -273h-132zM237 338h51q81 0 124.5 43t43.5 120q0 51 -30 81t-84 30h-56z" />
    <glyph glyph-name="Q" unicode="Q" horiz-adv-x="803" 
d="M543 28q46 -36 117.5 -77t133.5 -66l-2 -9l-168 -50q-44 22 -103.5 71t-101.5 94q-25 -4 -60 -4q-128 0 -208.5 73t-80.5 208q0 179 116 301.5t297 122.5q124 0 205 -72t81 -205q0 -130 -60.5 -233.5t-165.5 -153.5zM219 277q0 -215 154 -215q78 0 136.5 53t85 130
t26.5 164q0 211 -154 211q-78 0 -136 -52t-85 -128.5t-27 -162.5z" />
    <glyph glyph-name="R" unicode="R" horiz-adv-x="617" 
d="M166 680h205q92 0 151.5 -42t59.5 -123q0 -82 -44 -129t-134 -76l-1 -4q36 -67 97.5 -154t114.5 -147l-1 -5h-167q-40 52 -89.5 136t-80.5 152h-48l-51 -288h-132zM240 347h73q65 7 102 51.5t37 109.5q0 48 -29 76.5t-79 28.5h-57z" />
    <glyph glyph-name="S" unicode="S" horiz-adv-x="513" 
d="M474 573q-47 48 -118 48q-46 0 -81 -23.5t-35 -78.5q0 -31 19.5 -55t64.5 -54q72 -48 107.5 -97.5t35.5 -110.5q0 -105 -71 -160t-183 -55q-59 0 -114.5 20.5t-85.5 51.5l-10 116h15q35 -53 88.5 -82t106.5 -29q58 0 89.5 29t31.5 85q0 43 -27 73.5t-82 68.5
q-60 41 -86.5 76.5t-26.5 95.5q0 95 70.5 148t170.5 53q98 0 145 -33l-9 -87h-15z" />
    <glyph glyph-name="T" unicode="T" horiz-adv-x="500" 
d="M248 605h-171l13 75h479l-13 -75h-171l-107 -605h-137z" />
    <glyph glyph-name="U" unicode="U" horiz-adv-x="706" 
d="M332 -13q-126 0 -191 49t-65 140q0 31 6 63l78 441h131l-74 -422q-7 -39 -7 -64q0 -128 133 -128q81 0 127.5 47t63.5 145l75 422h91l-79 -441q-22 -119 -94.5 -185.5t-194.5 -66.5z" />
    <glyph glyph-name="V" unicode="V" horiz-adv-x="630" 
d="M712 680l-390 -680h-113l-112 680h139l79 -533h5l294 533h98z" />
    <glyph glyph-name="W" unicode="W" horiz-adv-x="970" 
d="M614 0l-77 495h-5l-277 -495h-102l-43 680h137l22 -508h3l273 508h88l74 -510h3l226 510h100l-326 -680h-96z" />
    <glyph glyph-name="X" unicode="X" 
d="M-36 0l290 343l-140 337h148l94 -253h4l203 253h102l-271 -321l146 -359h-148l-102 270h-4l-217 -270h-105z" />
    <glyph glyph-name="Y" unicode="Y" horiz-adv-x="542" 
d="M215 305l-141 375h142l104 -287h6l204 287h97l-279 -366l-55 -314h-132z" />
    <glyph glyph-name="Z" unicode="Z" horiz-adv-x="680" 
d="M578 0h-578l7 36l484 563l2 6h-347l39 75h516l-6 -32l-488 -565l-1 -6q352 0 430 10h6z" />
    <glyph glyph-name="bracketleft" unicode="[" horiz-adv-x="360" 
d="M368 720l-8 -48h-112l-139 -786h112l-8 -48h-204l155 882h204z" />
    <glyph glyph-name="backslash" unicode="\" 
d="M113 725h60l5 -3l322 -908l-3 -5h-61l-6 3l-320 908z" />
    <glyph glyph-name="bracketright" unicode="]" horiz-adv-x="360" 
d="M9 -162l8 48h112l139 786h-112l8 48h204l-155 -882h-204z" />
    <glyph glyph-name="asciicircum" unicode="^" 
d="M264 697h102l187 -410h-95l-143 316l-142 -316h-95z" />
    <glyph glyph-name="underscore" unicode="_" horiz-adv-x="500" 
d="M-67 -145l9 54h500l-9 -54h-500z" />
    <glyph glyph-name="grave" unicode="`" horiz-adv-x="246" 
d="M194 713l77 -142h-59l-141 142h123z" />
    <glyph glyph-name="a" unicode="a" horiz-adv-x="523" 
d="M318 0l-4 69q-48 -79 -143 -79q-62 0 -98.5 32.5t-36.5 80.5q0 66 40.5 99.5t116.5 52.5q100 25 127.5 34t32.5 22q4 9 4 36q0 77 -86 77q-76 0 -143 -58h-10l16 75q72 49 160 49t135 -37t47 -98q0 -18 -4 -46l-39 -218q-9 -55 -8 -91h-107zM224 59q33 0 61.5 25.5
t39.5 63.5l18 101q-109 -29 -137 -46q-45 -27 -45 -82q0 -29 17 -45.5t46 -16.5z" />
    <glyph glyph-name="b" unicode="b" horiz-adv-x="585" 
d="M154 0h-118l126 709l126 13l-59 -325h2q64 93 168 93q74 0 115 -47.5t41 -128.5q0 -135 -73 -229.5t-191 -94.5q-85 0 -118 66h-2zM351 417q-68 0 -118.5 -84t-50.5 -165q0 -52 26 -80t67 -28q67 0 108.5 76.5t41.5 168.5q0 52 -19.5 82t-54.5 30z" />
    <glyph glyph-name="c" unicode="c" horiz-adv-x="470" 
d="M341 490q85 0 126 -30l-1 -67h-12q-34 34 -95 34q-82 0 -132.5 -71t-50.5 -163q0 -63 32 -100t87 -37q74 0 124 47h12l-29 -76q-56 -37 -145 -37q-95 0 -154.5 52t-59.5 145q0 129 84.5 216t213.5 87z" />
    <glyph glyph-name="d" unicode="d" horiz-adv-x="585" 
d="M479 709l126 13l-127 -722h-125l15 82h-2q-65 -92 -166 -92q-75 0 -116 45.5t-41 126.5q0 136 72 232t191 96q89 0 119 -70h2zM247 62q66 0 116.5 82.5t50.5 163.5q0 52 -26 82t-65 30q-47 0 -82.5 -41t-52 -96.5t-16.5 -112.5q0 -108 75 -108z" />
    <glyph glyph-name="e" unicode="e" horiz-adv-x="520" 
d="M170 246q-3 -21 -3 -42q0 -67 34.5 -104t101.5 -37q88 0 145 54h12l-32 -83q-63 -44 -160 -44q-104 0 -164.5 53t-60.5 148q0 129 77.5 214t194.5 85q93 0 137.5 -48t44.5 -134q0 -28 -7 -62h-320zM384 302q3 15 3 37q0 98 -76 98q-42 0 -80 -39.5t-52 -95.5h205z" />
    <glyph glyph-name="f" unicode="f" horiz-adv-x="308" 
d="M372 732q39 0 65 -10l-6 -73h-9q-21 15 -50 15q-52 0 -76 -41.5t-39 -130.5l-2 -12h92l-18 -64h-85l-74 -416h-126l74 416h-70l11 64h70l4 25q19 105 78.5 166t160.5 61z" />
    <glyph glyph-name="g" unicode="g" horiz-adv-x="524" 
d="M308 79q188 0 188 -107q0 -66 -46.5 -115t-113 -71t-139.5 -22q-89 0 -146 25.5t-57 82.5q0 49 87 122q-26 5 -44 25t-18 45q0 35 99 134q-47 32 -47 99q0 85 60.5 139t152.5 54q61 0 106 -16h167l-16 -60h-99v-4q21 -24 21 -66q0 -82 -60 -131.5t-154 -49.5
q-64 0 -95 17q-29 -47 -29 -72q0 -29 76 -29h107zM186 293q0 -35 17.5 -57t49.5 -22q49 0 72.5 42.5t23.5 100.5q0 36 -17.5 58.5t-50.5 22.5q-44 0 -69.5 -45.5t-25.5 -99.5zM198 -179q73 0 123 29.5t50 82.5q0 37 -59 45q-45 6 -189 6q-38 -36 -38 -90q0 -36 32.5 -54.5
t80.5 -18.5z" />
    <glyph glyph-name="h" unicode="h" horiz-adv-x="573" 
d="M345 0l52 293q6 32 6 55q0 63 -59 63q-52 0 -90 -49.5t-50 -121.5l-43 -240h-125l126 709l126 13l-60 -343h3q27 48 70 79.5t98 31.5q132 0 132 -114q0 -31 -5 -61l-56 -315h-125z" />
    <glyph glyph-name="i" unicode="i" horiz-adv-x="269" 
d="M158 699h130l-21 -118h-130zM121 480h126l-85 -480h-126z" />
    <glyph glyph-name="j" unicode="j" horiz-adv-x="272" 
d="M288 699l-21 -118h-130l21 118h130zM249 480l-76 -428q-22 -125 -93 -187.5t-179 -88.5l-45 21v6q89 36 131.5 89.5t63.5 170.5l74 417h124z" />
    <glyph glyph-name="k" unicode="k" horiz-adv-x="535" 
d="M162 709l126 13l-127 -722h-125zM219 264l216 216h113l-215 -197q44 -85 94 -168t72 -110l-1 -5h-149q-68 118 -132 252z" />
    <glyph glyph-name="l" unicode="l" horiz-adv-x="269" 
d="M162 709l127 13l-127 -722h-126z" />
    <glyph glyph-name="m" unicode="m" horiz-adv-x="869" 
d="M696 490q58 0 93 -28.5t35 -90.5q0 -26 -5 -56l-56 -315h-125l52 293q6 32 6 50q0 63 -59 63q-45 0 -77.5 -35t-49.5 -93l-49 -278h-125l52 293q6 32 6 50q0 63 -55 63q-52 0 -87.5 -47t-47.5 -119l-43 -240h-125l85 480h115l-11 -101h3q27 48 70 79.5t98 31.5
q118 0 123 -111h3q27 47 73 79t101 32z" />
    <glyph glyph-name="n" unicode="n" horiz-adv-x="576" 
d="M345 0l52 293q6 32 6 50q0 63 -59 63q-52 0 -90 -47.5t-50 -118.5l-43 -240h-125l85 480h115l-11 -101h3q27 47 72 79t100 32q58 0 94.5 -29t36.5 -90q0 -26 -5 -56l-56 -315h-125z" />
    <glyph glyph-name="o" unicode="o" horiz-adv-x="570" 
d="M330 490q89 0 148.5 -48.5t59.5 -140.5q0 -129 -76.5 -220t-209.5 -91q-92 0 -149.5 49.5t-57.5 144.5q0 131 79.5 218.5t205.5 87.5zM257 52q67 0 110 81.5t43 167.5q0 131 -88 131q-68 0 -108.5 -78t-40.5 -170q0 -132 84 -132z" />
    <glyph glyph-name="p" unicode="p" horiz-adv-x="585" 
d="M122 -223h-125l124 703h121l-11 -83h2q64 93 162 93q77 0 118 -48.5t41 -131.5q0 -132 -72.5 -225.5t-190.5 -93.5q-79 0 -119 62h-2zM351 417q-67 0 -117.5 -83.5t-50.5 -166.5q0 -51 25.5 -79t66.5 -28q69 0 109 77.5t40 169.5q0 52 -19 81t-54 29z" />
    <glyph glyph-name="q" unicode="q" horiz-adv-x="585" 
d="M448 480h116l-125 -703h-125l55 308h-2q-69 -95 -172 -95q-152 0 -152 164q0 138 72 237t192 99q42 0 74 -19.5t46 -52.5h2zM247 62q65 0 116.5 84.5t51.5 168.5q0 51 -25.5 78t-65.5 27q-68 0 -110 -79.5t-42 -173.5q0 -105 75 -105z" />
    <glyph glyph-name="r" unicode="r" horiz-adv-x="370" 
d="M121 480h116l-19 -132h3q29 70 74.5 106t97.5 36l-25 -105q-66 -2 -109 -42t-56 -113l-41 -230h-126z" />
    <glyph glyph-name="s" unicode="s" horiz-adv-x="386" 
d="M359 388q-15 21 -42.5 34.5t-55.5 13.5q-30 0 -50.5 -16.5t-20.5 -43.5q0 -19 11 -34t51 -49q48 -41 69.5 -75.5t21.5 -74.5q0 -70 -53 -110.5t-132 -40.5t-136 39l-8 88h11q54 -68 126 -68q37 0 57 18.5t20 45.5q0 25 -14.5 46.5t-56.5 57.5q-45 39 -60.5 64.5
t-15.5 59.5q0 63 50.5 105t123.5 42q66 0 105 -20l9 -83z" />
    <glyph glyph-name="t" unicode="t" horiz-adv-x="334" 
d="M192 140q-5 -25 -5 -40q0 -41 38 -41q36 0 74 19l-14 -55q-47 -31 -111 -31q-112 0 -112 91q0 19 4 40l52 293h-65l11 64h65l21 119l125 13l-23 -132h116l-17 -64h-110z" />
    <glyph glyph-name="u" unicode="u" horiz-adv-x="566" 
d="M237 480l-53 -298q-6 -32 -6 -50q0 -63 59 -63q47 0 84 47.5t49 118.5l44 245h125l-85 -480h-118l10 96h-3q-61 -106 -161 -106q-132 0 -132 114q0 26 5 56l57 320h125z" />
    <glyph glyph-name="v" unicode="v" horiz-adv-x="461" 
d="M508 480l-276 -480h-99l-80 480h127l49 -357h2l187 357h90z" />
    <glyph glyph-name="w" unicode="w" horiz-adv-x="777" 
d="M728 480h92l-262 -480h-92l-63 337h-5l-180 -337h-93l-59 480h126l31 -348h3l191 348h75l62 -348h3z" />
    <glyph glyph-name="x" unicode="x" horiz-adv-x="480" 
d="M-32 0l216 243l-101 237h127l63 -168h4l139 168h92l-199 -224l110 -256h-128l-69 180h-5l-153 -180h-96z" />
    <glyph glyph-name="y" unicode="y" horiz-adv-x="461" 
d="M92 -223h-115q101 129 174 246l-96 457h127l57 -334h3q87 153 171 334h91q-241 -432 -412 -703z" />
    <glyph glyph-name="z" unicode="z" horiz-adv-x="470" 
d="M116 480h369l-3 -19l-322 -391l-2 -6q150 0 197.5 1.5t83.5 9.5h6l-53 -75h-415l4 21l327 393l1 6h-230z" />
    <glyph glyph-name="braceleft" unicode="{" horiz-adv-x="360" 
d="M385 680h-18q-38 0 -54.5 -21t-27.5 -77l-28 -158q-20 -117 -135 -144v-2q87 -29 87 -108q0 -17 -3 -35l-28 -156q-6 -34 -6 -50q0 -51 52 -51h19l-6 -40h-50q-48 0 -78 21t-30 68q0 6 3 30l27 156q7 44 7 64q0 77 -63 77l9 50q45 0 68 30.5t37 109.5l28 160
q21 116 138 116h59z" />
    <glyph glyph-name="bar" unicode="|" horiz-adv-x="234" 
d="M165 -214h-87v1000h87v-1000z" />
    <glyph glyph-name="braceright" unicode="}" horiz-adv-x="360" 
d="M-12 -122h18q38 0 55 21t27 77l28 158q20 117 135 144v2q-87 29 -87 108q0 17 3 35l28 156q6 34 6 50q0 51 -52 51h-19l6 40h50q48 0 78 -21t30 -68q0 -6 -3 -30l-27 -156q-7 -44 -7 -64q0 -77 63 -77l-9 -50q-45 0 -68 -30.5t-37 -109.5l-28 -160q-21 -116 -138 -116
h-59z" />
    <glyph glyph-name="asciitilde" unicode="~" 
d="M526 261q-30 -45 -58 -65.5t-63 -20.5q-40 0 -105 33q-68 34 -106 34q-51 0 -81 -71l-38 73q44 86 121 86q42 0 121 -38q61 -29 86 -29q23 0 42 16.5t43 54.5z" />
    <glyph glyph-name="uni00A0" unicode="&#xa0;" horiz-adv-x="254" 
 />
    <glyph glyph-name="exclamdown" unicode="&#xa1;" horiz-adv-x="384" 
d="M142 331l26 144h138l-26 -144h-138zM45 -205l111 456h84l-53 -456h-142z" />
    <glyph glyph-name="cent" unicode="&#xa2;" 
d="M432 487q50 -8 77 -27l-1 -67h-12q-26 26 -75 33l-65 -368q65 8 105 45h12l-29 -76q-38 -28 -100 -35l-20 -112h-55l20 110q-91 5 -150 56.5t-59 140.5q0 128 84.5 215t212.5 88l18 100h55zM210 199q0 -55 24 -92.5t67 -47.5l65 365q-69 -14 -112.5 -78.5t-43.5 -146.5z
" />
    <glyph glyph-name="sterling" unicode="&#xa3;" 
d="M-1 31q82 47 133 119.5t51 155.5q0 20 -3 36h-99l11 59h84q-7 39 -7 59q0 100 77 166t191 66q78 0 123 -22l2 -79h-13q-36 26 -94 26q-80 0 -115 -44t-35 -131q0 -2 3 -41h179l-11 -59h-166q0 -77 -34.5 -134t-111.5 -103l-1 -4q311 0 374 9h6l-60 -110h-489z" />
    <glyph glyph-name="currency" unicode="&#xa4;" 
d="M538 488q25 -47 25 -104q0 -109 -71 -191l47 -57l-59 -50l-47 58q-66 -41 -144 -41q-84 0 -139 47l-63 -53l-47 58l63 53q-25 48 -25 106q0 108 71 189l-47 57l59 50l48 -58q65 41 144 41q83 0 138 -47l63 53l47 -58zM298 190q73 0 118 56t45 132q0 56 -32 92t-85 36
q-73 0 -118 -56t-45 -132q0 -56 32 -92t85 -36z" />
    <glyph glyph-name="yen" unicode="&#xa5;" 
d="M666 680l-249 -305h124l-10 -54h-157l-12 -67h158l-9 -54h-160l-38 -200h-127l40 200h-152l9 54h153l13 67h-155l10 54h126l-119 305h141l94 -285h6l217 285h97z" />
    <glyph glyph-name="brokenbar" unicode="&#xa6;" horiz-adv-x="235" 
d="M78 661h87v-250h-87v250zM78 161h87v-250h-87v250z" />
    <glyph glyph-name="section" unicode="&#xa7;" 
d="M407 640q-42 0 -73.5 -22t-31.5 -66q0 -29 19.5 -53t61.5 -50q69 -43 100 -80t31 -84q0 -121 -131 -164q38 -44 38 -98q0 -87 -60 -133t-153 -46q-51 0 -98 19t-73 45l-5 99h15q27 -45 72 -69.5t92 -24.5q43 0 70.5 24.5t27.5 67.5q0 29 -23.5 51.5t-80.5 57.5
q-53 33 -78.5 66t-25.5 77q0 58 37.5 99.5t97.5 63.5q-51 46 -51 105q0 82 64 127.5t155 45.5q84 0 125 -30l-5 -77h-12q-34 49 -105 49zM399 261q0 17 -5.5 30.5t-25.5 30.5t-29.5 24t-46.5 32l-10 7q-31 -13 -50.5 -38t-19.5 -58q0 -27 19 -50t63 -49q34 -21 44 -29
q61 37 61 100z" />
    <glyph glyph-name="dieresis" unicode="&#xa8;" horiz-adv-x="246" 
d="M167 698l-20 -114h-116l20 114h116zM357 698l-20 -114h-116l20 114h116z" />
    <glyph glyph-name="copyright" unicode="&#xa9;" horiz-adv-x="797" 
d="M778 346q0 -151 -103 -256t-257 -105q-153 0 -257 104.5t-104 256.5q0 153 104 256.5t257 103.5q151 0 255.5 -104t104.5 -256zM418 36q130 0 217 90t87 220t-88.5 219.5t-216.5 89.5q-130 0 -217 -89.5t-87 -219.5q0 -129 86 -219.5t219 -90.5zM559 460q-38 32 -103 32
q-54 0 -92 -38t-38 -108t37.5 -105.5t97.5 -35.5q66 0 104 32h11l-15 -66q-41 -26 -112 -26q-100 0 -164 52t-64 149t66 150.5t159 53.5q67 0 115 -25l8 -65h-10z" />
    <glyph glyph-name="ordfeminine" unicode="&#xaa;" horiz-adv-x="396" 
d="M276 349l-3 48q-46 -55 -108 -55q-41 0 -64 22t-23 59q0 85 106 108q69 15 91 23t26 19q3 9 3 18q0 47 -64 47q-56 0 -96 -39h-10l12 59q50 34 114 34t99 -25.5t35 -69.5q0 -13 -3 -30l-27 -154q-7 -38 -6 -64h-82zM208 397q24 0 44 16.5t28 42.5l12 66
q-76 -15 -100 -35.5t-24 -51.5q0 -17 11 -27.5t29 -10.5z" />
    <glyph glyph-name="guillemotleft" unicode="&#xab;" horiz-adv-x="423" 
d="M248 441l-12 -67l-99 -103l64 -95l-12 -67l-141 130l13 72zM405 441l-12 -67l-99 -103l64 -95l-12 -67l-136 130l13 72z" />
    <glyph glyph-name="logicalnot" unicode="&#xac;" 
d="M540 397v-294h-87v205h-402v89h489z" />
    <glyph glyph-name="uni00AD" unicode="&#xad;" horiz-adv-x="404" 
d="M65 309h299l-15 -80h-299z" />
    <glyph glyph-name="registered" unicode="&#xae;" horiz-adv-x="527" 
d="M517 464q0 -90 -61 -152t-152 -62t-152.5 61.5t-61.5 152.5t61.5 152t152.5 61q90 0 151.5 -61.5t61.5 -151.5zM304 280q77 0 128.5 53.5t51.5 130.5t-52 130t-129 53t-128.5 -53t-51.5 -130q0 -78 51 -131t130 -53zM308 587q94 0 94 -61q0 -28 -13 -44.5t-44 -24.5
l86 -117h-62l-76 110h-20v-110h-50v247h85zM287 476q17 0 27 1.5t22 11.5t12 30t-13 31.5t-34 11.5h-28v-86h14z" />
    <glyph glyph-name="macron" unicode="&#xaf;" horiz-adv-x="246" 
d="M365 681l-12 -64h-329l12 64h329z" />
    <glyph glyph-name="degree" unicode="&#xb0;" horiz-adv-x="410" 
d="M408 559q0 -61 -42.5 -103.5t-103.5 -42.5q-62 0 -104.5 42.5t-42.5 103.5t42.5 104t104.5 43q61 0 103.5 -43t42.5 -104zM262 465q37 0 64 28t27 66q0 39 -27 67t-65 28q-36 0 -63 -28t-27 -67t27 -66.5t64 -27.5z" />
    <glyph glyph-name="plusminus" unicode="&#xb1;" 
d="M345 505v-148h200v-88h-200v-148h-88v148h-200v88h200v148h88zM545 88v-88h-488v88h488z" />
    <glyph glyph-name="two.sups" unicode="&#xb2;" horiz-adv-x="398" 
d="M53 430l6 33l86 74q108 93 141.5 137.5t33.5 85.5q0 27 -17 43t-45 16q-54 0 -99 -36h-11l17 63q55 34 126 34q65 0 103 -30.5t38 -80.5q0 -58 -42 -104t-152 -126l-26 -19l-1 -3h104q71 0 103 7h9l-56 -94h-318z" />
    <glyph glyph-name="three.sups" unicode="&#xb3;" horiz-adv-x="373" 
d="M284 574q0 30 -24 48.5t-64 18.5h-17l12 51h20q48 0 75 20t27 59q0 24 -16 38.5t-44 14.5q-44 0 -88 -28h-11l17 61q49 23 109 23q61 0 96 -26t35 -75q0 -79 -85 -109l-1 -4q60 -26 60 -93q0 -71 -52.5 -111t-134.5 -40q-75 0 -130 31l3 68h11q42 -37 108 -37
q45 0 69.5 24t24.5 66z" />
    <glyph glyph-name="acute" unicode="&#xb4;" horiz-adv-x="246" 
d="M344 713l-189 -142h-67l120 142h136z" />
    <glyph glyph-name="uni00B5" unicode="&#xb5;" 
d="M208 480v-288q0 -111 69 -111q54 0 85 47t31 118v234h124v-480h-118l-6 105h-3q-15 -49 -43 -81.5t-70 -32.5q-20 0 -40 9t-30 23h-4v-172h-120v629h125z" />
    <glyph glyph-name="paragraph" unicode="&#xb6;" 
d="M451 -163h-87l139 786h-107l-139 -786h-88l89 501q-85 1 -132.5 41t-47.5 107q0 101 71 154t189 53h265z" />
    <glyph glyph-name="periodcentered" unicode="&#xb7;" horiz-adv-x="319" 
d="M107 367h149l-26 -147h-149z" />
    <glyph glyph-name="cedilla" unicode="&#xb8;" horiz-adv-x="246" 
d="M-18 -221l-13 37l4 5q103 0 103 54q0 31 -65 42v7l54 76h44l-28 -43l11 -3q63 -17 63 -68q0 -54 -51 -80.5t-122 -26.5z" />
    <glyph glyph-name="one.sups" unicode="&#xb9;" horiz-adv-x="316" 
d="M159 430l65 365l-111 -39l15 59l155 57h62l-78 -442h-108z" />
    <glyph glyph-name="ordmasculine" unicode="&#xba;" horiz-adv-x="456" 
d="M257 342q-70 0 -115 36.5t-45 104.5q0 92 55 150.5t147 58.5q69 0 113.5 -35.5t44.5 -102.5q0 -91 -55 -151.5t-145 -60.5zM257 391q49 0 76.5 52.5t27.5 115.5q0 40 -17.5 62.5t-46.5 22.5q-50 0 -77 -51t-27 -115q0 -40 17.5 -63.5t46.5 -23.5z" />
    <glyph glyph-name="guillemotright" unicode="&#xbb;" horiz-adv-x="423" 
d="M31 109l12 67l98 103l-63 95l12 67l136 -130l-13 -72zM188 109l12 67l98 103l-63 95l12 67l141 -130l-13 -72z" />
    <glyph glyph-name="onequarter" unicode="&#xbc;" horiz-adv-x="859" 
d="M643 705l47 -32l-512 -699l-46 32zM233 238h-108l65 365l-111 -39l15 59l155 57h62zM828 180l-21 -67h-57l-20 -113h-104l20 113h-212l8 44l276 285h90l-46 -262h66zM529 180h129l29 166h-6l-151 -160z" />
    <glyph glyph-name="onehalf" unicode="&#xbd;" horiz-adv-x="873" 
d="M643 705l47 -32l-512 -699l-46 32zM125 238l65 365l-111 -39l15 59l155 57h62l-78 -442h-108zM452 0l6 33l86 74q108 93 141.5 137.5t33.5 85.5q0 27 -17 43t-45 16q-54 0 -99 -36h-11l17 63q55 34 126 34q65 0 103 -30.5t38 -80.5q0 -58 -42 -104t-152 -126l-26 -19
l-1 -3h104q72 0 103 7h9l-56 -94h-318z" />
    <glyph glyph-name="threequarters" unicode="&#xbe;" horiz-adv-x="916" 
d="M700 705l47 -32l-512 -699l-46 32zM351 381q0 -71 -52.5 -111t-134.5 -40q-75 0 -130 31l3 68h11q42 -37 108 -37q45 0 69.5 24t24.5 66q0 30 -24 48.5t-64 18.5h-17l12 51h20q48 0 75 20t27 59q0 24 -16 38.5t-44 14.5q-44 0 -88 -28h-11l17 61q49 23 109 23
q61 0 96 -26t35 -75q0 -79 -85 -109l-1 -4q60 -26 60 -93zM885 180l-21 -67h-57l-20 -113h-104l20 113h-212l8 44l276 285h90l-46 -262h66zM586 180h129l29 166h-6l-151 -160z" />
    <glyph glyph-name="questiondown" unicode="&#xbf;" horiz-adv-x="515" 
d="M228 331l26 144h138l-26 -144h-138zM335 250l-4 -22q-12 -64 -105 -135q-52 -39 -75.5 -70.5t-23.5 -79.5q0 -38 25.5 -59.5t68.5 -21.5q69 0 144 52h14l-30 -90q-69 -41 -160 -41q-96 0 -149.5 40t-53.5 110q0 38 13 69t40.5 55.5t51.5 40t65 37.5q75 40 87 104l2 11h90
z" />
    <glyph glyph-name="Agrave" unicode="&#xc0;" horiz-adv-x="660" 
d="M495 756h-63l-148 129h128zM473 0l-41 235h-243l-139 -235h-92l418 676l96 6l142 -682h-141zM377 546h-5l-142 -241h191z" />
    <glyph glyph-name="Aacute" unicode="&#xc1;" horiz-adv-x="660" 
d="M624 885l-195 -129h-69l124 129h140zM376 676l96 6l142 -682h-141l-41 235h-243l-139 -235h-92zM377 546h-5l-142 -241h191z" />
    <glyph glyph-name="Acircumflex" unicode="&#xc2;" horiz-adv-x="660" 
d="M444 822l-114 -66h-66l133 129h107l89 -129h-61zM473 0l-41 235h-243l-139 -235h-92l418 676l96 6l142 -682h-141zM377 546h-5l-142 -241h191z" />
    <glyph glyph-name="Atilde" unicode="&#xc3;" horiz-adv-x="660" 
d="M374 812q-30 0 -52 -46h-52q39 116 112 116q30 0 67 -23q41 -25 56 -25q32 0 53 44h51q-38 -114 -112 -114q-30 0 -67 23q-41 25 -56 25zM473 0l-41 235h-243l-139 -235h-92l418 676l96 6l142 -682h-141zM377 546h-5l-142 -241h191z" />
    <glyph glyph-name="Adieresis" unicode="&#xc4;" horiz-adv-x="660" 
d="M412 878l-20 -114h-116l20 114h116zM602 878l-20 -114h-116l20 114h116zM473 0l-41 235h-243l-139 -235h-92l418 676l96 6l142 -682h-141zM377 546h-5l-142 -241h191z" />
    <glyph glyph-name="Aring" unicode="&#xc5;" horiz-adv-x="660" 
d="M432 730q-51 0 -79 26.5t-28 69.5q0 52 37 89.5t92 37.5q51 0 79 -25.5t28 -67.5q0 -54 -37 -92t-92 -38zM452 911q-32 0 -53 -25t-21 -59q0 -23 15 -39t40 -16q33 0 54 26t21 61q0 22 -15 37t-41 15zM473 0l-41 235h-243l-139 -235h-92l418 676l96 6l142 -682h-141z
M377 546h-5l-142 -241h191z" />
    <glyph glyph-name="AE" unicode="&#xc6;" horiz-adv-x="894" 
d="M898 605h-211l-40 -222h188l-12 -71h-187l-42 -236h107q108 0 153 6h6l-57 -82h-353l42 235h-245l-193 -235h-106l567 680h396zM504 305l53 300h-6l-246 -300h199z" />
    <glyph glyph-name="Ccedilla" unicode="&#xc7;" horiz-adv-x="683" 
d="M663 641l8 -90h-16q-24 33 -70 49.5t-97 15.5q-120 -2 -197.5 -93.5t-77.5 -235.5q0 -97 57 -156t151 -59q113 0 198 63h15l-43 -97q-79 -51 -186 -51h-6l-20 -30l11 -3q63 -17 63 -68q0 -54 -51 -80.5t-122 -26.5l-13 37l4 5q103 0 103 54q0 31 -65 42v7l46 65
q-135 12 -210 89t-75 204q0 122 58 217t152 144.5t204 49.5q112 0 179 -52z" />
    <glyph glyph-name="Egrave" unicode="&#xc8;" horiz-adv-x="490" 
d="M203 885h128l83 -129h-63zM456 82l-57 -82h-353l120 680h341l-13 -75h-211l-40 -222h188l-12 -71h-187l-42 -236h107q108 0 153 6h6z" />
    <glyph glyph-name="Eacute" unicode="&#xc9;" horiz-adv-x="490" 
d="M543 885l-195 -129h-69l124 129h140zM456 82l-57 -82h-353l120 680h341l-13 -75h-211l-40 -222h188l-12 -71h-187l-42 -236h107q108 0 153 6h6z" />
    <glyph glyph-name="Ecircumflex" unicode="&#xca;" horiz-adv-x="490" 
d="M423 885l89 -129h-61l-88 66l-114 -66h-66l133 129h107zM456 82l-57 -82h-353l120 680h341l-13 -75h-211l-40 -222h188l-12 -71h-187l-42 -236h107q108 0 153 6h6z" />
    <glyph glyph-name="Edieresis" unicode="&#xcb;" horiz-adv-x="490" 
d="M331 878l-20 -114h-116l20 114h116zM521 878l-20 -114h-116l20 114h116zM456 82l-57 -82h-353l120 680h341l-13 -75h-211l-40 -222h188l-12 -71h-187l-42 -236h107q108 0 153 6h6z" />
    <glyph glyph-name="Igrave" unicode="&#xcc;" horiz-adv-x="309" 
d="M102 885h128l83 -129h-63zM166 680h133l-120 -680h-133z" />
    <glyph glyph-name="Iacute" unicode="&#xcd;" horiz-adv-x="309" 
d="M442 885l-195 -129h-69l124 129h140zM166 680h133l-120 -680h-133z" />
    <glyph glyph-name="Icircumflex" unicode="&#xce;" horiz-adv-x="309" 
d="M322 885l89 -129h-61l-88 66l-114 -66h-66l133 129h107zM166 680h133l-120 -680h-133z" />
    <glyph glyph-name="Idieresis" unicode="&#xcf;" horiz-adv-x="309" 
d="M230 878l-20 -114h-116l20 114h116zM420 878l-20 -114h-116l20 114h116zM166 680h133l-120 -680h-133z" />
    <glyph glyph-name="Eth" unicode="&#xd0;" horiz-adv-x="764" 
d="M398 680q154 0 244 -74t90 -206q0 -180 -122.5 -290t-323.5 -110h-240l55 314h-68l13 69h68l52 297h232zM286 75q145 0 224 90t79 230q0 98 -58.5 154.5t-168.5 56.5h-75l-39 -223h171l-13 -69h-170l-41 -239h91z" />
    <glyph glyph-name="Ntilde" unicode="&#xd1;" horiz-adv-x="730" 
d="M586 878q-21 -44 -53 -44q-15 0 -56 25q-37 23 -67 23q-73 0 -112 -116h52q22 46 52 46q15 0 56 -25q37 -23 67 -23q74 0 112 114h-51zM546 220h4l78 460h92l-120 -683h-80l-293 510h-5l-84 -507h-92l120 680h116z" />
    <glyph glyph-name="Ograve" unicode="&#xd2;" horiz-adv-x="803" 
d="M349 885h128l83 -129h-63zM483 692q124 0 205 -72t81 -205q0 -183 -114.5 -305.5t-295.5 -122.5q-128 0 -208.5 73t-80.5 208q0 179 116 301.5t297 122.5zM373 62q78 0 136.5 53t85 130t26.5 164q0 211 -154 211q-78 0 -136 -52t-85 -128.5t-27 -162.5q0 -215 154 -215z
" />
    <glyph glyph-name="Oacute" unicode="&#xd3;" horiz-adv-x="803" 
d="M689 885l-195 -129h-69l124 129h140zM483 692q124 0 205 -72t81 -205q0 -183 -114.5 -305.5t-295.5 -122.5q-128 0 -208.5 73t-80.5 208q0 179 116 301.5t297 122.5zM373 62q78 0 136.5 53t85 130t26.5 164q0 211 -154 211q-78 0 -136 -52t-85 -128.5t-27 -162.5
q0 -215 154 -215z" />
    <glyph glyph-name="Ocircumflex" unicode="&#xd4;" horiz-adv-x="803" 
d="M569 885l89 -129h-61l-88 66l-114 -66h-66l133 129h107zM483 692q124 0 205 -72t81 -205q0 -183 -114.5 -305.5t-295.5 -122.5q-128 0 -208.5 73t-80.5 208q0 179 116 301.5t297 122.5zM373 62q78 0 136.5 53t85 130t26.5 164q0 211 -154 211q-78 0 -136 -52t-85 -128.5
t-27 -162.5q0 -215 154 -215z" />
    <glyph glyph-name="Otilde" unicode="&#xd5;" horiz-adv-x="803" 
d="M623 878q-21 -44 -53 -44q-15 0 -56 25q-37 23 -67 23q-73 0 -112 -116h52q22 46 52 46q15 0 56 -25q37 -23 67 -23q74 0 112 114h-51zM483 692q124 0 205 -72t81 -205q0 -183 -114.5 -305.5t-295.5 -122.5q-128 0 -208.5 73t-80.5 208q0 179 116 301.5t297 122.5z
M373 62q78 0 136.5 53t85 130t26.5 164q0 211 -154 211q-78 0 -136 -52t-85 -128.5t-27 -162.5q0 -215 154 -215z" />
    <glyph glyph-name="Odieresis" unicode="&#xd6;" horiz-adv-x="803" 
d="M477 878l-20 -114h-116l20 114h116zM667 878l-20 -114h-116l20 114h116zM483 692q124 0 205 -72t81 -205q0 -183 -114.5 -305.5t-295.5 -122.5q-128 0 -208.5 73t-80.5 208q0 179 116 301.5t297 122.5zM373 62q78 0 136.5 53t85 130t26.5 164q0 211 -154 211
q-78 0 -136 -52t-85 -128.5t-27 -162.5q0 -215 154 -215z" />
    <glyph glyph-name="multiply" unicode="&#xd7;" 
d="M137 485l164 -171l164 171l62 -62l-165 -171l165 -170l-62 -62l-164 170l-165 -170l-62 62l165 170l-163 171z" />
    <glyph glyph-name="Oslash" unicode="&#xd8;" horiz-adv-x="803" 
d="M784 651l-67 -63q52 -69 52 -173q0 -183 -114.5 -305.5t-295.5 -122.5q-126 0 -204 69l-73 -69l-43 44l76 72q-45 67 -45 165q0 179 116 301.5t297 122.5q115 0 191 -60l66 62zM219 277q0 -33 5 -71l368 348q-38 66 -125 66q-78 0 -136 -52t-85 -128.5t-27 -162.5z
M621 409q0 46 -7 81l-370 -350q38 -78 129 -78q78 0 136.5 53t85 130t26.5 164z" />
    <glyph glyph-name="Ugrave" unicode="&#xd9;" horiz-adv-x="706" 
d="M299 885h128l83 -129h-63zM332 -13q-126 0 -191 49t-65 140q0 31 6 63l78 441h131l-74 -422q-7 -39 -7 -64q0 -128 133 -128q81 0 127.5 47t63.5 145l75 422h91l-79 -441q-22 -119 -94.5 -185.5t-194.5 -66.5z" />
    <glyph glyph-name="Uacute" unicode="&#xda;" horiz-adv-x="706" 
d="M639 885l-195 -129h-69l124 129h140zM332 -13q-126 0 -191 49t-65 140q0 31 6 63l78 441h131l-74 -422q-7 -39 -7 -64q0 -128 133 -128q81 0 127.5 47t63.5 145l75 422h91l-79 -441q-22 -119 -94.5 -185.5t-194.5 -66.5z" />
    <glyph glyph-name="Ucircumflex" unicode="&#xdb;" horiz-adv-x="706" 
d="M519 885l89 -129h-61l-88 66l-114 -66h-66l133 129h107zM332 -13q-126 0 -191 49t-65 140q0 31 6 63l78 441h131l-74 -422q-7 -39 -7 -64q0 -128 133 -128q81 0 127.5 47t63.5 145l75 422h91l-79 -441q-22 -119 -94.5 -185.5t-194.5 -66.5z" />
    <glyph glyph-name="Udieresis" unicode="&#xdc;" horiz-adv-x="706" 
d="M427 878l-20 -114h-116l20 114h116zM617 878l-20 -114h-116l20 114h116zM332 -13q-126 0 -191 49t-65 140q0 31 6 63l78 441h131l-74 -422q-7 -39 -7 -64q0 -128 133 -128q81 0 127.5 47t63.5 145l75 422h91l-79 -441q-22 -119 -94.5 -185.5t-194.5 -66.5z" />
    <glyph glyph-name="Yacute" unicode="&#xdd;" horiz-adv-x="542" 
d="M558 885l-195 -129h-69l124 129h140zM215 305l-141 375h142l104 -287h6l204 287h97l-279 -366l-55 -314h-132z" />
    <glyph glyph-name="Thorn" unicode="&#xde;" horiz-adv-x="587" 
d="M352 560q99 0 158.5 -44t59.5 -127q0 -116 -80.5 -176t-213.5 -60h-71l-27 -153h-132l120 680h131l-21 -120h76zM267 218q81 0 124.5 43t43.5 120q0 51 -30.5 81t-83.5 30h-57l-48 -274h51z" />
    <glyph glyph-name="germandbls" unicode="&#xdf;" horiz-adv-x="611" 
d="M381 -8q-69 0 -127 39l-8 88h11q54 -68 118 -68q36 0 57 25t21 67q0 30 -14.5 55t-55.5 73q-37 43 -55 72t-18 59q0 28 14 52t34.5 41.5t41 34t34.5 37t14 43.5q0 25 -19.5 39t-50.5 14q-49 0 -82.5 -40t-45.5 -110l-90 -513h-126l89 505q41 227 258 227q89 0 136.5 -30
t47.5 -84q0 -29 -14 -51.5t-34.5 -37t-41 -27t-34.5 -29t-14 -35.5q0 -20 16 -43t55 -66q40 -45 58 -80t18 -77q0 -83 -56 -131.5t-137 -48.5z" />
    <glyph glyph-name="agrave" unicode="&#xe0;" horiz-adv-x="523" 
d="M322 713l77 -142h-59l-141 142h123zM318 0l-4 69q-48 -79 -143 -79q-62 0 -98.5 32.5t-36.5 80.5q0 66 40.5 99.5t116.5 52.5q100 25 127.5 34t32.5 22q4 9 4 36q0 77 -86 77q-76 0 -143 -58h-10l16 75q72 49 160 49t135 -37t47 -98q0 -18 -4 -46l-39 -218q-9 -55 -8 -91
h-107zM224 59q33 0 61.5 25.5t39.5 63.5l18 101q-109 -29 -137 -46q-45 -27 -45 -82q0 -29 17 -45.5t46 -16.5z" />
    <glyph glyph-name="aacute" unicode="&#xe1;" horiz-adv-x="523" 
d="M506 713l-189 -142h-67l120 142h136zM318 0l-4 69q-48 -79 -143 -79q-62 0 -98.5 32.5t-36.5 80.5q0 66 40.5 99.5t116.5 52.5q100 25 127.5 34t32.5 22q4 9 4 36q0 77 -86 77q-76 0 -143 -58h-10l16 75q72 49 160 49t135 -37t47 -98q0 -18 -4 -46l-39 -218
q-9 -55 -8 -91h-107zM224 59q33 0 61.5 25.5t39.5 63.5l18 101q-109 -29 -137 -46q-45 -27 -45 -82q0 -29 17 -45.5t46 -16.5z" />
    <glyph glyph-name="acircumflex" unicode="&#xe2;" horiz-adv-x="523" 
d="M404 713l83 -142h-58l-86 79l-115 -79h-66l135 142h107zM318 0l-4 69q-48 -79 -143 -79q-62 0 -98.5 32.5t-36.5 80.5q0 66 40.5 99.5t116.5 52.5q100 25 127.5 34t32.5 22q4 9 4 36q0 77 -86 77q-76 0 -143 -58h-10l16 75q72 49 160 49t135 -37t47 -98q0 -18 -4 -46
l-39 -218q-9 -55 -8 -91h-107zM224 59q33 0 61.5 25.5t39.5 63.5l18 101q-109 -29 -137 -46q-45 -27 -45 -82q0 -29 17 -45.5t46 -16.5z" />
    <glyph glyph-name="atilde" unicode="&#xe3;" horiz-adv-x="523" 
d="M458 705q-21 -44 -53 -44q-15 0 -56 25q-37 23 -67 23q-73 0 -112 -116h52q22 46 52 46q15 0 56 -25q37 -23 67 -23q74 0 112 114h-51zM318 0l-4 69q-48 -79 -143 -79q-62 0 -98.5 32.5t-36.5 80.5q0 66 40.5 99.5t116.5 52.5q100 25 127.5 34t32.5 22q4 9 4 36
q0 77 -86 77q-76 0 -143 -58h-10l16 75q72 49 160 49t135 -37t47 -98q0 -18 -4 -46l-39 -218q-9 -55 -8 -91h-107zM224 59q33 0 61.5 25.5t39.5 63.5l18 101q-109 -29 -137 -46q-45 -27 -45 -82q0 -29 17 -45.5t46 -16.5z" />
    <glyph glyph-name="adieresis" unicode="&#xe4;" horiz-adv-x="523" 
d="M311 698l-20 -114h-116l20 114h116zM501 698l-20 -114h-116l20 114h116zM318 0l-4 69q-48 -79 -143 -79q-62 0 -98.5 32.5t-36.5 80.5q0 66 40.5 99.5t116.5 52.5q100 25 127.5 34t32.5 22q4 9 4 36q0 77 -86 77q-76 0 -143 -58h-10l16 75q72 49 160 49t135 -37t47 -98
q0 -18 -4 -46l-39 -218q-9 -55 -8 -91h-107zM224 59q33 0 61.5 25.5t39.5 63.5l18 101q-109 -29 -137 -46q-45 -27 -45 -82q0 -29 17 -45.5t46 -16.5z" />
    <glyph glyph-name="aring" unicode="&#xe5;" horiz-adv-x="523" 
d="M330 549q-51 0 -79 27t-28 70q0 54 37 92t92 38q51 0 79 -26t28 -70q0 -55 -37 -93t-92 -38zM331 591q33 0 54 26.5t21 61.5q0 24 -14.5 39.5t-41.5 15.5q-32 0 -53 -25.5t-21 -61.5q0 -24 15 -40t40 -16zM318 0l-4 69q-48 -79 -143 -79q-62 0 -98.5 32.5t-36.5 80.5
q0 66 40.5 99.5t116.5 52.5q100 25 127.5 34t32.5 22q4 9 4 36q0 77 -86 77q-76 0 -143 -58h-10l16 75q72 49 160 49t135 -37t47 -98q0 -18 -4 -46l-39 -218q-9 -55 -8 -91h-107zM224 59q33 0 61.5 25.5t39.5 63.5l18 101q-109 -29 -137 -46q-45 -27 -45 -82q0 -29 17 -45.5
t46 -16.5z" />
    <glyph glyph-name="ae" unicode="&#xe6;" horiz-adv-x="811" 
d="M781 247h-321q-2 -26 -2 -40q0 -70 34.5 -107t101.5 -37q88 0 145 54h12l-32 -83q-63 -44 -160 -44q-146 0 -190 96h-2q-54 -96 -179 -96q-70 0 -111 31.5t-41 82.5q0 66 40.5 99t116.5 52q99 24 126.5 33.5t33.5 22.5q4 9 4 36q0 77 -86 77q-76 0 -143 -58h-10l16 75
q72 49 160 49q108 0 150 -62h2q57 62 158 62q94 0 139 -48t45 -134q0 -27 -7 -61zM602 437q-40 0 -77 -35.5t-55 -99.5h205q3 15 3 37q0 98 -76 98zM325 148l18 96q-109 -25 -139 -43q-43 -25 -43 -80q0 -29 17 -45.5t46 -16.5q32 0 61.5 25.5t39.5 63.5z" />
    <glyph glyph-name="ccedilla" unicode="&#xe7;" horiz-adv-x="470" 
d="M341 490q85 0 126 -30l-1 -67h-12q-34 34 -95 34q-82 0 -132.5 -71t-50.5 -163q0 -63 32 -100t87 -37q74 0 124 47h12l-29 -76q-56 -37 -144 -37l-21 -33l11 -3q63 -17 63 -68q0 -54 -51 -80.5t-122 -26.5l-13 37l4 5q103 0 103 54q0 31 -65 42v7l49 69q-79 11 -126 61.5
t-47 132.5q0 129 84.5 216t213.5 87z" />
    <glyph glyph-name="egrave" unicode="&#xe8;" horiz-adv-x="520" 
d="M325 713l77 -142h-59l-141 142h123zM170 246q-3 -21 -3 -42q0 -67 34.5 -104t101.5 -37q88 0 145 54h12l-32 -83q-63 -44 -160 -44q-104 0 -164.5 53t-60.5 148q0 129 77.5 214t194.5 85q93 0 137.5 -48t44.5 -134q0 -28 -7 -62h-320zM384 302q3 15 3 37q0 98 -76 98
q-42 0 -80 -39.5t-52 -95.5h205z" />
    <glyph glyph-name="eacute" unicode="&#xe9;" horiz-adv-x="520" 
d="M509 713l-189 -142h-67l120 142h136zM170 246q-3 -21 -3 -42q0 -67 34.5 -104t101.5 -37q88 0 145 54h12l-32 -83q-63 -44 -160 -44q-104 0 -164.5 53t-60.5 148q0 129 77.5 214t194.5 85q93 0 137.5 -48t44.5 -134q0 -28 -7 -62h-320zM384 302q3 15 3 37q0 98 -76 98
q-42 0 -80 -39.5t-52 -95.5h205z" />
    <glyph glyph-name="ecircumflex" unicode="&#xea;" horiz-adv-x="520" 
d="M407 713l83 -142h-58l-86 79l-115 -79h-66l135 142h107zM170 246q-3 -21 -3 -42q0 -67 34.5 -104t101.5 -37q88 0 145 54h12l-32 -83q-63 -44 -160 -44q-104 0 -164.5 53t-60.5 148q0 129 77.5 214t194.5 85q93 0 137.5 -48t44.5 -134q0 -28 -7 -62h-320zM384 302
q3 15 3 37q0 98 -76 98q-42 0 -80 -39.5t-52 -95.5h205z" />
    <glyph glyph-name="edieresis" unicode="&#xeb;" horiz-adv-x="520" 
d="M314 698l-20 -114h-116l20 114h116zM504 698l-20 -114h-116l20 114h116zM170 246q-3 -21 -3 -42q0 -67 34.5 -104t101.5 -37q88 0 145 54h12l-32 -83q-63 -44 -160 -44q-104 0 -164.5 53t-60.5 148q0 129 77.5 214t194.5 85q93 0 137.5 -48t44.5 -134q0 -28 -7 -62h-320z
M384 302q3 15 3 37q0 98 -76 98q-42 0 -80 -39.5t-52 -95.5h205z" />
    <glyph glyph-name="igrave" unicode="&#xec;" horiz-adv-x="269" 
d="M197 713l77 -142h-59l-141 142h123zM121 480h126l-85 -480h-126z" />
    <glyph glyph-name="iacute" unicode="&#xed;" horiz-adv-x="269" 
d="M381 713l-189 -142h-67l120 142h136zM121 480h126l-85 -480h-126z" />
    <glyph glyph-name="icircumflex" unicode="&#xee;" horiz-adv-x="269" 
d="M279 713l83 -142h-58l-86 79l-115 -79h-66l135 142h107zM121 480h126l-85 -480h-126z" />
    <glyph glyph-name="idieresis" unicode="&#xef;" horiz-adv-x="269" 
d="M186 698l-20 -114h-116l20 114h116zM376 698l-20 -114h-116l20 114h116zM121 480h126l-85 -480h-126z" />
    <glyph glyph-name="eth" unicode="&#xf0;" horiz-adv-x="569" 
d="M435 605q101 -96 101 -261q0 -168 -77 -261t-213 -93q-87 0 -144 50t-57 144q0 123 70.5 214.5t181.5 91.5q79 0 109 -39l1 1q-7 61 -67 110l-122 -54l-25 57l83 37q-47 22 -103 33l58 58q80 -7 147 -45l101 45l25 -57zM257 52q44 0 80 41.5t53.5 98t17.5 112.5
q0 58 -22 90.5t-64 32.5q-71 0 -110 -76t-39 -174q0 -125 84 -125z" />
    <glyph glyph-name="ntilde" unicode="&#xf1;" horiz-adv-x="576" 
d="M485 705q-21 -44 -53 -44q-15 0 -56 25q-37 23 -67 23q-73 0 -112 -116h52q22 46 52 46q15 0 56 -25q37 -23 67 -23q74 0 112 114h-51zM345 0l52 293q6 32 6 50q0 63 -59 63q-52 0 -90 -47.5t-50 -118.5l-43 -240h-125l85 480h115l-11 -101h3q27 47 72 79t100 32
q58 0 94.5 -29t36.5 -90q0 -26 -5 -56l-56 -315h-125z" />
    <glyph glyph-name="ograve" unicode="&#xf2;" horiz-adv-x="570" 
d="M345 713l77 -142h-59l-141 142h123zM330 490q89 0 148.5 -48.5t59.5 -140.5q0 -129 -76.5 -220t-209.5 -91q-92 0 -149.5 49.5t-57.5 144.5q0 131 79.5 218.5t205.5 87.5zM257 52q67 0 110 81.5t43 167.5q0 131 -88 131q-68 0 -108.5 -78t-40.5 -170q0 -132 84 -132z" />
    <glyph glyph-name="oacute" unicode="&#xf3;" horiz-adv-x="570" 
d="M529 713l-189 -142h-67l120 142h136zM330 490q89 0 148.5 -48.5t59.5 -140.5q0 -129 -76.5 -220t-209.5 -91q-92 0 -149.5 49.5t-57.5 144.5q0 131 79.5 218.5t205.5 87.5zM257 52q67 0 110 81.5t43 167.5q0 131 -88 131q-68 0 -108.5 -78t-40.5 -170q0 -132 84 -132z
" />
    <glyph glyph-name="ocircumflex" unicode="&#xf4;" horiz-adv-x="570" 
d="M427 713l83 -142h-58l-86 79l-115 -79h-66l135 142h107zM330 490q89 0 148.5 -48.5t59.5 -140.5q0 -129 -76.5 -220t-209.5 -91q-92 0 -149.5 49.5t-57.5 144.5q0 131 79.5 218.5t205.5 87.5zM257 52q67 0 110 81.5t43 167.5q0 131 -88 131q-68 0 -108.5 -78t-40.5 -170
q0 -132 84 -132z" />
    <glyph glyph-name="otilde" unicode="&#xf5;" horiz-adv-x="570" 
d="M481 705q-21 -44 -53 -44q-15 0 -56 25q-37 23 -67 23q-73 0 -112 -116h52q22 46 52 46q15 0 56 -25q37 -23 67 -23q74 0 112 114h-51zM330 490q89 0 148.5 -48.5t59.5 -140.5q0 -129 -76.5 -220t-209.5 -91q-92 0 -149.5 49.5t-57.5 144.5q0 131 79.5 218.5t205.5 87.5z
M257 52q67 0 110 81.5t43 167.5q0 131 -88 131q-68 0 -108.5 -78t-40.5 -170q0 -132 84 -132z" />
    <glyph glyph-name="odieresis" unicode="&#xf6;" horiz-adv-x="570" 
d="M334 698l-20 -114h-116l20 114h116zM524 698l-20 -114h-116l20 114h116zM330 490q89 0 148.5 -48.5t59.5 -140.5q0 -129 -76.5 -220t-209.5 -91q-92 0 -149.5 49.5t-57.5 144.5q0 131 79.5 218.5t205.5 87.5zM257 52q67 0 110 81.5t43 167.5q0 131 -88 131
q-68 0 -108.5 -78t-40.5 -170q0 -132 84 -132z" />
    <glyph glyph-name="divide" unicode="&#xf7;" 
d="M374 457q0 -28 -22 -50.5t-50 -22.5q-30 0 -52.5 21.5t-22.5 51.5q0 31 22 53t52 22q29 0 51 -22t22 -53zM545 296v-88h-488v88h488zM374 47q0 -29 -22 -52t-50 -23q-31 0 -53 22.5t-22 52.5t22 52t52 22t51.5 -22t21.5 -52z" />
    <glyph glyph-name="oslash" unicode="&#xf8;" horiz-adv-x="570" 
d="M559 459l-52 -49q31 -47 31 -109q0 -129 -76.5 -220t-209.5 -91q-87 0 -142 43l-55 -52l-33 35l55 52q-32 48 -32 116q0 131 79.5 218.5t205.5 87.5q87 0 144 -45l52 50zM173 184q0 -16 1 -24l225 215q-21 57 -77 57q-68 0 -108.5 -78t-40.5 -170zM410 301v16l-225 -213
q19 -52 72 -52q67 0 110 81.5t43 167.5z" />
    <glyph glyph-name="ugrave" unicode="&#xf9;" horiz-adv-x="566" 
d="M338 713l77 -142h-59l-141 142h123zM237 480l-53 -298q-6 -32 -6 -50q0 -63 59 -63q47 0 84 47.5t49 118.5l44 245h125l-85 -480h-118l10 96h-3q-61 -106 -161 -106q-132 0 -132 114q0 26 5 56l57 320h125z" />
    <glyph glyph-name="uacute" unicode="&#xfa;" horiz-adv-x="566" 
d="M522 713l-189 -142h-67l120 142h136zM237 480l-53 -298q-6 -32 -6 -50q0 -63 59 -63q47 0 84 47.5t49 118.5l44 245h125l-85 -480h-118l10 96h-3q-61 -106 -161 -106q-132 0 -132 114q0 26 5 56l57 320h125z" />
    <glyph glyph-name="ucircumflex" unicode="&#xfb;" horiz-adv-x="566" 
d="M420 713l83 -142h-58l-86 79l-115 -79h-66l135 142h107zM237 480l-53 -298q-6 -32 -6 -50q0 -63 59 -63q47 0 84 47.5t49 118.5l44 245h125l-85 -480h-118l10 96h-3q-61 -106 -161 -106q-132 0 -132 114q0 26 5 56l57 320h125z" />
    <glyph glyph-name="udieresis" unicode="&#xfc;" horiz-adv-x="566" 
d="M327 698l-20 -114h-116l20 114h116zM517 698l-20 -114h-116l20 114h116zM237 480l-53 -298q-6 -32 -6 -50q0 -63 59 -63q47 0 84 47.5t49 118.5l44 245h125l-85 -480h-118l10 96h-3q-61 -106 -161 -106q-132 0 -132 114q0 26 5 56l57 320h125z" />
    <glyph glyph-name="yacute" unicode="&#xfd;" horiz-adv-x="461" 
d="M480 713l-189 -142h-67l120 142h136zM92 -223h-115q101 129 174 246l-96 457h127l57 -334h3q87 153 171 334h91q-241 -432 -412 -703z" />
    <glyph glyph-name="thorn" unicode="&#xfe;" horiz-adv-x="585" 
d="M123 -223h-125l164 932l126 13l-59 -325h2q64 93 168 93q74 0 115 -47.5t41 -128.5q0 -135 -73 -229.5t-191 -94.5q-85 0 -118 66h-2zM351 417q-68 0 -118.5 -84t-50.5 -165q0 -52 26 -80t67 -28q67 0 108.5 76.5t41.5 168.5q0 52 -19.5 82t-54.5 30z" />
    <glyph glyph-name="ydieresis" unicode="&#xff;" horiz-adv-x="461" 
d="M285 698l-20 -114h-116l20 114h116zM475 698l-20 -114h-116l20 114h116zM92 -223h-115q101 129 174 246l-96 457h127l57 -334h3q87 153 171 334h91q-241 -432 -412 -703z" />
    <glyph glyph-name="Amacron" unicode="&#x100;" horiz-adv-x="660" 
d="M611 854l-12 -64h-329l12 64h329zM473 0l-41 235h-243l-139 -235h-92l418 676l96 6l142 -682h-141zM377 546h-5l-142 -241h191z" />
    <glyph glyph-name="amacron" unicode="&#x101;" horiz-adv-x="523" 
d="M509 681l-12 -64h-329l12 64h329zM318 0l-4 69q-48 -79 -143 -79q-62 0 -98.5 32.5t-36.5 80.5q0 66 40.5 99.5t116.5 52.5q100 25 127.5 34t32.5 22q4 9 4 36q0 77 -86 77q-76 0 -143 -58h-10l16 75q72 49 160 49t135 -37t47 -98q0 -18 -4 -46l-39 -218q-9 -55 -8 -91
h-107zM224 59q33 0 61.5 25.5t39.5 63.5l18 101q-109 -29 -137 -46q-45 -27 -45 -82q0 -29 17 -45.5t46 -16.5z" />
    <glyph glyph-name="Abreve" unicode="&#x102;" horiz-adv-x="660" 
d="M427 751q-70 0 -103 35.5t-28 98.5h58q-1 -31 22 -49.5t61 -18.5q83 0 111 68h58q-40 -134 -179 -134zM473 0l-41 235h-243l-139 -235h-92l418 676l96 6l142 -682h-141zM377 546h-5l-142 -241h191z" />
    <glyph glyph-name="abreve" unicode="&#x103;" horiz-adv-x="523" 
d="M251 709q-2 -33 21 -52.5t62 -19.5q84 0 112 72h58q-40 -138 -180 -138q-71 0 -104 36t-27 102h58zM318 0l-4 69q-48 -79 -143 -79q-62 0 -98.5 32.5t-36.5 80.5q0 66 40.5 99.5t116.5 52.5q100 25 127.5 34t32.5 22q4 9 4 36q0 77 -86 77q-76 0 -143 -58h-10l16 75
q72 49 160 49t135 -37t47 -98q0 -18 -4 -46l-39 -218q-9 -55 -8 -91h-107zM224 59q33 0 61.5 25.5t39.5 63.5l18 101q-109 -29 -137 -46q-45 -27 -45 -82q0 -29 17 -45.5t46 -16.5z" />
    <glyph glyph-name="Aogonek" unicode="&#x104;" horiz-adv-x="660" 
d="M533 -139q23 0 57 14h7l-20 -43q-34 -17 -77 -17q-40 0 -64 17t-24 47q0 70 126 121h-65l-41 235h-243l-139 -235h-92l418 676l96 6l142 -682q-123 -61 -123 -106q0 -33 42 -33zM377 546h-5l-142 -241h191z" />
    <glyph glyph-name="aogonek" unicode="&#x105;" horiz-adv-x="523" 
d="M36 103q0 66 40.5 99.5t116.5 52.5q100 25 127.5 34t32.5 22q4 9 4 36q0 77 -86 77q-76 0 -143 -58h-10l16 75q72 49 160 49t135 -37t47 -98q0 -18 -4 -46l-39 -218q-9 -55 -8 -91q-123 -61 -123 -106q0 -33 42 -33q23 0 57 14h7l-20 -43q-34 -17 -77 -17q-40 0 -64 17
t-24 47q0 71 129 121h-34l-4 69q-48 -79 -143 -79q-62 0 -98.5 32.5t-36.5 80.5zM161 121q0 -29 17 -45.5t46 -16.5q33 0 61.5 25.5t39.5 63.5l18 101q-109 -29 -137 -46q-45 -27 -45 -82z" />
    <glyph glyph-name="Cacute" unicode="&#x106;" horiz-adv-x="683" 
d="M670 885l-195 -129h-69l124 129h140zM655 551q-24 33 -70 49.5t-97 15.5q-120 -2 -197.5 -93.5t-77.5 -235.5q0 -97 57 -156t151 -59q113 0 198 63h15l-43 -97q-79 -51 -186 -51q-158 0 -246.5 78t-88.5 217q0 122 58 217t152 144.5t204 49.5q112 0 179 -52l8 -90h-16z
" />
    <glyph glyph-name="cacute" unicode="&#x107;" horiz-adv-x="470" 
d="M519 713l-189 -142h-67l120 142h136zM341 490q85 0 126 -30l-1 -67h-12q-34 34 -95 34q-82 0 -132.5 -71t-50.5 -163q0 -63 32 -100t87 -37q74 0 124 47h12l-29 -76q-56 -37 -145 -37q-95 0 -154.5 52t-59.5 145q0 129 84.5 216t213.5 87z" />
    <glyph glyph-name="Ccircumflex" unicode="&#x108;" horiz-adv-x="683" 
d="M550 885l89 -129h-61l-88 66l-114 -66h-66l133 129h107zM655 551q-24 33 -70 49.5t-97 15.5q-120 -2 -197.5 -93.5t-77.5 -235.5q0 -97 57 -156t151 -59q113 0 198 63h15l-43 -97q-79 -51 -186 -51q-158 0 -246.5 78t-88.5 217q0 122 58 217t152 144.5t204 49.5
q112 0 179 -52l8 -90h-16z" />
    <glyph glyph-name="ccircumflex" unicode="&#x109;" horiz-adv-x="470" 
d="M417 713l83 -142h-58l-86 79l-115 -79h-66l135 142h107zM341 490q85 0 126 -30l-1 -67h-12q-34 34 -95 34q-82 0 -132.5 -71t-50.5 -163q0 -63 32 -100t87 -37q74 0 124 47h12l-29 -76q-56 -37 -145 -37q-95 0 -154.5 52t-59.5 145q0 129 84.5 216t213.5 87z" />
    <glyph glyph-name="Cdotaccent" unicode="&#x10a;" horiz-adv-x="683" 
d="M561 878l-20 -118h-130l20 118h130zM655 551q-24 33 -70 49.5t-97 15.5q-120 -2 -197.5 -93.5t-77.5 -235.5q0 -97 57 -156t151 -59q113 0 198 63h15l-43 -97q-79 -51 -186 -51q-158 0 -246.5 78t-88.5 217q0 122 58 217t152 144.5t204 49.5q112 0 179 -52l8 -90h-16z
" />
    <glyph glyph-name="cdotaccent" unicode="&#x10b;" horiz-adv-x="470" 
d="M425 699l-20 -118h-130l20 118h130zM341 490q85 0 126 -30l-1 -67h-12q-34 34 -95 34q-82 0 -132.5 -71t-50.5 -163q0 -63 32 -100t87 -37q74 0 124 47h12l-29 -76q-56 -37 -145 -37q-95 0 -154.5 52t-59.5 145q0 129 84.5 216t213.5 87z" />
    <glyph glyph-name="Ccaron" unicode="&#x10c;" horiz-adv-x="683" 
d="M421 756l-89 129h62l88 -66l114 66h65l-133 -129h-107zM655 551q-24 33 -70 49.5t-97 15.5q-120 -2 -197.5 -93.5t-77.5 -235.5q0 -97 57 -156t151 -59q113 0 198 63h15l-43 -97q-79 -51 -186 -51q-158 0 -246.5 78t-88.5 217q0 122 58 217t152 144.5t204 49.5
q112 0 179 -52l8 -90h-16z" />
    <glyph glyph-name="ccaron" unicode="&#x10d;" horiz-adv-x="470" 
d="M284 571l-83 142h59l85 -79l117 79h64l-135 -142h-107zM341 490q85 0 126 -30l-1 -67h-12q-34 34 -95 34q-82 0 -132.5 -71t-50.5 -163q0 -63 32 -100t87 -37q74 0 124 47h12l-29 -76q-56 -37 -145 -37q-95 0 -154.5 52t-59.5 145q0 129 84.5 216t213.5 87z" />
    <glyph glyph-name="Dcaron" unicode="&#x10e;" horiz-adv-x="764" 
d="M390 756l-89 129h62l88 -66l114 66h65l-133 -129h-107zM166 680h232q154 0 244 -74t90 -206q0 -180 -122.5 -290t-323.5 -110h-240zM195 75h91q145 0 224 90t79 230q0 98 -58.5 154.5t-168.5 56.5h-75z" />
    <glyph glyph-name="dcaron" unicode="&#x10f;" horiz-adv-x="585" 
d="M479 709l126 13l-127 -722h-125l15 82h-2q-65 -92 -166 -92q-75 0 -116 45.5t-41 126.5q0 136 72 232t191 96q89 0 119 -70h2zM775 722q-48 -138 -105 -210h-58q39 117 56 210h107zM247 62q66 0 116.5 82.5t50.5 163.5q0 52 -26 82t-65 30q-47 0 -82.5 -41t-52 -96.5
t-16.5 -112.5q0 -108 75 -108z" />
    <glyph glyph-name="Dcroat" unicode="&#x110;" horiz-adv-x="764" 
d="M398 680q154 0 244 -74t90 -206q0 -180 -122.5 -290t-323.5 -110h-240l55 314h-68l13 69h68l52 297h232zM286 75q145 0 224 90t79 230q0 98 -58.5 154.5t-168.5 56.5h-75l-39 -223h171l-13 -69h-170l-41 -239h91z" />
    <glyph glyph-name="dcroat" unicode="&#x111;" horiz-adv-x="585" 
d="M647 619l-11 -63h-60l-98 -556h-125l15 82h-2q-65 -92 -166 -92q-75 0 -116 45.5t-41 126.5q0 136 72 232t191 96q89 0 119 -70h2l24 136h-138l11 63h139l16 90l126 13l-18 -103h60zM247 62q66 0 116.5 82.5t50.5 163.5q0 52 -26 82t-65 30q-47 0 -82.5 -41t-52 -96.5
t-16.5 -112.5q0 -108 75 -108z" />
    <glyph glyph-name="Emacron" unicode="&#x112;" horiz-adv-x="490" 
d="M530 854l-12 -64h-329l12 64h329zM456 82l-57 -82h-353l120 680h341l-13 -75h-211l-40 -222h188l-12 -71h-187l-42 -236h107q108 0 153 6h6z" />
    <glyph glyph-name="emacron" unicode="&#x113;" horiz-adv-x="520" 
d="M512 681l-12 -64h-329l12 64h329zM170 246q-3 -21 -3 -42q0 -67 34.5 -104t101.5 -37q88 0 145 54h12l-32 -83q-63 -44 -160 -44q-104 0 -164.5 53t-60.5 148q0 129 77.5 214t194.5 85q93 0 137.5 -48t44.5 -134q0 -28 -7 -62h-320zM384 302q3 15 3 37q0 98 -76 98
q-42 0 -80 -39.5t-52 -95.5h205z" />
    <glyph glyph-name="Ebreve" unicode="&#x114;" horiz-adv-x="490" 
d="M273 885q-1 -31 22 -49.5t61 -18.5q83 0 111 68h58q-40 -134 -179 -134q-70 0 -103 35.5t-28 98.5h58zM456 82l-57 -82h-353l120 680h341l-13 -75h-211l-40 -222h188l-12 -71h-187l-42 -236h107q108 0 153 6h6z" />
    <glyph glyph-name="ebreve" unicode="&#x115;" horiz-adv-x="520" 
d="M254 709q-2 -33 21 -52.5t62 -19.5q84 0 112 72h58q-40 -138 -180 -138q-71 0 -104 36t-27 102h58zM170 246q-3 -21 -3 -42q0 -67 34.5 -104t101.5 -37q88 0 145 54h12l-32 -83q-63 -44 -160 -44q-104 0 -164.5 53t-60.5 148q0 129 77.5 214t194.5 85q93 0 137.5 -48
t44.5 -134q0 -28 -7 -62h-320zM384 302q3 15 3 37q0 98 -76 98q-42 0 -80 -39.5t-52 -95.5h205z" />
    <glyph glyph-name="Edotaccent" unicode="&#x116;" horiz-adv-x="490" 
d="M434 878l-20 -118h-130l20 118h130zM456 82l-57 -82h-353l120 680h341l-13 -75h-211l-40 -222h188l-12 -71h-187l-42 -236h107q108 0 153 6h6z" />
    <glyph glyph-name="edotaccent" unicode="&#x117;" horiz-adv-x="520" 
d="M415 699l-20 -118h-130l20 118h130zM170 246q-3 -21 -3 -42q0 -67 34.5 -104t101.5 -37q88 0 145 54h12l-32 -83q-63 -44 -160 -44q-104 0 -164.5 53t-60.5 148q0 129 77.5 214t194.5 85q93 0 137.5 -48t44.5 -134q0 -28 -7 -62h-320zM384 302q3 15 3 37q0 98 -76 98
q-42 0 -80 -39.5t-52 -95.5h205z" />
    <glyph glyph-name="Eogonek" unicode="&#x118;" horiz-adv-x="490" 
d="M285 -185q-40 0 -64 17t-24 47q0 71 129 121h-280l120 680h341l-13 -75h-211l-40 -222h188l-12 -71h-187l-42 -236h107q108 0 153 6h6l-57 -82q-123 -61 -123 -106q0 -33 42 -33q23 0 57 14h7l-20 -43q-34 -17 -77 -17z" />
    <glyph glyph-name="eogonek" unicode="&#x119;" horiz-adv-x="520" 
d="M292 -185q-40 0 -64 17t-24 47q0 57 92 112q-8 -1 -28 -1q-104 0 -164.5 53t-60.5 148q0 129 77.5 214t194.5 85q93 0 137.5 -48t44.5 -134q0 -28 -7 -62h-320q-3 -21 -3 -42q0 -67 34.5 -104t101.5 -37q88 0 145 54h12l-32 -83q-145 -84 -145 -140q0 -33 42 -33
q23 0 57 14h7l-20 -43q-34 -17 -77 -17zM179 302h205q3 15 3 37q0 98 -76 98q-42 0 -80 -39.5t-52 -95.5z" />
    <glyph glyph-name="Ecaron" unicode="&#x11a;" horiz-adv-x="490" 
d="M294 756l-89 129h62l88 -66l114 66h65l-133 -129h-107zM456 82l-57 -82h-353l120 680h341l-13 -75h-211l-40 -222h188l-12 -71h-187l-42 -236h107q108 0 153 6h6z" />
    <glyph glyph-name="ecaron" unicode="&#x11b;" horiz-adv-x="520" 
d="M274 571l-83 142h59l85 -79l117 79h64l-135 -142h-107zM170 246q-3 -21 -3 -42q0 -67 34.5 -104t101.5 -37q88 0 145 54h12l-32 -83q-63 -44 -160 -44q-104 0 -164.5 53t-60.5 148q0 129 77.5 214t194.5 85q93 0 137.5 -48t44.5 -134q0 -28 -7 -62h-320zM384 302
q3 15 3 37q0 98 -76 98q-42 0 -80 -39.5t-52 -95.5h205z" />
    <glyph glyph-name="Gcircumflex" unicode="&#x11c;" horiz-adv-x="728" 
d="M541 885l89 -129h-61l-88 66l-114 -66h-66l133 129h107zM385 -13q-146 0 -234.5 76t-88.5 210q0 187 119 303.5t304 116.5q54 0 105.5 -12.5t81.5 -33.5l7 -90h-17q-54 60 -176 60q-132 0 -207 -94t-75 -238q0 -100 54.5 -160.5t152.5 -60.5q55 0 88 15l45 255h134
l-51 -290q-102 -57 -242 -57z" />
    <glyph glyph-name="gcircumflex" unicode="&#x11d;" horiz-adv-x="524" 
d="M399 713l83 -142h-58l-86 79l-115 -79h-66l135 142h107zM308 79q188 0 188 -107q0 -66 -46.5 -115t-113 -71t-139.5 -22q-89 0 -146 25.5t-57 82.5q0 49 87 122q-26 5 -44 25t-18 45q0 35 99 134q-47 32 -47 99q0 85 60.5 139t152.5 54q61 0 106 -16h167l-16 -60h-99v-4
q21 -24 21 -66q0 -82 -60 -131.5t-154 -49.5q-64 0 -95 17q-29 -47 -29 -72q0 -29 76 -29h107zM186 293q0 -35 17.5 -57t49.5 -22q49 0 72.5 42.5t23.5 100.5q0 36 -17.5 58.5t-50.5 22.5q-44 0 -69.5 -45.5t-25.5 -99.5zM198 -179q73 0 123 29.5t50 82.5q0 37 -59 45
q-45 6 -189 6q-38 -36 -38 -90q0 -36 32.5 -54.5t80.5 -18.5z" />
    <glyph glyph-name="Gbreve" unicode="&#x11e;" horiz-adv-x="728" 
d="M391 885q-1 -31 22 -49.5t61 -18.5q83 0 111 68h58q-40 -134 -179 -134q-70 0 -103 35.5t-28 98.5h58zM385 -13q-146 0 -234.5 76t-88.5 210q0 187 119 303.5t304 116.5q54 0 105.5 -12.5t81.5 -33.5l7 -90h-17q-54 60 -176 60q-132 0 -207 -94t-75 -238
q0 -100 54.5 -160.5t152.5 -60.5q55 0 88 15l45 255h134l-51 -290q-102 -57 -242 -57z" />
    <glyph glyph-name="gbreve" unicode="&#x11f;" horiz-adv-x="524" 
d="M246 709q-2 -33 21 -52.5t62 -19.5q84 0 112 72h58q-40 -138 -180 -138q-71 0 -104 36t-27 102h58zM308 79q188 0 188 -107q0 -66 -46.5 -115t-113 -71t-139.5 -22q-89 0 -146 25.5t-57 82.5q0 49 87 122q-26 5 -44 25t-18 45q0 35 99 134q-47 32 -47 99q0 85 60.5 139
t152.5 54q61 0 106 -16h167l-16 -60h-99v-4q21 -24 21 -66q0 -82 -60 -131.5t-154 -49.5q-64 0 -95 17q-29 -47 -29 -72q0 -29 76 -29h107zM186 293q0 -35 17.5 -57t49.5 -22q49 0 72.5 42.5t23.5 100.5q0 36 -17.5 58.5t-50.5 22.5q-44 0 -69.5 -45.5t-25.5 -99.5z
M198 -179q73 0 123 29.5t50 82.5q0 37 -59 45q-45 6 -189 6q-38 -36 -38 -90q0 -36 32.5 -54.5t80.5 -18.5z" />
    <glyph glyph-name="Gdotaccent" unicode="&#x120;" horiz-adv-x="728" 
d="M552 878l-20 -118h-130l20 118h130zM385 -13q-146 0 -234.5 76t-88.5 210q0 187 119 303.5t304 116.5q54 0 105.5 -12.5t81.5 -33.5l7 -90h-17q-54 60 -176 60q-132 0 -207 -94t-75 -238q0 -100 54.5 -160.5t152.5 -60.5q55 0 88 15l45 255h134l-51 -290
q-102 -57 -242 -57z" />
    <glyph glyph-name="gdotaccent" unicode="&#x121;" horiz-adv-x="524" 
d="M407 699l-20 -118h-130l20 118h130zM308 79q188 0 188 -107q0 -66 -46.5 -115t-113 -71t-139.5 -22q-89 0 -146 25.5t-57 82.5q0 49 87 122q-26 5 -44 25t-18 45q0 35 99 134q-47 32 -47 99q0 85 60.5 139t152.5 54q61 0 106 -16h167l-16 -60h-99v-4q21 -24 21 -66
q0 -82 -60 -131.5t-154 -49.5q-64 0 -95 17q-29 -47 -29 -72q0 -29 76 -29h107zM186 293q0 -35 17.5 -57t49.5 -22q49 0 72.5 42.5t23.5 100.5q0 36 -17.5 58.5t-50.5 22.5q-44 0 -69.5 -45.5t-25.5 -99.5zM198 -179q73 0 123 29.5t50 82.5q0 37 -59 45q-45 6 -189 6
q-38 -36 -38 -90q0 -36 32.5 -54.5t80.5 -18.5z" />
    <glyph glyph-name="uni0122" unicode="&#x122;" horiz-adv-x="728" 
d="M385 -13q-146 0 -234.5 76t-88.5 210q0 187 119 303.5t304 116.5q54 0 105.5 -12.5t81.5 -33.5l7 -90h-17q-54 60 -176 60q-132 0 -207 -94t-75 -238q0 -100 54.5 -160.5t152.5 -60.5q55 0 88 15l45 255h134l-51 -290q-102 -57 -242 -57zM419 -69q-10 -33 -38 -75.5
t-57 -72.5h-53q31 62 47 148h101z" />
    <glyph glyph-name="uni0123" unicode="&#x123;" horiz-adv-x="524" 
d="M260 571q19 62 97 142h53q-29 -55 -45 -142h-105zM308 79q188 0 188 -107q0 -66 -46.5 -115t-113 -71t-139.5 -22q-89 0 -146 25.5t-57 82.5q0 49 87 122q-26 5 -44 25t-18 45q0 35 99 134q-47 32 -47 99q0 85 60.5 139t152.5 54q61 0 106 -16h167l-16 -60h-99v-4
q21 -24 21 -66q0 -82 -60 -131.5t-154 -49.5q-64 0 -95 17q-29 -47 -29 -72q0 -29 76 -29h107zM186 293q0 -35 17.5 -57t49.5 -22q49 0 72.5 42.5t23.5 100.5q0 36 -17.5 58.5t-50.5 22.5q-44 0 -69.5 -45.5t-25.5 -99.5zM198 -179q73 0 123 29.5t50 82.5q0 37 -59 45
q-45 6 -189 6q-38 -36 -38 -90q0 -36 32.5 -54.5t80.5 -18.5z" />
    <glyph glyph-name="Hcircumflex" unicode="&#x124;" horiz-adv-x="739" 
d="M537 885l89 -129h-61l-88 66l-114 -66h-66l133 129h107zM166 680h131l-50 -283h301l50 283h131l-120 -680h-131l55 316h-301l-55 -316h-131z" />
    <glyph glyph-name="hcircumflex" unicode="&#x125;" horiz-adv-x="573" 
d="M311 885l89 -129h-61l-88 66l-114 -66h-66l133 129h107zM345 0l52 293q6 32 6 55q0 63 -59 63q-52 0 -90 -49.5t-50 -121.5l-43 -240h-125l126 709l126 13l-60 -343h3q27 48 70 79.5t98 31.5q132 0 132 -114q0 -31 -5 -61l-56 -315h-125z" />
    <glyph glyph-name="Hbar" unicode="&#x126;" horiz-adv-x="739" 
d="M781 581l-13 -74h-70l-89 -507h-131l55 316h-301l-55 -316h-131l89 507h-70l13 74h71l17 99h131l-17 -99h301l17 99h131l-17 -99h69zM548 397l19 110h-301l-19 -110h301z" />
    <glyph glyph-name="hbar" unicode="&#x127;" horiz-adv-x="573" 
d="M399 490q132 0 132 -114q0 -31 -5 -61l-56 -315h-125l52 293q6 32 6 55q0 63 -59 63q-52 0 -90 -49.5t-50 -121.5l-43 -240h-125l99 556h-61l11 63h61l16 90l126 13l-18 -103h138l-11 -63h-138l-31 -177h3q27 48 70 79.5t98 31.5z" />
    <glyph glyph-name="Itilde" unicode="&#x128;" horiz-adv-x="309" 
d="M376 878q-21 -44 -53 -44q-15 0 -56 25q-37 23 -67 23q-73 0 -112 -116h52q22 46 52 46q15 0 56 -25q37 -23 67 -23q74 0 112 114h-51zM166 680h133l-120 -680h-133z" />
    <glyph glyph-name="itilde" unicode="&#x129;" horiz-adv-x="269" 
d="M333 705q-21 -44 -53 -44q-15 0 -56 25q-37 23 -67 23q-73 0 -112 -116h52q22 46 52 46q15 0 56 -25q37 -23 67 -23q74 0 112 114h-51zM121 480h126l-85 -480h-126z" />
    <glyph glyph-name="Imacron" unicode="&#x12a;" horiz-adv-x="309" 
d="M429 854l-12 -64h-329l12 64h329zM166 680h133l-120 -680h-133z" />
    <glyph glyph-name="imacron" unicode="&#x12b;" horiz-adv-x="269" 
d="M384 681l-12 -64h-329l12 64h329zM121 480h126l-85 -480h-126z" />
    <glyph glyph-name="Ibreve" unicode="&#x12c;" horiz-adv-x="309" 
d="M172 885q-1 -31 22 -49.5t61 -18.5q83 0 111 68h58q-40 -134 -179 -134q-70 0 -103 35.5t-28 98.5h58zM166 680h133l-120 -680h-133z" />
    <glyph glyph-name="ibreve" unicode="&#x12d;" horiz-adv-x="269" 
d="M126 709q-2 -33 21 -52.5t62 -19.5q84 0 112 72h58q-40 -138 -180 -138q-71 0 -104 36t-27 102h58zM121 480h126l-85 -480h-126z" />
    <glyph glyph-name="Iogonek" unicode="&#x12e;" horiz-adv-x="309" 
d="M-11 -121q0 37 27.5 64.5t92.5 56.5h-63l120 680h133l-120 -680q-60 -34 -85.5 -58.5t-25.5 -47.5q0 -33 42 -33q23 0 57 14h7l-20 -43q-34 -17 -77 -17q-40 0 -64 17t-24 47z" />
    <glyph glyph-name="iogonek" unicode="&#x12f;" horiz-adv-x="269" 
d="M158 699h130l-21 -118h-130zM36 0l85 480h126l-85 -480q-59 -35 -83 -59t-24 -47q0 -33 42 -33q23 0 57 14h7l-20 -43q-34 -17 -77 -17q-40 0 -64 17t-24 47q0 36 26 64t91 57h-57z" />
    <glyph glyph-name="Idotaccent" unicode="&#x130;" horiz-adv-x="309" 
d="M333 878l-20 -118h-130l20 118h130zM166 680h133l-120 -680h-133z" />
    <glyph glyph-name="dotlessi" unicode="&#x131;" horiz-adv-x="269" 
d="M121 480h126l-85 -480h-126z" />
    <glyph glyph-name="IJ" unicode="&#x132;" horiz-adv-x="614" 
d="M166 680h133l-120 -680h-133zM484 680h132l-96 -544q-13 -72 -38.5 -124.5t-63 -85t-77.5 -51t-93 -30.5l-60 30l1 8q96 31 138 90t64 182z" />
    <glyph glyph-name="ij" unicode="&#x133;" horiz-adv-x="541" 
d="M158 699h130l-21 -118h-130zM557 699l-21 -118h-130l21 118h130zM121 480h126l-85 -480h-126zM518 480l-76 -428q-22 -125 -93 -187.5t-179 -88.5l-45 21v6q89 36 131.5 89.5t63.5 170.5l74 417h124z" />
    <glyph glyph-name="Jcircumflex" unicode="&#x134;" horiz-adv-x="305" 
d="M330 885l89 -129h-61l-88 66l-114 -66h-66l133 129h107zM175 680h132l-96 -544q-13 -72 -38.5 -124.5t-63 -85t-77.5 -51t-93 -30.5l-60 30l1 8q96 31 138 90t64 182z" />
    <glyph glyph-name="jcircumflex" unicode="&#x135;" horiz-adv-x="272" 
d="M283 713l83 -142h-58l-86 79l-115 -79h-66l135 142h107zM249 480l-76 -428q-22 -125 -93 -187.5t-179 -88.5l-45 21v6q89 36 131.5 89.5t63.5 170.5l74 417h124z" />
    <glyph glyph-name="uni0136" unicode="&#x136;" horiz-adv-x="633" 
d="M297 680l-120 -680h-131l120 680h131zM570 680h123l-320 -289q150 -274 237 -386l-1 -5h-167q-62 96 -194 361l1 8zM340 -69q-10 -33 -38 -75.5t-57 -72.5h-53q31 62 47 148h101z" />
    <glyph glyph-name="uni0137" unicode="&#x137;" horiz-adv-x="535" 
d="M162 709l126 13l-127 -722h-125zM219 264l216 216h113l-215 -197q44 -85 94 -168t72 -110l-1 -5h-149q-68 118 -132 252zM295 -69q-10 -33 -38 -75.5t-57 -72.5h-53q31 62 47 148h101z" />
    <glyph glyph-name="kgreenlandic" unicode="&#x138;" horiz-adv-x="535" 
d="M121 480h124l-84 -480h-125zM219 264l216 216h113l-215 -197q44 -85 94 -168t72 -110l-1 -5h-149q-63 109 -131 252z" />
    <glyph glyph-name="Lacute" unicode="&#x139;" horiz-adv-x="447" 
d="M448 885l-195 -129h-69l124 129h140zM360 0h-314l120 680h133l-106 -604h70q97 0 145 6h6z" />
    <glyph glyph-name="lacute" unicode="&#x13a;" horiz-adv-x="269" 
d="M434 885l-195 -129h-69l124 129h140zM162 709l127 13l-127 -722h-126z" />
    <glyph glyph-name="uni013B" unicode="&#x13b;" horiz-adv-x="447" 
d="M360 0h-314l120 680h133l-106 -604h70q97 0 145 6h6zM244 -69q-10 -33 -38 -75.5t-57 -72.5h-53q31 62 47 148h101z" />
    <glyph glyph-name="uni013C" unicode="&#x13c;" horiz-adv-x="269" 
d="M162 709l127 13l-127 -722h-126zM140 -69q-10 -33 -38 -75.5t-57 -72.5h-53q31 62 47 148h101z" />
    <glyph glyph-name="Lcaron" unicode="&#x13d;" horiz-adv-x="447" 
d="M484 722q-48 -138 -105 -210h-58q39 117 56 210h107zM360 0h-314l120 680h133l-106 -604h70q97 0 145 6h6z" />
    <glyph glyph-name="lcaron" unicode="&#x13e;" horiz-adv-x="269" 
d="M162 709l127 13l-127 -722h-126zM459 722q-48 -138 -105 -210h-58q39 117 56 210h107z" />
    <glyph glyph-name="Ldot" unicode="&#x13f;" horiz-adv-x="447" 
d="M360 0h-314l120 680h133l-106 -604h70q97 0 145 6h6zM471 397l-20 -118h-130l20 118h130z" />
    <glyph glyph-name="ldot" unicode="&#x140;" horiz-adv-x="400" 
d="M162 709l127 13l-127 -722h-126zM434 397l-20 -118h-130l20 118h130z" />
    <glyph glyph-name="Lslash" unicode="&#x141;" horiz-adv-x="447" 
d="M408 82h6l-54 -82h-314l48 270l-83 -42l13 84l85 43l57 325h133l-46 -265l130 66l-13 -84l-132 -67l-45 -254h70q97 0 145 6z" />
    <glyph glyph-name="lslash" unicode="&#x142;" horiz-adv-x="269" 
d="M325 491l-13 -79l-85 -44l-65 -368h-126l55 308l-81 -41l13 79l82 41l57 322l127 13l-48 -274z" />
    <glyph glyph-name="Nacute" unicode="&#x143;" horiz-adv-x="730" 
d="M652 885l-195 -129h-69l124 129h140zM546 220h4l78 460h92l-120 -683h-80l-293 510h-5l-84 -507h-92l120 680h116z" />
    <glyph glyph-name="nacute" unicode="&#x144;" horiz-adv-x="576" 
d="M533 713l-189 -142h-67l120 142h136zM345 0l52 293q6 32 6 50q0 63 -59 63q-52 0 -90 -47.5t-50 -118.5l-43 -240h-125l85 480h115l-11 -101h3q27 47 72 79t100 32q58 0 94.5 -29t36.5 -90q0 -26 -5 -56l-56 -315h-125z" />
    <glyph glyph-name="uni0145" unicode="&#x145;" horiz-adv-x="730" 
d="M546 220h4l78 460h92l-120 -683h-80l-293 510h-5l-84 -507h-92l120 680h116zM372 -69q-10 -33 -38 -75.5t-57 -72.5h-53q31 62 47 148h101z" />
    <glyph glyph-name="uni0146" unicode="&#x146;" horiz-adv-x="576" 
d="M345 0l52 293q6 32 6 50q0 63 -59 63q-52 0 -90 -47.5t-50 -118.5l-43 -240h-125l85 480h115l-11 -101h3q27 47 72 79t100 32q58 0 94.5 -29t36.5 -90q0 -26 -5 -56l-56 -315h-125zM302 -69q-10 -33 -38 -75.5t-57 -72.5h-53q31 62 47 148h101z" />
    <glyph glyph-name="Ncaron" unicode="&#x147;" horiz-adv-x="730" 
d="M403 756l-89 129h62l88 -66l114 66h65l-133 -129h-107zM546 220h4l78 460h92l-120 -683h-80l-293 510h-5l-84 -507h-92l120 680h116z" />
    <glyph glyph-name="ncaron" unicode="&#x148;" horiz-adv-x="576" 
d="M298 571l-83 142h59l85 -79l117 79h64l-135 -142h-107zM345 0l52 293q6 32 6 50q0 63 -59 63q-52 0 -90 -47.5t-50 -118.5l-43 -240h-125l85 480h115l-11 -101h3q27 47 72 79t100 32q58 0 94.5 -29t36.5 -90q0 -26 -5 -56l-56 -315h-125z" />
    <glyph glyph-name="napostrophe" unicode="&#x149;" horiz-adv-x="576" 
d="M199 722q-48 -138 -105 -210h-58q39 117 56 210h107zM345 0l52 293q6 32 6 50q0 63 -59 63q-52 0 -90 -47.5t-50 -118.5l-43 -240h-125l85 480h115l-11 -101h3q27 47 72 79t100 32q58 0 94.5 -29t36.5 -90q0 -26 -5 -56l-56 -315h-125z" />
    <glyph glyph-name="Eng" unicode="&#x14a;" horiz-adv-x="730" 
d="M339 -224l-46 21l1 6q86 33 135.5 84.5t75.5 135.5l-278 484h-5l-84 -507h-92l120 680h116l264 -460h4l78 460h92l-106 -606q-23 -134 -87 -201t-188 -97z" />
    <glyph glyph-name="eng" unicode="&#x14b;" horiz-adv-x="576" 
d="M207 -224l-45 21v6q89 36 131.5 89.5t63.5 170.5l40 230q6 32 6 50q0 63 -59 63q-52 0 -90 -47.5t-50 -118.5l-43 -240h-125l85 480h115l-11 -101h3q27 47 72 79t100 32q58 0 94.5 -29t36.5 -90q0 -26 -5 -56l-47 -263q-22 -125 -93 -187.5t-179 -88.5z" />
    <glyph glyph-name="Omacron" unicode="&#x14c;" horiz-adv-x="803" 
d="M676 854l-12 -64h-329l12 64h329zM483 692q124 0 205 -72t81 -205q0 -183 -114.5 -305.5t-295.5 -122.5q-128 0 -208.5 73t-80.5 208q0 179 116 301.5t297 122.5zM373 62q78 0 136.5 53t85 130t26.5 164q0 211 -154 211q-78 0 -136 -52t-85 -128.5t-27 -162.5
q0 -215 154 -215z" />
    <glyph glyph-name="omacron" unicode="&#x14d;" horiz-adv-x="570" 
d="M532 681l-12 -64h-329l12 64h329zM330 490q89 0 148.5 -48.5t59.5 -140.5q0 -129 -76.5 -220t-209.5 -91q-92 0 -149.5 49.5t-57.5 144.5q0 131 79.5 218.5t205.5 87.5zM257 52q67 0 110 81.5t43 167.5q0 131 -88 131q-68 0 -108.5 -78t-40.5 -170q0 -132 84 -132z" />
    <glyph glyph-name="Obreve" unicode="&#x14e;" horiz-adv-x="803" 
d="M419 885q-1 -31 22 -49.5t61 -18.5q83 0 111 68h58q-40 -134 -179 -134q-70 0 -103 35.5t-28 98.5h58zM483 692q124 0 205 -72t81 -205q0 -183 -114.5 -305.5t-295.5 -122.5q-128 0 -208.5 73t-80.5 208q0 179 116 301.5t297 122.5zM373 62q78 0 136.5 53t85 130
t26.5 164q0 211 -154 211q-78 0 -136 -52t-85 -128.5t-27 -162.5q0 -215 154 -215z" />
    <glyph glyph-name="obreve" unicode="&#x14f;" horiz-adv-x="570" 
d="M274 709q-2 -33 21 -52.5t62 -19.5q84 0 112 72h58q-40 -138 -180 -138q-71 0 -104 36t-27 102h58zM330 490q89 0 148.5 -48.5t59.5 -140.5q0 -129 -76.5 -220t-209.5 -91q-92 0 -149.5 49.5t-57.5 144.5q0 131 79.5 218.5t205.5 87.5zM257 52q67 0 110 81.5t43 167.5
q0 131 -88 131q-68 0 -108.5 -78t-40.5 -170q0 -132 84 -132z" />
    <glyph glyph-name="Ohungarumlaut" unicode="&#x150;" horiz-adv-x="803" 
d="M594 885l-178 -129h-66l116 129h128zM779 885l-178 -129h-66l116 129h128zM483 692q124 0 205 -72t81 -205q0 -183 -114.5 -305.5t-295.5 -122.5q-128 0 -208.5 73t-80.5 208q0 179 116 301.5t297 122.5zM373 62q78 0 136.5 53t85 130t26.5 164q0 211 -154 211
q-78 0 -136 -52t-85 -128.5t-27 -162.5q0 -215 154 -215z" />
    <glyph glyph-name="ohungarumlaut" unicode="&#x151;" horiz-adv-x="570" 
d="M445 713l-180 -142h-63l120 142h123zM630 713l-180 -142h-63l120 142h123zM330 490q89 0 148.5 -48.5t59.5 -140.5q0 -129 -76.5 -220t-209.5 -91q-92 0 -149.5 49.5t-57.5 144.5q0 131 79.5 218.5t205.5 87.5zM257 52q67 0 110 81.5t43 167.5q0 131 -88 131
q-68 0 -108.5 -78t-40.5 -170q0 -132 84 -132z" />
    <glyph glyph-name="OE" unicode="&#x152;" horiz-adv-x="934" 
d="M388 -5q-151 0 -234.5 65.5t-83.5 203.5q0 189 119 305t314 116q19 0 82.5 -2.5t83.5 -2.5h282l-13 -75h-211l-40 -222h188l-12 -71h-187l-42 -236h107q108 0 153 6h6l-57 -82h-309q-20 0 -73.5 -2.5t-72.5 -2.5zM399 69q67 0 104 4l94 535q-58 5 -109 5
q-122 0 -198 -102t-76 -243q0 -199 185 -199z" />
    <glyph glyph-name="oe" unicode="&#x153;" horiz-adv-x="881" 
d="M252 -10q-92 0 -149.5 49.5t-57.5 144.5q0 131 78.5 218.5t197.5 87.5t172 -83h2q29 38 77.5 60.5t103.5 22.5q93 0 137.5 -48t44.5 -134q0 -28 -7 -62h-320q-3 -21 -3 -42q0 -67 34.5 -104t101.5 -37q88 0 145 54h12l-32 -83q-63 -44 -160 -44q-119 0 -177 86h-2
q-75 -86 -198 -86zM540 302h205q3 15 3 37q0 98 -76 98q-42 0 -80 -39.5t-52 -95.5zM257 52q67 0 110 81.5t43 167.5q0 131 -88 131q-68 0 -108.5 -78t-40.5 -170q0 -132 84 -132z" />
    <glyph glyph-name="Racute" unicode="&#x154;" horiz-adv-x="617" 
d="M587 885l-195 -129h-69l124 129h140zM166 680h205q92 0 151.5 -42t59.5 -123q0 -82 -44 -129t-134 -76l-1 -4q36 -67 97.5 -154t114.5 -147l-1 -5h-167q-40 52 -89.5 136t-80.5 152h-48l-51 -288h-132zM240 347h73q65 7 102 51.5t37 109.5q0 48 -29 76.5t-79 28.5h-57z
" />
    <glyph glyph-name="racute" unicode="&#x155;" horiz-adv-x="370" 
d="M435 713l-189 -142h-67l120 142h136zM121 480h116l-19 -132h3q29 70 74.5 106t97.5 36l-25 -105q-66 -2 -109 -42t-56 -113l-41 -230h-126z" />
    <glyph glyph-name="uni0156" unicode="&#x156;" horiz-adv-x="617" 
d="M166 680h205q92 0 151.5 -42t59.5 -123q0 -82 -44 -129t-134 -76l-1 -4q36 -67 97.5 -154t114.5 -147l-1 -5h-167q-40 52 -89.5 136t-80.5 152h-48l-51 -288h-132zM240 347h73q65 7 102 51.5t37 109.5q0 48 -29 76.5t-79 28.5h-57zM336 -69q-10 -33 -38 -75.5t-57 -72.5
h-53q31 62 47 148h101z" />
    <glyph glyph-name="uni0157" unicode="&#x157;" horiz-adv-x="370" 
d="M121 480h116l-19 -132h3q29 70 74.5 106t97.5 36l-25 -105q-66 -2 -109 -42t-56 -113l-41 -230h-126zM138 -69q-10 -33 -38 -75.5t-57 -72.5h-53q31 62 47 148h101z" />
    <glyph glyph-name="Rcaron" unicode="&#x158;" horiz-adv-x="617" 
d="M338 756l-89 129h62l88 -66l114 66h65l-133 -129h-107zM166 680h205q92 0 151.5 -42t59.5 -123q0 -82 -44 -129t-134 -76l-1 -4q36 -67 97.5 -154t114.5 -147l-1 -5h-167q-40 52 -89.5 136t-80.5 152h-48l-51 -288h-132zM240 347h73q65 7 102 51.5t37 109.5
q0 48 -29 76.5t-79 28.5h-57z" />
    <glyph glyph-name="rcaron" unicode="&#x159;" horiz-adv-x="370" 
d="M200 571l-83 142h59l85 -79l117 79h64l-135 -142h-107zM121 480h116l-19 -132h3q29 70 74.5 106t97.5 36l-25 -105q-66 -2 -109 -42t-56 -113l-41 -230h-126z" />
    <glyph glyph-name="Sacute" unicode="&#x15a;" horiz-adv-x="513" 
d="M542 885l-195 -129h-69l124 129h140zM474 573q-47 48 -118 48q-46 0 -81 -23.5t-35 -78.5q0 -31 19.5 -55t64.5 -54q72 -48 107.5 -97.5t35.5 -110.5q0 -105 -71 -160t-183 -55q-59 0 -114.5 20.5t-85.5 51.5l-10 116h15q35 -53 88.5 -82t106.5 -29q58 0 89.5 29t31.5 85
q0 43 -27 73.5t-82 68.5q-60 41 -86.5 76.5t-26.5 95.5q0 95 70.5 148t170.5 53q98 0 145 -33l-9 -87h-15z" />
    <glyph glyph-name="sacute" unicode="&#x15b;" horiz-adv-x="386" 
d="M422 713l-189 -142h-67l120 142h136zM359 388q-15 21 -42.5 34.5t-55.5 13.5q-30 0 -50.5 -16.5t-20.5 -43.5q0 -19 11 -34t51 -49q48 -41 69.5 -75.5t21.5 -74.5q0 -70 -53 -110.5t-132 -40.5t-136 39l-8 88h11q54 -68 126 -68q37 0 57 18.5t20 45.5q0 25 -14.5 46.5
t-56.5 57.5q-45 39 -60.5 64.5t-15.5 59.5q0 63 50.5 105t123.5 42q66 0 105 -20l9 -83z" />
    <glyph glyph-name="Scircumflex" unicode="&#x15c;" horiz-adv-x="513" 
d="M422 885l89 -129h-61l-88 66l-114 -66h-66l133 129h107zM474 573q-47 48 -118 48q-46 0 -81 -23.5t-35 -78.5q0 -31 19.5 -55t64.5 -54q72 -48 107.5 -97.5t35.5 -110.5q0 -105 -71 -160t-183 -55q-59 0 -114.5 20.5t-85.5 51.5l-10 116h15q35 -53 88.5 -82t106.5 -29
q58 0 89.5 29t31.5 85q0 43 -27 73.5t-82 68.5q-60 41 -86.5 76.5t-26.5 95.5q0 95 70.5 148t170.5 53q98 0 145 -33l-9 -87h-15z" />
    <glyph glyph-name="scircumflex" unicode="&#x15d;" horiz-adv-x="386" 
d="M320 713l83 -142h-58l-86 79l-115 -79h-66l135 142h107zM359 388q-15 21 -42.5 34.5t-55.5 13.5q-30 0 -50.5 -16.5t-20.5 -43.5q0 -19 11 -34t51 -49q48 -41 69.5 -75.5t21.5 -74.5q0 -70 -53 -110.5t-132 -40.5t-136 39l-8 88h11q54 -68 126 -68q37 0 57 18.5t20 45.5
q0 25 -14.5 46.5t-56.5 57.5q-45 39 -60.5 64.5t-15.5 59.5q0 63 50.5 105t123.5 42q66 0 105 -20l9 -83z" />
    <glyph glyph-name="Scedilla" unicode="&#x15e;" horiz-adv-x="513" 
d="M353 693q98 0 145 -33l-9 -87h-15q-47 48 -118 48q-46 0 -81 -23.5t-35 -78.5q0 -31 19.5 -55t64.5 -54q72 -48 107.5 -97.5t35.5 -110.5q0 -100 -65 -155t-170 -60l-20 -30l11 -3q63 -17 63 -68q0 -54 -51 -80.5t-122 -26.5l-13 37l4 5q103 0 103 54q0 31 -65 42v7
l46 64q-115 10 -175 71l-10 116h15q35 -53 88.5 -82t106.5 -29q58 0 89.5 29t31.5 85q0 43 -27 73.5t-82 68.5q-60 41 -86.5 76.5t-26.5 95.5q0 95 70.5 148t170.5 53z" />
    <glyph glyph-name="scedilla" unicode="&#x15f;" horiz-adv-x="386" 
d="M360 470l9 -83l-10 1q-15 21 -42.5 34.5t-55.5 13.5q-30 0 -50.5 -16.5t-20.5 -43.5q0 -19 11 -34t51 -49q48 -41 69.5 -75.5t21.5 -74.5q0 -65 -46 -105t-117 -45l-23 -36l11 -3q63 -17 63 -68q0 -54 -51 -80.5t-122 -26.5l-13 37l4 5q103 0 103 54q0 31 -65 42v7l49 69
q-69 6 -114 38l-8 88h11q54 -68 126 -68q37 0 57 18.5t20 45.5q0 25 -14.5 46.5t-56.5 57.5q-45 39 -60.5 64.5t-15.5 59.5q0 63 50.5 105t123.5 42q66 0 105 -20z" />
    <glyph glyph-name="Scaron" unicode="&#x160;" horiz-adv-x="513" 
d="M293 756l-89 129h62l88 -66l114 66h65l-133 -129h-107zM474 573q-47 48 -118 48q-46 0 -81 -23.5t-35 -78.5q0 -31 19.5 -55t64.5 -54q72 -48 107.5 -97.5t35.5 -110.5q0 -105 -71 -160t-183 -55q-59 0 -114.5 20.5t-85.5 51.5l-10 116h15q35 -53 88.5 -82t106.5 -29
q58 0 89.5 29t31.5 85q0 43 -27 73.5t-82 68.5q-60 41 -86.5 76.5t-26.5 95.5q0 95 70.5 148t170.5 53q98 0 145 -33l-9 -87h-15z" />
    <glyph glyph-name="scaron" unicode="&#x161;" horiz-adv-x="386" 
d="M187 571l-83 142h59l85 -79l117 79h64l-135 -142h-107zM359 388q-15 21 -42.5 34.5t-55.5 13.5q-30 0 -50.5 -16.5t-20.5 -43.5q0 -19 11 -34t51 -49q48 -41 69.5 -75.5t21.5 -74.5q0 -70 -53 -110.5t-132 -40.5t-136 39l-8 88h11q54 -68 126 -68q37 0 57 18.5t20 45.5
q0 25 -14.5 46.5t-56.5 57.5q-45 39 -60.5 64.5t-15.5 59.5q0 63 50.5 105t123.5 42q66 0 105 -20l9 -83z" />
    <glyph glyph-name="uni0162" unicode="&#x162;" horiz-adv-x="500" 
d="M90 680h479l-13 -75h-171l-107 -605h-50l-28 -43l11 -3q63 -17 63 -68q0 -54 -51 -80.5t-122 -26.5l-13 37l4 5q103 0 103 54q0 31 -65 42v7l54 76h-43l107 605h-171z" />
    <glyph glyph-name="uni0163" unicode="&#x163;" horiz-adv-x="334" 
d="M241 416l-49 -276q-5 -25 -5 -40q0 -41 38 -41q36 0 74 19l-14 -55q-47 -31 -111 -31h-9l-23 -35l11 -3q63 -17 63 -68q0 -54 -51 -80.5t-122 -26.5l-13 37l4 5q103 0 103 54q0 31 -65 42v7l52 74q-62 17 -62 85q0 19 4 40l52 293h-65l11 64h65l21 119l125 13l-23 -132
h116l-17 -64h-110z" />
    <glyph glyph-name="Tcaron" unicode="&#x164;" horiz-adv-x="500" 
d="M290 756l-89 129h62l88 -66l114 66h65l-133 -129h-107zM248 605h-171l13 75h479l-13 -75h-171l-107 -605h-137z" />
    <glyph glyph-name="tcaron" unicode="&#x165;" horiz-adv-x="334" 
d="M464 722q-48 -138 -105 -210h-58q39 117 56 210h107zM192 140q-5 -25 -5 -40q0 -41 38 -41q36 0 74 19l-14 -55q-47 -31 -111 -31q-112 0 -112 91q0 19 4 40l52 293h-65l11 64h65l21 119l125 13l-23 -132h116l-17 -64h-110z" />
    <glyph glyph-name="Tbar" unicode="&#x166;" horiz-adv-x="500" 
d="M556 605h-171l-39 -222h103l-13 -69h-102l-56 -314h-137l56 314h-104l13 69h103l39 222h-171l13 75h479z" />
    <glyph glyph-name="tbar" unicode="&#x167;" horiz-adv-x="334" 
d="M351 416h-110l-16 -91h86l-11 -62h-86l-22 -123q-5 -25 -5 -40q0 -41 38 -41q36 0 74 19l-14 -55q-47 -31 -111 -31q-112 0 -112 91q0 19 4 40l25 140h-65l11 62h65l16 91h-65l11 64h65l21 119l125 13l-23 -132h116z" />
    <glyph glyph-name="Utilde" unicode="&#x168;" horiz-adv-x="706" 
d="M573 878q-21 -44 -53 -44q-15 0 -56 25q-37 23 -67 23q-73 0 -112 -116h52q22 46 52 46q15 0 56 -25q37 -23 67 -23q74 0 112 114h-51zM332 -13q-126 0 -191 49t-65 140q0 31 6 63l78 441h131l-74 -422q-7 -39 -7 -64q0 -128 133 -128q81 0 127.5 47t63.5 145l75 422h91
l-79 -441q-22 -119 -94.5 -185.5t-194.5 -66.5z" />
    <glyph glyph-name="utilde" unicode="&#x169;" horiz-adv-x="566" 
d="M474 705q-21 -44 -53 -44q-15 0 -56 25q-37 23 -67 23q-73 0 -112 -116h52q22 46 52 46q15 0 56 -25q37 -23 67 -23q74 0 112 114h-51zM237 480l-53 -298q-6 -32 -6 -50q0 -63 59 -63q47 0 84 47.5t49 118.5l44 245h125l-85 -480h-118l10 96h-3q-61 -106 -161 -106
q-132 0 -132 114q0 26 5 56l57 320h125z" />
    <glyph glyph-name="Umacron" unicode="&#x16a;" horiz-adv-x="706" 
d="M626 854l-12 -64h-329l12 64h329zM332 -13q-126 0 -191 49t-65 140q0 31 6 63l78 441h131l-74 -422q-7 -39 -7 -64q0 -128 133 -128q81 0 127.5 47t63.5 145l75 422h91l-79 -441q-22 -119 -94.5 -185.5t-194.5 -66.5z" />
    <glyph glyph-name="umacron" unicode="&#x16b;" horiz-adv-x="566" 
d="M525 681l-12 -64h-329l12 64h329zM237 480l-53 -298q-6 -32 -6 -50q0 -63 59 -63q47 0 84 47.5t49 118.5l44 245h125l-85 -480h-118l10 96h-3q-61 -106 -161 -106q-132 0 -132 114q0 26 5 56l57 320h125z" />
    <glyph glyph-name="Ubreve" unicode="&#x16c;" horiz-adv-x="706" 
d="M369 885q-1 -31 22 -49.5t61 -18.5q83 0 111 68h58q-40 -134 -179 -134q-70 0 -103 35.5t-28 98.5h58zM332 -13q-126 0 -191 49t-65 140q0 31 6 63l78 441h131l-74 -422q-7 -39 -7 -64q0 -128 133 -128q81 0 127.5 47t63.5 145l75 422h91l-79 -441q-22 -119 -94.5 -185.5
t-194.5 -66.5z" />
    <glyph glyph-name="ubreve" unicode="&#x16d;" horiz-adv-x="566" 
d="M267 709q-2 -33 21 -52.5t62 -19.5q84 0 112 72h58q-40 -138 -180 -138q-71 0 -104 36t-27 102h58zM237 480l-53 -298q-6 -32 -6 -50q0 -63 59 -63q47 0 84 47.5t49 118.5l44 245h125l-85 -480h-118l10 96h-3q-61 -106 -161 -106q-132 0 -132 114q0 26 5 56l57 320h125z
" />
    <glyph glyph-name="Uring" unicode="&#x16e;" horiz-adv-x="706" 
d="M447 730q-51 0 -79 26.5t-28 69.5q0 52 37 89.5t92 37.5q51 0 79 -25.5t28 -67.5q0 -54 -37 -92t-92 -38zM448 772q33 0 54 26t21 61q0 22 -15 37t-41 15q-32 0 -53 -25t-21 -59q0 -23 15 -39t40 -16zM332 -13q-126 0 -191 49t-65 140q0 31 6 63l78 441h131l-74 -422
q-7 -39 -7 -64q0 -128 133 -128q81 0 127.5 47t63.5 145l75 422h91l-79 -441q-22 -119 -94.5 -185.5t-194.5 -66.5z" />
    <glyph glyph-name="uring" unicode="&#x16f;" horiz-adv-x="566" 
d="M346 549q-51 0 -79 27t-28 70q0 54 37 92t92 38q51 0 79 -26t28 -70q0 -55 -37 -93t-92 -38zM347 591q33 0 54 26.5t21 61.5q0 24 -14.5 39.5t-41.5 15.5q-32 0 -53 -25.5t-21 -61.5q0 -24 15 -40t40 -16zM237 480l-53 -298q-6 -32 -6 -50q0 -63 59 -63q47 0 84 47.5
t49 118.5l44 245h125l-85 -480h-118l10 96h-3q-61 -106 -161 -106q-132 0 -132 114q0 26 5 56l57 320h125z" />
    <glyph glyph-name="Uhungarumlaut" unicode="&#x170;" horiz-adv-x="706" 
d="M544 885l-178 -129h-66l116 129h128zM729 885l-178 -129h-66l116 129h128zM332 -13q-126 0 -191 49t-65 140q0 31 6 63l78 441h131l-74 -422q-7 -39 -7 -64q0 -128 133 -128q81 0 127.5 47t63.5 145l75 422h91l-79 -441q-22 -119 -94.5 -185.5t-194.5 -66.5z" />
    <glyph glyph-name="uhungarumlaut" unicode="&#x171;" horiz-adv-x="566" 
d="M438 713l-180 -142h-63l120 142h123zM623 713l-180 -142h-63l120 142h123zM237 480l-53 -298q-6 -32 -6 -50q0 -63 59 -63q47 0 84 47.5t49 118.5l44 245h125l-85 -480h-118l10 96h-3q-61 -106 -161 -106q-132 0 -132 114q0 26 5 56l57 320h125z" />
    <glyph glyph-name="Uogonek" unicode="&#x172;" horiz-adv-x="706" 
d="M76 176q0 31 6 63l78 441h131l-74 -422q-7 -39 -7 -64q0 -128 133 -128q81 0 127.5 47t63.5 145l75 422h91l-79 -441q-18 -96 -65.5 -154t-130.5 -86q-58 -19 -96 -49t-38 -56q0 -33 42 -33q23 0 57 14h7l-20 -43q-34 -17 -77 -17q-40 0 -64 17t-24 47q0 65 102 108
q-115 4 -176.5 53t-61.5 136z" />
    <glyph glyph-name="uogonek" unicode="&#x173;" horiz-adv-x="566" 
d="M50 104q0 26 5 56l57 320h125l-53 -298q-6 -32 -6 -50q0 -63 59 -63q47 0 84 47.5t49 118.5l44 245h125l-85 -480q-123 -61 -123 -106q0 -33 42 -33q23 0 57 14h7l-20 -43q-34 -17 -77 -17q-40 0 -64 17t-24 47q0 70 126 121h-42l10 96h-3q-61 -106 -161 -106
q-132 0 -132 114z" />
    <glyph glyph-name="Wcircumflex" unicode="&#x174;" horiz-adv-x="970" 
d="M677 885l89 -129h-61l-88 66l-114 -66h-66l133 129h107zM614 0l-77 495h-5l-277 -495h-102l-43 680h137l22 -508h3l273 508h88l74 -510h3l226 510h100l-326 -680h-96z" />
    <glyph glyph-name="wcircumflex" unicode="&#x175;" horiz-adv-x="777" 
d="M549 713l83 -142h-58l-86 79l-115 -79h-66l135 142h107zM728 480h92l-262 -480h-92l-63 337h-5l-180 -337h-93l-59 480h126l31 -348h3l191 348h75l62 -348h3z" />
    <glyph glyph-name="Ycircumflex" unicode="&#x176;" horiz-adv-x="542" 
d="M438 885l89 -129h-61l-88 66l-114 -66h-66l133 129h107zM215 305l-141 375h142l104 -287h6l204 287h97l-279 -366l-55 -314h-132z" />
    <glyph glyph-name="ycircumflex" unicode="&#x177;" horiz-adv-x="461" 
d="M378 713l83 -142h-58l-86 79l-115 -79h-66l135 142h107zM92 -223h-115q101 129 174 246l-96 457h127l57 -334h3q87 153 171 334h91q-241 -432 -412 -703z" />
    <glyph glyph-name="Ydieresis" unicode="&#x178;" horiz-adv-x="542" 
d="M346 878l-20 -114h-116l20 114h116zM536 878l-20 -114h-116l20 114h116zM215 305l-141 375h142l104 -287h6l204 287h97l-279 -366l-55 -314h-132z" />
    <glyph glyph-name="Zacute" unicode="&#x179;" horiz-adv-x="680" 
d="M637 885l-195 -129h-69l124 129h140zM578 0h-578l7 36l484 563l2 6h-347l39 75h516l-6 -32l-488 -565l-1 -6q352 0 430 10h6z" />
    <glyph glyph-name="zacute" unicode="&#x17a;" horiz-adv-x="470" 
d="M484 713l-189 -142h-67l120 142h136zM116 480h369l-3 -19l-322 -391l-2 -6q150 0 197.5 1.5t83.5 9.5h6l-53 -75h-415l4 21l327 393l1 6h-230z" />
    <glyph glyph-name="Zdotaccent" unicode="&#x17b;" horiz-adv-x="680" 
d="M528 878l-20 -118h-130l20 118h130zM578 0h-578l7 36l484 563l2 6h-347l39 75h516l-6 -32l-488 -565l-1 -6q352 0 430 10h6z" />
    <glyph glyph-name="zdotaccent" unicode="&#x17c;" horiz-adv-x="470" 
d="M390 699l-20 -118h-130l20 118h130zM116 480h369l-3 -19l-322 -391l-2 -6q150 0 197.5 1.5t83.5 9.5h6l-53 -75h-415l4 21l327 393l1 6h-230z" />
    <glyph glyph-name="Zcaron" unicode="&#x17d;" horiz-adv-x="680" 
d="M388 756l-89 129h62l88 -66l114 66h65l-133 -129h-107zM578 0h-578l7 36l484 563l2 6h-347l39 75h516l-6 -32l-488 -565l-1 -6q352 0 430 10h6z" />
    <glyph glyph-name="zcaron" unicode="&#x17e;" horiz-adv-x="470" 
d="M249 571l-83 142h59l85 -79l117 79h64l-135 -142h-107zM116 480h369l-3 -19l-322 -391l-2 -6q150 0 197.5 1.5t83.5 9.5h6l-53 -75h-415l4 21l327 393l1 6h-230z" />
    <glyph glyph-name="longs" unicode="&#x17f;" horiz-adv-x="308" 
d="M372 732q39 0 65 -10l-6 -73h-9q-21 15 -50 15q-54 0 -77 -40.5t-39 -132.5l-86 -491h-126l74 416h-70l11 64h70l4 23q18 105 78 167t161 62z" />
    <glyph glyph-name="uni018F" unicode="&#x18f;" horiz-adv-x="725" 
d="M396 693q139 0 217 -68t78 -200q0 -192 -105.5 -315.5t-267.5 -123.5q-123 0 -186 62.5t-63 180.5q0 75 21 142h456q2 34 2 52q0 98 -41.5 145.5t-134.5 47.5q-113 0 -204 -74h-17l22 88q100 63 223 63zM323 55q76 0 134.5 64.5t79.5 180.5h-318q-12 -45 -12 -106
q0 -71 28 -105t88 -34z" />
    <glyph glyph-name="florin" unicode="&#x192;" horiz-adv-x="594" 
d="M552 693q40 0 70 -11l-6 -73h-9q-21 16 -46 16q-34 0 -59 -29t-57 -114l-38 -99h93l-23 -64h-95l-127 -332q-45 -118 -101 -172.5t-147 -54.5q-40 0 -70 11l6 73h9q21 -16 48 -16q34 0 58.5 29t57.5 114l134 348h-92l23 64h93l32 83q45 118 103 172.5t143 54.5z" />
    <glyph glyph-name="Aringacute" unicode="&#x1fa;" horiz-adv-x="660" 
d="M543 746q0 -72 -62 -108l133 -638h-141l-41 235h-243l-139 -235h-92l393 635q-44 26 -44 81q0 39 24 71t62 45l101 89h140l-156 -88q65 -18 65 -87zM434 797q-32 0 -53 -24t-21 -56q0 -23 15 -39t40 -16q33 0 54 25t21 58q0 22 -15 37t-41 15zM377 546h-5l-142 -241h191z
" />
    <glyph glyph-name="aringacute" unicode="&#x1fb;" horiz-adv-x="523" 
d="M330 549q-51 0 -79 27t-28 70q0 39 21 71.5t56 47.5l101 120h136l-150 -113q72 -17 72 -92q0 -55 -37 -93t-92 -38zM350 734q-32 0 -53 -25.5t-21 -61.5q0 -24 15 -40t40 -16q33 0 54 26.5t21 61.5q0 24 -14.5 39.5t-41.5 15.5zM294 490q88 0 135 -37t47 -98
q0 -18 -4 -46l-39 -218q-9 -55 -8 -91h-107l-4 69q-48 -79 -143 -79q-62 0 -98.5 32.5t-36.5 80.5q0 66 40.5 99.5t116.5 52.5q100 25 127.5 34t32.5 22q4 9 4 36q0 77 -86 77q-76 0 -143 -58h-10l16 75q72 49 160 49zM325 148l18 101q-109 -29 -137 -46q-45 -27 -45 -82
q0 -29 17 -45.5t46 -16.5q33 0 61.5 25.5t39.5 63.5z" />
    <glyph glyph-name="AEacute" unicode="&#x1fc;" horiz-adv-x="894" 
d="M898 885l-195 -129h-69l124 129h140zM898 605h-211l-40 -222h188l-12 -71h-187l-42 -236h107q108 0 153 6h6l-57 -82h-353l42 235h-245l-193 -235h-106l567 680h396zM504 305l53 300h-6l-246 -300h199z" />
    <glyph glyph-name="aeacute" unicode="&#x1fd;" horiz-adv-x="811" 
d="M663 713l-189 -142h-67l120 142h136zM781 247h-321q-2 -26 -2 -40q0 -70 34.5 -107t101.5 -37q88 0 145 54h12l-32 -83q-63 -44 -160 -44q-146 0 -190 96h-2q-54 -96 -179 -96q-70 0 -111 31.5t-41 82.5q0 66 40.5 99t116.5 52q99 24 126.5 33.5t33.5 22.5q4 9 4 36
q0 77 -86 77q-76 0 -143 -58h-10l16 75q72 49 160 49q108 0 150 -62h2q57 62 158 62q94 0 139 -48t45 -134q0 -27 -7 -61zM602 437q-40 0 -77 -35.5t-55 -99.5h205q3 15 3 37q0 98 -76 98zM325 148l18 96q-109 -25 -139 -43q-43 -25 -43 -80q0 -29 17 -45.5t46 -16.5
q32 0 61.5 25.5t39.5 63.5z" />
    <glyph glyph-name="Oslashacute" unicode="&#x1fe;" horiz-adv-x="803" 
d="M689 885l-195 -129h-69l124 129h140zM784 651l-67 -63q52 -69 52 -173q0 -183 -114.5 -305.5t-295.5 -122.5q-126 0 -204 69l-73 -69l-43 44l76 72q-45 67 -45 165q0 179 116 301.5t297 122.5q115 0 191 -60l66 62zM219 277q0 -33 5 -71l368 348q-38 66 -125 66
q-78 0 -136 -52t-85 -128.5t-27 -162.5zM621 409q0 46 -7 81l-370 -350q38 -78 129 -78q78 0 136.5 53t85 130t26.5 164z" />
    <glyph glyph-name="oslashacute" unicode="&#x1ff;" horiz-adv-x="570" 
d="M529 713l-189 -142h-67l120 142h136zM559 459l-52 -49q31 -47 31 -109q0 -129 -76.5 -220t-209.5 -91q-87 0 -142 43l-55 -52l-33 35l55 52q-32 48 -32 116q0 131 79.5 218.5t205.5 87.5q87 0 144 -45l52 50zM173 184q0 -16 1 -24l225 215q-21 57 -77 57
q-68 0 -108.5 -78t-40.5 -170zM410 301v16l-225 -213q19 -52 72 -52q67 0 110 81.5t43 167.5z" />
    <glyph glyph-name="uni0218" unicode="&#x218;" horiz-adv-x="513" 
d="M474 573q-47 48 -118 48q-46 0 -81 -23.5t-35 -78.5q0 -31 19.5 -55t64.5 -54q72 -48 107.5 -97.5t35.5 -110.5q0 -105 -71 -160t-183 -55q-59 0 -114.5 20.5t-85.5 51.5l-10 116h15q35 -53 88.5 -82t106.5 -29q58 0 89.5 29t31.5 85q0 43 -27 73.5t-82 68.5
q-60 41 -86.5 76.5t-26.5 95.5q0 95 70.5 148t170.5 53q98 0 145 -33l-9 -87h-15zM264 -69q-10 -33 -38 -75.5t-57 -72.5h-53q31 62 47 148h101z" />
    <glyph glyph-name="uni0219" unicode="&#x219;" horiz-adv-x="386" 
d="M359 388q-15 21 -42.5 34.5t-55.5 13.5q-30 0 -50.5 -16.5t-20.5 -43.5q0 -19 11 -34t51 -49q48 -41 69.5 -75.5t21.5 -74.5q0 -70 -53 -110.5t-132 -40.5t-136 39l-8 88h11q54 -68 126 -68q37 0 57 18.5t20 45.5q0 25 -14.5 46.5t-56.5 57.5q-45 39 -60.5 64.5
t-15.5 59.5q0 63 50.5 105t123.5 42q66 0 105 -20l9 -83zM209 -69q-10 -33 -38 -75.5t-57 -72.5h-53q31 62 47 148h101z" />
    <glyph glyph-name="uni021A" unicode="&#x21a;" horiz-adv-x="500" 
d="M248 605h-171l13 75h479l-13 -75h-171l-107 -605h-137zM252 -69q-10 -33 -38 -75.5t-57 -72.5h-53q31 62 47 148h101z" />
    <glyph glyph-name="uni021B" unicode="&#x21b;" horiz-adv-x="334" 
d="M192 140q-5 -25 -5 -40q0 -41 38 -41q36 0 74 19l-14 -55q-47 -31 -111 -31q-112 0 -112 91q0 19 4 40l52 293h-65l11 64h65l21 119l125 13l-23 -132h116l-17 -64h-110zM194 -69q-10 -33 -38 -75.5t-57 -72.5h-53q31 62 47 148h101z" />
    <glyph glyph-name="uni0237" unicode="&#x237;" horiz-adv-x="272" 
d="M249 480l-76 -428q-22 -125 -93 -187.5t-179 -88.5l-45 21v6q89 36 131.5 89.5t63.5 170.5l74 417h124z" />
    <glyph glyph-name="uni0259" unicode="&#x259;" horiz-adv-x="530" 
d="M278 490q106 0 161.5 -55t55.5 -151q0 -126 -77 -210t-194 -84q-86 0 -131.5 50t-45.5 135q0 34 7 79h318q1 11 1 32q0 65 -33.5 99.5t-95.5 34.5q-83 0 -143 -58h-12l31 83q74 45 158 45zM233 46q49 0 83 42t48 110h-210q-3 -18 -3 -45q0 -48 22 -77.5t60 -29.5z" />
    <glyph glyph-name="circumflex" unicode="&#x2c6;" horiz-adv-x="246" 
d="M260 713l83 -142h-58l-86 79l-115 -79h-66l135 142h107z" />
    <glyph glyph-name="caron" unicode="&#x2c7;" horiz-adv-x="246" 
d="M68 571l-109 142h64l100 -79l102 79h59l-109 -142h-107z" />
    <glyph glyph-name="uni02C9" unicode="&#x2c9;" horiz-adv-x="246" 
d="M365 681l-12 -64h-329l12 64h329z" />
    <glyph glyph-name="breve" unicode="&#x2d8;" horiz-adv-x="246" 
d="M110 709q-2 -33 21 -52.5t62 -19.5q84 0 112 72h58q-40 -138 -180 -138q-71 0 -104 36t-27 102h58z" />
    <glyph glyph-name="dotaccent" unicode="&#x2d9;" horiz-adv-x="246" 
d="M268 699l-20 -118h-130l20 118h130z" />
    <glyph glyph-name="ring" unicode="&#x2da;" horiz-adv-x="246" 
d="M186 549q-51 0 -79 27t-28 70q0 54 37 92t92 38q51 0 79 -26t28 -70q0 -55 -37 -93t-92 -38zM187 591q33 0 54 26.5t21 61.5q0 24 -14.5 39.5t-41.5 15.5q-32 0 -53 -25.5t-21 -61.5q0 -24 15 -40t40 -16z" />
    <glyph glyph-name="ogonek" unicode="&#x2db;" horiz-adv-x="246" 
d="M177 0q-123 -61 -123 -106q0 -33 42 -33q23 0 57 14h7l-20 -43q-34 -17 -77 -17q-40 0 -64 17t-24 47q0 71 129 121h73z" />
    <glyph glyph-name="tilde" unicode="&#x2dc;" horiz-adv-x="246" 
d="M313 705q-21 -44 -53 -44q-15 0 -56 25q-37 23 -67 23q-73 0 -112 -116h52q22 46 52 46q15 0 56 -25q37 -23 67 -23q74 0 112 114h-51z" />
    <glyph glyph-name="hungarumlaut" unicode="&#x2dd;" horiz-adv-x="246" 
d="M241 713l-180 -142h-63l120 142h123zM426 713l-180 -142h-63l120 142h123z" />
    <glyph glyph-name="gravecomb" unicode="&#x300;" horiz-adv-x="0" 
d="M-52 713l77 -142h-59l-141 142h123z" />
    <glyph glyph-name="acutecomb" unicode="&#x301;" horiz-adv-x="0" 
d="M98 713l-189 -142h-67l120 142h136z" />
    <glyph glyph-name="uni0302" unicode="&#x302;" horiz-adv-x="0" 
d="M14 713l83 -142h-58l-86 79l-115 -79h-66l135 142h107z" />
    <glyph glyph-name="tildecomb" unicode="&#x303;" horiz-adv-x="0" 
d="M67 705q-21 -44 -53 -44q-15 0 -56 25q-37 23 -67 23q-73 0 -112 -116h52q22 46 52 46q15 0 56 -25q37 -23 67 -23q74 0 112 114h-51z" />
    <glyph glyph-name="uni0304" unicode="&#x304;" horiz-adv-x="0" 
d="M119 681l-12 -64h-329l12 64h329z" />
    <glyph glyph-name="uni0306" unicode="&#x306;" horiz-adv-x="0" 
d="M-136 709q-2 -33 21 -52.5t62 -19.5q84 0 112 72h58q-40 -138 -180 -138q-71 0 -104 36t-27 102h58z" />
    <glyph glyph-name="uni0307" unicode="&#x307;" horiz-adv-x="0" 
d="M22 699l-20 -118h-130l20 118h130z" />
    <glyph glyph-name="uni0308" unicode="&#x308;" horiz-adv-x="0" 
d="M-79 698l-20 -114h-116l20 114h116zM111 698l-20 -114h-116l20 114h116z" />
    <glyph glyph-name="uni030A" unicode="&#x30a;" horiz-adv-x="0" 
d="M-60 549q-51 0 -79 27t-28 70q0 54 37 92t92 38q51 0 79 -26t28 -70q0 -55 -37 -93t-92 -38zM-59 591q33 0 54 26.5t21 61.5q0 24 -14.5 39.5t-41.5 15.5q-32 0 -53 -25.5t-21 -61.5q0 -24 15 -40t40 -16z" />
    <glyph glyph-name="uni030B" unicode="&#x30b;" horiz-adv-x="0" 
d="M-5 713l-180 -142h-63l120 142h123zM180 713l-180 -142h-63l120 142h123z" />
    <glyph glyph-name="uni030C" unicode="&#x30c;" horiz-adv-x="0" 
d="M-118 571l-83 142h59l85 -79l117 79h64l-135 -142h-107z" />
    <glyph glyph-name="uni0312" unicode="&#x312;" horiz-adv-x="0" 
d="M-118 571q19 62 97 142h53q-29 -55 -45 -142h-105z" />
    <glyph glyph-name="uni0313" unicode="&#x313;" horiz-adv-x="0" 
d="M24 722q-48 -138 -105 -210h-58q39 117 56 210h107z" />
    <glyph glyph-name="uni0326" unicode="&#x326;" horiz-adv-x="0" 
d="M-87 -69q-10 -33 -38 -75.5t-57 -72.5h-53q31 62 47 148h101z" />
    <glyph glyph-name="uni0327" unicode="&#x327;" horiz-adv-x="0" 
d="M-264 -221l-13 37l4 5q103 0 103 54q0 31 -65 42v7l54 76h44l-28 -43l11 -3q63 -17 63 -68q0 -54 -51 -80.5t-122 -26.5z" />
    <glyph glyph-name="uni0328" unicode="&#x328;" horiz-adv-x="0" 
d="M-69 0q-123 -61 -123 -106q0 -33 42 -33q23 0 57 14h7l-20 -43q-34 -17 -77 -17q-40 0 -64 17t-24 47q0 71 129 121h73z" />
    <glyph glyph-name="uni0394" unicode="&#x394;" horiz-adv-x="681" 
d="M23 0v44l268 626l110 13l257 -639v-44h-635zM125 73h379l-182 473h-5z" />
    <glyph glyph-name="uni03A9" unicode="&#x3a9;" horiz-adv-x="823" 
d="M762 370q0 -177 -170 -272v-5h184v-93h-278v88q69 51 94 114t25 162q0 107 -56 183t-148 76q-93 0 -149 -74.5t-56 -184.5q0 -101 21.5 -162t97.5 -114v-88h-280v93h180v5q-165 89 -165 272q0 139 102 230.5t249 91.5q149 0 249 -91.5t100 -230.5z" />
    <glyph glyph-name="uni03BC" unicode="&#x3bc;" 
d="M208 480v-288q0 -111 69 -111q54 0 85 47t31 118v234h124v-480h-118l-6 105h-3q-15 -49 -43 -81.5t-70 -32.5q-20 0 -40 9t-30 23h-4v-172h-120v629h125z" />
    <glyph glyph-name="pi" unicode="&#x3c0;" 
d="M544 59q25 0 55 21l-4 -55q-40 -33 -88 -33q-65 0 -98 29t-33 98v287h-144v-406h-126v406h-87v74h571l-6 -74h-85v-270q0 -77 45 -77z" />
    <glyph glyph-name="zero.ss01" unicode="&#x1e00;" horiz-adv-x="743" 
d="M444 707q122 0 186.5 -74t64.5 -204q0 -116 -40.5 -215t-122.5 -163t-190 -64q-125 0 -191 72t-66 202q0 87 25.5 167.5t71.5 142.5t114 99t148 37zM438 630q-67 0 -116.5 -64t-70.5 -150t-21 -177q0 -173 118 -173q49 0 88.5 35.5t63.5 93t36.5 123t12.5 131.5
q0 181 -111 181z" />
    <glyph glyph-name="one.ss01" unicode="&#x1e01;" horiz-adv-x="543" 
d="M214 0l102 580l-184 -73l27 94l222 93h86l-122 -694h-131z" />
    <glyph glyph-name="two.ss01" unicode="&#x1e02;" horiz-adv-x="677" 
d="M-8 0l8 47l166 115q54 37 95 67.5t84.5 69t71.5 71.5t46 71t18 72q0 103 -124 103q-95 0 -196 -76h-12l28 105q110 62 225 62q111 0 170.5 -49.5t59.5 -126.5q0 -55 -22.5 -103.5t-71 -94t-100 -82t-132.5 -85.5l-84 -51l-1 -4h194q111 0 180 14h12l-61 -125h-554z" />
    <glyph glyph-name="three.ss01" unicode="&#x1e03;" horiz-adv-x="661" 
d="M450 221q0 108 -190 108h-48l23 85h41q207 0 207 120q0 84 -124 84q-92 0 -178 -54h-12l25 94q94 49 197 49q108 0 171.5 -40.5t63.5 -114.5q0 -61 -37 -107t-101 -70l-1 -7q103 -42 103 -141q0 -113 -89.5 -176.5t-227.5 -63.5q-64 0 -126.5 17t-97.5 44l-2 109h14
q74 -74 213 -74q80 0 128 37t48 101z" />
    <glyph glyph-name="four.ss01" unicode="&#x1e04;" horiz-adv-x="714" 
d="M681 278l-32 -94h-104l-32 -184h-131l33 184h-379l7 42l471 468h121l-73 -416h119zM196 278h235l50 282h-7l-277 -276z" />
    <glyph glyph-name="five.ss01" unicode="&#x1e05;" horiz-adv-x="648" 
d="M439 240q0 52 -34.5 82t-96.5 30q-64 0 -124 -39l-77 12l114 369h407l-34 -111h-309l-54 -169q56 21 116 21q111 0 173.5 -49.5t62.5 -139.5q0 -123 -90 -191t-237 -68q-132 0 -217 59l5 102h12q71 -67 203 -67q85 0 132.5 43t47.5 116z" />
    <glyph glyph-name="six.ss01" unicode="&#x1e06;" horiz-adv-x="699" 
d="M268 373q77 65 169 65q85 0 143.5 -46.5t58.5 -137.5q0 -123 -84 -193t-213 -74q-119 -4 -191.5 53.5t-72.5 159.5q0 135 75.5 248t198.5 179.5t267 79.5l30 -62q-140 -21 -243 -95.5t-142 -176.5h4zM220 186q0 -53 32 -87t87 -34q76 0 118 51.5t42 129.5
q0 54 -30.5 84.5t-81.5 30.5q-74 0 -120.5 -48.5t-46.5 -126.5z" />
    <glyph glyph-name="seven.ss01" unicode="&#x1e07;" horiz-adv-x="666" 
d="M84 0q204 267 440 583h-401l37 111h542l-5 -29q-237 -327 -463 -665h-150z" />
    <glyph glyph-name="eight.ss01" unicode="&#x1e08;" horiz-adv-x="680" 
d="M315 -13q-117 0 -186 43.5t-69 126.5q0 153 193 209l1 3q-91 53 -91 147t76 142.5t184 48.5q96 0 152.5 -38.5t56.5 -106.5q0 -61 -43.5 -102.5t-114.5 -62.5v-3q150 -66 150 -180q0 -106 -88 -166.5t-221 -60.5zM411 427q110 38 110 123q0 39 -28.5 62.5t-76.5 23.5
q-54 0 -84.5 -27t-30.5 -75q0 -69 110 -107zM326 63q70 0 112.5 35t42.5 95q0 83 -155 137q-139 -49 -139 -160q0 -49 41 -78t98 -29z" />
    <glyph glyph-name="nine.ss01" unicode="&#x1e09;" horiz-adv-x="676" 
d="M464 331q-65 -65 -150 -65q-86 0 -145.5 46.5t-59.5 133.5q0 117 84.5 189t213.5 72q111 0 178.5 -54t67.5 -157q0 -132 -72.5 -246t-192 -182.5t-258.5 -80.5l-40 64q137 20 238 98t141 182h-5zM513 520q0 51 -30.5 82t-80.5 31q-69 0 -110 -52t-41 -127q0 -48 29 -78.5
t77 -30.5q68 0 112 50.5t44 124.5z" />
    <glyph glyph-name="uni1E0A" unicode="&#x1e0a;" horiz-adv-x="357" 
d="M316 599l-25 -140h-147l25 140h147zM255 258l-24 -139h-147l24 139h147z" />
    <glyph glyph-name="uni1E0B" unicode="&#x1e0b;" horiz-adv-x="404" 
d="M81 396h299l-15 -80h-299z" />
    <glyph glyph-name="uni1E0C" unicode="&#x1e0c;" horiz-adv-x="423" 
d="M262 521l-12 -67l-99 -103l64 -95l-12 -67l-141 130l13 72zM419 521l-12 -67l-99 -103l64 -95l-12 -67l-136 130l13 72z" />
    <glyph glyph-name="uni1E0D" unicode="&#x1e0d;" horiz-adv-x="423" 
d="M45 189l12 67l98 103l-63 95l12 67l136 -130l-13 -72zM202 189l12 67l98 103l-63 95l12 67l141 -130l-13 -72z" />
    <glyph glyph-name="uni1E0E" unicode="&#x1e0e;" horiz-adv-x="266" 
d="M262 521l-12 -67l-99 -103l64 -95l-12 -67l-141 130l13 72z" />
    <glyph glyph-name="uni1E0F" unicode="&#x1e0f;" horiz-adv-x="266" 
d="M45 189l12 67l98 103l-63 95l12 67l141 -130l-13 -72z" />
    <glyph glyph-name="Wgrave" unicode="&#x1e80;" horiz-adv-x="970" 
d="M457 885h128l83 -129h-63zM614 0l-77 495h-5l-277 -495h-102l-43 680h137l22 -508h3l273 508h88l74 -510h3l226 510h100l-326 -680h-96z" />
    <glyph glyph-name="wgrave" unicode="&#x1e81;" horiz-adv-x="777" 
d="M467 713l77 -142h-59l-141 142h123zM728 480h92l-262 -480h-92l-63 337h-5l-180 -337h-93l-59 480h126l31 -348h3l191 348h75l62 -348h3z" />
    <glyph glyph-name="Wacute" unicode="&#x1e82;" horiz-adv-x="970" 
d="M797 885l-195 -129h-69l124 129h140zM614 0l-77 495h-5l-277 -495h-102l-43 680h137l22 -508h3l273 508h88l74 -510h3l226 510h100l-326 -680h-96z" />
    <glyph glyph-name="wacute" unicode="&#x1e83;" horiz-adv-x="777" 
d="M651 713l-189 -142h-67l120 142h136zM728 480h92l-262 -480h-92l-63 337h-5l-180 -337h-93l-59 480h126l31 -348h3l191 348h75l62 -348h3z" />
    <glyph glyph-name="Wdieresis" unicode="&#x1e84;" horiz-adv-x="970" 
d="M585 878l-20 -114h-116l20 114h116zM775 878l-20 -114h-116l20 114h116zM614 0l-77 495h-5l-277 -495h-102l-43 680h137l22 -508h3l273 508h88l74 -510h3l226 510h100l-326 -680h-96z" />
    <glyph glyph-name="wdieresis" unicode="&#x1e85;" horiz-adv-x="777" 
d="M456 698l-20 -114h-116l20 114h116zM646 698l-20 -114h-116l20 114h116zM728 480h92l-262 -480h-92l-63 337h-5l-180 -337h-93l-59 480h126l31 -348h3l191 348h75l62 -348h3z" />
    <glyph glyph-name="uni1E9E" unicode="&#x1e9e;" horiz-adv-x="708" 
d="M432 -13q-89 0 -146 52l-10 116h15q63 -91 142 -91q41 0 67 25t26 64q0 26 -13 50.5t-52 70.5q-75 87 -75 161q0 128 157 177q-44 4 -86 4q-97 0 -139.5 -39.5t-60.5 -137.5l-78 -439h-137l80 451q22 124 100 182t228 58q114 0 226 -20v-67q-76 -14 -116 -45t-44 -87
q-3 -49 48 -107q95 -109 95 -185q0 -88 -64 -140.5t-163 -52.5z" />
    <glyph glyph-name="Ygrave" unicode="&#x1ef2;" horiz-adv-x="542" 
d="M218 885h128l83 -129h-63zM215 305l-141 375h142l104 -287h6l204 287h97l-279 -366l-55 -314h-132z" />
    <glyph glyph-name="ygrave" unicode="&#x1ef3;" horiz-adv-x="461" 
d="M296 713l77 -142h-59l-141 142h123zM92 -223h-115q101 129 174 246l-96 457h127l57 -334h3q87 153 171 334h91q-241 -432 -412 -703z" />
    <glyph glyph-name="uni2011" unicode="&#x2011;" horiz-adv-x="404" 
d="M65 309h299l-15 -80h-299z" />
    <glyph glyph-name="endash" unicode="&#x2013;" horiz-adv-x="500" 
d="M503 307l-13 -77h-482l13 77h482z" />
    <glyph glyph-name="emdash" unicode="&#x2014;" horiz-adv-x="918" 
d="M830 307l-13 -77h-718l13 77h718z" />
    <glyph glyph-name="quoteleft" unicode="&#x2018;" horiz-adv-x="273" 
d="M82 419q11 36 57 122.5t77 138.5h81q-23 -46 -49 -128.5t-37 -132.5h-129z" />
    <glyph glyph-name="quoteright" unicode="&#x2019;" horiz-adv-x="273" 
d="M302 680q-11 -35 -56.5 -121.5t-77.5 -139.5h-81q22 47 48.5 130t37.5 131h129z" />
    <glyph glyph-name="quotesinglbase" unicode="&#x201a;" horiz-adv-x="273" 
d="M203 125q-11 -35 -56.5 -121.5t-77.5 -139.5h-81q22 47 48.5 130t37.5 131h129z" />
    <glyph glyph-name="quotedblleft" unicode="&#x201c;" horiz-adv-x="461" 
d="M82 419q11 36 57 122.5t77 138.5h81q-23 -46 -49 -128.5t-37 -132.5h-129zM275 419q11 36 57 122.5t77 138.5h81q-23 -46 -49 -128.5t-37 -132.5h-129z" />
    <glyph glyph-name="quotedblright" unicode="&#x201d;" horiz-adv-x="461" 
d="M302 680q-11 -36 -57 -122.5t-77 -138.5h-81q22 47 48.5 130t37.5 131h129zM495 680q-11 -36 -57 -122.5t-77 -138.5h-81q22 47 48.5 130t37.5 131h129z" />
    <glyph glyph-name="quotedblbase" unicode="&#x201e;" horiz-adv-x="461" 
d="M203 125q-11 -36 -56 -121t-78 -140h-81q22 47 48.5 130t37.5 131h129zM396 125q-11 -36 -56 -121t-78 -140h-81q22 47 48.5 130t37.5 131h129z" />
    <glyph glyph-name="dagger" unicode="&#x2020;" horiz-adv-x="560" 
d="M414 691l-35 -198h185l-16 -94h-185l-98 -555h-110l98 555h-183l16 94h183l35 198h110z" />
    <glyph glyph-name="daggerdbl" unicode="&#x2021;" horiz-adv-x="560" 
d="M414 691l-34 -190h185l-16 -95h-185l-50 -280h185l-17 -94h-185l-32 -188h-110l32 188h-183l17 94h183l50 280h-183l16 95h183l34 190h110z" />
    <glyph glyph-name="bullet" unicode="&#x2022;" 
d="M151 328q0 68 48 116.5t116 48.5t116.5 -48.5t48.5 -116.5t-48.5 -116t-116.5 -48t-116 48t-48 116z" />
    <glyph glyph-name="ellipsis" unicode="&#x2026;" horiz-adv-x="959" 
d="M71 147h149l-26 -147h-149zM391 147h149l-26 -147h-149zM711 147h149l-26 -147h-149z" />
    <glyph glyph-name="perthousand" unicode="&#x2030;" horiz-adv-x="1176" 
d="M652 707l47 -32l-512 -699l-46 32zM284 691q61 0 94.5 -37t33.5 -102q0 -86 -53 -149t-131 -63q-61 0 -96.5 36.5t-35.5 100.5q0 88 54.5 151t133.5 63zM280 648q-30 0 -53 -31.5t-32.5 -73.5t-9.5 -84q0 -75 48 -75q30 0 51.5 31.5t30.5 73t9 83.5q0 76 -44 76zM617 346
q61 0 94.5 -37t33.5 -102q0 -86 -53 -149t-131 -63q-61 0 -96.5 36.5t-35.5 100.5q0 88 54.5 151t133.5 63zM997 346q61 0 94.5 -37t33.5 -102q0 -86 -53 -149t-131 -63q-61 0 -96.5 36.5t-35.5 100.5q0 88 54.5 151t133.5 63zM613 303q-30 0 -53 -31.5t-32.5 -73.5
t-9.5 -84q0 -75 48 -75q30 0 51.5 31.5t30.5 73t9 83.5q0 76 -44 76zM993 303q-30 0 -53 -31.5t-32.5 -73.5t-9.5 -84q0 -75 48 -75q30 0 51.5 31.5t30.5 73t9 83.5q0 76 -44 76z" />
    <glyph glyph-name="guilsinglleft" unicode="&#x2039;" horiz-adv-x="266" 
d="M248 441l-12 -67l-99 -103l64 -95l-12 -67l-141 130l13 72z" />
    <glyph glyph-name="guilsinglright" unicode="&#x203a;" horiz-adv-x="266" 
d="M31 109l12 67l98 103l-63 95l12 67l141 -130l-13 -72z" />
    <glyph glyph-name="fraction" unicode="&#x2044;" horiz-adv-x="159" 
d="M327 705l47 -32l-512 -699l-46 32z" />
    <glyph glyph-name="zero.sups" unicode="&#x2070;" horiz-adv-x="472" 
d="M282 422q-80 0 -124 46t-44 128q0 130 62.5 208t163.5 78q80 0 124 -46t44 -128q0 -130 -62.5 -208t-163.5 -78zM285 478q45 0 78.5 71.5t33.5 181.5q0 95 -60 95q-45 0 -78.5 -71.5t-33.5 -181.5q0 -95 60 -95z" />
    <glyph glyph-name="four.sups" unicode="&#x2074;" horiz-adv-x="418" 
d="M463 610l-21 -67h-57l-20 -113h-104l20 113h-212l8 44l276 285h90l-46 -262h66zM164 610h129l29 166h-6l-151 -160z" />
    <glyph glyph-name="five.sups" unicode="&#x2075;" horiz-adv-x="390" 
d="M213 422q-76 0 -127 31l4 68h12q40 -37 100 -37q47 0 75 25t28 74q0 31 -18.5 49.5t-49.5 18.5q-36 0 -64 -20l-49 9l76 232h232l-23 -83h-162l-30 -88q27 9 54 9q68 0 105.5 -33t37.5 -90q0 -78 -56 -121.5t-145 -43.5z" />
    <glyph glyph-name="six.sups" unicode="&#x2076;" horiz-adv-x="430" 
d="M266 422q-76 0 -118.5 35.5t-42.5 102.5q0 118 94 212t222 108l36 -46q-71 -14 -133 -55.5t-84 -99.5l2 -1q31 29 79 29q59 0 95.5 -33t36.5 -85q0 -71 -53.5 -119t-133.5 -48zM271 476q32 0 51.5 33.5t19.5 83.5q0 62 -52 62q-32 0 -52.5 -33.5t-20.5 -82.5
q0 -30 15 -46.5t39 -16.5z" />
    <glyph glyph-name="seven.sups" unicode="&#x2077;" horiz-adv-x="402" 
d="M99 430q30 43 121 169t140 198h-224l23 75h329l-4 -21q-230 -345 -277 -421h-108z" />
    <glyph glyph-name="eight.sups" unicode="&#x2078;" horiz-adv-x="434" 
d="M259 422q-70 0 -110.5 30.5t-40.5 78.5q0 83 117 134l1 2q-56 40 -56 99q0 50 42 82t117 32q64 0 100.5 -26t36.5 -66q0 -68 -92 -106v-2q81 -49 81 -118q0 -63 -53.5 -101.5t-142.5 -38.5zM324 710q63 25 63 74q0 21 -16 34t-38 13q-25 0 -43 -16.5t-18 -41.5
q0 -33 52 -63zM266 475q33 0 56.5 19t23.5 53q0 51 -72 86q-82 -35 -82 -97q0 -25 21.5 -43t52.5 -18z" />
    <glyph glyph-name="nine.sups" unicode="&#x2079;" horiz-adv-x="429" 
d="M161 422l-36 49q173 39 215 153h-3q-29 -25 -79 -25q-58 0 -92.5 33t-34.5 84q0 77 52 120.5t136 43.5q72 0 115 -36.5t43 -100.5q0 -121 -93 -213.5t-223 -107.5zM292 655q33 0 53 32t20 78q0 30 -14 46t-38 16q-31 0 -51 -32t-20 -81q0 -26 14 -42.5t36 -16.5z" />
    <glyph glyph-name="uni207F" unicode="&#x207f;" horiz-adv-x="424" 
d="M298 349l36 203q4 22 4 34q0 20 -11.5 31.5t-31.5 11.5q-33 0 -59 -30.5t-35 -80.5l-30 -169h-97l59 336h90l-9 -71h2q44 78 122 78q46 0 71 -24.5t25 -68.5q0 -19 -3 -38l-37 -212h-96z" />
    <glyph glyph-name="zero.subs" unicode="&#x2080;" horiz-adv-x="472" 
d="M178 -168q-80 0 -124 46t-44 128q0 130 62.5 208t163.5 78q80 0 124 -46t44 -128q0 -130 -62.5 -208t-163.5 -78zM181 -112q45 0 78.5 71.5t33.5 181.5q0 95 -60 95q-45 0 -78.5 -71.5t-33.5 -181.5q0 -95 60 -95z" />
    <glyph glyph-name="one.subs" unicode="&#x2081;" horiz-adv-x="316" 
d="M55 -160l65 365l-111 -39l15 59l155 57h62l-78 -442h-108z" />
    <glyph glyph-name="two.subs" unicode="&#x2082;" horiz-adv-x="398" 
d="M-51 -160l6 33l86 74q108 93 141.5 137.5t33.5 85.5q0 27 -17 43t-45 16q-54 0 -99 -36h-11l17 63q55 34 126 34q65 0 103 -30.5t38 -80.5q0 -58 -42 -104t-152 -126l-26 -19l-1 -3h104q71 0 103 7h9l-56 -94h-318z" />
    <glyph glyph-name="three.subs" unicode="&#x2083;" horiz-adv-x="373" 
d="M180 -16q0 30 -24 48.5t-64 18.5h-17l12 51h20q48 0 75 20t27 59q0 24 -16 38.5t-44 14.5q-44 0 -88 -28h-11l17 61q49 23 109 23q61 0 96 -26t35 -75q0 -79 -85 -109l-1 -4q60 -26 60 -93q0 -71 -52.5 -111t-134.5 -40q-75 0 -130 31l3 68h11q42 -37 108 -37
q45 0 69.5 24t24.5 66z" />
    <glyph glyph-name="four.subs" unicode="&#x2084;" horiz-adv-x="418" 
d="M359 20l-21 -67h-57l-20 -113h-104l20 113h-212l8 44l276 285h90l-46 -262h66zM60 20h129l29 166h-6l-151 -160z" />
    <glyph glyph-name="five.subs" unicode="&#x2085;" horiz-adv-x="390" 
d="M109 -168q-76 0 -127 31l4 68h12q40 -37 100 -37q47 0 75 25t28 74q0 31 -18.5 49.5t-49.5 18.5q-36 0 -64 -20l-49 9l76 232h232l-23 -83h-162l-30 -88q27 9 54 9q68 0 105.5 -33t37.5 -90q0 -78 -56 -121.5t-145 -43.5z" />
    <glyph glyph-name="six.subs" unicode="&#x2086;" horiz-adv-x="430" 
d="M162 -168q-76 0 -118.5 35.5t-42.5 102.5q0 118 94 212t222 108l36 -46q-71 -14 -133 -55.5t-84 -99.5l2 -1q31 29 79 29q59 0 95.5 -33t36.5 -85q0 -71 -53.5 -119t-133.5 -48zM167 -114q32 0 51.5 33.5t19.5 83.5q0 62 -52 62q-32 0 -52.5 -33.5t-20.5 -82.5
q0 -30 15 -46.5t39 -16.5z" />
    <glyph glyph-name="seven.subs" unicode="&#x2087;" horiz-adv-x="402" 
d="M-5 -160q30 43 121 169t140 198h-224l23 75h329l-4 -21q-230 -345 -277 -421h-108z" />
    <glyph glyph-name="eight.subs" unicode="&#x2088;" horiz-adv-x="434" 
d="M155 -168q-70 0 -110.5 30.5t-40.5 78.5q0 83 117 134l1 2q-56 40 -56 99q0 50 42 82t117 32q64 0 100.5 -26t36.5 -66q0 -68 -92 -106v-2q81 -49 81 -118q0 -63 -53.5 -101.5t-142.5 -38.5zM220 120q63 25 63 74q0 21 -16 34t-38 13q-25 0 -43 -16.5t-18 -41.5
q0 -33 52 -63zM162 -115q33 0 56.5 19t23.5 53q0 51 -72 86q-82 -35 -82 -97q0 -25 21.5 -43t52.5 -18z" />
    <glyph glyph-name="nine.subs" unicode="&#x2089;" horiz-adv-x="429" 
d="M57 -168l-36 49q173 39 215 153h-3q-29 -25 -79 -25q-58 0 -92.5 33t-34.5 84q0 77 52 120.5t136 43.5q72 0 115 -36.5t43 -100.5q0 -121 -93 -213.5t-223 -107.5zM188 65q33 0 53 32t20 78q0 30 -14 46t-38 16q-31 0 -51 -32t-20 -81q0 -26 14 -42.5t36 -16.5z" />
    <glyph glyph-name="uni2099" unicode="&#x2099;" horiz-adv-x="424" 
d="M237 0l36 203q4 22 4 34q0 20 -11.5 31.5t-31.5 11.5q-33 0 -59 -30.5t-35 -80.5l-30 -169h-97l59 336h90l-9 -71h2q44 78 122 78q46 0 71 -24.5t25 -68.5q0 -18 -3 -38l-37 -212h-96z" />
    <glyph glyph-name="Euro" unicode="&#x20ac;" horiz-adv-x="680" 
d="M519 692q101 0 155 -42l-1 -82h-14q-49 52 -139 52q-83 0 -145.5 -47.5t-95.5 -129.5h272l-19 -54h-270q-10 -40 -11 -80h265l-19 -54h-246q7 -89 57.5 -138.5t133.5 -49.5q96 0 178 56h14l-40 -88q-74 -48 -181 -48q-127 0 -211 71.5t-93 196.5h-83l19 54h64q2 43 12 80
h-60l19 54h58q45 115 147.5 182t233.5 67z" />
    <glyph glyph-name="uni20B9" unicode="&#x20b9;" horiz-adv-x="561" 
d="M588 680l-20 -54h-178q45 -42 45 -111h124l-20 -54h-110q-27 -111 -177 -156l-1 -4q66 -133 205 -296l-1 -5h-163q-101 144 -164 293h-56l9 54h73q120 18 145 114h-198l10 54h194q0 56 -30 83.5t-83 27.5h-62l10 54h448z" />
    <glyph glyph-name="uni20BA" unicode="&#x20ba;" horiz-adv-x="629" 
d="M475 329h133q-29 -167 -126.5 -248t-267.5 -81h-129l46 262l-92 -36l11 60l92 35l15 85l-93 -36l11 60l92 36l38 214h133l-28 -159l206 79l-11 -60l-206 -79l-15 -85l207 80l-11 -60l-206 -80l-43 -241h14q84 0 146.5 68t83.5 186z" />
    <glyph glyph-name="uni20BC" unicode="&#x20bc;" horiz-adv-x="789" 
d="M515 549q92 -20 144 -93.5t52 -205.5q0 -104 -31 -249h-135q37 181 37 286q0 147 -81 184l-69 -391h-133l70 396q-86 -29 -132 -144t-75 -331h-135q15 125 39.5 216.5t65.5 166t103.5 117t147.5 53.5l22 126h133z" />
    <glyph glyph-name="uni2113" unicode="&#x2113;" horiz-adv-x="500" 
d="M253 271l-24 -138q-2 -9 -2 -23q0 -49 48 -49q19 0 53.5 13t59.5 31l8 -52q-88 -67 -175 -67q-116 0 -116 105q0 22 4 42l8 45l-66 -49l-37 52l117 86l46 256q16 90 68.5 144t125.5 54q57 0 88 -30.5t31 -84.5q0 -90 -63.5 -171t-173.5 -164zM269 358q52 46 88.5 120
t36.5 133q0 48 -32 48q-40 0 -54 -76z" />
    <glyph glyph-name="uni2117" unicode="&#x2117;" horiz-adv-x="797" 
d="M778 346q0 -151 -103 -256t-257 -105q-153 0 -257 104.5t-104 256.5q0 153 104 256.5t257 103.5q151 0 255.5 -104t104.5 -256zM418 36q130 0 217 90t87 220t-88.5 219.5t-216.5 89.5q-130 0 -217 -89.5t-87 -219.5q0 -129 86 -219.5t219 -90.5zM439 542q152 0 152 -124
q0 -59 -41 -91.5t-113 -32.5h-52v-141h-94v389h148zM425 345q71 0 71 74q0 37 -17 54t-54 17h-40v-145h40z" />
    <glyph glyph-name="trademark" unicode="&#x2122;" horiz-adv-x="667" 
d="M90 636v44h198v-44h-67v-228h-67v228h-64zM495 512h3l74 168h82l29 -272h-73l-19 206h-4l-84 -189h-33l-84 189h-4l-18 -206h-52l29 272h82z" />
    <glyph glyph-name="uni2126" unicode="&#x2126;" horiz-adv-x="823" 
d="M762 370q0 -177 -170 -272v-5h184v-93h-278v88q69 51 94 114t25 162q0 107 -56 183t-148 76q-93 0 -149 -74.5t-56 -184.5q0 -101 21.5 -162t97.5 -114v-88h-280v93h180v5q-165 89 -165 272q0 139 102 230.5t249 91.5q149 0 249 -91.5t100 -230.5z" />
    <glyph glyph-name="estimated" unicode="&#x212e;" horiz-adv-x="904" 
d="M472 -9q-184 0 -293 102.5t-109 250.5q0 72 28 138.5t78 118t127 82.5t169 31q89 0 159.5 -22.5t115 -58.5t74 -86t41.5 -100.5t12 -104.5h-652q-5 0 -5 -6v-184q0 -22 7 -30q89 -105 247 -105q79 0 140 29.5t121 83.5h70q-61 -73 -135 -106t-195 -33zM222 363h498
q7 0 7 7v189q0 9 -12 26q-75 105 -247 105q-154 0 -242 -103q-9 -11 -9 -28v-189q0 -7 5 -7z" />
    <glyph glyph-name="oneeighth" unicode="&#x215b;" horiz-adv-x="909" 
d="M643 705l47 -32l-512 -699l-46 32zM125 238l65 365l-111 -39l15 59l155 57h62l-78 -442h-108zM658 -8q-70 0 -110.5 30.5t-40.5 78.5q0 83 117 134l1 2q-56 40 -56 99q0 50 42 82t117 32q64 0 100.5 -26t36.5 -66q0 -68 -92 -106v-2q81 -49 81 -118q0 -63 -53.5 -101.5
t-142.5 -38.5zM723 280q63 25 63 74q0 21 -16 34t-38 13q-25 0 -43 -16.5t-18 -41.5q0 -33 52 -63zM665 45q33 0 56.5 19t23.5 53q0 51 -72 86q-82 -35 -82 -97q0 -25 21.5 -43t52.5 -18z" />
    <glyph glyph-name="threeeighths" unicode="&#x215c;" horiz-adv-x="976" 
d="M700 705l47 -32l-512 -699l-46 32zM250 382q0 30 -24 48.5t-64 18.5h-17l12 51h20q48 0 75 20t27 59q0 24 -16 38.5t-44 14.5q-44 0 -88 -28h-11l17 61q49 23 109 23q61 0 96 -26t35 -75q0 -79 -85 -109l-1 -4q60 -26 60 -93q0 -71 -52.5 -111t-134.5 -40q-75 0 -130 31
l3 68h11q42 -37 108 -37q45 0 69.5 24t24.5 66zM715 -8q-70 0 -110.5 30.5t-40.5 78.5q0 83 117 134l1 2q-56 40 -56 99q0 50 42 82t117 32q64 0 100.5 -26t36.5 -66q0 -68 -92 -106v-2q81 -49 81 -118q0 -63 -53.5 -101.5t-142.5 -38.5zM780 280q63 25 63 74q0 21 -16 34
t-38 13q-25 0 -43 -16.5t-18 -41.5q0 -33 52 -63zM722 45q33 0 56.5 19t23.5 53q0 51 -72 86q-82 -35 -82 -97q0 -25 21.5 -43t52.5 -18z" />
    <glyph glyph-name="fiveeighths" unicode="&#x215d;" horiz-adv-x="993" 
d="M727 705l47 -32l-512 -699l-46 32zM179 230q-76 0 -127 31l4 68h12q40 -37 100 -37q47 0 75 25t28 74q0 31 -18.5 49.5t-49.5 18.5q-36 0 -64 -20l-49 9l76 232h232l-23 -83h-162l-30 -88q27 9 54 9q68 0 105.5 -33t37.5 -90q0 -78 -56 -121.5t-145 -43.5zM742 -8
q-70 0 -110.5 30.5t-40.5 78.5q0 83 117 134l1 2q-56 40 -56 99q0 50 42 82t117 32q64 0 100.5 -26t36.5 -66q0 -68 -92 -106v-2q81 -49 81 -118q0 -63 -53.5 -101.5t-142.5 -38.5zM807 280q63 25 63 74q0 21 -16 34t-38 13q-25 0 -43 -16.5t-18 -41.5q0 -33 52 -63zM749 45
q33 0 56.5 19t23.5 53q0 51 -72 86q-82 -35 -82 -97q0 -25 21.5 -43t52.5 -18z" />
    <glyph glyph-name="seveneighths" unicode="&#x215e;" horiz-adv-x="907" 
d="M649 705l47 -32l-512 -699l-46 32zM65 238q30 43 121 169t140 198h-224l23 75h329l-4 -21q-230 -345 -277 -421h-108zM664 -8q-70 0 -110.5 30.5t-40.5 78.5q0 83 117 134l1 2q-56 40 -56 99q0 50 42 82t117 32q64 0 100.5 -26t36.5 -66q0 -68 -92 -106v-2
q81 -49 81 -118q0 -63 -53.5 -101.5t-142.5 -38.5zM729 280q63 25 63 74q0 21 -16 34t-38 13q-25 0 -43 -16.5t-18 -41.5q0 -33 52 -63zM671 45q33 0 56.5 19t23.5 53q0 51 -72 86q-82 -35 -82 -97q0 -25 21.5 -43t52.5 -18z" />
    <glyph glyph-name="partialdiff" unicode="&#x2202;" 
d="M286 721q88 0 148 -51t85.5 -130t25.5 -181q0 -179 -61 -275.5t-181 -96.5q-95 0 -154.5 65.5t-59.5 164.5q0 95 58 157.5t149 62.5q76 0 141 -59q-2 115 -37.5 185.5t-109.5 70.5q-56 0 -114 -51l-60 69q78 69 170 69zM305 71q115 0 129 214q-56 68 -122 68
q-53 0 -85 -40t-32 -102q0 -58 29 -99t81 -41z" />
    <glyph glyph-name="uni2206" unicode="&#x2206;" horiz-adv-x="681" 
d="M23 0v44l268 626l110 13l257 -639v-44h-635zM125 73h379l-182 473h-5z" />
    <glyph glyph-name="product" unicode="&#x220f;" horiz-adv-x="735" 
d="M681 786v-1000h-111v893h-378v-893h-112v1000h601z" />
    <glyph glyph-name="summation" unicode="&#x2211;" 
d="M576 786v-107h-391l267 -387l-285 -399h421v-107h-563v93l295 412l-283 402v93h539z" />
    <glyph glyph-name="minus" unicode="&#x2212;" 
d="M545 296v-88h-488v88h488z" />
    <glyph glyph-name="uni2215" unicode="&#x2215;" horiz-adv-x="159" 
d="M327 705l47 -32l-512 -699l-46 32z" />
    <glyph glyph-name="uni2219" unicode="&#x2219;" horiz-adv-x="319" 
d="M107 367h149l-26 -147h-149z" />
    <glyph glyph-name="radical" unicode="&#x221a;" 
d="M591 786l-209 -1000h-103l-148 314l-49 -24l-42 88l148 69l124 -277l165 830h114z" />
    <glyph glyph-name="infinity" unicode="&#x221e;" horiz-adv-x="813" 
d="M761 264q0 -81 -45.5 -133t-121.5 -52q-93 0 -187 114q-54 -60 -95.5 -86t-89.5 -26q-78 0 -124 51.5t-46 129.5q0 80 45.5 130.5t120.5 50.5q50 0 93 -26.5t96 -92.5q47 61 91.5 90.5t95.5 29.5q76 0 121.5 -51t45.5 -129zM595 178q33 0 53.5 23.5t20.5 59.5
q0 38 -20.5 61.5t-56.5 23.5q-54 0 -128 -87q72 -81 131 -81zM220 178q59 0 129 81q-77 86 -131 86q-33 0 -53.5 -24.5t-20.5 -59.5q0 -37 20.5 -60t55.5 -23z" />
    <glyph glyph-name="integral" unicode="&#x222b;" 
d="M503 712q0 -24 -15 -39.5t-38 -15.5q-19 0 -29 11t-19 33q-11 28 -21 28q-22 0 -22 -56q0 -11 2 -69.5t2 -76.5v-501q0 -121 -36 -180t-113 -59q-39 0 -70.5 20.5t-31.5 55.5q0 22 16 35.5t37 13.5q17 0 27.5 -10t19.5 -36q8 -25 19 -25q22 0 22 59q0 5 -2.5 56t-2.5 63
v527q0 142 42 192q39 47 110 47q40 0 71.5 -19.5t31.5 -53.5z" />
    <glyph glyph-name="approxequal" unicode="&#x2248;" 
d="M306 396q78 -34 111 -34q54 0 64 67h72q-7 -74 -43.5 -113t-97.5 -39q-39 0 -120 33q-72 33 -108 33q-54 0 -64 -66h-72q7 73 43 112t97 39q40 0 118 -32zM311 185q76 -31 106 -31q54 0 64 66h72q-7 -74 -43.5 -112.5t-97.5 -38.5q-43 0 -121 34q-70 32 -108 32
q-53 0 -63 -66h-72q7 72 42.5 111.5t97.5 39.5q41 0 123 -35z" />
    <glyph glyph-name="notequal" unicode="&#x2260;" 
d="M483 504l-55 -104h117v-86h-168l-62 -123h230v-86h-278l-75 -142l-73 37l56 105h-118v86h169l61 123h-230v86h278l75 141z" />
    <glyph glyph-name="lessequal" unicode="&#x2264;" 
d="M545 428l-372 -113l372 -113v-92l-489 160v90l489 160v-92zM545 88v-88h-489v88h489z" />
    <glyph glyph-name="greaterequal" unicode="&#x2265;" 
d="M57 520l488 -160v-90l-488 -160v91l372 113l-372 113v93zM545 88v-88h-488v88h488z" />
    <glyph glyph-name="lozenge" unicode="&#x25ca;" 
d="M370 747l176 -391l-176 -391h-100l-175 391l176 391h99zM206 356l114 -281l116 281l-116 280z" />
    <glyph glyph-name="uniFEFF" unicode="&#xfeff;" horiz-adv-x="0" 
 />
    <glyph glyph-name="i.loclTRK" horiz-adv-x="269" 
d="M287 699l-20 -118h-130l20 118h130zM121 480h126l-85 -480h-126z" />
    <glyph glyph-name="zero.lf" horiz-adv-x="655" 
d="M412 692q103 0 154.5 -63.5t51.5 -182.5q0 -115 -39 -218.5t-119 -172.5t-184 -69q-103 0 -154.5 64t-51.5 182q0 114 40 218t120 173t182 69zM400 613q-59 0 -104 -68.5t-64.5 -157.5t-19.5 -175q0 -145 79 -145q45 0 82 40t58 101.5t32.5 128t11.5 127.5q0 149 -75 149
z" />
    <glyph glyph-name="one.lf" horiz-adv-x="438" 
d="M278 0h-131l102 574l-163 -59l27 84l214 81h73z" />
    <glyph glyph-name="two.lf" horiz-adv-x="564" 
d="M-16 0l9 46l131 111q64 54 102.5 90t85.5 86t70 94t23 84q0 44 -23 70t-63 26q-80 0 -157 -60h-10l28 99q89 47 176 47q92 0 143.5 -46.5t51.5 -118.5q0 -48 -18.5 -91t-66.5 -91.5t-81 -76.5t-110 -88q-13 -10 -19 -15l-67 -52l-1 -4h171q120 0 160 6h10l-70 -116h-475z
" />
    <glyph glyph-name="three.lf" horiz-adv-x="538" 
d="M342 214q0 61 -33 87t-104 26h-37l21 77h14q184 0 184 125q0 40 -23.5 62.5t-67.5 22.5q-78 0 -142 -41h-10l23 82q75 38 167 38q83 0 134 -38.5t51 -111.5q0 -57 -33 -101t-92 -67l-1 -6q39 -16 63 -55t24 -88q0 -115 -83.5 -177t-212.5 -62q-52 0 -104.5 14.5
t-82.5 38.5l6 100h10q64 -61 163 -61q64 0 115 35t51 100z" />
    <glyph glyph-name="four.lf" horiz-adv-x="623" 
d="M487 274h100l-32 -92h-84l-32 -182h-132l32 182h-327l14 65l416 433h118zM355 274l47 270h-6l-246 -265l-1 -5h206z" />
    <glyph glyph-name="five.lf" horiz-adv-x="539" 
d="M357 223q0 51 -28.5 85.5t-82.5 34.5q-66 0 -109 -33l-59 14l110 356h353l-33 -110h-258l-53 -157q55 13 89 13q51 0 96.5 -18t78.5 -62.5t33 -109.5q0 -124 -83.5 -186.5t-213.5 -62.5q-50 0 -104.5 14t-88.5 39l8 101h10q70 -64 174 -64q68 0 114.5 39t46.5 107z" />
    <glyph glyph-name="six.lf" horiz-adv-x="610" 
d="M245 383q56 40 133 40q76 0 129 -48t53 -130q0 -113 -80 -185.5t-202 -72.5q-104 0 -163.5 57.5t-59.5 151.5q0 185 140.5 328.5t335.5 168.5l41 -53q-112 -18 -202.5 -89.5t-128.5 -167.5h4zM192 186q0 -49 23 -85.5t71 -36.5q61 0 97.5 50.5t36.5 121.5q0 51 -22 83.5
t-67 32.5q-62 0 -100.5 -49t-38.5 -117z" />
    <glyph glyph-name="seven.lf" horiz-adv-x="580" 
d="M56 0q169 237 399 570h-340l35 110h471l-5 -28q-145 -213 -426 -652h-134z" />
    <glyph glyph-name="eight.lf" horiz-adv-x="606" 
d="M423 384v-2q125 -75 125 -172q0 -72 -43 -124t-107.5 -75.5t-140.5 -23.5q-90 0 -155 43t-65 120q0 139 187 214l1 3q-50 35 -71 66.5t-21 75.5q0 85 75.5 134.5t175.5 49.5q82 0 131.5 -36t49.5 -99q0 -53 -37.5 -98t-104.5 -76zM462 544q0 36 -23 59.5t-62 23.5
q-47 0 -80.5 -25t-33.5 -75q0 -63 94 -111q105 46 105 128zM407 183q0 45 -32 77.5t-92 61.5q-128 -56 -128 -161q0 -43 32.5 -71t79.5 -28q65 0 102.5 32t37.5 89z" />
    <glyph glyph-name="nine.lf" horiz-adv-x="620" 
d="M407 305q-50 -41 -125 -41t-131.5 43t-56.5 123q0 118 77.5 190.5t201.5 72.5q101 0 162 -55t61 -151q0 -187 -139.5 -331.5t-336.5 -168.5l-47 66q121 18 216.5 91.5t121.5 160.5h-4zM462 515q0 46 -27 74t-67 28q-62 0 -97 -53.5t-35 -125.5q0 -46 20.5 -70.5
t57.5 -24.5q59 0 103.5 45.5t44.5 126.5z" />
    <glyph glyph-name="zero.dnom" horiz-adv-x="472" 
d="M206 -8q-80 0 -124 46t-44 128q0 130 62.5 208t163.5 78q80 0 124 -46t44 -128q0 -130 -62.5 -208t-163.5 -78zM209 48q45 0 78.5 71.5t33.5 181.5q0 95 -60 95q-45 0 -78.5 -71.5t-33.5 -181.5q0 -95 60 -95z" />
    <glyph glyph-name="one.dnom" horiz-adv-x="316" 
d="M83 0l65 365l-111 -39l15 59l155 57h62l-78 -442h-108z" />
    <glyph glyph-name="two.dnom" horiz-adv-x="398" 
d="M-23 0l6 33l86 74q108 93 141.5 137.5t33.5 85.5q0 27 -17 43t-45 16q-54 0 -99 -36h-11l17 63q55 34 126 34q65 0 103 -30.5t38 -80.5q0 -58 -42 -104t-152 -126l-26 -19l-1 -3h104q71 0 103 7h9l-56 -94h-318z" />
    <glyph glyph-name="three.dnom" horiz-adv-x="373" 
d="M208 144q0 30 -24 48.5t-64 18.5h-17l12 51h20q48 0 75 20t27 59q0 24 -16 38.5t-44 14.5q-44 0 -88 -28h-11l17 61q49 23 109 23q61 0 96 -26t35 -75q0 -79 -85 -109l-1 -4q60 -26 60 -93q0 -71 -52.5 -111t-134.5 -40q-75 0 -130 31l3 68h11q42 -37 108 -37
q45 0 69.5 24t24.5 66z" />
    <glyph glyph-name="four.dnom" horiz-adv-x="418" 
d="M387 180l-21 -67h-57l-20 -113h-104l20 113h-212l8 44l276 285h90l-46 -262h66zM88 180h129l29 166h-6l-151 -160z" />
    <glyph glyph-name="five.dnom" horiz-adv-x="390" 
d="M137 -8q-76 0 -127 31l4 68h12q40 -37 100 -37q47 0 75 25t28 74q0 31 -18.5 49.5t-49.5 18.5q-36 0 -64 -20l-49 9l76 232h232l-23 -83h-162l-30 -88q27 9 54 9q68 0 105.5 -33t37.5 -90q0 -78 -56 -121.5t-145 -43.5z" />
    <glyph glyph-name="six.dnom" horiz-adv-x="430" 
d="M190 -8q-76 0 -118.5 35.5t-42.5 102.5q0 118 94 212t222 108l36 -46q-71 -14 -133 -55.5t-84 -99.5l2 -1q31 29 79 29q59 0 95.5 -33t36.5 -85q0 -71 -53.5 -119t-133.5 -48zM195 46q32 0 51.5 33.5t19.5 83.5q0 62 -52 62q-32 0 -52.5 -33.5t-20.5 -82.5
q0 -30 15 -46.5t39 -16.5z" />
    <glyph glyph-name="seven.dnom" horiz-adv-x="402" 
d="M23 0q30 43 121 169t140 198h-224l23 75h329l-4 -21q-230 -345 -277 -421h-108z" />
    <glyph glyph-name="eight.dnom" horiz-adv-x="434" 
d="M183 -8q-70 0 -110.5 30.5t-40.5 78.5q0 83 117 134l1 2q-56 40 -56 99q0 50 42 82t117 32q64 0 100.5 -26t36.5 -66q0 -68 -92 -106v-2q81 -49 81 -118q0 -63 -53.5 -101.5t-142.5 -38.5zM248 280q63 25 63 74q0 21 -16 34t-38 13q-25 0 -43 -16.5t-18 -41.5
q0 -33 52 -63zM190 45q33 0 56.5 19t23.5 53q0 51 -72 86q-82 -35 -82 -97q0 -25 21.5 -43t52.5 -18z" />
    <glyph glyph-name="nine.dnom" horiz-adv-x="429" 
d="M85 -8l-36 49q173 39 215 153h-3q-29 -25 -79 -25q-58 0 -92.5 33t-34.5 84q0 77 52 120.5t136 43.5q72 0 115 -36.5t43 -100.5q0 -121 -93 -213.5t-223 -107.5zM216 225q33 0 53 32t20 78q0 30 -14 46t-38 16q-31 0 -51 -32t-20 -81q0 -26 14 -42.5t36 -16.5z" />
    <glyph glyph-name="zero.numr" horiz-adv-x="472" 
d="M248 230q-80 0 -124 46t-44 128q0 130 62.5 208t163.5 78q80 0 124 -46t44 -128q0 -130 -62.5 -208t-163.5 -78zM251 286q45 0 78.5 71.5t33.5 181.5q0 95 -60 95q-45 0 -78.5 -71.5t-33.5 -181.5q0 -95 60 -95z" />
    <glyph glyph-name="one.numr" horiz-adv-x="316" 
d="M125 238l65 365l-111 -39l15 59l155 57h62l-78 -442h-108z" />
    <glyph glyph-name="two.numr" horiz-adv-x="398" 
d="M19 238l6 33l86 74q108 93 141.5 137.5t33.5 85.5q0 27 -17 43t-45 16q-54 0 -99 -36h-11l17 63q55 34 126 34q65 0 103 -30.5t38 -80.5q0 -58 -42 -104t-152 -126l-26 -19l-1 -3h104q71 0 103 7h9l-56 -94h-318z" />
    <glyph glyph-name="three.numr" horiz-adv-x="373" 
d="M250 382q0 30 -24 48.5t-64 18.5h-17l12 51h20q48 0 75 20t27 59q0 24 -16 38.5t-44 14.5q-44 0 -88 -28h-11l17 61q49 23 109 23q61 0 96 -26t35 -75q0 -79 -85 -109l-1 -4q60 -26 60 -93q0 -71 -52.5 -111t-134.5 -40q-75 0 -130 31l3 68h11q42 -37 108 -37
q45 0 69.5 24t24.5 66z" />
    <glyph glyph-name="four.numr" horiz-adv-x="418" 
d="M429 418l-21 -67h-57l-20 -113h-104l20 113h-212l8 44l276 285h90l-46 -262h66zM130 418h129l29 166h-6l-151 -160z" />
    <glyph glyph-name="five.numr" horiz-adv-x="390" 
d="M179 230q-76 0 -127 31l4 68h12q40 -37 100 -37q47 0 75 25t28 74q0 31 -18.5 49.5t-49.5 18.5q-36 0 -64 -20l-49 9l76 232h232l-23 -83h-162l-30 -88q27 9 54 9q68 0 105.5 -33t37.5 -90q0 -78 -56 -121.5t-145 -43.5z" />
    <glyph glyph-name="six.numr" horiz-adv-x="430" 
d="M232 230q-76 0 -118.5 35.5t-42.5 102.5q0 118 94 212t222 108l36 -46q-71 -14 -133 -55.5t-84 -99.5l2 -1q31 29 79 29q59 0 95.5 -33t36.5 -85q0 -71 -53.5 -119t-133.5 -48zM237 284q32 0 51.5 33.5t19.5 83.5q0 62 -52 62q-32 0 -52.5 -33.5t-20.5 -82.5
q0 -30 15 -46.5t39 -16.5z" />
    <glyph glyph-name="seven.numr" horiz-adv-x="402" 
d="M65 238q30 43 121 169t140 198h-224l23 75h329l-4 -21q-230 -345 -277 -421h-108z" />
    <glyph glyph-name="eight.numr" horiz-adv-x="434" 
d="M225 230q-70 0 -110.5 30.5t-40.5 78.5q0 83 117 134l1 2q-56 40 -56 99q0 50 42 82t117 32q64 0 100.5 -26t36.5 -66q0 -68 -92 -106v-2q81 -49 81 -118q0 -63 -53.5 -101.5t-142.5 -38.5zM290 518q63 25 63 74q0 21 -16 34t-38 13q-25 0 -43 -16.5t-18 -41.5
q0 -33 52 -63zM232 283q33 0 56.5 19t23.5 53q0 51 -72 86q-82 -35 -82 -97q0 -25 21.5 -43t52.5 -18z" />
    <glyph glyph-name="nine.numr" horiz-adv-x="429" 
d="M127 230l-36 49q173 39 215 153h-3q-29 -25 -79 -25q-58 0 -92.5 33t-34.5 84q0 77 52 120.5t136 43.5q72 0 115 -36.5t43 -100.5q0 -121 -93 -213.5t-223 -107.5zM258 463q33 0 53 32t20 78q0 30 -14 46t-38 16q-31 0 -51 -32t-20 -81q0 -26 14 -42.5t36 -16.5z" />
    <glyph glyph-name="uni00AD.ss01" horiz-adv-x="404" 
d="M81 396h299l-15 -80h-299z" />
    <glyph glyph-name="endash.ss01" horiz-adv-x="500" 
d="M511 401v-89h-482v89h482z" />
    <glyph glyph-name="emdash.ss01" horiz-adv-x="918" 
d="M838 401v-89h-718v89h718z" />
    <glyph glyph-name="uni2011.ss01" horiz-adv-x="404" 
d="M81 396h299l-15 -80h-299z" />
    <glyph glyph-name="caroncomb.alt" horiz-adv-x="0" 
d="M24 722q-48 -138 -105 -210h-58q39 117 56 210h107z" />
    <glyph glyph-name="uni0308.case" horiz-adv-x="0" 
d="M-48 878l-20 -114h-116l20 114h116zM142 878l-20 -114h-116l20 114h116z" />
    <glyph glyph-name="uni0307.case" horiz-adv-x="0" 
d="M54 878l-20 -118h-130l20 118h130z" />
    <glyph glyph-name="gravecomb.case" horiz-adv-x="0" 
d="M-182 885h128l83 -129h-63z" />
    <glyph glyph-name="acutecomb.case" horiz-adv-x="0" 
d="M134 885l-195 -129h-69l124 129h140z" />
    <glyph glyph-name="uni030B.case" horiz-adv-x="0" 
d="M56 885l-178 -129h-66l116 129h128zM241 885l-178 -129h-66l116 129h128z" />
    <glyph glyph-name="uni0302.case" horiz-adv-x="0" 
d="M44 885l89 -129h-61l-88 66l-114 -66h-66l133 129h107z" />
    <glyph glyph-name="uni030C.case" horiz-adv-x="0" 
d="M-85 756l-89 129h62l88 -66l114 66h65l-133 -129h-107z" />
    <glyph glyph-name="uni0306.case" horiz-adv-x="0" 
d="M-106 885q-1 -31 22 -49.5t61 -18.5q83 0 111 68h58q-40 -134 -179 -134q-70 0 -103 35.5t-28 98.5h58z" />
    <glyph glyph-name="uni030A.case" horiz-adv-x="0" 
d="M-28 730q-51 0 -79 26.5t-28 69.5q0 52 37 89.5t92 37.5q51 0 79 -25.5t28 -67.5q0 -54 -37 -92t-92 -38zM-27 772q33 0 54 26t21 61q0 22 -15 37t-41 15q-32 0 -53 -25t-21 -59q0 -23 15 -39t40 -16z" />
    <glyph glyph-name="tildecomb.case" horiz-adv-x="0" 
d="M98 878q-21 -44 -53 -44q-15 0 -56 25q-37 23 -67 23q-73 0 -112 -116h52q22 46 52 46q15 0 56 -25q37 -23 67 -23q74 0 112 114h-51z" />
    <glyph glyph-name="uni0304.case" horiz-adv-x="0" 
d="M150 854l-12 -64h-329l12 64h329z" />
    </font>
</defs>
</svg>
